<?xml version="1.0" standalone="no"?>
<!DOCTYPE svg PUBLIC "-//W3C//DTD SVG 1.1//EN" "http://www.w3.org/Graphics/SVG/1.1/DTD/svg11.dtd" >
<svg>
<metadata>
Created by FontForge 20090914 at Fri Jul 17 17:25:27 2015
 By www-data
Copyright (c) 2010, Kimberly Geswein (kimberlygeswein.com)
</metadata>
<defs>
<font id="GloriaHallelujah" horiz-adv-x="514" >
  <font-face 
    font-family="Gloria Hallelujah"
    font-weight="400"
    font-stretch="normal"
    units-per-em="1024"
    panose-1="2 0 0 0 0 0 0 0 0 0"
    ascent="819"
    descent="-205"
    x-height="492.999"
    cap-height="728.999"
    bbox="-217 -589.059 1522 1439"
    underline-thickness="51"
    underline-position="-52"
    unicode-range="U+0020-U+FB02"
  />
<missing-glyph horiz-adv-x="461" 
 />
    <glyph glyph-name=".notdef" horiz-adv-x="461" 
 />
    <glyph glyph-name="space" unicode=" " horiz-adv-x="461" 
 />
    <glyph glyph-name="exclam" unicode="!" horiz-adv-x="150" 
d="M97 87c8.66699 0 17.1709 -2.66699 25.5039 -8s13.666 -11.833 15.999 -19.5s0.166016 -16.167 -6.50098 -25.5s-21 -18 -43 -26c-18 2.66699 -30.833 7.16699 -38.5 13.5s-12 13 -13 20s0.666992 14 5 21s9.66602 13 15.999 18s13.166 8.33301 20.499 10
s13.333 0.5 18 -3.5zM22.0039 751c18 16.667 31.999 20.334 41.999 11.001s17.5 -27 22.5 -53s7.83301 -57.167 8.5 -93.5s1.16699 -73.5 1.5 -111.5s1 -74 2 -108s3.83301 -61 8.5 -81c0 -10 -0.666992 -18.667 -2 -26s-3.66602 -13.333 -6.99902 -18
s-8.66602 -8.16699 -15.999 -10.5s-17 -3.5 -29 -3.5c-2 0 -4 1 -6 3s-4 7.83301 -6 17.5s-4 24.667 -6 45s-3.83301 48.833 -5.5 85.5s-3.33398 82.667 -5.00098 138s-2.5 123.666 -2.5 204.999z" />
    <glyph glyph-name="quotedbl" unicode="&#x22;" horiz-adv-x="364" 
d="M20 729c0 4.66699 0.163086 13.168 0.496094 25.501s0.5 25.333 0.5 39s0.166992 26.5 0.5 38.5s0.5 20.667 0.5 26c0.666992 1.33301 3.83398 4.83301 9.50098 10.5l10.5 10.5c1.33301 0 3 0.333008 5 1c1.33301 0 2.5 0.166992 3.5 0.5s1.83301 0.5 2.5 0.5
s1.66699 -0.166992 3 -0.5s2.33301 -0.5 3 -0.5c2 -0.666992 4 -1 6 -1c0.666992 -0.666992 2 -1.83398 4 -3.50098s4.16699 -3.66699 6.5 -6s4.5 -4.66602 6.5 -6.99902s3 -3.83301 3 -4.5c-2.66699 -32.667 -0.5 -63.334 6.5 -92.001s15.167 -55.834 24.5 -81.501
l26 -72.5c8 -22.667 12 -44.667 12 -66c0 -7.33301 -1 -15.5 -3 -24.5s-5.5 -17.333 -10.5 -25s-11 -14 -18 -19s-16.167 -7.5 -27.5 -7.5c-15.333 0 -28.166 5.33301 -38.499 16s-18.166 24.5 -23.499 41.5s-9 35.833 -11 56.5s-3.16699 40.5 -3.5 59.5
s-0.166016 36.333 0.500977 52s1 26.834 1 33.501zM192.996 796.001c0 7.33301 1.33301 14.833 4 22.5s6.16699 14.5 10.5 20.5s9.83301 10.833 16.5 14.5s14 5.5 22 5.5c8.66699 0 16.667 -7.33301 24 -22s14 -33.167 20 -55.5s10.833 -46.5 14.5 -72.5l10 -73
c3 -22.667 5.16699 -41.667 6.5 -57s2 -23.333 2 -24c0 -28.667 -15.667 -43 -47 -43c-11.333 0 -21.333 6.16699 -30 18.5s-16.167 28 -22.5 47s-11.5 40 -15.5 63s-7.16699 45 -9.5 66s-3.83301 39.667 -4.5 56s-1 27.5 -1 33.5z" />
    <glyph glyph-name="numbersign" unicode="#" horiz-adv-x="703" 
d="M211 245c0 6.66699 -1.49707 20.167 -4.49707 40.5s-8.16699 47.5 -15.5 81.5c-42 -12.667 -75.5 -17.834 -100.5 -15.501s-42.5 8.5 -52.5 18.5s-12.667 21.667 -8 35s15.167 24.5 31.5 33.5s38.333 14 66 15s60.167 -5.16699 97.5 -18.5
c2.66699 3.33301 4.83398 10.333 6.50098 21l5.5 37l6.5 44c2.33301 15.333 4.33301 29.333 6 42s3.16699 23.5 4.5 32.5s3 13.5 5 13.5c4 2.66699 10.333 4.66699 19 6s17 2.33301 25 3c10.667 1.33301 21.667 2 33 2l13 -164h75c0 1.33301 0.333008 7 1 17
s1.83398 22.167 3.50098 36.5s4 29.833 7 46.5s6.83301 31.834 11.5 45.501s10.167 25.167 16.5 34.5s14.166 14 23.499 14c2.66699 0 6.66699 -0.166992 12 -0.5s10.333 -1.16602 15 -2.49902s8.83398 -3.5 12.501 -6.5s5.5 -7.5 5.5 -13.5v-150
c7.33301 -2.66699 17.166 -5.33398 29.499 -8.00098s26 -5.16699 41 -7.5s30.167 -4.83301 45.5 -7.5s29.333 -5.66699 42 -9s23 -7.16602 31 -11.499s12 -9.16602 12 -14.499c-4.66699 -14 -14.167 -24.167 -28.5 -30.5s-30.333 -11.333 -48 -15s-35.334 -7 -53.001 -10
s-32 -7.5 -43 -13.5s-17.333 -14.667 -19 -26s5.16602 -27.333 20.499 -48c7.33301 0 16.666 0.666992 27.999 2l35 4c12 1.33301 24 2 36 2s22.667 -1.33301 32 -4s17 -7.33398 23 -14.001s9 -16 9 -28c0 -10.667 -6.5 -19.334 -19.5 -26.001
s-28.167 -12.334 -45.5 -17.001s-34.166 -8.33398 -50.499 -11.001s-28.166 -5 -35.499 -7l7 -43.5c2.66699 -17 3.5 -33.5 2.5 -49.5s-5.16699 -30 -12.5 -42s-20.333 -18 -39 -18c-14 4.66699 -24.167 11.834 -30.5 21.501s-11.333 20.334 -15 32.001
s-6.83398 23 -9.50098 34s-7.33398 20.167 -14.001 27.5s-16.667 11.5 -30 12.5s-32 -2.5 -56 -10.5v-41.5c0 -15.667 -1.5 -30.667 -4.5 -45s-8.83301 -26.333 -17.5 -36s-21.334 -14.5 -38.001 -14.5c-6 0 -12.833 5 -20.5 15s-15.667 22.167 -24 36.5l-25.5 42.5
c-8.66699 14 -17 25.333 -25 34c-40 4 -70.833 8.5 -92.5 13.5s-36.5 10.167 -44.5 15.5s-10.333 10.833 -7 16.5s9.33301 11.167 18 16.5c22 11.333 60.333 23 115 35zM338.003 301c0 -6 1.66797 -10.666 5.00098 -13.999s7.33301 -5.83301 12 -7.5s9.5 -2.66699 14.5 -3
s9.16699 -0.5 12.5 -0.5c5.33301 0 11.666 0.5 18.999 1.5s14.5 2.5 21.5 4.5s13 5.16699 18 9.5s7.5 10.166 7.5 17.499c0 14.667 -3.5 28 -10.5 40s-17.833 18 -32.5 18c-8 0 -16 -1.83301 -24 -5.5s-15.167 -8.66699 -21.5 -15s-11.5 -13.5 -15.5 -21.5s-6 -16 -6 -24z
" />
    <glyph glyph-name="dollar" unicode="$" horiz-adv-x="621" 
d="M60 18c-12 2.66699 -18.9912 8.82812 -20.9912 18.4951s-3 18.834 -3 27.501c-7.33301 9.33301 -8.33301 17.333 -3 24s14.166 11.834 26.499 15.501s27.166 6.16699 44.499 7.5s34.166 1.83301 50.499 1.5s31 -2 44 -5s21.833 -6.16699 26.5 -9.5
c6.66699 42.667 9.83398 78.5 9.50098 107.5s-3 53.333 -8 73s-12.167 35.667 -21.5 48s-19.666 22.666 -30.999 30.999s-23 16 -35 23s-23.5 15 -34.5 24s-20.833 20.167 -29.5 33.5s-15.334 30.666 -20.001 51.999c0 18 4 33.833 12 47.5s18.167 25.5 30.5 35.5
s25.666 18.667 39.999 26l40 21c12.333 6.66699 22.5 13.167 30.5 19.5s12 13.5 12 21.5v172c0 5.33301 3.16699 9.5 9.5 12.5s13.666 5.83301 21.999 8.5s16 4.33398 23 5.00098s11.833 1 14.5 1c0 -32.667 1.5 -66.167 4.5 -100.5s10.833 -67.166 23.5 -98.499
c6 0 17.167 -1 33.5 -3l52 -6.5l52 -6.5c16.333 -2 27.833 -3.33301 34.5 -4c1.33301 -0.666992 4.16602 -2 8.49902 -4s8.66602 -4.33301 12.999 -7s8.5 -5 12.5 -7s6.66699 -3.66699 8 -5c4 -12 6.66699 -23.5 8 -34.5s-3.66699 -19.167 -15 -24.5
s-31.5 -6.33301 -60.5 -3s-70.833 13.666 -125.5 30.999c-7.33301 0 -12.666 -4.33301 -15.999 -13s-5.66602 -18.334 -6.99902 -29.001s-1.83301 -20.5 -1.5 -29.5s0.5 -13.833 0.5 -14.5c0 -2 0.166992 -5.66699 0.5 -11l1 -16l1 -15.5
c0.333008 -5 0.5 -8.83301 0.5 -11.5c7.33301 -1.33301 19.833 -3.16602 37.5 -5.49902s37.5 -5.83301 59.5 -10.5s45 -10.667 69 -18s46.167 -16.166 66.5 -26.499s36.833 -22.666 49.5 -36.999s19 -30.833 19 -49.5c0 -36.667 -8.33301 -69.167 -25 -97.5
s-37.834 -53.5 -63.501 -75.5s-53.667 -42 -84 -60s-59.166 -34.333 -86.499 -49v-32c0 -14.667 1.16699 -29.167 3.5 -43.5s5.16602 -28.666 8.49902 -42.999s6.16602 -28.666 8.49902 -42.999s3.5 -28.833 3.5 -43.5c0 -17.333 -3 -30.5 -9 -39.5s-18.333 -13.5 -37 -13.5
c-8 0 -14 0.5 -18 1.5s-7.33301 3 -10 6s-4.83398 7.5 -6.50098 13.5s-4.16699 14 -7.5 24c-2 6.66699 -5.16699 18 -9.5 34l-13.5 51.5c-4.66699 18.333 -8.83398 35.5 -12.501 51.5s-5.83398 27.333 -6.50098 34zM312.009 344.994c0 -38 2.16406 -74.832 6.49707 -110.499
s10.833 -71.834 19.5 -108.501h10c16 0 33.333 4.16699 52 12.5s36.334 19.333 53.001 33s30.5 28.667 41.5 45s16.5 32.5 16.5 48.5c0 23.333 -7.16699 40.5 -21.5 51.5s-31.666 18.667 -51.999 23s-42.166 6.33301 -65.499 6s-43.333 -0.5 -60 -0.5zM143.006 491.995
c0 -20 6.16699 -33.665 18.5 -40.998s28.166 -11 47.499 -11v97c-7.33301 0 -14.833 -0.666992 -22.5 -2s-14.667 -3.83301 -21 -7.5s-11.666 -8.33398 -15.999 -14.001s-6.5 -12.834 -6.5 -21.501z" />
    <glyph glyph-name="percent" unicode="%" horiz-adv-x="771" 
d="M247 86c6 16 12.6699 42.333 20.0029 79l25.5 125.5c9.66699 47 20.5 96 32.5 147s25.333 98.5 40 142.5s30.667 81.833 48 113.5s36.666 51.167 57.999 58.5c30 0 45 -15.333 45 -46c-1.33301 -12 -4.5 -31.5 -9.5 -58.5s-11.333 -57.833 -19 -92.5
s-16.5 -72.167 -26.5 -112.5s-20.667 -81 -32 -122s-23 -80.667 -35 -119s-24 -72.666 -36 -102.999s-23.667 -55.333 -35 -75s-21.833 -31.334 -31.5 -35.001s-18.334 2 -26.001 17s-13.834 41.833 -18.501 80.5zM448.003 183c0 23.333 6.66797 42.668 20.001 58.001
s29.666 27.666 48.999 36.999s39.833 15.666 61.5 18.999s40.834 5 57.501 5c34.667 0 59.167 -7.16699 73.5 -21.5s21.5 -38.5 21.5 -72.5c0 -51.333 -14.333 -92.166 -43 -122.499s-69.334 -45.5 -122.001 -45.5c-14.667 0 -29.167 4.66699 -43.5 14
s-27 21.166 -38 35.499s-19.833 29.833 -26.5 46.5s-10 32.334 -10 47.001zM647.004 221.002c-24 4 -44.001 6 -60.001 6s-27.333 -3 -34 -9s-8.66699 -15.5 -6 -28.5s11 -30.167 25 -51.5c20.667 -11.333 36.834 -17 48.501 -17s20.167 4.5 25.5 13.5s7.83301 21 7.5 36
s-2.5 31.833 -6.5 50.5zM20.0029 512.002c0 21.333 2.33301 43.5 7 66.5s12.5 44 23.5 63s25.5 34.5 43.5 46.5s40 18 66 18c13.333 0 26 -3.16699 38 -9.5s22.5 -14.833 31.5 -25.5s16.167 -22.5 21.5 -35.5s8 -25.5 8 -37.5c0 -18 -6 -36 -18 -54
s-26.667 -34.167 -44 -48.5s-36 -25.833 -56 -34.5s-38.667 -13 -56 -13c-18 0 -33.333 6 -46 18s-19 27.333 -19 46zM178.003 628.002c-24 4 -44.001 6 -60.001 6s-27.333 -3 -34 -9s-8.66699 -15.5 -6 -28.5s11 -30.5 25 -52.5
c20.667 -11.333 36.834 -16.833 48.501 -16.5s20.167 4.83301 25.5 13.5s7.83301 20.667 7.5 36s-2.5 32.333 -6.5 51z" />
    <glyph glyph-name="ampersand" unicode="&#x26;" horiz-adv-x="751" 
d="M129 160c0 16 1.16309 31.5068 3.49609 46.5068s5 30 8 45s5.66699 30 8 45s3.5 30.5 3.5 46.5c0 2 -0.166992 4.83301 -0.5 8.5s-0.5 8 -0.5 13s-0.166992 9.33301 -0.5 13s-0.5 6.5 -0.5 8.5l-47.5 37.5c-17.667 14.333 -34 30.166 -49 47.499s-27.667 35.833 -38 55.5
s-15.5 40.5 -15.5 62.5c0 32 10.167 61.833 30.5 89.5s45.333 51.834 75 72.501s61.167 37 94.5 49s63.333 18 90 18c39.333 0 65.833 -9 79.5 -27s20.5 -46.333 20.5 -85c0 -26.667 -4.83301 -52.334 -14.5 -77.001s-20.167 -49 -31.5 -73s-21.833 -48.167 -31.5 -72.5
s-14.5 -49.5 -14.5 -75.5c0 -16.667 6.5 -31.5 19.5 -44.5s28.333 -24.167 46 -33.5s35.667 -16.5 54 -21.5s32.833 -7.5 43.5 -7.5h11c0 2 2.66699 11.167 8 27.5s12.833 33.666 22.5 51.999s20.834 34.666 33.501 48.999s27 21.166 43 20.499
c4.66699 -6.66699 8.5 -12.334 11.5 -17.001s5.33301 -9.33398 7 -14.001s2.83398 -9.5 3.50098 -14.5s1 -11.167 1 -18.5c0 -10 -1.33301 -19.833 -4 -29.5s-5.5 -19.334 -8.5 -29.001s-5.83301 -19.334 -8.5 -29.001s-4 -19.834 -4 -30.501
c0 -1.33301 0.166992 -3.5 0.5 -6.5s0.5 -6.16699 0.5 -9.5s0.166992 -6.66602 0.5 -9.99902s0.5 -5.33301 0.5 -6l53 -16.5c16.667 -5 31 -11.167 43 -18.5s21.5 -17.166 28.5 -29.499s10.5 -28.833 10.5 -49.5c-12.667 -12.667 -26.5 -18.667 -41.5 -18
s-31.333 4.66699 -49 12s-36.834 16.333 -57.501 27s-42.334 20 -65.001 28c-12.667 0 -25.5 -4.16699 -38.5 -12.5s-26.667 -18.833 -41 -31.5s-29.166 -26.5 -44.499 -41.5s-31.166 -28.833 -47.499 -41.5s-33.166 -23.167 -50.499 -31.5s-35.333 -12.5 -54 -12.5
c-21.333 -0 -38.166 5.33301 -50.499 16s-22 24.167 -29 40.5s-11.5 33.833 -13.5 52.5s-3 35.667 -3 51zM211.996 158.007c0 -5.33301 0.333984 -11.1699 1.00098 -17.5029s2 -11.833 4 -16.5s5.33301 -8.66699 10 -12s11 -5 19 -5c14 0 28.833 3.66699 44.5 11
s31 16.333 46 27s28.667 22.334 41 35.001s22.5 24.334 30.5 35.001l-4 4l-6.5 6.5c-2.33301 2.33301 -4.66602 4.5 -6.99902 6.5s-3.83301 3.33301 -4.5 4c-4.66699 2.66699 -12.334 7.33398 -23.001 14.001l-33 20.5l-32 19l-20 11.5h-4
c-1.33301 0 -2.5 0.166992 -3.5 0.5s-1.83301 0.5 -2.5 0.5c-14 0 -24.667 -5.5 -32 -16.5s-12.833 -24.333 -16.5 -40s-5.83398 -31.5 -6.50098 -47.5s-1 -29.333 -1 -40zM83.9971 577.003l0.000976562 -5.99902c0 -2 0.333008 -4 1 -6v-7l108 -108
c22 14 40.667 32.167 56 54.5s27.833 46.5 37.5 72.5s16.834 52.833 21.501 80.5s7 53.5 7 77.5c-22.667 0 -47.334 -3.33301 -74.001 -10s-51.834 -16.334 -75.501 -29.001s-43.167 -29 -58.5 -49s-23 -43.333 -23 -70z" />
    <glyph glyph-name="quotesingle" unicode="'" horiz-adv-x="150" 
d="M22 664c0 2 0.665039 5.00293 1.99805 9.00293s3.16602 8.33301 5.49902 13s4.66602 9 6.99902 13s4.16602 6.66699 5.49902 8c1.33301 0 3 0.333008 5 1c1.33301 0 2.5 0.166992 3.5 0.5s1.83301 0.5 2.5 0.5c12.667 0 23.834 -4.33301 33.501 -13
s17.834 -19.334 24.501 -32.001s11.5 -25.834 14.5 -39.501s4.5 -25.5 4.5 -35.5c0 -6.66699 -1 -15.834 -3 -27.501s-5.16699 -22.5 -9.5 -32.5s-10 -18.833 -17 -26.5s-15.5 -11.5 -25.5 -11.5c-11.333 0 -20.166 7.5 -26.499 22.5s-11.666 32.333 -15.999 52
s-7.16602 39 -8.49902 58s-2 32.5 -2 40.5z" />
    <glyph glyph-name="parenleft" unicode="(" horiz-adv-x="343" 
d="M20 402c0 12 1.33008 28.332 3.99707 48.999s6.83398 43.167 12.501 67.5s13 49.166 22 74.499s19.5 48.166 31.5 68.499s25.667 37 41 50s32.666 19.5 51.999 19.5c0.666992 0 1.33398 -0.166992 2.00098 -0.5s1.66699 -0.5 3 -0.5c1.33301 -0.666992 3 -1 5 -1
c2 -0.666992 5.5 -2 10.5 -4s9.66699 -4.16699 14 -6.5s8.33301 -4.66602 12 -6.99902s5.83398 -4.16602 6.50098 -5.49902c0 -0.666992 0.333008 -1.66699 1 -3c0 -1.33301 0.166992 -2.5 0.5 -3.5s0.5 -1.83301 0.5 -2.5c0 -23.333 -7 -46.333 -21 -69
s-29.167 -46 -45.5 -70s-31.5 -49.333 -45.5 -76s-21 -55.334 -21 -86.001c0 -41.333 5.66699 -77.833 17 -109.5s26.5 -61 45.5 -88s41.667 -52.833 68 -77.5l85.5 -78c0 -1.33301 0.333008 -3.16602 1 -5.49902s1 -4.16602 1 -5.49902c0 -12.667 -4.66699 -21.5 -14 -26.5
s-19.666 -7.5 -30.999 -7.5c-30 0 -57.167 6.83301 -81.5 20.5s-46 31.5 -65 53.5s-35.667 47.167 -50 75.5s-26 57.5 -35 87.5s-15.667 59.5 -20 88.5s-6.5 55.167 -6.5 78.5z" />
    <glyph glyph-name="parenright" unicode=")" horiz-adv-x="364" 
d="M126 43c0 27.333 5.83496 53.001 17.502 77.001s24.334 48.167 38.001 72.5s26.5 49.666 38.5 75.999s18 54.833 18 85.5c0 27.333 -4 51.666 -12 72.999s-18.5 40.333 -31.5 57s-27.833 32 -44.5 46l-51.5 41.5c-17.667 13.667 -35 27.834 -52 42.501
s-32.5 31.334 -46.5 50.001c2 6.66699 4.83301 11.667 8.5 15s8.16699 5.66602 13.5 6.99902s10.666 2 15.999 2h15c42.667 0 80.667 -11 114 -33s61.5 -50.167 84.5 -84.5s40.667 -71.666 53 -111.999s18.5 -78.833 18.5 -115.5c0 -14.667 -1.33301 -33.167 -4 -55.5
s-6.83398 -46.333 -12.501 -72s-12.834 -51.334 -21.501 -77.001s-19 -48.834 -31 -69.501s-25.833 -37.667 -41.5 -51s-33.167 -20 -52.5 -20c-12 0 -20.667 4.83301 -26 14.5s-8 19.834 -8 30.501z" />
    <glyph glyph-name="asterisk" unicode="*" horiz-adv-x="535" 
d="M174 292c0 0.666992 -0.665039 2.33984 -1.99805 5.00684c-0.666992 1.33301 -1 2.66602 -1 3.99902l-8.5 5.5c-3.66699 2.33301 -7.83398 4.66602 -12.501 6.99902s-9 4.16602 -13 5.49902s-6.66699 2 -8 2c-2 0 -6.16699 -1 -12.5 -3l-20.5 -6.5
c-7.33301 -2.33301 -14 -4.66602 -20 -6.99902s-9.66699 -3.5 -11 -3.5s-5 -0.5 -11 -1.5s-10.667 -1.5 -14 -1.5c-9.33301 0 -18.333 2.5 -27 7.5s-13 13.833 -13 26.5c0 18.667 5.16699 34 15.5 46s23 21.5 38 28.5s31.333 12 49 15s33.5 5.16699 47.5 6.5l-13.5 26
l-20 39l-19.5 39.5c-6 12.333 -10 20.833 -12 25.5c0 1.33301 -0.166992 4.33301 -0.5 9s-0.5 8.66699 -0.5 12c0 2.66699 0.166992 6.5 0.5 11.5s1.16602 9.66699 2.49902 14s3.5 8.16602 6.5 11.499s7.5 5 13.5 5c2 0 4.83301 -0.833008 8.5 -2.5l13 -6l13.5 -6.5
c4 -2 6.66699 -4 8 -6c4 -4 10.167 -12 18.5 -24l26 -38.5l25 -39l16.5 -26.5c12.667 15.333 25.167 29.666 37.5 42.999s25.5 25.166 39.5 35.499s29.167 18.333 45.5 24s34.833 8.5 55.5 8.5c0 -16.667 -3.83301 -31 -11.5 -43s-16 -23.5 -25 -34.5
s-17.333 -22.333 -25 -34s-11.5 -26.167 -11.5 -43.5c0 -2 0.333008 -5.66699 1 -11s1 -8.33301 1 -9c10.667 -0.666992 24.5 -1 41.5 -1s33.833 -1.83301 50.5 -5.5s30.834 -9.83398 42.501 -18.501s17.5 -22 17.5 -40c0 -16 -3.5 -27 -10.5 -33
s-15.833 -9.33301 -26.5 -10s-22.334 0 -35.001 2s-24.667 3.16699 -36 3.5s-21 -1.16699 -29 -4.5s-13 -11 -15 -23c1.33301 -2.66699 3.66602 -8.5 6.99902 -17.5s7.66602 -19.5 12.999 -31.5s10.833 -25.5 16.5 -40.5s10.667 -29.167 15 -42.5s7.83301 -25.333 10.5 -36
s3.66699 -19 3 -25c0 -0.666992 -1.66699 -3 -5 -7s-7.5 -8.33301 -12.5 -13l-14.5 -13c-4.66699 -4 -8.66699 -7 -12 -9c-2 -0.666992 -3.66699 -1.33398 -5 -2.00098c-2 -0.666992 -3.66699 -1 -5 -1c-16 0 -28.667 6.83301 -38 20.5s-17.166 30 -23.499 49
s-12.166 38.333 -17.499 58s-11.333 35.5 -18 47.5c-14 -22.667 -24 -45.667 -30 -69s-13 -44.666 -21 -63.999s-19.667 -35 -35 -47s-39.333 -18 -72 -18c0 23.333 2.5 46 7.5 68s11.333 43.667 19 65l23.5 64c8 21.333 15.333 42.666 22 63.999c0 2 0.333008 3.66699 1 5
c1.33301 4 2 7 2 9z" />
    <glyph glyph-name="plus" unicode="+" 
d="M22 278c-2.66699 0 -6.66406 3.00195 -11.9971 9.00195s-8.66602 10.667 -9.99902 14c-0.666992 0.666992 -1 2 -1 4c-0.666992 1.33301 -1 3 -1 5c0 2.66699 0.333008 5 1 7c0 1.33301 0.333008 2.66602 1 3.99902c2.66699 4 6.66699 8.66699 12 14s8.66602 8 9.99902 8
h214c4 34.667 9.5 70.5 16.5 107.5s15.5 72.833 25.5 107.5h12h11l11 -5.5c4.66699 -2.33301 9.33398 -4.5 14.001 -6.5s8.66699 -4.16699 12 -6.5s5 -3.83301 5 -4.5v-200c11.333 0 25.666 1.83301 42.999 5.5s34.166 5.66699 50.499 6s30.166 -2.66699 41.499 -9
s17 -19.5 17 -39.5c0 -11.333 -3.83301 -20 -11.5 -26s-17.167 -10.5 -28.5 -13.5s-23.333 -5 -36 -6s-24.834 -2.66699 -36.501 -5s-21.167 -6 -28.5 -11s-11 -12.167 -11 -21.5c0 -16 3.5 -31 10.5 -45s14.667 -27.667 23 -41s15.833 -27 22.5 -41s10 -29 10 -45
c0 -30 -15 -45 -45 -45c-14 0 -26.667 4.16699 -38 12.5s-21.5 19.5 -30.5 33.5s-17 29.667 -24 47s-13 34.833 -18 52.5s-8.83301 34.667 -11.5 51s-4.66699 30.166 -6 41.499z" />
    <glyph glyph-name="comma" unicode="," horiz-adv-x="232" 
d="M157 152c7.33301 0 13.5 -1.66602 18.5 -4.99902s8.5 -7.5 10.5 -12.5s3.33301 -10.667 4 -17s1 -12.5 1 -18.5c0 -14 -1.5 -30.5 -4.5 -49.5s-7.5 -38.833 -13.5 -59.5s-13.5 -41.167 -22.5 -61.5s-19.5 -38.333 -31.5 -54s-25.5 -28.334 -40.5 -38.001
s-31.5 -14.5 -49.5 -14.5c0 14 1.5 32 4.5 54s7.33301 45.333 13 70s12.5 49.167 20.5 73.5s16.667 46.333 26 66s19.333 35.667 30 48s22 18.5 34 18.5z" />
    <glyph glyph-name="hyphen" unicode="-" 
d="M76 325c0 2 0.333984 5.82812 1.00098 11.4951s1 8.83398 1 9.50098c10.667 0 25.167 0.833008 43.5 2.5s38.5 3.33398 60.5 5.00098s44.833 3.5 68.5 5.5s46.167 3.33301 67.5 4s41 1 59 1s32 -1 42 -3c12 0 20.5 -1.33301 25.5 -4s7.5 -11.667 7.5 -27
c-20 -13.333 -45 -23.166 -75 -29.499s-60.667 -10.833 -92 -13.5s-61.833 -4 -91.5 -4s-53.834 -0.333008 -72.501 -1c-18 -1.33301 -30 2.33398 -36 11.001s-9 19.334 -9 32.001z" />
    <glyph glyph-name="period" unicode="." horiz-adv-x="227" 
d="M139 81c30 0 45.001 -15.6699 45.001 -47.0029c-7.33301 -19.333 -16.666 -32.166 -27.999 -38.499s-21.833 -8.66602 -31.5 -6.99902s-18.334 6.5 -26.001 14.5s-11.834 17 -12.501 27s3 19.833 11 29.5s22 16.834 42 21.501z" />
    <glyph glyph-name="slash" unicode="/" horiz-adv-x="400" 
d="M41 79c1.33301 4.66699 3.49609 12.999 6.49609 24.999s6 24.833 9 38.5l8.5 38c2.66699 11.667 4.66699 19.834 6 24.501c4.66699 18.667 11.667 44.5 21 77.5s20.833 68.333 34.5 106s29.334 75.667 47.001 114s37.334 72 59.001 101s45.167 51.167 70.5 66.5
s52.666 19 81.999 11c-9.33301 -37.333 -21.166 -72.5 -35.499 -105.5s-29.666 -65.333 -45.999 -97l-50 -94l-49.5 -94.5c-16 -32 -30.5 -65.333 -43.5 -100s-23.167 -71.667 -30.5 -111c-3.33301 -19.333 -9.66602 -30.5 -18.999 -33.5s-20 -2.83301 -32 0.5
c-8.66699 2 -16.667 5 -24 9s-12 12 -14 24z" />
    <glyph glyph-name="zero" unicode="0" horiz-adv-x="600" 
d="M20 377c0 27.333 2.33008 56.335 6.99707 87.002s12 60.667 22 90s22.667 57.333 38 84s33.333 50.167 54 70.5s44.167 36.333 70.5 48s55.833 17.5 88.5 17.5c45.333 0 85.5 -7.33301 120.5 -22s64.333 -35.334 88 -62.001s41.5 -58.5 53.5 -95.5s18 -77.5 18 -121.5
c0 -30.667 -3 -64 -9 -100s-15.5 -71.5 -28.5 -106.5s-29.167 -68.5 -48.5 -100.5s-41.666 -60.333 -66.999 -85s-54.166 -44.334 -86.499 -59.001s-67.166 -22 -104.499 -22c-33.333 0 -61.833 6 -85.5 18s-43.5 28 -59.5 48s-28.667 43.167 -38 69.5
s-16.5 53.333 -21.5 81s-8.16699 55.5 -9.5 83.5s-2 53.667 -2 77zM104.997 332.002c0 -26.667 1.3291 -54.5029 3.99609 -83.5029s9.33398 -55.667 20.001 -80s26 -44.333 46 -60s47.333 -23.5 82 -23.5c28.667 0 54.334 6.83301 77.001 20.5s42.667 31.5 60 53.5
s32.5 46.833 45.5 74.5s23.5 55.834 31.5 84.501s14 56.334 18 83.001s6 50.334 6 71.001c0 30 -2.33301 58.333 -7 85s-13 49.667 -25 69s-28.667 34.5 -50 45.5s-49.666 16.5 -84.999 16.5c-29.333 0 -55.166 -5.66699 -77.499 -17s-41.833 -26.333 -58.5 -45
s-30.5 -40.167 -41.5 -64.5s-19.833 -49.833 -26.5 -76.5s-11.5 -53.167 -14.5 -79.5s-4.5 -50.833 -4.5 -73.5z" />
    <glyph glyph-name="one" unicode="1" horiz-adv-x="236" 
d="M20 643v38.4971c0 17 1.66699 34 5 51s8.66602 31.833 15.999 44.5s18.666 19 33.999 19c8.66699 0 15.834 -7.5 21.501 -22.5s10.334 -33.667 14.001 -56s6.33398 -47 8.00098 -74s3 -52.5 4 -76.5s1.83301 -44.833 2.5 -62.5s1.66699 -28.5 3 -32.5
c2 -10.667 5.83301 -26.667 11.5 -48l18.5 -72.5c6.66699 -27 14 -55.167 22 -84.5l22.5 -84l19.5 -72c6 -21.333 10.667 -36.666 14 -45.999c0 -1.33301 0.333008 -3.33301 1 -6s1 -4.66699 1 -6c0 -7.33301 -2.5 -13.166 -7.5 -17.499s-11 -7.66602 -18 -9.99902
s-14.167 -3.83301 -21.5 -4.5s-14 -1 -20 -1c-2.66699 0 -6.5 0.333008 -11.5 1s-8.16699 1 -9.5 1l-44.5 147.5c-15.667 51.667 -29.834 104.167 -42.501 157.5s-23 106.833 -31 160.5s-12 105.5 -12 155.5z" />
    <glyph glyph-name="two" unicode="2" horiz-adv-x="664" 
d="M212 97c0 36.667 3.50098 72.8389 10.501 108.506s14.833 71.5 23.5 107.5s16.5 72.5 23.5 109.5s10.5 74.5 10.5 112.5c0 5.33301 -0.166992 14.166 -0.5 26.499s-0.5 25.166 -0.5 38.499s-0.166992 26.166 -0.5 38.499s-0.5 20.833 -0.5 25.5
c-1.33301 2.66699 -4.66602 6.66699 -9.99902 12s-9 8.66602 -11 9.99902h-11c-22 0 -40.333 -4.83301 -55 -14.5s-27.167 -21.5 -37.5 -35.5s-19.833 -29.5 -28.5 -46.5s-18.167 -32.5 -28.5 -46.5s-22 -25.833 -35 -35.5s-29.167 -14.5 -48.5 -14.5
c0 35.333 6 69.833 18 103.5s29.167 63.667 51.5 90s49 47.5 80 63.5s65.167 24 102.5 24c16 0 29 -0.666992 39 -2s18.667 -4.33301 26 -9s13.333 -11.5 18 -20.5s10 -21.167 16 -36.5v-28.5c0 -13.667 0.166992 -28.5 0.5 -44.5s0.666016 -31.167 0.999023 -45.5
s0.5 -24.166 0.5 -29.499c0 -35.333 -2 -70 -6 -104s-8.83301 -67.667 -14.5 -101s-10.5 -66.833 -14.5 -100.5s-6 -67.834 -6 -102.501h18l236 107c0.666992 0 2.16699 0.166992 4.5 0.5s5.16602 0.5 8.49902 0.5s6.5 0.166992 9.5 0.5s5.16699 0.5 6.5 0.5
c6 0 12.333 -0.333008 19 -1s12.834 -2 18.501 -4s10.5 -5.33301 14.5 -10s6 -11 6 -19c0 -14 -4.33301 -25 -13 -33s-18.834 -14.333 -30.501 -19s-23.667 -8.66699 -36 -12s-22.5 -7 -30.5 -11c-6 -3.33301 -15.5 -8.33301 -28.5 -15l-45.5 -22.5l-54 -26.5l-53 -27
l-45 -23c-13.333 -6.66699 -23.333 -11.334 -30 -14.001c-1.33301 0 -3.5 -0.166992 -6.5 -0.5s-6.33301 -0.5 -10 -0.5s-7 -0.166992 -10 -0.5s-5.16699 -0.5 -6.5 -0.5c-13.333 0 -23.833 1.5 -31.5 4.5s-13.167 7.66699 -16.5 14s-5.33301 14.166 -6 23.499s-1 21 -1 35z
" />
    <glyph glyph-name="three" unicode="3" horiz-adv-x="579" 
d="M298 43c0 2 0.501953 5.83203 1.50195 11.499s1.5 9.16699 1.5 10.5c16.667 11.333 35 26.166 55 44.499s38.667 38.333 56 60s31.833 44.5 43.5 68.5s17.5 48 17.5 72c0 1.33301 -0.166992 2.66602 -0.5 3.99902s-0.5 2.66602 -0.5 3.99902v3l-13 13.5l-19 19.5
l-19.5 19c-6.33301 6 -10.5 10.333 -12.5 13c-1.33301 0 -3 0.333008 -5 1c-1.33301 0 -2.5 0.166992 -3.5 0.5s-2.16699 0.5 -3.5 0.5c-12.667 0 -27.334 -5.16699 -44.001 -15.5s-33 -22 -49 -35s-30.167 -25.333 -42.5 -37s-20.5 -19.167 -24.5 -22.5
c-1.33301 -0.666992 -3 -1 -5 -1c-1.33301 -0.666992 -3.33301 -1 -6 -1s-4.33398 0.333008 -5.00098 1c-2 0 -3.66699 0.333008 -5 1c-2.66699 1.33301 -6.83398 4.83301 -12.501 10.5s-8.83398 9.83398 -9.50098 12.501v9v11c5.33301 16.667 12.666 37.667 21.999 63
l28 79.5c9.33301 27.667 17.5 55.334 24.5 83.001s10.5 52.5 10.5 74.5c0 16 -0.666992 31.833 -2 47.5s-4.66602 29.834 -9.99902 42.501s-13 22.667 -23 30s-23.667 11 -41 11c-23.333 0 -43.833 -6.5 -61.5 -19.5s-32.667 -29.333 -45 -49s-21.166 -40.667 -26.499 -63
s-6.66602 -43.166 -3.99902 -62.499h-43c-0.666992 0 -2 3.33301 -4 10s-4.16699 14.5 -6.5 23.5s-4.5 18.333 -6.5 28l-5 23.5v21c0 23.333 6.66699 45.5 20 66.5s30 39.5 50 55.5s41.5 28.667 64.5 38s44.5 14 64.5 14c30.667 0 56.167 -5.33301 76.5 -16s37 -25 50 -43
s22.667 -38.667 29 -62s10.5 -47.666 12.5 -72.999s2.33301 -51.166 1 -77.499s-2.66602 -50.833 -3.99902 -73.5c27.333 -4.66699 52.833 -11.334 76.5 -20.001s44.334 -20.167 62.001 -34.5s31.667 -32 42 -53s15.5 -46.5 15.5 -76.5c0 -16.667 -3 -35.667 -9 -57
s-14.5 -43.5 -25.5 -66.5s-23.667 -45.5 -38 -67.5s-29.833 -41.833 -46.5 -59.5s-34.334 -31.834 -53.001 -42.501s-37.334 -16 -56.001 -16c-12.667 0 -21.5 4.5 -26.5 13.5s-7.5 18.833 -7.5 29.5z" />
    <glyph glyph-name="four" unicode="4" horiz-adv-x="621" 
d="M-6 268c0 26 4.66113 57.001 13.9941 93.001s22.5 73.5 39.5 112.5s36.833 77.667 59.5 116s47.334 72.833 74.001 103.5s54.834 55.5 84.501 74.5s59.167 28.5 88.5 28.5c6.66699 0 15.5 -0.166992 26.5 -0.5s21.833 -1.5 32.5 -3.5s20 -5.33301 28 -10
s12 -11.667 12 -21c0 -0.666992 -0.666992 -2.66699 -2 -6c-0.666992 -2 -1 -3.33301 -1 -4c-1.33301 -2.66699 -3.83301 -6.16699 -7.5 -10.5s-7.66699 -8.83301 -12 -13.5s-8.83301 -9 -13.5 -13s-7.66699 -6.66699 -9 -8c0 -4.66699 -0.166992 -13 -0.5 -25
s-0.5 -24.667 -0.5 -38s-0.166992 -26.166 -0.5 -38.499s-0.5 -20.833 -0.5 -25.5c0 -21.333 -0.166992 -41.833 -0.5 -61.5s0.166992 -39.167 1.5 -58.5s3.5 -38.5 6.5 -57.5s7.83301 -38.5 14.5 -58.5c2 0 5 -0.166992 9 -0.5s8.33301 -0.5 13 -0.5s9 -0.166992 13 -0.5
s7 -0.5 9 -0.5c8.66699 0 17.334 0.166992 26.001 0.5s16.834 1.83301 24.501 4.5s14.5 7 20.5 13s11 15 15 27c20.667 -8.66699 33.167 -18.834 37.5 -30.501s6.5 -25.834 6.5 -42.501c0 -20 -4.33301 -35.167 -13 -45.5s-20.167 -17.833 -34.5 -22.5
s-30.666 -7.16699 -48.999 -7.5s-36.833 -0.833008 -55.5 -1.5c2.66699 -6.66699 6 -18.167 10 -34.5l13 -52c4.66699 -18.333 8.83398 -35.5 12.501 -51.5l7.5 -33c0 -1.33301 0.333008 -5 1 -11s1 -10.667 1 -14c0 -18 -5 -29.5 -15 -34.5s-23.667 -7.5 -41 -7.5
c-2 0 -7.16699 0.333008 -15.5 1s-13.5 1 -15.5 1c-1.33301 8 -4 21.167 -8 39.5l-12.5 58c-4.33301 20.333 -8.83301 39.5 -13.5 57.5l-10 38c-2 5.33301 -5 12.333 -9 21s-8.83301 17 -14.5 25s-12 14.833 -19 20.5s-13.833 8.5 -20.5 8.5h-307zM300.994 664.001
c-21.333 -14.667 -43.499 -33.6689 -66.499 -57.002s-44.333 -48.666 -64 -75.999s-35.834 -55.5 -48.501 -84.5s-19 -56.5 -19 -82.5h220c0 20.667 -1 46.167 -3 76.5s-4.16699 60.333 -6.5 90s-5 56.834 -8 81.501s-4.5 42 -4.5 52z" />
    <glyph glyph-name="five" unicode="5" horiz-adv-x="493" 
d="M367 313c0 8 -0.999023 16.3369 -2.99902 25.0039s-5.33301 16.667 -10 24s-10.5 13.5 -17.5 18.5s-15.833 7.5 -26.5 7.5l-1.5 -0.5c-1 -0.333008 -2.16699 -0.5 -3.5 -0.5c-2 -0.666992 -3.33301 -1 -4 -1c-3.33301 -2 -9.5 -5 -18.5 -9s-19.333 -9 -31 -15l-37.5 -19
l-37.5 -18.5c-11.667 -5.66699 -21.834 -10.834 -30.501 -15.501s-14.334 -7.33398 -17.001 -8.00098c-1.33301 -0.666992 -3 -1.33398 -5 -2.00098s-4 -1 -6 -1c-15.333 0 -28.333 7.16699 -39 21.5s-19.667 32.666 -27 54.999s-13 47 -17 74s-7.16699 53.167 -9.5 78.5
s-3.83301 48.5 -4.5 69.5s-1 36.5 -1 46.5c0 4.66699 0.166992 12 0.5 22s0.5 20.833 0.5 32.5s0.166992 22.5 0.5 32.5s0.5 17 0.5 21c16 0.666992 39.5 3.33398 70.5 8.00098l99 14.5c35 5 69.167 9.5 102.5 13.5s60.333 6 81 6c16.667 0 30.5 -3.16699 41.5 -9.5
s16.5 -17.166 16.5 -32.499c0 -16 -3.33301 -26.5 -10 -31.5s-19 -9.5 -37 -13.5c-6.66699 -0.666992 -17.334 -2.33398 -32.001 -5.00098s-31.167 -5.5 -49.5 -8.5l-57.5 -9l-57.5 -8.5l-49.5 -7c-14.667 -2 -25.667 -3.33301 -33 -4c0 -2 -0.166992 -4.83301 -0.5 -8.5
s-0.5 -8 -0.5 -13s-0.166992 -9.33301 -0.5 -13s-0.5 -6.5 -0.5 -8.5c0 -5.33301 0.5 -13.833 1.5 -25.5s2.5 -24.667 4.5 -39s4.5 -29.166 7.5 -44.499s6.5 -29.333 10.5 -42s8.33301 -23 13 -31s10 -12 16 -12c13.333 0 25.833 2.33301 37.5 7s23.334 10 35.001 16
s23.834 11.333 36.501 16s26.667 7 42 7c28 0 51.333 -3.5 70 -10.5s33.334 -17.667 44.001 -32s18.334 -32 23.001 -53s7 -45.5 7 -73.5c0 -31.333 -5.33301 -64.5 -16 -99.5s-25.834 -67.333 -45.501 -97s-43.834 -54.334 -72.501 -74.001s-61.334 -29.5 -98.001 -29.5
c0 21.333 3.66699 40.666 11 57.999s16.333 33.666 27 48.999s22.334 30.333 35.001 45s24.5 29.834 35.5 45.501s20 32.5 27 50.5s10.5 38.333 10.5 61z" />
    <glyph glyph-name="six" unicode="6" horiz-adv-x="472" 
d="M22 85c0 4 -0.164062 10.666 -0.49707 19.999s-0.5 19 -0.5 29s-0.166992 19.5 -0.5 28.5s-0.5 15.833 -0.5 20.5c0 12.667 0.333008 35.167 1 67.5s2.66699 68.833 6 109.5s8.16602 82.834 14.499 126.501s14.833 83.667 25.5 120s23.5 66.166 38.5 89.499
s33.167 35 54.5 35c0.666992 0 1.66699 -0.166992 3 -0.5s2.33301 -0.5 3 -0.5c2 -0.666992 3.66699 -1 5 -1c2.66699 -1.33301 6.66699 -4.66602 12 -9.99902s8.66602 -9.66602 9.99902 -12.999v-9v-11c-1.33301 -4.66699 -3.66602 -14.167 -6.99902 -28.5l-11.5 -50
l-14 -61l-14.5 -61c-4.66699 -19 -8.5 -35.667 -11.5 -50s-5.16699 -23.5 -6.5 -27.5c-0.666992 -2 -0.666992 -4.83301 0 -8.5s1.16699 -7.5 1.5 -11.5s0.833008 -7.66699 1.5 -11s1 -6 1 -8c14 0 27.667 2.16699 41 6.5l41 14c14 5 28 9.5 42 13.5s28.667 6 44 6
c44.667 0 77.5 -12.667 98.5 -38s31.5 -59.666 31.5 -102.999c0 -34 -7.83301 -67.333 -23.5 -100s-36.334 -61.834 -62.001 -87.501s-54.834 -46.334 -87.501 -62.001s-66 -23.5 -100 -23.5c-16.667 0 -31.334 1 -44.001 3s-24.167 6.16699 -34.5 12.5
s-20.166 15.333 -29.499 27s-18.333 27.5 -27 47.5zM126.003 192.999c0 -7.33301 0.666016 -17.166 1.99902 -29.499s4 -24.333 8 -36s9.66699 -21.834 17 -30.501s17 -13 29 -13c16 0 33.5 6 52.5 18s36.5 26.833 52.5 44.5s29.667 36.5 41 56.5s17 38 17 54
c0 12.667 -2.33301 22 -7 28s-10.5 10.333 -17.5 13s-15.333 4 -25 4h-30.5c-18 0 -35.167 -2.16699 -51.5 -6.5s-31.166 -11 -44.499 -20s-23.833 -20.5 -31.5 -34.5s-11.5 -30 -11.5 -48z" />
    <glyph glyph-name="seven" unicode="7" horiz-adv-x="600" 
d="M450 546v11.9971c-3.33301 2 -9.16602 4 -17.499 6l-26 6.5c-9 2.33301 -17.5 4.33301 -25.5 6s-13.667 2.5 -17 2.5c-8.66699 0 -21.834 0.166992 -39.501 0.5s-37.834 0.833008 -60.501 1.5l-71 2l-71 2c-22.667 0.666992 -43 1.16699 -61 1.5s-31 0.5 -39 0.5v56
c0 4.66699 5.83301 8.33398 17.5 11.001s26.334 4.83398 44.001 6.50098s37 2.83398 58 3.50098s40.667 1.16699 59 1.5s33.666 0.5 45.999 0.5h21.5c10 0 24 0.333008 42 1s37.667 0.666992 59 0s43.333 -2.33398 66 -5.00098s43.334 -7.33398 62.001 -14.001
s33.834 -15.5 45.501 -26.5s17.5 -25.167 17.5 -42.5c0 -43.333 -3.16699 -80.5 -9.5 -111.5s-14 -59 -23 -84s-18.333 -48.833 -28 -71.5s-17.834 -46.667 -24.501 -72s-10.667 -53.666 -12 -84.999s1.66699 -68.666 9 -111.999c-8.66699 -17.333 -18 -29.166 -28 -35.499
s-22 -9.5 -36 -9.5c-3.33301 0 -7.5 0.333008 -12.5 1s-8.16699 1 -9.5 1c-0.666992 3.33301 -1.5 9.5 -2.5 18.5s-1.5 22 -1.5 39s1 38.667 3 65s5.5 58.666 10.5 96.999s11.833 83.5 20.5 135.5s20 112 34 180v11z" />
    <glyph glyph-name="eight" unicode="8" horiz-adv-x="579" 
d="M105 163c0 2 0.166992 4.49609 0.5 7.49609s0.5 6 0.5 9s0.166992 5.83301 0.5 8.5s0.5 4.33398 0.5 5.00098l11.5 23l20 41l20 41c6.33301 12.667 10.5 20.334 12.5 23.001v11v11c-6 4.66699 -14.333 11.834 -25 21.501l-35 33
c-12.667 12.333 -25.667 25.666 -39 39.999s-25.166 29 -35.499 44s-19 29.833 -26 44.5s-10.5 28.667 -10.5 42c0 34 9.33301 62.333 28 85s42.667 40.834 72 54.501s62.333 23.667 99 30s73 10.5 109 12.5s69.667 2.83301 101 2.5s56.666 -0.5 75.999 -0.5
c23.333 0 41.666 -6.5 54.999 -19.5s20 -31.167 20 -54.5c0 -18 -4.33301 -37.667 -13 -59s-20 -43 -34 -65s-29.167 -43.667 -45.5 -65s-32.666 -41.5 -48.999 -60.5l-44.5 -50.5l-31 -35l33 -51.5c10.667 -17 20 -34.167 28 -51.5s14.333 -35.166 19 -53.499
s7 -37.5 7 -57.5c0 -45.333 -13.833 -78.5 -41.5 -99.5s-63.5 -31.5 -107.5 -31.5c-22.667 0 -44.5 4.16699 -65.5 12.5s-39.667 20 -56 35s-29.5 32.667 -39.5 53s-15 41.833 -15 64.5zM212 159.996c0 -20.667 7 -38.3311 21 -52.998s33 -22 57 -22
c14.667 0 27.5 3.16699 38.5 9.5s16.5 16.833 16.5 31.5s-2.83301 28 -8.5 40s-12.667 23.5 -21 34.5s-17.5 21.167 -27.5 30.5s-20.333 18 -31 26c-16 -10.667 -27.5 -24.834 -34.5 -42.501s-10.5 -35.834 -10.5 -54.501zM105 578.999
c0 -16.667 4.99805 -33.999 14.998 -51.999s22.333 -34.333 37 -49s31 -26.834 49 -36.501s35 -14.5 51 -14.5c2.66699 0 6.5 0.166992 11.5 0.5s8.16699 0.5 9.5 0.5l26.5 22.5c13 11 26.5 23.667 40.5 38s27 29.5 39 45.5s20 31 24 45
c-11.333 16.667 -21.833 29.5 -31.5 38.5s-19.667 15.5 -30 19.5s-21.166 6.33301 -32.499 7s-24.666 1 -39.999 1h-47c-19.333 0 -38 -1.83301 -56 -5.5s-33.5 -10.167 -46.5 -19.5s-19.5 -23 -19.5 -41z" />
    <glyph glyph-name="nine" unicode="9" horiz-adv-x="493" 
d="M367 439c0 2.66699 -0.171875 7.50098 -0.504883 14.501s-0.833008 14.667 -1.5 23s-1 16 -1 23v14.5c-18 -20 -33.667 -35.833 -47 -47.5s-26.5 -20.334 -39.5 -26.001s-26.5 -9.33398 -40.5 -11.001s-31 -2.5 -51 -2.5c-19.333 0 -36.5 1.5 -51.5 4.5
s-28.667 7.83301 -41 14.5s-24.333 15.667 -36 27s-23.5 25 -35.5 41c0 3.33301 -0.166992 9.66602 -0.5 18.999s-0.5 19.333 -0.5 30s-0.166992 20.5 -0.5 29.5s-0.5 15.167 -0.5 18.5c0 33.333 4.16699 65 12.5 95s21.333 56.5 39 79.5s40.334 41 68.001 54
s60.5 19.5 98.5 19.5c36 0 67 -7 93 -21s47.5 -32.667 64.5 -56s30.667 -50.166 41 -80.499s18 -61.333 23 -93s8.33301 -63.5 10 -95.5s2.5 -60.667 2.5 -86v-19c-1.33301 -8.66699 -3.66602 -22 -6.99902 -40l-11.5 -60.5l-13.5 -71l-13.5 -71.5l-11.5 -61
c-3.33301 -18 -5.66602 -31 -6.99902 -39c-10.667 -19.333 -24 -33.166 -40 -41.499s-34.333 -12.5 -55 -12.5c0 36.667 2.83301 72.834 8.5 108.501s11.834 71.167 18.501 106.5s12.834 70.666 18.501 105.999s8.5 71 8.5 107zM104.995 621.001
c0 -13.333 0.829102 -26.5 2.49609 -39.5s5 -24.333 10 -34s12.667 -17.667 23 -24s24.5 -9.5 42.5 -9.5c16.667 0 34.5 7.16699 53.5 21.5s36.5 31.333 52.5 51s29.333 39.834 40 60.501s16 37.334 16 50.001c0 9.33301 -4.16699 18.666 -12.5 27.999
s-18.166 17.5 -29.499 24.5s-23.166 12.833 -35.499 17.5s-22.166 7 -29.499 7c-25.333 0 -46.666 -3.83301 -63.999 -11.5s-31 -18.167 -41 -31.5s-17.167 -29.333 -21.5 -48s-6.5 -39.334 -6.5 -62.001z" />
    <glyph glyph-name="colon" unicode=":" horiz-adv-x="278" 
d="M84 53c0 21.333 6.33105 37.832 18.998 49.499s28.334 19.834 47.001 24.501s38.167 7.33398 58.5 8.00098s38.166 1 53.499 1c0 -18.667 -2.66699 -36.334 -8 -53.001s-13.166 -31.167 -23.499 -43.5s-23.166 -22.333 -38.499 -30s-33 -11.5 -53 -11.5
c-20.667 0 -35 4 -43 12s-12 22.333 -12 43zM-2.00195 374.999c0 10.667 4.00293 20.667 12.0029 30s17.833 17.5 29.5 24.5s23.667 12.667 36 17s22.833 6.5 31.5 6.5c19.333 0 31.666 -5.83301 36.999 -17.5s8 -26.167 8 -43.5c0 -12.667 -2.66699 -23.5 -8 -32.5
s-12.5 -16.5 -21.5 -22.5s-19.5 -10.5 -31.5 -13.5s-24.667 -4.5 -38 -4.5c-2.66699 0 -4.33398 0.333008 -5.00098 1c-2 0 -3.66699 0.333008 -5 1c-2 0.666992 -5.16699 3 -9.5 7l-13.5 12.5c-4.66699 4.33301 -8.83398 8.83301 -12.501 13.5s-6.16699 8 -7.5 10
c-0.666992 1.33301 -1 3 -1 5c-0.666992 2 -1 4 -1 6z" />
    <glyph glyph-name="semicolon" unicode=";" horiz-adv-x="193" 
d="M65 -386c22.667 50.667 37.3359 103 44.0029 157s6 108.667 -2 164l43 43c13.333 -4 23.166 -12.5 29.499 -25.5s10.666 -27.5 12.999 -43.5s3.33301 -32.667 3 -50s-0.5 -32 -0.5 -44c0 -2.66699 -0.333008 -8 -1 -16s-1 -12.667 -1 -14
c-1.33301 -6.66699 -3.83301 -18 -7.5 -34s-7.83398 -33.167 -12.501 -51.5l-13.5 -51.5c-4.33301 -16 -7.5 -27.333 -9.5 -34c-1.33301 -1.33301 -4 -3 -8 -5l-13.5 -6.5c-5 -2.33301 -9.33301 -4.5 -13 -6.5s-6.5 -3.33301 -8.5 -4h-10h-12
c-2 1.33301 -5.5 4.83301 -10.5 10.5s-8.16699 9.5 -9.5 11.5zM105.002 238h21.501c8.33301 0 15.833 -1 22.5 -3s12.5 -5.33301 17.5 -10s7.5 -12 7.5 -22c0 -14 -6.5 -26.167 -19.5 -36.5s-28.333 -19 -46 -26s-36 -12 -55 -15s-34.167 -4.5 -45.5 -4.5
c0 17.333 1.83301 33 5.5 47s9.16699 26.167 16.5 36.5s17.166 18.5 29.499 24.5s27.5 9 45.5 9z" />
    <glyph glyph-name="less" unicode="&#x3c;" horiz-adv-x="428" 
d="M20 257c0 22 6.66699 43.999 20 65.999s31 43.5 53 64.5s47 40.667 75 59s56.5 34.5 85.5 48.5s57.333 25 85 33s51.834 12 72.501 12c0 -19.333 -4.83301 -37 -14.5 -53s-22.5 -31 -38.5 -45s-33.833 -27.5 -53.5 -40.5l-58 -38.5c-19 -12.667 -37.167 -26 -54.5 -40
s-31.333 -29 -42 -45c-0.666992 -2 -1.33398 -3.33301 -2.00098 -4v-6v-6c0.666992 -2 1.33398 -3.66699 2.00098 -5c1.33301 -0.666992 4.5 -4 9.5 -10s8.83301 -9.66699 11.5 -11c3.33301 -2.66699 11.166 -7.66699 23.499 -15s26.666 -16.333 42.999 -27l52 -33l51.5 -33
l42 -27.5c12 -7.66699 20.333 -12.834 25 -15.501c1.33301 -0.666992 4.83301 -3.83398 10.5 -9.50098s8.83398 -9.16699 9.50098 -10.5c0 -2 0.333008 -4 1 -6c0 -0.666992 0.166992 -1.66699 0.5 -3s0.5 -2.33301 0.5 -3s-0.166992 -1.5 -0.5 -2.5
s-0.5 -1.83301 -0.5 -2.5c-0.666992 -2 -1 -3.66699 -1 -5c-1.33301 -2.66699 -4.33301 -6.66699 -9 -12s-9.16699 -10.166 -13.5 -14.499s-8.5 -8.16602 -12.5 -11.499s-6.66699 -5 -8 -5c-10.667 0 -27.167 4.16699 -49.5 12.5s-47 19.5 -74 33.5s-54.667 30 -83 48
s-54.333 36.667 -78 56s-43 38.333 -58 57s-22.5 35.334 -22.5 50.001z" />
    <glyph glyph-name="equal" unicode="=" horiz-adv-x="535" 
d="M450 365c19.333 1.33301 31.666 -2.33301 36.999 -11s8 -19 8 -31c0 -15.333 -4.5 -27.333 -13.5 -36s-20.333 -15 -34 -19s-28 -6.66699 -43 -8s-28.5 -2.33301 -40.5 -3c-8 -0.666992 -20.5 -1 -37.5 -1s-36.333 -0.5 -58 -1.5s-44.334 -1.83301 -68.001 -2.5l-68 -2
c-21.667 -0.666992 -41 -1.16699 -58 -1.5s-29.5 -0.5 -37.5 -0.5c0 28 9.33301 50 28 66s42.167 28.333 70.5 37s59.5 14 93.5 16s66.333 2.83301 97 2.5s57.334 -1.33301 80.001 -3s37.334 -2.16699 44.001 -1.5zM47 544.001
c55.333 2.66699 108.002 5.3291 158.002 7.99609c22 0.666992 44.333 1.66699 67 3l67.5 4c22.333 1.33301 43.166 2.33301 62.499 3s36.666 1.66699 51.999 3h13c13.333 0 22 -4.66699 26 -14s6 -18.666 6 -27.999c0 -16 -2.83301 -28.667 -8.5 -38
s-17.834 -18.333 -36.501 -27c-5.33301 0 -14.5 -0.166992 -27.5 -0.5s-26.833 -0.5 -41.5 -0.5s-28.667 -0.166992 -42 -0.5s-22.666 -0.5 -27.999 -0.5c-17.333 0 -40.333 -0.666992 -69 -2s-57.667 -0.666016 -87 2.00098s-56.5 8.83398 -81.5 18.501
s-42.167 25.834 -51.5 48.501z" />
    <glyph glyph-name="greater" unicode="&#x3e;" horiz-adv-x="450" 
d="M85 43c0 10.667 4.66504 24.6699 13.998 42.0029s21.333 35.833 36 55.5l47.5 61l49.5 60l42 50l26 31.5c0 1.33301 0.333008 3.16602 1 5.49902s1 4.16602 1 5.49902l-1 5c-0.666992 1.33301 -1 3 -1 5c-1.33301 2.66699 -4.66602 6.66699 -9.99902 12
s-9.33301 8.66602 -12 9.99902c-4 2.66699 -12 7.66699 -24 15l-42 27l-51.5 33l-51.5 32.5l-42 27c-12 7.66699 -20.333 12.5 -25 14.5c-10 6.66699 -16.833 13.667 -20.5 21s-5.5 17 -5.5 29c18 0 41.5 -2.83301 70.5 -8.5s59.5 -13.334 91.5 -23.001
s64.333 -21.167 97 -34.5s62 -27.833 88 -43.5s47.333 -32.167 64 -49.5s25 -34.333 25 -51c0 -1.33301 -0.333008 -3.16602 -1 -5.49902s-1 -4.16602 -1 -5.49902l-27 -32.5l-41 -49.5l-48.5 -58.5l-49 -57.5l-42.5 -49l-28 -32c-10 -11.333 -18 -21 -24 -29
s-11.5 -14.667 -16.5 -20s-10.667 -9.33301 -17 -12s-15.166 -4 -26.499 -4c-2.66699 0 -6.5 0.166992 -11.5 0.5s-10 1.16602 -15 2.49902s-9.33301 3.5 -13 6.5s-5.5 7.5 -5.5 13.5z" />
    <glyph glyph-name="question" unicode="?" horiz-adv-x="364" 
d="M193 43c0 8 2.99805 17.001 8.99805 27.001s13.167 19.333 21.5 28s17.333 16 27 22s18.834 9 27.501 9c1.33301 0 4.83301 -2.83301 10.5 -8.5s9.83398 -10.167 12.501 -13.5c1.33301 -2 3.16602 -5.16699 5.49902 -9.5l7 -13.5
c2.33301 -4.66699 4.16602 -8.83398 5.49902 -12.501s2 -5.83398 2 -6.50098c0 -12.667 -1.66699 -22.167 -5 -28.5s-7.66602 -10.666 -12.999 -12.999s-11.5 -3.5 -18.5 -3.5h-22.5c-2.66699 0 -7.66699 -0.166992 -15 -0.5s-15.166 0 -23.499 1s-15.5 3 -21.5 6
s-9 8.5 -9 16.5zM125.998 430.001c0 24 4.83008 46.4971 14.4971 67.4971s20 41.5 31 61.5s21.333 40.5 31 61.5s14.5 43.5 14.5 67.5c0 8.66699 -2.5 16.834 -7.5 24.501s-11.167 14.334 -18.5 20.001s-15.666 10.167 -24.999 13.5s-18.333 5 -27 5
c-12.667 0 -24.5 -3.33301 -35.5 -10s-21.167 -14.5 -30.5 -23.5s-18.166 -18.5 -26.499 -28.5s-16.5 -18.333 -24.5 -25c-1.33301 -1.33301 -5.83301 -2.66602 -13.5 -3.99902s-12.5 -2 -14.5 -2c0 26 3.5 50 10.5 72s17.5 41 31.5 57s31.5 28.5 52.5 37.5
s44.833 13.5 71.5 13.5c18.667 0 37.834 -4.33301 57.501 -13s37.167 -20.167 52.5 -34.5s28 -30.5 38 -48.5s15 -36.667 15 -56c0 -24 -3.16699 -45.833 -9.5 -65.5s-13.833 -38 -22.5 -55s-17.667 -33.5 -27 -49.5s-17.333 -32.667 -24 -50s-10.667 -35.833 -12 -55.5
s1.33398 -42.167 8.00098 -67.5c-1.33301 -2 -4 -4.16699 -8 -6.5s-8.16699 -4.5 -12.5 -6.5l-13 -6c-4.33301 -2 -7.5 -3 -9.5 -3c-14.667 0 -26.334 3.83301 -35.001 11.5s-15.5 17 -20.5 28s-8.16699 22.833 -9.5 35.5s-2 24 -2 34z" />
    <glyph glyph-name="at" unicode="@" horiz-adv-x="857" 
d="M20 349c0 63.333 11.8301 123.331 35.4971 179.998s55.834 106.334 96.501 149.001s88.834 76.334 144.501 101.001s115.167 37 178.5 37c42 0 84.333 -9.16699 127 -27.5s81.334 -42.833 116.001 -73.5s63 -66.167 85 -106.5s33 -82.5 33 -126.5
c0 -36.667 -6.33301 -74.5 -19 -113.5s-30.167 -76.333 -52.5 -112s-48.5 -69.167 -78.5 -100.5s-62.667 -58.666 -98 -81.999s-72 -41.833 -110 -55.5s-76 -20.5 -114 -20.5c-47.333 0 -91.833 9.5 -133.5 28.5s-78 44.5 -109 76.5s-55.667 69.167 -74 111.5
s-27.5 87.166 -27.5 134.499zM104.997 348.998c0 -38.667 7.16406 -74.3311 21.4971 -106.998s34 -60.834 59 -84.501s54.167 -41.834 87.5 -54.501s68.666 -19 105.999 -19c22.667 0 44.334 3.33301 65.001 10s40.167 15.834 58.5 27.501s35.666 25.5 51.999 41.5
s31.5 33.333 45.5 52c-8 8.66699 -15.333 15.834 -22 21.501s-13 10.167 -19 13.5s-12.5 5.66602 -19.5 6.99902s-14.833 2 -23.5 2c-12.667 0 -25 -1.33301 -37 -4s-23.833 -5.66699 -35.5 -9s-23.667 -6.33301 -36 -9s-25.166 -4 -38.499 -4c-14 0 -28.667 2.66699 -44 8
s-29.666 12.833 -42.999 22.5s-24.333 21.334 -33 35.001s-13 28.5 -13 44.5c0 26 6.66699 50.667 20 74s30.333 43.666 51 60.999s43.834 31.166 69.501 41.499s50.167 15.5 73.5 15.5c26.667 0 47.5 -4.66699 62.5 -14s26.667 -21.333 35 -36s14.833 -30.334 19.5 -47.001
s10.667 -32.167 18 -46.5s17.166 -26.333 29.499 -36s30.166 -14.5 53.499 -14.5c18.667 0 33.667 5.5 45 16.5s19.833 24.833 25.5 41.5s9.33398 34.5 11.001 53.5s2.5 36.833 2.5 53.5c0 30.667 -9.33301 59.5 -28 86.5s-42.167 50.833 -70.5 71.5s-59 37 -92 49
s-63.167 18 -90.5 18c-49.333 0 -96.166 -10.667 -140.499 -32s-83.166 -49.666 -116.499 -84.999s-59.833 -76 -79.5 -122s-29.5 -93.667 -29.5 -143zM474.994 456.001c-44 -7.33301 -78.1689 -16.833 -102.502 -28.5s-41.166 -24 -50.499 -37s-12.333 -25.667 -9 -38
s10.333 -22.5 21 -30.5s23.667 -12.5 39 -13.5s30.333 3 45 12s27.834 24 39.501 45s19.5 50.167 23.5 87.5z" />
    <glyph glyph-name="A" unicode="A" horiz-adv-x="686" 
d="M236 878c4 12 9.83203 19.0049 17.499 21.0049s16.5 3 26.5 3c15.333 0 32.5 -10.167 51.5 -30.5s38.5 -47.5 58.5 -81.5s40.167 -73 60.5 -117s40 -89.5 59 -136.5s36.833 -93.833 53.5 -140.5s31.167 -89.5 43.5 -128.5s21.833 -72.833 28.5 -101.5
s10 -48.334 10 -59.001s-2.5 -20.834 -7.5 -30.501s-13.833 -14.5 -26.5 -14.5c-8 0 -14.833 2.5 -20.5 7.5s-10.5 11.167 -14.5 18.5s-7.66699 14.666 -11 21.999s-6.33301 13.666 -9 18.999c-2.66699 7.33301 -8.16699 21.333 -16.5 42l-26 65l-25.5 64l-17 43
c-46.667 8 -93.5 15.5 -140.5 22.5s-96.5 13.833 -148.5 20.5h-11c-24 -103.333 -45.167 -185 -63.5 -245s-33.666 -102.667 -45.999 -128s-22 -35.833 -29 -31.5s-11.667 19.666 -14 45.999s-2 61.5 1 105.5s8.66699 92.5 17 145.5s18.5 108.5 30.5 166.5
s26.5 114 43.5 168s36 104.167 57 150.5s43.833 84.5 68.5 114.5zM211.999 526.005c0 -24.667 7.99805 -42.835 23.998 -54.502s35.333 -19.167 58 -22.5s46.5 -4.66602 71.5 -3.99902s46.5 1 64.5 1c0 26.667 -4.33301 55.5 -13 86.5s-19.667 61.833 -33 92.5
s-27.5 60.5 -42.5 89.5l-41.5 78.5c-7.33301 -7.33301 -15.166 -20.833 -23.499 -40.5s-16.666 -41.667 -24.999 -66s-15.833 -48.166 -22.5 -71.499s-11.667 -42.333 -15 -57c0 -2 -0.333008 -7.16699 -1 -15.5s-1 -13.833 -1 -16.5z" />
    <glyph glyph-name="B" unicode="B" horiz-adv-x="600" 
d="M34 746c8 40.667 22.6699 72.832 44.0029 96.499s45.833 39.834 73.5 48.501s57.334 10.834 89.001 6.50098s61.667 -14.166 90 -29.499s53.166 -35.166 74.499 -59.499s36.333 -52 45 -83s8.66699 -64.5 0 -100.5s-28.334 -73 -59.001 -111
c24 -8.66699 46.333 -17.334 67 -26.001s38.167 -19.334 52.5 -32.001s25.5 -28 33.5 -46s12 -40.333 12 -67c0 -22 -4 -45.333 -12 -70s-19.167 -49 -33.5 -73s-31 -46.833 -50 -68.5s-39.5 -40.834 -61.5 -57.501s-44.5 -29.834 -67.5 -39.501s-45.5 -14.5 -67.5 -14.5
c-14.667 0 -29 9.33301 -43 28s-27.667 43.334 -41 74.001s-26.333 66 -39 106s-24.334 81.5 -35.001 124.5s-20.334 85.667 -29.001 128s-16.167 81.5 -22.5 117.5s-11.333 67.167 -15 93.5s-5.5 44.5 -5.5 54.5zM212.003 312.998c0 -11.333 2.66895 -26.333 8.00195 -45
s12.166 -37.334 20.499 -56.001s17.5 -35.834 27.5 -51.501s20.667 -26.167 32 -31.5c9.33301 -5.33301 20.333 -4.83301 33 1.5s25.5 16.333 38.5 30s25.5 29.334 37.5 47.001s22.833 35.167 32.5 52.5s17.334 33.5 23.001 48.5s8.5 26.5 8.5 34.5
c0 17.333 -2.33301 31.5 -7 42.5s-11.5 19.833 -20.5 26.5s-19.667 11.334 -32 14.001s-25.833 4 -40.5 4c-16.667 0 -34.334 -2.66699 -53.001 -8s-35.834 -13 -51.501 -23s-29 -22.333 -40 -37s-16.5 -31 -16.5 -49zM148.005 652.998
c0 -12 -0.332031 -26.8311 -0.999023 -44.498s-0.666992 -35.834 0 -54.501s2.66699 -37.334 6 -56.001s9.33301 -34.667 18 -48c32.667 6 61.167 17.333 85.5 34s44 36.167 59 58.5s25.833 46.166 32.5 71.499s9.16699 50 7.5 74s-7.33398 46 -17.001 66
s-23.167 35.5 -40.5 46.5s-38.333 16.5 -63 16.5s-53 -8 -85 -24c0 -5.33301 -0.166992 -14.666 -0.5 -27.999l-1 -42c-0.333008 -14.667 -0.5 -28.667 -0.5 -42v-28z" />
    <glyph glyph-name="C" unicode="C" horiz-adv-x="643" 
d="M20 343c0 22.667 3.16699 47.3311 9.5 73.998s15.166 53.5 26.499 80.5s25 53.333 41 79s34 48.334 54 68.001s41.667 35.334 65 47.001s48 17.5 74 17.5c21.333 0 41.333 -2.83301 60 -8.5s34.667 -14.167 48 -25.5s23.833 -25.5 31.5 -42.5s11.5 -37.167 11.5 -60.5
c-14.667 0 -26.5 3.83301 -35.5 11.5s-17.333 16.167 -25 25.5s-16 17.666 -25 24.999s-20.5 11 -34.5 11c-20.667 0 -40.5 -5.33301 -59.5 -16s-36.667 -25 -53 -43s-30.666 -38.333 -42.999 -61s-23 -45.5 -32 -68.5s-16 -45.5 -21 -67.5s-7.5 -41 -7.5 -57
c0 -34.667 5.16699 -67.167 15.5 -97.5s25.166 -56.666 44.499 -78.999s43.333 -39.833 72 -52.5s61.334 -19 98.001 -19c23.333 0 45.5 3.5 66.5 10.5s41.333 14.667 61 23s39.167 16.166 58.5 23.499s38.666 11 57.999 11c2.66699 0 6.5 -0.166992 11.5 -0.5
s9.66699 -1.16602 14 -2.49902s8.16602 -3.5 11.499 -6.5s5 -7.5 5 -13.5c0 -24 -9.16699 -44.333 -27.5 -61s-40.166 -30.167 -65.499 -40.5s-51.666 -17.833 -78.999 -22.5s-49.666 -7 -66.999 -7c-50.667 0 -98 8.16699 -142 24.5s-82.333 39.5 -115 69.5
s-58.334 66.167 -77.001 108.5s-28 89.833 -28 142.5z" />
    <glyph glyph-name="D" unicode="D" 
d="M22 678c0 28 8.1709 50.9971 24.5039 68.9971s36.666 32.167 60.999 42.5s50.5 17.333 78.5 21s53.333 5.5 76 5.5c43.333 0 79.833 -8.5 109.5 -25.5s53.667 -39.5 72 -67.5s31.5 -60.333 39.5 -97s12 -74 12 -112c0 -25.333 -2.66699 -55.166 -8 -89.499
s-13.333 -69.666 -24 -105.999s-23.834 -72.333 -39.501 -108s-33.834 -67.667 -54.501 -96s-43.834 -51.166 -69.501 -68.499s-53.834 -26 -84.501 -26c-6 0 -13.167 8.16699 -21.5 24.5s-17.666 38.166 -27.999 65.499s-21 58.833 -32 94.5s-21.833 72.667 -32.5 111
s-20.667 76.833 -30 115.5l-25.5 107c-7.66699 32.667 -13.5 61.334 -17.5 86.001s-6 42.667 -6 54zM105.004 620.997c0 -21.333 1.49805 -45.667 4.49805 -73s7.66699 -55.666 14 -84.999s14.333 -58.833 24 -88.5s20.834 -57.5 33.501 -83.5s27 -49.5 43 -70.5
s34 -37.5 54 -49.5l59 86c16.667 25.333 30.334 50.666 41.001 75.999s18.5 52.333 23.5 81s7.5 62 7.5 100c0 27.333 -1.66699 54 -5 80s-10.5 49.167 -21.5 69.5s-26.5 36.666 -46.5 48.999s-46.333 18.5 -79 18.5c-26.667 0 -52.5 -4.16699 -77.5 -12.5
s-49.167 -19.166 -72.5 -32.499c0 -2 -0.166992 -6 -0.5 -12s-0.5 -12.5 -0.5 -19.5s-0.166992 -13.667 -0.5 -20s-0.5 -10.833 -0.5 -13.5z" />
    <glyph glyph-name="E" unicode="E" horiz-adv-x="664" 
d="M65 793c-3.33301 0 -8.16211 0.84375 -14.4951 2.51074s-12.833 3.66699 -19.5 6s-13 4.66602 -19 6.99902s-10 4.16602 -12 5.49902c-0.666992 1.33301 -1 2.66602 -1 3.99902c-0.666992 1.33301 -1 3 -1 5c0 9.33301 3.66699 17.333 11 24s15.833 12.167 25.5 16.5
s19.167 7.66602 28.5 9.99902s16.666 3.83301 21.999 4.5h12h10c16 -1.33301 36.333 -3.33301 61 -6l78.5 -8.5l84 -9c28.333 -3 54 -6 77 -9s42.333 -5.33301 58 -7s24.834 -2.5 27.501 -2.5c5.33301 -0.666992 12.166 -1.83398 20.499 -3.50098
s16.833 -4.33398 25.5 -8.00098s16.667 -8 24 -13s12.666 -11.167 15.999 -18.5c-5.33301 -10.667 -10 -18.834 -14 -24.501s-8.33301 -10 -13 -13s-9.5 -4.5 -14.5 -4.5h-18.5c-28 0 -56.167 1 -84.5 3l-84.5 6l-84.5 6c-28.333 2 -56.833 3 -85.5 3
c0 -12 -1.5 -30 -4.5 -54s-5.33301 -49.333 -7 -76s-1 -53.167 2 -79.5s10.5 -48.5 22.5 -66.5c23.333 14 47.666 21.333 72.999 22s51 1 77 1h43c17.333 0 34.166 -2 50.499 -6s30.166 -10.667 41.499 -20s17 -23.333 17 -42c0 -13.333 -2.66699 -23.333 -8 -30
s-17.666 -10 -36.999 -10c-2 0 -6.16699 1 -12.5 3s-13 4.33301 -20 7s-13.5 5 -19.5 7s-10 3 -12 3c-0.666992 0 -3.16699 0.166992 -7.5 0.5s-9.5 0.5 -15.5 0.5s-11.833 0.166992 -17.5 0.5s-10.167 0.5 -13.5 0.5c-15.333 0 -30.166 -1 -44.499 -3s-26.833 -6 -37.5 -12
s-19.167 -14.667 -25.5 -26s-9.5 -26 -9.5 -44c0 -6 0.666992 -16.333 2 -31s3.16602 -30.834 5.49902 -48.501s5.5 -35.834 9.5 -54.501s9.33301 -35.834 16 -51.501s14.167 -28.667 22.5 -39s18.5 -15.5 30.5 -15.5c1.33301 0 4.66602 0.333008 9.99902 1
s8.66602 1 9.99902 1c22.667 15.333 45.5 32 68.5 50s46.833 34.833 71.5 50.5s50.334 29 77.001 40s54.334 16.5 83.001 16.5v-49c0 -2.66699 -6.5 -10 -19.5 -22s-30 -26 -51 -42s-44.5 -33 -70.5 -51s-52 -34.5 -78 -49.5s-50.833 -27.5 -74.5 -37.5s-43.5 -15 -59.5 -15
c-22.667 0 -42.834 10.167 -60.501 30.5s-33.5 47.333 -47.5 81s-25.667 72.5 -35 116.5s-17.5 89.333 -24.5 136s-12.667 93.167 -17 139.5s-7.83301 89.166 -10.5 128.499s-4.5 73.5 -5.5 102.5s-1.83301 49.167 -2.5 60.5z" />
    <glyph glyph-name="F" unicode="F" 
d="M0 706c26 13.333 50.501 23.1689 73.501 29.502s46 10.666 69 12.999s46.333 3.5 70 3.5h77.5c5.33301 0 14.5 -0.166992 27.5 -0.5s27 -0.5 42 -0.5h41.5h27c7.33301 -2.66699 13 -7.33398 17 -14.001s7 -13.667 9 -21s3.33301 -14.833 4 -22.5s1 -13.5 1 -17.5h-330
v-215h358c0 -22.667 -7 -40.5 -21 -53.5s-31.5 -23.167 -52.5 -30.5s-44.5 -12.166 -70.5 -14.499s-50.667 -3.33301 -74 -3s-44 1.16602 -62 2.49902s-30 2 -36 2v-21c0 -28 6.66699 -54.5 20 -79.5s28.166 -49.167 44.499 -72.5s31.333 -46.333 45 -69
s20.5 -45.667 20.5 -69c0 -14.667 -3 -27.5 -9 -38.5s-17 -16.5 -33 -16.5c-16.667 0 -33.167 8.66699 -49.5 26s-32.166 40.5 -47.499 69.5s-29.833 62.333 -43.5 100s-26.667 77 -39 118s-23.333 81.667 -33 122s-17.834 78 -24.501 113s-12 65.833 -16 92.5s-6 46 -6 58
v9z" />
    <glyph glyph-name="G" unicode="G" horiz-adv-x="706" 
d="M-2 355c0 33.333 4.83203 67.3311 14.499 101.998s23 68.334 40 101.001s37.333 63.667 61 93s50 54.833 79 76.5s60 38.667 93 51s67.167 18.5 102.5 18.5c15.333 0 35.166 -1.66699 59.499 -5s48 -9 71 -17s42.667 -18.5 59 -31.5s24.5 -28.5 24.5 -46.5
c0 -1.33301 -0.166992 -2.5 -0.5 -3.5s-0.5 -2.16699 -0.5 -3.5c-0.666992 -1.33301 -1 -2.66602 -1 -3.99902c-1.33301 -2 -4.66602 -5.83301 -9.99902 -11.5s-9 -9.16699 -11 -10.5c-1.33301 -0.666992 -3 -1 -5 -1c-2 -0.666992 -4 -1 -6 -1
c-2.66699 0 -4.66699 0.333008 -6 1c-1.33301 0 -2.66602 0.333008 -3.99902 1c-3.33301 2 -11.333 6.16699 -24 12.5l-41 20.5l-41 20.5c-12.667 6.33301 -20.667 10.166 -24 11.499c-2.66699 0 -5.33398 0.333008 -8.00098 1c-2 0 -4 0.166992 -6 0.5s-3.66699 0.5 -5 0.5
c-31.333 0 -61.333 -5.66699 -90 -17s-55 -27 -79 -47s-45.667 -43 -65 -69s-35.833 -53.5 -49.5 -82.5s-24 -58.667 -31 -89s-10.5 -59.833 -10.5 -88.5c0 -37.333 6 -70.666 18 -99.999s28.667 -53.833 50 -73.5s46.833 -34.5 76.5 -44.5s61.834 -15 96.501 -15
c20 0 44.667 2.66699 74 8s57.5 14 84.5 26s49.833 27.5 68.5 46.5s28 42.5 28 70.5c0 11.333 -1.66699 20.166 -5 26.499s-8 11 -14 14s-13.333 4.66699 -22 5s-17.667 0.5 -27 0.5c-14.667 0 -27.334 -2.33301 -38.001 -7s-21.167 -10 -31.5 -16
s-20.666 -11.333 -30.999 -16s-22.5 -7 -36.5 -7c-17.333 0 -31 2.66699 -41 8s-15 17.666 -15 36.999c0 18.667 6.83301 33.834 20.5 45.501s30 20.5 49 26.5s38.833 10 59.5 12s37.667 3 51 3c24 0 46.333 -1.83301 67 -5.5s38.5 -10.334 53.5 -20.001s26.5 -23 34.5 -40
s12 -38.833 12 -65.5c0 -41.333 -11.333 -77.166 -34 -107.499s-51.167 -55.166 -85.5 -74.499s-71.333 -33.833 -111 -43.5s-76.5 -14.5 -110.5 -14.5c-48 0 -92.167 8.33301 -132.5 25s-74.833 40.167 -103.5 70.5s-51 66.333 -67 108s-24 86.5 -24 134.5z" />
    <glyph glyph-name="H" unicode="H" horiz-adv-x="664" 
d="M-2 621c0 3.33301 0.165039 9.16406 0.498047 17.4971s0.5 17 0.5 26s0.166992 17.5 0.5 25.5s0.5 13.333 0.5 16c16.667 18 30.5 28.667 41.5 32s19.833 1.5 26.5 -5.5s11.5 -18.167 14.5 -33.5s5.16699 -32.666 6.5 -51.999s2 -39.666 2 -60.999
s0.333008 -41.166 1 -59.499s2 -34.5 4 -48.5s5.66699 -23.333 11 -28h343c14 0 24 4.33301 30 13s9.5 20 10.5 34s0.5 30 -1.5 48s-3.83301 36.5 -5.5 55.5s-2.33398 37.667 -2.00098 56s3.33301 34.5 9 48.5s14.5 25.333 26.5 34s29.667 13 53 13
c8.66699 -12.667 14 -26.5 16 -41.5s2.5 -30.5 1.5 -46.5s-2.66699 -31.833 -5 -47.5s-3.5 -30.834 -3.5 -45.501c0 -39.333 2.5 -78.666 7.5 -117.999s10.333 -78.666 16 -117.999s11 -78.5 16 -117.5s7.5 -77.5 7.5 -115.5
c1.33301 -41.333 -1.33398 -70.833 -8.00098 -88.5s-15 -25.667 -25 -24s-21.167 11.834 -33.5 30.501s-23.666 43.667 -33.999 75s-18.666 68.166 -24.999 110.499s-8.83301 88.166 -7.5 137.499h-361c4.66699 -46 10.834 -89.333 18.501 -130s13.667 -76.5 18 -107.5
s6 -55.667 5 -74s-7.83301 -27.833 -20.5 -28.5c-19.333 0 -35.666 6.5 -48.999 19.5s-24.833 30.833 -34.5 53.5s-17.5 49.167 -23.5 79.5s-11 62.333 -15 96s-7.16699 68.167 -9.5 103.5l-6.5 102c-2 32.667 -4.33301 63.167 -7 91.5s-6 52.5 -10 72.5z" />
    <glyph glyph-name="I" unicode="I" horiz-adv-x="771" 
d="M321 139c0 35.333 -4.3252 73.668 -12.9922 115.001s-18 83.666 -28 126.999l-29 129.5c-9.33301 43 -14.333 83.5 -15 121.5h-223v23c0 10 1 20.167 3 30.5s5 19.666 9 27.999s10 13.5 18 15.5h550c-0.666992 -21.333 -5 -37.666 -13 -48.999s-18.5 -20 -31.5 -26
s-27.5 -9.83301 -43.5 -11.5s-32 -3.5 -48 -5.5s-31.667 -4.5 -47 -7.5s-28.5 -8.83301 -39.5 -17.5s-19.333 -20.5 -25 -35.5s-7.16699 -35.167 -4.5 -60.5c0 -14 1 -32.5 3 -55.5s5.33301 -47.833 10 -74.5s10.667 -53.5 18 -80.5s16.5 -51.667 27.5 -74
s23.667 -40.333 38 -54s31.166 -20.5 50.499 -20.5c13.333 -1.33301 30.5 -1.5 51.5 -0.5s42.167 1.83301 63.5 2.5s41.5 0.333984 60.5 -0.999023s32.833 -5.33301 41.5 -12s10.667 -16.5 6 -29.5s-19.334 -30.5 -44.001 -52.5c-42.667 -16 -85.834 -26.833 -129.501 -32.5
s-87.5 -8.66699 -131.5 -9s-88 0.333984 -132 2.00098s-87.667 2.5 -131 2.5c-24.667 30 -39.334 53 -44.001 69s-2.83398 27.167 5.49902 33.5s21.666 9.66602 39.999 9.99902s38.166 -0.333984 59.499 -2.00098s42.666 -3 63.999 -4s39 0.833008 53 5.5z" />
    <glyph glyph-name="J" unicode="J" horiz-adv-x="643" 
d="M191 65c0 18 5.33887 30.1699 16.0059 36.5029s24.167 10.333 40.5 12s33.833 2.66699 52.5 3s36.167 3.5 52.5 9.5s29.833 16 40.5 30s16 35.667 16 65c0 83.333 -4.5 153.333 -13.5 210s-27 101.667 -54 135s-64.333 56 -112 68s-109.834 15 -186.501 9
c-2 0.666992 -5.16699 3 -9.5 7l-13.5 13c-4.66699 4.66699 -8.83398 9.16699 -12.501 13.5s-6.16699 7.5 -7.5 9.5c-0.666992 1.33301 -1 2.66602 -1 3.99902c-0.666992 2 -1 4.33301 -1 7c0 1.33301 0.333008 3 1 5c0 1.33301 0.333008 2.66602 1 3.99902
c2 2 4.83301 4.33301 8.5 7s8 5.16699 13 7.5l13 6c3.66699 1.66699 6.5 2.5 8.5 2.5l57.5 3l87.5 4.5l105.5 5.5c37.667 2 75.334 3.83301 113.001 5.5s73.667 2.83398 108 3.50098s65.166 1 92.499 1c0 -20.667 -4 -36.5 -12 -47.5s-17.833 -19.333 -29.5 -25
s-24.334 -9.83398 -38.001 -12.501s-26.334 -6.16699 -38.001 -10.5s-21.5 -11 -29.5 -20s-12 -22.167 -12 -39.5c0 -34.667 3.5 -68.334 10.5 -101.001s14.833 -65.167 23.5 -97.5s16.5 -64.833 23.5 -97.5s10.5 -65.667 10.5 -99c0 -30 -6.66699 -57.333 -20 -82
s-30.833 -46 -52.5 -64s-46 -32.167 -73 -42.5s-53.833 -15.5 -80.5 -15.5c-10.667 0 -21.834 1 -33.501 3s-22.334 5.83301 -32.001 11.5s-17.667 12.667 -24 21s-9.5 18.833 -9.5 31.5z" />
    <glyph glyph-name="K" unicode="K" horiz-adv-x="706" 
d="M20 692c0 12.667 -0.335938 26.332 -1.00293 40.999s0.5 28.334 3.5 41.001s8.33301 23.167 16 31.5s20.167 12.5 37.5 12.5c12.667 -17.333 20.834 -38.833 24.501 -64.5s6.16699 -52.667 7.5 -81s2.83301 -56.5 4.5 -84.5s7.16699 -52.667 16.5 -74
c0.666992 -2.66699 3.83398 -6.5 9.50098 -11.5s9.5 -8.16699 11.5 -9.5c20 17.333 38.167 35.333 54.5 54l48.5 54.5l48 50.5c16 16 33.5 30 52.5 42s40.333 21.5 64 28.5s50.5 10.5 80.5 10.5c0 -16 -5.66699 -32 -17 -48s-25.666 -32.167 -42.999 -48.5
s-36.333 -33 -57 -50s-40.667 -34.333 -60 -52s-36.666 -35.334 -51.999 -53.001s-26.333 -35.5 -33 -53.5c11.333 -2.66699 30.166 -9.16699 56.499 -19.5s56.333 -23 90 -38l104.5 -48.5c36 -17.333 69 -34.5 99 -51.5s54.5 -33 73.5 -48s28.5 -27.167 28.5 -36.5v-12.5
c0 -6.33301 -0.5 -12.833 -1.5 -19.5s-3.16699 -12.5 -6.5 -17.5s-8.66602 -7.5 -15.999 -7.5c-28 0.666992 -54.333 5.83398 -79 15.501s-48.667 21.667 -72 36s-46.5 29.333 -69.5 45s-46.5 30.667 -70.5 45s-48.833 26 -74.5 35s-53.5 14.167 -83.5 15.5
c-10 -16 -14.333 -31.5 -13 -46.5s5.83301 -30 13.5 -45s16.834 -30.333 27.501 -46s20 -32 28 -49s13.333 -34.833 16 -53.5s-0.333008 -38.334 -9 -59.001c-1.33301 -2 -3.83301 -4.16699 -7.5 -6.5l-12 -7.5c-4.33301 -2.66699 -8.83301 -4.66699 -13.5 -6
s-7.66699 -2 -9 -2c-8.66699 0 -18.167 8.33301 -28.5 25s-21.333 39.334 -33 68.001s-23.667 61.5 -36 98.5s-24.333 75.333 -36 115s-22.334 79.667 -32.001 120s-18.334 78 -26.001 113s-13.667 65.833 -18 92.5s-6.5 46.667 -6.5 60z" />
    <glyph glyph-name="L" unicode="L" horiz-adv-x="621" 
d="M0 656c0 13.333 4.49609 21.999 13.4961 25.999s18.833 6 29.5 6c2 0 5.83301 -0.333008 11.5 -1s9.16699 -1 10.5 -1c2 -20.667 4 -45.5 6 -74.5s4.33301 -60.333 7 -94s6 -68.5 10 -104.5s9.66699 -71.167 17 -105.5s16.333 -67 27 -98s23.667 -57.833 39 -80.5
c3.33301 -6 6.5 -10.5 9.5 -13.5s6 -5.33301 9 -7s6.5 -2.66699 10.5 -3s9 -0.5 15 -0.5c27.333 0 53.5 4.66699 78.5 14s49.833 19.666 74.5 30.999s49.667 21.666 75 30.999s52 14 80 14c6 0 13.667 0.166992 23 0.5s18 -0.166992 26 -1.5s15 -4.66602 21 -9.99902
s9 -13.333 9 -24c0 -10 -9 -20.833 -27 -32.5s-41 -23.334 -69 -35.001s-58.5 -23.167 -91.5 -34.5s-64.667 -21.333 -95 -30s-57.166 -15.5 -80.499 -20.5s-38.666 -7.5 -45.999 -7.5c-24 0 -45.167 8.16699 -63.5 24.5s-34.333 38.333 -48 66s-25.167 59.334 -34.5 95.001
s-17 72.834 -23 111.501s-10.667 77 -14 115s-5.66602 73.333 -6.99902 106s-2.16602 61.334 -2.49902 86.001s-0.5 42 -0.5 52z" />
    <glyph glyph-name="M" unicode="M" horiz-adv-x="878" 
d="M20 428c0 8 0.168945 21.1738 0.501953 39.5068s0.5 37.666 0.5 57.999s0.166992 39.5 0.5 57.5s0.5 30.667 0.5 38c0.666992 4.66699 2.33398 11.834 5.00098 21.501s5.83398 19.167 9.50098 28.5s8.66699 17.5 15 24.5s14.166 10.5 23.499 10.5c22 0 42.667 -6 62 -18
s38 -27.833 56 -47.5s35.167 -41.5 51.5 -65.5l48.5 -71.5l47 -67c15.333 -21 30.666 -37.833 45.999 -50.5c16.667 7.33301 29.667 20.833 39 40.5s17 42.334 23 68.001s11.5 52.334 16.5 80.001s11.833 53.167 20.5 76.5s20.167 42.5 34.5 57.5s34.166 22.5 59.499 22.5
c30 0 57.167 -11.667 81.5 -35s46.166 -53 65.499 -89s35.833 -76 49.5 -120s25.167 -86.333 34.5 -127s16.333 -77.334 21 -110.001s7 -56 7 -70c0 -6 -0.333008 -12.5 -1 -19.5s-2.33398 -13.333 -5.00098 -19s-7 -10 -13 -13s-14.667 -2.83301 -26 0.5
c-3.33301 0.666992 -7.16602 2.5 -11.499 5.5s-8.83301 6.83301 -13.5 11.5s-8.66699 9.16699 -12 13.5s-5 8.16602 -5 11.499l-20 109c-7.33301 40 -16.5 80.5 -27.5 121.5s-24.833 80.833 -41.5 119.5s-37.334 72 -62.001 100
c-19.333 -10.667 -34.5 -26.834 -45.5 -48.501s-20.167 -45.334 -27.5 -71.001s-14 -51.834 -20 -78.501s-14 -50.834 -24 -72.501s-22.667 -39.5 -38 -53.5s-36 -21 -62 -21c-18 0 -35.5 5.83301 -52.5 17.5s-33.5 27 -49.5 46s-31.5 40 -46.5 63l-44 68l-42 62.5
c-13.667 19.333 -27.5 34.666 -41.5 45.999c-5.33301 -20.667 -9.5 -38.834 -12.5 -54.501s-5.33301 -30.834 -7 -45.501s-2.66699 -29.667 -3 -45s-0.5 -32.333 -0.5 -51c0 -28 2.33301 -55.833 7 -83.5s9.66699 -55.167 15 -82.5l15.5 -82.5
c5 -27.667 7.5 -55.5 7.5 -83.5v-8c-1.33301 -2 -4 -5.16699 -8 -9.5l-12.5 -13.5c-4.33301 -4.66699 -8.83301 -8.83398 -13.5 -12.501s-8 -6.16699 -10 -7.5c-0.666992 -0.666992 -2 -1 -4 -1c-2 -0.666992 -4 -1 -6 -1c-1.33301 0 -3 0.333008 -5 1s-3.66699 1 -5 1
c-4.66699 38.667 -9.66699 75.334 -15 110.001s-10.166 69 -14.499 103s-8 68.333 -11 103s-4.5 72 -4.5 112z" />
    <glyph glyph-name="N" unicode="N" horiz-adv-x="686" 
d="M65 43c-2.66699 10.667 -6.16504 25.999 -10.498 45.999l-14 66c-5 24 -9.83301 49.167 -14.5 75.5s-9 52 -13 77s-7.16699 48 -9.5 69s-3.5 38.167 -3.5 51.5c0 6 0.666992 16.333 2 31s3.33301 30 6 46l7.5 45c2.33301 14 4.5 23.667 6.5 29c2 0.666992 5.5 1 10.5 1
s10.333 0.333008 16 1s11 1.16699 16 1.5s8.5 0.5 10.5 0.5c32 0 62.333 -6.33301 91 -19s56 -28.667 82 -48s51.333 -41 76 -65l74.5 -70c25 -22.667 50.5 -43.167 76.5 -61.5s53.667 -32.166 83 -41.499c0 3.33301 0.166992 8.5 0.5 15.5s0.5 14.5 0.5 22.5
s0.166992 15.5 0.5 22.5s0.5 12.167 0.5 15.5c0 42 -2.66699 83 -8 123s-11.333 80 -18 120s-12.667 80.167 -18 120.5s-8 81.833 -8 124.5c4.66699 0 10.5 -0.166992 17.5 -0.5s14.167 -1.33301 21.5 -3s14 -4.33398 20 -8.00098s10 -9.16699 12 -16.5
c2.66699 -48 8.66699 -96.167 18 -144.5l29 -145c10 -48.333 18.833 -96.666 26.5 -144.999s11.5 -96.166 11.5 -143.499c0 -8.66699 -0.166992 -18 -0.5 -28s-1.66602 -19.5 -3.99902 -28.5s-6.16602 -16.5 -11.499 -22.5s-13.333 -9 -24 -9
c-34.667 0 -66.667 7.83301 -96 23.5s-57.833 35.167 -85.5 58.5s-54.667 49 -81 77s-53.333 53.667 -81 77s-56.334 43 -86.001 59s-61.5 24 -95.5 24c0 -37.333 2.66699 -73.166 8 -107.499s11.166 -68.5 17.499 -102.5s12.166 -67.833 17.499 -101.5
s8 -67.834 8 -102.501c0 -12.667 -4.5 -21.334 -13.5 -26.001s-18.833 -7 -29.5 -7c-8.66699 0 -16.834 0.833008 -24.501 2.5s-13.5 8.5 -17.5 20.5z" />
    <glyph glyph-name="O" unicode="O" horiz-adv-x="643" 
d="M0 278c0 34 4.50391 68.5 13.5039 103.5s21.667 68.5 38 100.5s36.166 61.833 59.499 89.5s49.166 51.667 77.499 72s59.166 36.333 92.499 48s68.333 17.5 105 17.5s68.5 -7.16699 95.5 -21.5s49.5 -33.5 67.5 -57.5s31.333 -51.5 40 -82.5s13 -62.5 13 -94.5
c0 -56 -8.33301 -111.167 -25 -165.5s-41.334 -103 -74.001 -146s-73.167 -77.667 -121.5 -104s-103.833 -39.5 -166.5 -39.5c-37.333 0 -69.5 8.5 -96.5 25.5s-49.333 39 -67 66s-30.667 57 -39 90s-12.5 65.833 -12.5 98.5zM85.0039 256
c0 -18 2.99414 -36.999 8.99414 -56.999s14.333 -38.333 25 -55s24.167 -30.667 40.5 -42s34.833 -17 55.5 -17c44.667 0 85.334 10.167 122.001 30.5s68.334 46.666 95.001 78.999s47.334 68.5 62.001 108.5s22 79.667 22 119c0 22.667 -0.666992 46 -2 70
s-5.66602 45.833 -12.999 65.5s-18.833 35.667 -34.5 48s-38.167 18.5 -67.5 18.5c-9.33301 0 -21.833 -0.333008 -37.5 -1s-31.167 -2.5 -46.5 -5.5s-28.833 -7.5 -40.5 -13.5s-17.5 -14.333 -17.5 -25c0 -1.33301 1.16699 -4.16602 3.5 -8.49902l7.5 -13.5
c2.66699 -4.66699 5 -9.16699 7 -13.5s3 -7.16602 3 -8.49902s-2.66699 -4.83301 -8 -10.5s-9.66602 -9.16699 -12.999 -10.5c-33.333 -8.66699 -61.166 -19.5 -83.499 -32.5s-40 -29.833 -53 -50.5s-22.167 -45.334 -27.5 -74.001s-8 -62.334 -8 -101.001z" />
    <glyph glyph-name="P" unicode="P" horiz-adv-x="493" 
d="M10 790c0 20.667 3.83398 37.6641 11.501 50.9971s18.167 24.166 31.5 32.499s28.166 14.5 44.499 18.5s33.333 6.83301 51 8.5s34.834 2.33398 51.501 2.00098s32 -0.5 46 -0.5c27.333 0 54.666 -2.66699 81.999 -8s51.5 -14.666 72.5 -27.999
s38.167 -31.166 51.5 -53.499s20 -50.166 20 -83.499c0 -29.333 -5.83301 -58.5 -17.5 -87.5s-26.667 -56.667 -45 -83s-39.166 -50.333 -62.499 -72s-46.5 -40.167 -69.5 -55.5s-45 -27.333 -66 -36s-38.5 -12 -52.5 -10c-8 -26 -12.833 -53.833 -14.5 -83.5
s-2.16699 -58.667 -1.5 -87s1.66699 -55.333 3 -81s0.166016 -47.667 -3.50098 -66s-10.5 -32 -20.5 -41s-25.333 -11.833 -46 -8.5c-6 47.333 -10.5 95.333 -13.5 144s-5.5 97 -7.5 145s-3.83301 94.833 -5.5 140.5s-4 89.167 -7 130.5s-7.16699 80 -12.5 116
s-12 68 -20 96zM257.001 815.997c-10 0 -22.333 -0.333984 -37 -1.00098s-28.834 -2.83398 -42.501 -6.50098s-25.167 -10 -34.5 -19s-14 -21.833 -14 -38.5v-262c27.333 0 56.333 7.33301 87 22s58.667 33.334 84 56.001s46.333 48.334 63 77.001s25 57 25 85
c0 20.667 -3.83301 36.667 -11.5 48s-17.667 20 -30 26s-26.166 9.66699 -41.499 11s-31.333 2 -48 2z" />
    <glyph glyph-name="Q" unicode="Q" horiz-adv-x="814" 
d="M568 171c-26.667 0 -52.8301 -4.49805 -78.4971 -13.498s-51.5 -19 -77.5 -30s-52.5 -21 -79.5 -30s-55.167 -13.5 -84.5 -13.5c-39.333 0 -73.333 7.66699 -102 23s-52.334 35.833 -71.001 61.5s-32.5 55.667 -41.5 90s-13.5 70.5 -13.5 108.5
c0 37.333 3.66699 77.5 11 120.5s18.666 85.833 33.999 128.5s34.5 83.834 57.5 123.501s49.833 74.834 80.5 105.501s65.167 55.167 103.5 73.5s80.5 27.5 126.5 27.5c32 0 61.5 -5.66699 88.5 -17s51.5 -26.833 73.5 -46.5s41.333 -42.334 58 -68.001s30.5 -53 41.5 -82
s19.333 -58.5 25 -88.5s8.5 -58.667 8.5 -86s-4.5 -54.5 -13.5 -81.5s-18.667 -53.333 -29 -79s-20 -51.167 -29 -76.5s-13.5 -50.333 -13.5 -75v-10c7.33301 -8.66699 18.166 -20.334 32.499 -35.001s28.833 -30.834 43.5 -48.501s27.334 -36.334 38.001 -56.001
s16 -38.5 16 -56.5c0 -12.667 -2.33301 -22.5 -7 -29.5s-17.334 -10.5 -38.001 -10.5l-22 22l-25 29l-38 45l-38.5 45c-12.333 14 -20.833 24 -25.5 30h-11zM105.004 362.002c0 -28 2.16699 -53.8398 6.5 -77.5068s12 -44 23 -61s26.5 -30.333 46.5 -40
s45.333 -14.5 76 -14.5c8 0 19.5 0.666992 34.5 2s31.333 3.5 49 6.5s35.667 6.83301 54 11.5s34.833 10.834 49.5 18.501s26.834 16.334 36.501 26.001s14.5 21.167 14.5 34.5c0 4 -2.83301 10.5 -8.5 19.5s-13 19.833 -22 32.5l-29.5 40.5
c-10.667 14.333 -20.834 28.666 -30.501 42.999l-26 39c-7.66699 11.667 -12.5 21.5 -14.5 29.5c4.66699 12 10.834 18.833 18.501 20.5s16.167 2.5 25.5 2.5c12.667 0 23.667 -3.83301 33 -11.5s17.833 -17.167 25.5 -28.5s15 -23.666 22 -36.999
s14.333 -25.666 22 -36.999s16 -20.833 25 -28.5s19.833 -11.5 32.5 -11.5s23.5 4.83301 32.5 14.5s16.333 21.834 22 36.501s10 31 13 49s5.16699 35.333 6.5 52s2.16602 31.834 2.49902 45.501s0.5 23.5 0.5 29.5c0 34 -3.5 68.333 -10.5 103s-19 65.834 -36 93.501
s-39.333 50.334 -67 68.001s-62.167 26.5 -103.5 26.5c-31.333 0 -61.333 -8.16699 -90 -24.5s-55 -38 -79 -65s-45.5 -57.833 -64.5 -92.5s-35.167 -70.5 -48.5 -107.5s-23.5 -73.5 -30.5 -109.5s-10.5 -68.667 -10.5 -98z" />
    <glyph glyph-name="R" unicode="R" horiz-adv-x="706" 
d="M-2 706c0 5.33301 0.165039 14.165 0.498047 26.498s0.5 25.333 0.5 39s0.166992 26.667 0.5 39s0.5 20.833 0.5 25.5c7.33301 14 18.833 24.167 34.5 30.5s32.667 10.666 51 12.999s36.333 3.16602 54 2.49902s32.167 -1 43.5 -1c14.667 0 31.834 -0.666992 51.501 -2
s39.334 -3.83301 59.001 -7.5s39.167 -9 58.5 -16s36.5 -16 51.5 -27s27 -24.333 36 -40s13.5 -34.167 13.5 -55.5c0 -25.333 -6 -48.166 -18 -68.499s-26.833 -39.333 -44.5 -57s-37 -34.167 -58 -49.5s-40.333 -30.333 -58 -45s-32.5 -29.667 -44.5 -45s-18 -32 -18 -50
c0 -1.33301 0.5 -3.16602 1.5 -5.49902s1.5 -3.83301 1.5 -4.5c78.667 -23.333 155.167 -51.666 229.5 -84.999s147.5 -69.333 219.5 -108c2 -1.33301 4.16699 -3.83301 6.5 -7.5s4.5 -8 6.5 -13s4 -9.5 6 -13.5s3 -7.33301 3 -10c0 -6 -1.66699 -10.5 -5 -13.5
s-7.33301 -5.33301 -12 -7s-9.33398 -2.5 -14.001 -2.5h-12c-36 0 -71.833 7.83301 -107.5 23.5s-71.5 33.167 -107.5 52.5s-72.5 37 -109.5 53s-75.5 24 -115.5 24h-32l28.5 -66c8.33301 -19.333 15.333 -38 21 -56s10 -36.167 13 -54.5s4.5 -38.166 4.5 -59.499v-16.5
c0 -6.33301 -0.333008 -12.833 -1 -19.5s-2.66699 -12.667 -6 -18s-8.66602 -9 -15.999 -11c-27.333 16 -51.833 40.833 -73.5 74.5s-40.5 72.167 -56.5 115.5s-29.5 89.333 -40.5 138s-20 96.5 -27 143.5s-12 91 -15 132s-4.5 75.167 -4.5 102.5zM83.998 642.999
c0 -8.66699 -0.50293 -19.834 -1.50293 -33.501s-1.16699 -27.667 -0.5 -42s2.83398 -28 6.50098 -41s9.83398 -24.167 18.501 -33.5c1.33301 -0.666992 2.66602 -1 3.99902 -1c0.666992 -0.666992 2.33398 -1 5.00098 -1c12 0 26.5 3.66699 43.5 11s34.833 17 53.5 29
s37.167 25.833 55.5 41.5s34.833 31.834 49.5 48.501s26.5 33.5 35.5 50.5s13.5 32.5 13.5 46.5c0 13.333 -5 24.833 -15 34.5s-22 17.5 -36 23.5s-28.5 10.333 -43.5 13s-27.167 4 -36.5 4c-11.333 0 -24.666 0.166992 -39.999 0.5s-30.5 -0.666992 -45.5 -3
s-28.5 -6.5 -40.5 -12.5s-20.333 -15 -25 -27v-21v-32.5c0 -11.667 -0.166992 -22.5 -0.5 -32.5s-0.5 -17.333 -0.5 -22z" />
    <glyph glyph-name="S" unicode="S" horiz-adv-x="535" 
d="M171 43c3.33301 16 11.8262 29.1621 25.4932 39.4951s29.334 19.833 47.001 28.5s36.167 16.834 55.5 24.501s37.166 15.834 53.499 24.501s29.833 18.834 40.5 30.501s16 25.834 16 42.501c0 21.333 -5.5 39 -16.5 53s-25.667 26 -44 36s-39.166 18.333 -62.499 25
l-71.5 20.5c-24.333 7 -48.166 14.667 -71.499 23s-44.166 18.833 -62.499 31.5s-33 28 -44 46s-16.5 40.333 -16.5 67c0 22 4.5 42.833 13.5 62.5s21 38.334 36 56.001s32.333 33.834 52 48.501s40.334 27 62.001 37s43.5 17.833 65.5 23.5s42.333 8.5 61 8.5h11
c6 -2 14 -5.33301 24 -10l29 -13.5c9.33301 -4.33301 17.333 -8.33301 24 -12s10 -5.83398 10 -6.50098v-23c-12.667 -1.33301 -29 -3.83301 -49 -7.5s-41 -8.5 -63 -14.5s-44.333 -13.5 -67 -22.5s-43 -19.5 -61 -31.5s-32.667 -25.833 -44 -41.5s-17 -33.5 -17 -53.5
c0 -28.667 10 -51.167 30 -67.5s45 -29.833 75 -40.5s62.833 -20.167 98.5 -28.5s68.5 -18.333 98.5 -30s55 -27 75 -46s30 -44.5 30 -76.5c0 -17.333 -5.16699 -35.5 -15.5 -54.5s-24 -37.667 -41 -56s-36.167 -35.833 -57.5 -52.5s-43.166 -31.167 -65.499 -43.5
s-44.166 -22.333 -65.499 -30s-40.333 -11.5 -57 -11.5c-5.33301 0 -11 0.666992 -17 2s-11.167 3.5 -15.5 6.5s-7.66602 7.5 -9.99902 13.5s-1.83301 13.667 1.5 23z" />
    <glyph glyph-name="T" unicode="T" horiz-adv-x="814" 
d="M408 600c-2.66699 9.33301 -7.83398 15.666 -15.501 18.999s-16 5.16602 -25 5.49902s-17.833 -0.166992 -26.5 -1.5s-15.334 -2 -20.001 -2c-11.333 0.666992 -31 2 -59 4l-90.5 6.5c-32.333 2.33301 -62.5 4.66602 -90.5 6.99902s-47.667 3.83301 -59 4.5
c0 1.33301 -0.333008 4.66602 -1 9.99902s-1 9 -1 11c0 9.33301 0.833008 17.666 2.5 24.999s8.16699 13 19.5 17c62.667 -1.33301 124.5 -1 185.5 1s122 4.83301 183 8.5l183 10.5c61 3.33301 122.5 5 184.5 5c0 -25.333 -6 -43.833 -18 -55.5s-26.833 -19.5 -44.5 -23.5
s-37.167 -5.66699 -58.5 -5s-41.833 0.333984 -61.5 -0.999023s-37 -5.16602 -52 -11.499s-24.833 -17.833 -29.5 -34.5c-0.666992 -4 -1.33398 -11.667 -2.00098 -23s-1.16699 -23.333 -1.5 -36s-0.666016 -24.5 -0.999023 -35.5s-0.5 -18.833 -0.5 -23.5
c0 -38 4.83301 -75.5 14.5 -112.5s20.334 -73.667 32.001 -110s22.334 -72.666 32.001 -108.999s14.5 -73.166 14.5 -110.499c0 -28 -16 -42 -48 -42c-19.333 0 -36.5 13.333 -51.5 40s-28 60.667 -39 102s-20 86.333 -27 135s-12.667 95.334 -17 140.001
s-7.33301 84 -9 118s-2.5 56.333 -2.5 67z" />
    <glyph glyph-name="U" unicode="U" horiz-adv-x="621" 
d="M43 686c10.667 -8 19.334 -17.8301 26.001 -29.4971s12 -23.5 16 -35.5c0.666992 -25.333 1 -55.666 1 -90.999s1.33301 -72 4 -110s7.66699 -75.833 15 -113.5s18.833 -71.5 34.5 -101.5s36.667 -54.167 63 -72.5s59.5 -27.5 99.5 -27.5
c36.667 0 68.167 8.66699 94.5 26s48.333 39.333 66 66s30.667 56.5 39 89.5s12.5 65.167 12.5 96.5c0 60.667 -3 122.5 -9 185.5s-17 123.833 -33 182.5c4.66699 12 10.667 18.833 18 20.5s15.333 2.5 24 2.5c17.333 0 31 -7 41 -21s17.5 -31.833 22.5 -53.5
s8 -45.334 9 -71.001s1 -50 0 -73s-2.33301 -43.333 -4 -61s-2.5 -28.834 -2.5 -33.501c0 -34.667 -0.833008 -69.834 -2.5 -105.501s-5.66699 -69.834 -12 -102.501s-15.666 -63.167 -27.999 -91.5s-28.833 -53 -49.5 -74s-46.334 -37.5 -77.001 -49.5
s-67.334 -18 -110.001 -18c-54 0 -98.333 10.333 -133 31s-62.5 48.167 -83.5 82.5s-36.667 73.5 -47 117.5s-17.666 89 -21.999 135s-7.33301 91.333 -9 136s-3.83398 85 -6.50098 121z" />
    <glyph glyph-name="V" unicode="V" horiz-adv-x="643" 
d="M0 723c29.333 0 53.6719 -8.66797 73.0049 -26.001s35.666 -39.833 48.999 -67.5s24.333 -59.334 33 -95.001s17 -72.334 25 -110.001l24.5 -110c8.33301 -35.667 19 -67.5 32 -95.5s28.667 -50.5 47 -67.5s41.833 -25.5 70.5 -25.5c1.33301 0 3 0.333008 5 1
c1.33301 0.666992 3 1.33398 5 2.00098c2.66699 0.666992 6.66699 3.83398 12 9.50098s8.66602 9.5 9.99902 11.5c1.33301 3.33301 4 14.333 8 33s9.5 42.334 16.5 71.001l23.5 97l27.5 109.5l29.5 108c10 35 19.667 66.167 29 93.5s18.166 49.166 26.499 65.499
s15.5 24.5 21.5 24.5c8 0 14.333 -1.66699 19 -5s8 -7.66602 10 -12.999s3.33301 -11.166 4 -17.499s1 -12.5 1 -18.5c0 -10 -1.83301 -27.667 -5.5 -53s-8.66699 -55.166 -15 -89.499s-14 -71.833 -23 -112.5s-18.833 -81.834 -29.5 -123.501s-22.334 -81.667 -35.001 -120
s-25.5 -72.333 -38.5 -102s-26.333 -53.334 -40 -71.001s-27.167 -26.5 -40.5 -26.5c-18 0 -35.333 5 -52 15s-32.334 23 -47.001 39s-28.5 34.167 -41.5 54.5s-24.667 40.833 -35 61.5l-28.5 59c-8.66699 18.667 -15.667 35 -21 49l-26.5 65.5l-32 80.5l-33 84.5l-29.5 76
l-21 55.5c-5.33301 14.667 -8 22.667 -8 24v59z" />
    <glyph glyph-name="W" unicode="W" horiz-adv-x="878" 
d="M0 602c0 10.667 2.16211 20.5059 6.49512 29.5059s12.833 13.5 25.5 13.5c10.667 0 21.167 -11 31.5 -33s21 -50.167 32 -84.5l34.5 -113c12 -41 24.667 -80.667 38 -119s27.333 -72.666 42 -102.999s30.334 -51.5 47.001 -63.5c16 6.66699 28.833 18.5 38.5 35.5
s17.5 37.333 23.5 61s10.5 49.334 13.5 77.001l9 83c3 27.667 6.16699 54.667 9.5 81s8.16602 49.5 14.499 69.5s14.5 36 24.5 48s22.667 18 38 18c9.33301 0 17.666 -0.833008 24.999 -2.5s13.666 -8.5 18.999 -20.5c2.66699 -8.66699 7 -21.334 13 -38.001l20.5 -58
c7.66699 -22 16.334 -45.5 26.001 -70.5s19.667 -49.5 30 -73.5l30.5 -68.5c10 -21.667 19.667 -40.167 29 -55.5c1.33301 -2.66699 4.83301 -6.83398 10.5 -12.501s9.5 -8.83398 11.5 -9.50098l43 43c11.333 11.333 20 28.166 26 50.499s10.5 48.166 13.5 77.499
s5 60.833 6 94.5s1.83301 67.167 2.5 100.5s2 65.666 4 96.999s5.33301 58.833 10 82.5s11.334 42.5 20.001 56.5s20.667 21 36 21c0.666992 0 1.5 -0.166992 2.5 -0.5s2.16699 -0.5 3.5 -0.5c2 -0.666992 3.33301 -1 4 -1s2.33398 -1.16699 5.00098 -3.5l7.5 -6.5
c2.33301 -2 4.33301 -4 6 -6s2.83398 -3.66699 3.50098 -5c0 -4.66699 0.166992 -13 0.5 -25s0.5 -25 0.5 -39s0.166992 -27.167 0.5 -39.5s0.5 -20.833 0.5 -25.5c0 -13.333 -0.166992 -31.666 -0.5 -54.999s-1.33301 -49.833 -3 -79.5s-4 -61.334 -7 -95.001
s-7.5 -67 -13.5 -100s-13.5 -64.667 -22.5 -95s-20 -57 -33 -80s-28 -41.333 -45 -55s-37.167 -20.5 -60.5 -20.5c-22.667 0 -41.834 7.5 -57.501 22.5s-29.167 33.667 -40.5 56s-21 46.666 -29 72.999s-16.167 50.833 -24.5 73.5s-17.333 41.5 -27 56.5
s-21.5 22.5 -35.5 22.5c-1.33301 0 -3.16602 -0.333008 -5.49902 -1s-4.16602 -1 -5.49902 -1c-0.666992 -2.66699 -2.66699 -14.334 -6 -35.001s-8 -45.167 -14 -73.5s-13.333 -58.833 -22 -91.5s-18.5 -62.667 -29.5 -90s-23 -50.166 -36 -68.499
s-27.167 -27.5 -42.5 -27.5c-31.333 0 -60 11.833 -86 35.5s-49.167 54.334 -69.5 92.001s-38.166 79.5 -53.499 125.5s-28.166 91.167 -38.499 135.5s-18 85.666 -23 123.999s-7.5 68.166 -7.5 89.499z" />
    <glyph glyph-name="X" unicode="X" horiz-adv-x="643" 
d="M148 105c0 28 2.33008 55.334 6.99707 82.001s9.66699 53.334 15 80.001l15.5 79.5c5 26.333 7.5 53.5 7.5 81.5v22c-3.33301 2.66699 -10 8.5 -20 17.5s-21.167 19.833 -33.5 32.5l-40 42.5c-14.333 15.667 -27.333 31.834 -39 48.501s-21.334 33 -29.001 49
s-11.5 31.333 -11.5 46c0 2.66699 0.166992 6.66699 0.5 12s1 10.166 2 14.499s3.16699 8.16602 6.5 11.499s7.66602 5 12.999 5c16 0 29.833 -4.33301 41.5 -13s22.167 -19.5 31.5 -32.5s18 -27 26 -42s16.5 -29 25.5 -42s19 -23.833 30 -32.5s24.167 -13 39.5 -13
s29.333 5 42 15s24.834 22.5 36.501 37.5s23.667 31.333 36 49s25.833 34 40.5 49s31.334 27.5 50.001 37.5s40.334 15 65.001 15c0 -18 -4.16699 -34.333 -12.5 -49s-18.5 -28.5 -30.5 -41.5s-25.167 -25.833 -39.5 -38.5s-27.666 -25.834 -39.999 -39.501
s-22.5 -28.5 -30.5 -44.5s-12 -33.667 -12 -53c0 -9.33301 6.66699 -22.333 20 -39s29.833 -34.834 49.5 -54.501s41.167 -39.667 64.5 -60l66 -56.5l53 -44l27 -22c0 -1.33301 0.333008 -4.83301 1 -10.5s1 -9.5 1 -11.5c0 -11.333 -2.5 -21.666 -7.5 -30.999
s-13.833 -14 -26.5 -14c-1.33301 0 -3.16602 0.333008 -5.49902 1s-3.83301 1 -4.5 1l-22.5 20.5l-33.5 30.5l-40 35.5l-40 35l-35 30l-23 19.5l-23 19.5l-27.5 22c-9 7 -16.833 12.833 -23.5 17.5s-10.334 6.66699 -11.001 6l-22 -22c-5.33301 -6 -9.16602 -19 -11.499 -39
s-4.5 -43.5 -6.5 -70.5s-4 -55.5 -6 -85.5s-5.16699 -57.667 -9.5 -83s-10.833 -46.333 -19.5 -63s-20 -25 -34 -25c-12.667 0 -22.167 4 -28.5 12s-10.5 17.833 -12.5 29.5s-2.83301 23.5 -2.5 35.5s0.5 22 0.5 30z" />
    <glyph glyph-name="Y" unicode="Y" horiz-adv-x="643" 
d="M343 558c-26 5.33301 -51.9951 17.3301 -77.9951 35.9971s-50.833 41.334 -74.5 68.001s-46 56.334 -67 89.001s-39.167 65.667 -54.5 99s-27.333 65.666 -36 96.999s-13 59.333 -13 84c0 3.33301 0.166992 7.33301 0.5 12s1 9.16699 2 13.5s3.16699 8 6.5 11
s7.66602 4.5 12.999 4.5c16.667 0 31 -5.83301 43 -17.5s23 -27.167 33 -46.5s19.333 -41.333 28 -66l26.5 -75c9 -25.333 18.5 -50.333 28.5 -75s21.167 -46.667 33.5 -66s26.5 -34.833 42.5 -46.5s34.333 -17.5 55 -17.5c1.33301 0 3.16602 0.333008 5.49902 1
s4.16602 1 5.49902 1c18.667 16.667 35.5 38.834 50.5 66.501s28.833 57.5 41.5 89.5s25 65 37 99s24.5 65.667 37.5 95s26.667 55 41 77s30.833 37.333 49.5 46l43 -44c5.33301 -5.33301 6.16602 -16.166 2.49902 -32.499s-10 -36.666 -19 -60.999
s-20.167 -51.333 -33.5 -81l-42 -92.5l-44 -95.5c-14.667 -31.667 -27.834 -61.5 -39.501 -89.5s-21.167 -53 -28.5 -75s-11 -39.333 -11 -52c0 -40 5.83301 -78.667 17.5 -116s24.167 -74.5 37.5 -111.5s25.666 -74 36.999 -111s17 -74.833 17 -113.5v-20.5
c0 -8.33301 -1.16699 -16.166 -3.5 -23.499s-6.66602 -13 -12.999 -17s-15.5 -4.33301 -27.5 -1c-24.667 36 -46.334 76.833 -65.001 122.5s-34.667 93.167 -48 142.5s-23.166 99.166 -29.499 149.499s-8.83301 98.166 -7.5 143.499z" />
    <glyph glyph-name="Z" unicode="Z" horiz-adv-x="878" 
d="M148 51c0 45.333 8.49902 88.5 25.499 129.5s38.333 80.667 64 119s53.5 75.833 83.5 112.5s58 73.167 84 109.5s47.5 72.666 64.5 108.999s25.5 73.5 25.5 111.5l-0.5 1.5c-0.333008 1 -0.5 2.16699 -0.5 3.5c-0.666992 1.33301 -1 2.66602 -1 3.99902
c-6 6 -15 11 -27 15s-25 7.66699 -39 11s-28.333 6 -43 8s-28.167 3.5 -40.5 4.5l-30.5 2.5l-12 1c-31.333 0 -58.166 -2.5 -80.499 -7.5s-43 -10.167 -62 -15.5l-56 -15c-18.333 -4.66699 -39.166 -7 -62.499 -7c-14.667 0 -25 5.83301 -31 17.5s-9 24.5 -9 38.5
c0 13.333 6.66699 24.333 20 33s30.5 14.834 51.5 18.501s43.5 6 67.5 7s46.167 1.33301 66.5 1s37.333 -1.16602 51 -2.49902s20.834 -2 21.501 -2h34.5c16.333 0 33.5 -0.166992 51.5 -0.5s35.167 -0.666016 51.5 -0.999023s27.833 -0.5 34.5 -0.5
c12.667 -3.33301 27.667 -7 45 -11s34 -9.33301 50 -16s29.5 -15.334 40.5 -26.001s16.5 -23.667 16.5 -39c0 -36.667 -7.33301 -72.5 -22 -107.5s-33.334 -69.667 -56.001 -104s-47.834 -68.5 -75.501 -102.5s-54.334 -68.5 -80.001 -103.5s-48.5 -70.667 -68.5 -107
s-34.333 -73.5 -43 -111.5h44c44.667 0 89.167 1.33301 133.5 4s88.833 5.5 133.5 8.5s89.334 5.83301 134.001 8.5s89.334 4 134.001 4v-69c-26.667 -1.33301 -56.834 -4.66602 -90.501 -9.99902l-107.5 -17l-117.5 -19.5c-40.333 -7 -80.333 -13.333 -120 -19
s-78.167 -10.334 -115.5 -14.001s-71.333 -5.5 -102 -5.5c-8.66699 0 -15.167 1.66699 -19.5 5s-7.83301 7.5 -10.5 12.5s-4.16699 10.5 -4.5 16.5s-0.5 11.667 -0.5 17z" />
    <glyph glyph-name="bracketleft" unicode="[" horiz-adv-x="558" 
d="M20 540c0 4 -0.168945 9.16602 -0.501953 15.499s0 12.5 1 18.5s3 11.5 6 16.5s8.16699 8.16699 15.5 9.5c69.333 22 141 40.167 215 54.5s147.333 21.5 220 21.5v-18.5c0 -7.66699 -0.833008 -15.167 -2.5 -22.5s-4.16699 -14.333 -7.5 -21s-9 -11.334 -17 -14.001
c-6 -1.33301 -15.167 -3.16602 -27.5 -5.49902s-26.333 -4.83301 -42 -7.5l-49 -8.5l-49 -8.5l-42 -7c-12.333 -2 -21.166 -3.66699 -26.499 -5c-3.33301 -1.33301 -10.166 -2.66602 -20.499 -3.99902s-21.333 -3.5 -33 -6.5s-22.667 -7.33301 -33 -13
s-17.166 -12.5 -20.499 -20.5c8 -33.333 13.833 -67 17.5 -101s6.66699 -68.167 9 -102.5s4.5 -68.5 6.5 -102.5s5.33301 -67.667 10 -101h64c22 0 43.833 1 65.5 3s43.334 4.33301 65.001 7l65.5 8c22 2.66699 43.667 4 65 4c6.66699 0 13 -0.333008 19 -1
s11.667 -2.5 17 -5.5s10.166 -7.33301 14.499 -13s7.5 -13.834 9.5 -24.501c0.666992 -1.33301 0.333984 -4.33301 -0.999023 -9s-3 -9.16699 -5 -13.5s-4.5 -8.5 -7.5 -12.5s-5.5 -6.33301 -7.5 -7c-9.33301 -1.33301 -23.333 -3 -42 -5s-39.834 -4.5 -63.501 -7.5
s-48.834 -6 -75.501 -9s-52 -6 -76 -9s-45.5 -5.5 -64.5 -7.5s-33.167 -3.66699 -42.5 -5h-24c-17.333 0 -32 11.333 -44 34s-22 51.834 -30 87.501s-14.167 75 -18.5 118s-7.5 84.5 -9.5 124.5s-3.16699 75.833 -3.5 107.5s-0.5 54.5 -0.5 68.5z" />
    <glyph glyph-name="backslash" unicode="\" horiz-adv-x="520" 
d="M42 753c-1.33301 2.66699 -3.16992 6.83398 -5.50293 12.501l-7.5 18l-7.5 17.5c-2.33301 5.33301 -4.16602 9 -5.49902 11c0 2 1.33301 5.16699 4 9.5s5.66699 8.5 9 12.5s6.66602 7.5 9.99902 10.5s6.33301 4.83301 9 5.5c6 0.666992 16.333 -6.66602 31 -21.999
s31.834 -36 51.501 -62s41.334 -56.167 65.001 -90.5l72.5 -108.5l72.5 -114.5l65.5 -108l52.5 -90.5c15 -26.667 25.833 -47 32.5 -61c4 -8 5 -14.833 3 -20.5s-5.16699 -10.834 -9.5 -15.501s-9.33301 -8.5 -15 -11.5s-11.167 -5.5 -16.5 -7.5
c-16 -7.33301 -33.167 -6.16602 -51.5 3.50098s-37.166 25.167 -56.499 46.5s-39 47.666 -59 78.999s-40 64.666 -60 99.999s-39.167 72 -57.5 110l-51 108.5l-43 95.5z" />
    <glyph glyph-name="bracketright" unicode="]" horiz-adv-x="600" 
d="M231 60c0 1.33301 0.164062 3.49805 0.49707 6.49805s0.833008 6.16699 1.5 9.5c0.666992 2.66699 1.66699 5.66699 3 9l214 65c0 4.66699 0.333008 9 1 13c0.666992 3.33301 1.16699 7 1.5 11s0.5 7.33301 0.5 10s-0.166992 6.66699 -0.5 12l-1 16
c-0.333008 5.33301 -0.666016 10.333 -0.999023 15s-0.5 7.66699 -0.5 9c-1.33301 30 -4 61.833 -8 95.5s-7.16699 67.5 -9.5 101.5s-2.5 67 -0.5 99s8 61.667 18 89c0 2 -0.166992 4.66699 -0.5 8s-0.5 7 -0.5 11s-0.166992 7.83301 -0.5 11.5s-0.5 6.5 -0.5 8.5
c-74.667 0 -148.834 -3.16699 -222.501 -9.5s-147.5 -9.5 -221.5 -9.5c0 23.333 8.5 42.333 25.5 57s38.5 26.167 64.5 34.5s55 14 87 17s63.5 4.66699 94.5 5s59.5 0 85.5 -1s45.667 -1.5 59 -1.5c6.66699 0 15.334 -0.166992 26.001 -0.5s20.834 -0.5 30.501 -0.5h25.5h12
c4 -38 7.33301 -71.5 10 -100.5s4.83398 -56.5 6.50098 -82.5s2.66699 -51 3 -75s0.5 -49.667 0.5 -77c0 -24 1.33301 -47.667 4 -71s5.66699 -46.5 9 -69.5s6.33301 -45.833 9 -68.5s4 -45.667 4 -69c0 -16.667 -5.66699 -31.667 -17 -45s-26 -25.166 -44 -35.499
s-38 -19.166 -60 -26.499s-43.5 -13.5 -64.5 -18.5s-40.167 -8.66699 -57.5 -11s-30.333 -3.5 -39 -3.5c-20.667 0 -33.667 5.83301 -39 17.5s-8 26.5 -8 44.5z" />
    <glyph glyph-name="asciicircum" unicode="^" horiz-adv-x="428" 
d="M191 982c13.333 -7.33301 27.002 -17.9961 41.002 -31.9961s28.167 -29.833 42.5 -47.5s28.333 -36.334 42 -56.001l39.5 -56.5l35.5 -50c11 -15.333 20.167 -27 27.5 -35c-0.666992 -1.33301 -2.66699 -4 -6 -8s-7.33301 -8.16699 -12 -12.5l-14 -13.5
c-4.66699 -4.66699 -8.33398 -8 -11.001 -10h-4c-2 -0.666992 -4 -1 -6 -1c-2.66699 0 -5 0.333008 -7 1h-4c-20 13.333 -35.333 29.166 -46 47.499l-30 52c-9.33301 16.333 -20 30.166 -32 41.499s-29 17 -51 17c-14 -34 -25 -61.667 -33 -83s-14.667 -38 -20 -50
s-10.333 -20.5 -15 -25.5s-10.834 -7.83301 -18.501 -8.5s-18 -0.333984 -31 0.999023s-30.167 2 -51.5 2c0 12.667 2.16699 28.667 6.5 48s10.333 40 18 62s16.667 44.667 27 68s21.5 45 33.5 65s24.833 37.5 38.5 52.5s27.167 25.5 40.5 31.5z" />
    <glyph glyph-name="underscore" unicode="_" 
d="M0 85c8.66699 0.666992 22.5 1.83203 41.5 3.49902s40.333 3 64 4s48.667 2.5 75 4.5s51.5 3.5 75.5 4.5s45.667 2 65 3s33.666 1.83301 42.999 2.5h26c10 0 19.167 -2.33301 27.5 -7s12.5 -13 12.5 -25c0 -6 -2.5 -12.167 -7.5 -18.5s-11.167 -12.166 -18.5 -17.499
s-14.666 -9.5 -21.999 -12.5s-13.333 -4.5 -18 -4.5h-364v63z" />
    <glyph glyph-name="grave" unicode="`" 
d="M103 757c2.66699 13.333 6.99609 21.833 12.9961 25.5s12.833 4.16699 20.5 1.5s16 -8.16699 25 -16.5s18.167 -17.833 27.5 -28.5s18.333 -22 27 -34s16.334 -23.333 23.001 -34c0.666992 -0.666992 2.16699 -2.66699 4.5 -6s4.5 -6 6.5 -8
c7.33301 -8.66699 10.833 -17.5 10.5 -26.5s-2.66602 -16.5 -6.99902 -22.5s-10.666 -9.33301 -18.999 -10s-16.166 3 -23.499 11z" />
    <glyph glyph-name="a" unicode="a" horiz-adv-x="621" 
d="M450 129c-25.333 -17.333 -47.1699 -32.8301 -65.5029 -46.4971s-36.166 -25.167 -53.499 -34.5s-35.833 -16.333 -55.5 -21s-43.834 -7 -72.501 -7c-62 0 -108 16.5 -138 49.5s-45 82.167 -45 147.5c0 25.333 3.33301 51.666 10 78.999s16.5 54.5 29.5 81.5
s28.5 52.667 46.5 77s38.333 45.833 61 64.5s46.834 33.5 72.501 44.5s52.834 16.5 81.501 16.5c48 -4.66699 85.667 -16.5 113 -35.5s48 -43.333 62 -73s23.667 -62.667 29 -99s9.5 -73.833 12.5 -112.5s6.83301 -77.334 11.5 -116.001s14.334 -74.334 29.001 -107.001
c-8.66699 -22 -16.834 -37.5 -24.501 -46.5s-16.167 -10.5 -25.5 -4.5s-20.166 20.667 -32.499 44s-27.5 56.333 -45.5 99zM104.996 215.003c0 -38 7.16406 -65.833 21.4971 -83.5s39.833 -26.5 76.5 -26.5c27.333 0 53.5 4.83301 78.5 14.5s46.833 23 65.5 40
s33.667 37.5 45 61.5s17 50.667 17 80c0 12 0.333008 28.833 1 50.5s-0.666016 43.167 -3.99902 64.5s-9.66602 39.833 -18.999 55.5s-23.333 23.5 -42 23.5c-34.667 0 -66.667 -8.83301 -96 -26.5s-54.666 -40.167 -75.999 -67.5s-38 -57.5 -50 -90.5
s-18 -64.833 -18 -95.5z" />
    <glyph glyph-name="b" unicode="b" horiz-adv-x="621" 
d="M171 43l-58.501 168.503c-18.333 52.333 -34.333 103.666 -48 153.999s-24.5 101.5 -32.5 153.5s-12 107.667 -12 167c0 4.66699 0.166992 13.167 0.5 25.5s0.5 25.166 0.5 38.499s0.166992 26.166 0.5 38.499s0.5 20.833 0.5 25.5c6 13.333 16.5 25.666 31.5 36.999
s30.167 17 45.5 17c0 -49.333 0.666992 -101.833 2 -157.5s5.5 -111.167 12.5 -166.5s18.333 -109.5 34 -162.5s37.834 -101.5 66.501 -145.5c0.666992 16 1.33398 33.667 2.00098 53s2.5 38.666 5.5 57.999s7.83301 38 14.5 56s16.5 34 29.5 48s30 25 51 33
s47.5 11.667 79.5 11c28.667 0 54.5 -5.33301 77.5 -16s42.333 -25.167 58 -43.5s27.667 -39.666 36 -63.999s12.5 -50.166 12.5 -77.499c0 -36.667 -9 -72.667 -27 -108s-41.833 -67 -71.5 -95s-62.834 -50.5 -99.501 -67.5s-74 -25.5 -112 -25.5
c-19.333 0 -38 3.5 -56 10.5s-32.333 18.5 -43 34.5zM407.999 408.003c-13.333 -7.33301 -27.333 -16.001 -42 -26.001s-28.167 -25.5 -40.5 -46.5s-22.833 -49.5 -31.5 -85.5s-14 -83.667 -16 -143c1.33301 0 4.83301 -0.333008 10.5 -1s9.5 -1 11.5 -1
c18 0 38.5 5.66699 61.5 17s45.333 25.333 67 42s40.5 35.167 56.5 55.5s25.667 39.833 29 58.5c2 11.333 -0.333008 24.333 -7 39s-15.5 28.834 -26.5 42.501s-23 25.167 -36 34.5s-25.167 14 -36.5 14z" />
    <glyph glyph-name="c" unicode="c" horiz-adv-x="472" 
d="M0 301c0 28 6.16992 57.3301 18.5029 87.9971s28.833 58.5 49.5 83.5s44.5 45.833 71.5 62.5s55.5 25 85.5 25c15.333 0 30.666 -2.66699 45.999 -8s29.166 -13 41.499 -23s22.333 -22 30 -36s11.5 -29.667 11.5 -47c-12 0 -22.833 1.33301 -32.5 4
s-19.167 5.83398 -28.5 9.50098s-18.5 6.83398 -27.5 9.50098s-18.833 4 -29.5 4c-27.333 0 -49.5 -6.83301 -66.5 -20.5s-30.5 -30.834 -40.5 -51.501s-16.833 -42.834 -20.5 -66.501s-5.5 -45.834 -5.5 -66.501c0 -3.33301 0.166992 -9.66602 0.5 -18.999
s0.666016 -19.166 0.999023 -29.499s0.666016 -20.166 0.999023 -29.499s0.833008 -15.666 1.5 -18.999c7.33301 -16 14.5 -28.333 21.5 -37s14.5 -15.167 22.5 -19.5s16.667 -7 26 -8s20.333 -1.5 33 -1.5c17.333 0 32.5 2.66699 45.5 8s25.167 11.666 36.5 18.999
s22 15.5 32 24.5s20.5 17.333 31.5 25s23 14 36 19s27.833 7.5 44.5 7.5c0 -32.667 -5.83301 -61.667 -17.5 -87s-28 -47 -49 -65s-45.667 -31.833 -74 -41.5s-59.166 -14.5 -92.499 -14.5c-31.333 0 -59.5 10.667 -84.5 32s-46.333 47.5 -64 78.5
s-31.167 63.833 -40.5 98.5s-14 65.334 -14 92.001z" />
    <glyph glyph-name="d" unicode="d" horiz-adv-x="558" 
d="M-2 118c0 38.667 9.66406 73.0029 28.9971 103.003s43.333 56.167 72 78.5s59.667 41.333 93 57s64.333 28.667 93 39s52.667 18.666 72 24.999s29 11.5 29 15.5c0 23.333 -1.16699 46.166 -3.5 68.499s-4.83301 44.833 -7.5 67.5s-5.16699 45.167 -7.5 67.5
s-3.5 44.5 -3.5 66.5v65c27.333 10 46.833 9 58.5 -3s13.5 -32.667 5.5 -62c2.66699 -14.667 6.33398 -37.667 11.001 -69l15.5 -106l18 -124l18 -124.5c5.66699 -39.667 10.5 -75 14.5 -106l9 -69.5c0.666992 -3.33301 1.33398 -9.83301 2.00098 -19.5s1.16699 -20 1.5 -31
s0.666016 -21.167 0.999023 -30.5s0.5 -16 0.5 -20c-25.333 0 -42.5 1 -51.5 3s-14.667 6 -17 12s-3.5 14.667 -3.5 26s-3.33301 27 -10 47c-24.667 -19.333 -48 -35.333 -70 -48s-44 -22.834 -66 -30.501s-44.167 -13 -66.5 -16s-46.166 -4.5 -71.499 -4.5
c-21.333 0 -41.833 1.83301 -61.5 5.5s-37.167 10.167 -52.5 19.5s-27.666 22 -36.999 38s-14 36 -14 60zM84.9971 139.003c0 -10.667 2.33203 -19.332 6.99902 -25.999s10.667 -12.334 18 -17.001s15.166 -7.83398 23.499 -9.50098s16.5 -2.5 24.5 -2.5
c23.333 0 48.5 4.5 75.5 13.5s52 21.667 75 38s42 35.833 57 58.5s22.5 47.334 22.5 74.001c0 20.667 -3.66699 35 -11 43s-21.333 12 -42 12c-21.333 0 -46.166 -5 -74.499 -15s-55.666 -23.333 -81.999 -40s-48.5 -36.167 -66.5 -58.5s-27 -45.833 -27 -70.5z" />
    <glyph glyph-name="e" unicode="e" horiz-adv-x="558" 
d="M20 278c0 36 4.33203 72 12.999 108s22.5 68.333 41.5 97s43.667 52 74 70s67.166 27 110.499 27c24.667 0 46.334 -4.5 65.001 -13.5s34.334 -20.833 47.001 -35.5s22.167 -31.834 28.5 -51.501s9.5 -40.167 9.5 -61.5c0 -34 -7.83301 -67 -23.5 -99
s-36.667 -60.167 -63 -84.5s-56.5 -42.666 -90.5 -54.999s-68.667 -15.166 -104 -8.49902c0.666992 -19.333 7.16699 -34.833 19.5 -46.5s27.166 -20.5 44.499 -26.5s35.333 -9.83301 54 -11.5s35.334 -2.5 50.001 -2.5c15.333 0 29.666 1.33301 42.999 4
s26.666 5.66699 39.999 9s26.833 6.33301 40.5 9s28.167 4 43.5 4c6 0 12 -0.333008 18 -1s11.667 -2.16699 17 -4.5s9.66602 -6 12.999 -11s5 -11.167 5 -18.5c0 -12.667 -4.66699 -23.167 -14 -31.5s-21.166 -15.5 -35.499 -21.5s-30.166 -10.5 -47.499 -13.5
s-34.166 -5.33301 -50.499 -7s-31.333 -2.66699 -45 -3s-23.834 -0.5 -30.501 -0.5c-42.667 0 -81 6.83301 -115 20.5s-62.667 32.667 -86 57s-41.166 53.666 -53.499 87.999s-18.5 72.5 -18.5 114.5zM125.999 343c0 -23.333 3.16309 -40.3311 9.49609 -50.998
s21.833 -16 46.5 -16c17.333 0 34.333 3.16699 51 9.5s31.834 15.166 45.501 26.499s24.5 24.666 32.5 39.999s12 32 12 50c0 10 -0.833008 20.333 -2.5 31s-5.16699 20.5 -10.5 29.5s-12.166 16.333 -20.499 22s-19.166 8.5 -32.499 8.5c-20 0 -38.167 -4.5 -54.5 -13.5
s-30.166 -20.667 -41.499 -35s-20 -30.333 -26 -48s-9 -35.5 -9 -53.5z" />
    <glyph glyph-name="f" unicode="f" horiz-adv-x="706" 
d="M427 -93c-14 26 -29.4941 58.501 -46.4941 97.501l-52.5 122c-18 42.333 -36.833 83.833 -56.5 124.5s-39.5 76 -59.5 106c-8 6 -19 9.66699 -33 11s-28.667 1.83301 -44 1.5s-30.5 0 -45.5 1s-28 4.5 -39 10.5s-19.167 15.333 -24.5 28s-6.33301 31 -3 55h168
c3.33301 37.333 9 74.333 17 111s18.833 71.667 32.5 105s30.167 64.333 49.5 93s42.666 53.334 69.999 74.001s58.833 37 94.5 49s76.167 18 121.5 18c16 0 32 -3.83301 48 -11.5s30.333 -17.834 43 -30.501s22.834 -27 30.501 -43s11.5 -32 11.5 -48
c-12.667 0 -24 2.5 -34 7.5s-19.667 10.667 -29 17s-19.333 12.333 -30 18s-22.667 8.5 -36 8.5c-40 0 -77.167 -8 -111.5 -24s-64.333 -37.333 -90 -64s-45.834 -57.667 -60.501 -93s-22 -72.666 -22 -111.999c0 -2.66699 0.166992 -7.5 0.5 -14.5s0.5 -14.5 0.5 -22.5
s0.166992 -15.667 0.5 -23s0.5 -12.333 0.5 -15c24.667 -8 52.334 -14 83.001 -18s61.5 -6.5 92.5 -7.5s61 -0.833008 90 0.5s54.833 3 77.5 5l11 -11c5.33301 -5.33301 8.33301 -9.33301 9 -12c0 -2 0.333008 -3.33301 1 -4l2 -6c0 -14 -7.33301 -25 -22 -33
s-33.334 -13.833 -56.001 -17.5s-47.834 -6.16699 -75.501 -7.5s-54.334 -2.5 -80.001 -3.5s-48.667 -2.33301 -69 -4s-34.5 -4.83398 -42.5 -9.50098c8.66699 -40 24.167 -78.667 46.5 -116l68.5 -112c23.333 -37.333 44 -75 62 -113s27 -77 27 -117
c-2.66699 0 -8.83398 -0.166992 -18.501 -0.5s-19.834 0.166992 -30.501 1.5s-20.834 4.16602 -30.501 8.49902s-15.167 10.833 -16.5 19.5z" />
    <glyph glyph-name="g" unicode="g" horiz-adv-x="579" 
d="M278 -532c37.333 0 70.6641 6.83398 99.9971 20.501s54.166 32.334 74.499 56.001s36 50.667 47 81s16.5 61.833 16.5 94.5c0 16.667 -0.833008 38.667 -2.5 66s-4.16699 57 -7.5 89s-8.16602 64.667 -14.499 98s-14.166 64.833 -23.499 94.5s-20.833 55.667 -34.5 78
s-29.5 38.166 -47.5 47.499c-17.333 -13.333 -34.333 -25.5 -51 -36.5s-34 -20.167 -52 -27.5s-36.667 -13.166 -56 -17.499s-40 -6.5 -62 -6.5c-28.667 0 -53.167 2.66699 -73.5 8s-37.333 14.333 -51 27s-23.834 29.334 -30.501 50.001s-10 46.667 -10 78
c0 22 5.33301 43.5 16 64.5s24.834 40.667 42.501 59s37.667 35.166 60 50.499s45.333 28.666 69 39.999s47 20 70 26s43.5 9 61.5 9c17.333 0 31.666 -0.5 42.999 -1.5s21 -3.66699 29 -8s14.833 -11 20.5 -20s11.167 -21.167 16.5 -36.5c15.333 -52 33 -108 53 -168
s39 -121.667 57 -185s33.167 -127.166 45.5 -191.499s18.5 -126.5 18.5 -186.5c0 -53.333 -7.5 -98.5 -22.5 -135.5s-34.667 -67.333 -59 -91s-52 -41.834 -83 -54.501s-62.167 -20.834 -93.5 -24.501s-61.666 -4.5 -90.999 -2.5s-54.666 5.83301 -75.999 11.5
s-37.5 12.167 -48.5 19.5s-13.667 13.5 -8 18.5s20.834 8.5 45.501 10.5s62 0.666992 112 -4zM291.998 433.001c-49.333 -10.667 -89.168 -25.498 -119.501 -44.498s-53 -39.333 -68 -61s-23.167 -43.334 -24.5 -65.001s2.66699 -40.167 12 -55.5s22.833 -26.833 40.5 -34.5
s37.834 -8 60.501 -1s46.834 22.167 72.501 45.5s51.5 58 77.5 104c0 11.333 0.166992 23.666 0.5 36.999s-0.833984 25.5 -3.50098 36.5s-7.66699 20.167 -15 27.5s-18.333 11 -33 11z" />
    <glyph glyph-name="h" unicode="h" horiz-adv-x="488" 
d="M49 650c0 7.33301 0.827148 16.499 2.49414 27.499s4.66699 21.5 9 31.5s9.83301 18.5 16.5 25.5s15.334 10.5 26.001 10.5c0.666992 0 2.33398 -0.333008 5.00098 -1s4.33398 -1 5.00098 -1c11.333 -41.333 18 -82.333 20 -123s1.33301 -80.167 -2 -118.5
s-8.33301 -75.333 -15 -111s-12.167 -68.5 -16.5 -98.5s-7 -57 -8 -81s2.5 -44.333 10.5 -61c-1.33301 10.667 -2.16602 23.5 -2.49902 38.5s1 30.5 4 46.5s8 32 15 48s17.167 30.333 30.5 43s30.5 22.667 51.5 30s47.167 11 78.5 11c32.667 0 60.834 -5.66699 84.501 -17
s43.167 -26.833 58.5 -46.5s26.833 -42.667 34.5 -69s11.5 -54.5 11.5 -84.5c0 -14 -0.166992 -29.833 -0.5 -47.5s-2.66602 -34 -6.99902 -49s-12 -27.667 -23 -38s-27.167 -15.5 -48.5 -15.5c0 10.667 0.666992 25.167 2 43.5s2.16602 37.833 2.49902 58.5
s-0.333984 41.667 -2.00098 63s-6.16699 40.5 -13.5 57.5s-17.5 31 -30.5 42s-30.833 16.5 -53.5 16.5c-8 0 -17.833 -0.5 -29.5 -1.5s-23.5 -4.16699 -35.5 -9.5s-23.667 -13.5 -35 -24.5s-20.333 -26 -27 -45s-10.5 -43 -11.5 -72s2.5 -64.5 10.5 -106.5
c-4.66699 -12 -10.5 -19 -17.5 -21s-15.833 -3 -26.5 -3c-21.333 0 -38.833 7.5 -52.5 22.5s-24.167 35.167 -31.5 60.5s-12.166 54.666 -14.499 87.999s-3.16602 68.166 -2.49902 104.499s2.5 73.333 5.5 111s6 73.334 9 107.001s6 64.334 9 92.001s4.5 49.834 4.5 66.501z
" />
    <glyph glyph-name="i" unicode="i" horiz-adv-x="236" 
d="M62 375c0 4 0.171875 10.499 0.504883 19.499s0.666016 18.5 0.999023 28.5l1 29c0.333008 9.33301 0.5 16 0.5 20c7.33301 10.667 16.833 19.334 28.5 26.001s23.5 12 35.5 16c2 -36 7.66699 -74.333 17 -115s19.333 -81.5 30 -122.5s20.167 -81.5 28.5 -121.5
s12.5 -77.333 12.5 -112c0 -30 -15.333 -45 -46 -45c-18.667 0 -34.334 7.66699 -47.001 23s-22.834 34.833 -30.501 58.5s-13.834 50 -18.501 79s-7.83398 57.5 -9.50098 85.5s-2.66699 53.667 -3 77s-0.5 41.333 -0.5 54zM76.0049 749.999
c12.667 -5.33301 23.333 -13.998 32 -25.998s12.5 -22.833 11.5 -32.5s-8.5 -16.334 -22.5 -20.001s-37.333 0.166016 -70 11.499c0 18 3.5 33.667 10.5 47s19.833 20 38.5 20z" />
    <glyph glyph-name="j" unicode="j" horiz-adv-x="301" 
d="M-217 -315c19.333 0 36.999 -5.00488 52.999 -15.0049l50.5 -32.5c17.667 -11.667 36.834 -22.5 57.501 -32.5s44.667 -15 72 -15s54 3.5 80 10.5s49.333 17.667 70 32s37.334 33 50.001 56s19 50.167 19 81.5c0 52 -4.16699 106 -12.5 162s-19 111.833 -32 167.5
s-27 109.834 -42 162.501l-41.5 146c0 0.666992 -0.333008 2.33398 -1 5.00098s-1 4.33398 -1 5.00098c0 13.333 4.66699 22.5 14 27.5s19.333 7.5 30 7.5c2.66699 0 6.66699 -0.333008 12 -1s8.66602 -1 9.99902 -1c20.667 -52 40.167 -105.167 58.5 -159.5
s34.5 -109.5 48.5 -165.5s25 -112.167 33 -168.5s12 -112.166 12 -167.499c0 -43.333 -7.5 -82.666 -22.5 -117.999s-35.833 -65.333 -62.5 -90s-58.5 -43.667 -95.5 -57s-77.167 -20 -120.5 -20c-28.667 0 -57.167 3.16699 -85.5 9.5s-54 16.5 -77 30.5
s-41.5 32.5 -55.5 55.5s-21 51.167 -21 84.5zM17.999 696.995v11.999c0 6 0.666992 12.167 2 18.5s3.66602 11.833 6.99902 16.5s8.33301 7 15 7c11.333 0 20 -1.5 26 -4.5s10.333 -6.66699 13 -11s4.33398 -9.66602 5.00098 -15.999s1 -13.5 1 -21.5
c0 -5.33301 -0.333008 -11.333 -1 -18s-2 -13 -4 -19s-5.33301 -10.833 -10 -14.5s-11 -5.5 -19 -5.5s-14.333 1.83301 -19 5.5s-8.16699 8.16699 -10.5 13.5s-3.83301 11.333 -4.5 18s-1 13 -1 19z" />
    <glyph glyph-name="k" unicode="k" horiz-adv-x="579" 
d="M214 20c-10.667 -9.33301 -21.8311 -4.99902 -33.498 13.001s-23.5 45.167 -35.5 81.5s-23.833 79.833 -35.5 130.5s-22.834 104.334 -33.501 161.001s-20.834 114.167 -30.501 172.5s-18.167 113.166 -25.5 164.499c0 9.33301 -0.166992 18.833 -0.5 28.5
s0.666992 18.667 3 27s6.66602 15.833 12.999 22.5s16.166 11.667 29.499 15c1.33301 0.666992 4.16602 0.166992 8.49902 -1.5s8.83301 -3.66699 13.5 -6s8.83398 -4.83301 12.501 -7.5s6.16699 -5 7.5 -7c-8.66699 -124.667 5.66602 -246 42.999 -364
c2 2 7.33301 8.83301 16 20.5s19.667 25.334 33 41.001s28.5 32.5 45.5 50.5s34.833 34.667 53.5 50s37.334 28.166 56.001 38.499s36.667 15.5 54 15.5c10 0 19.833 -2.33301 29.5 -7s14.5 -13.667 14.5 -27c0 -1.33301 -0.333008 -3.16602 -1 -5.49902
s-1 -4.16602 -1 -5.49902l-48.5 -43c-21.667 -19.333 -44.5 -41 -68.5 -65s-47 -49 -69 -75s-38.667 -50.667 -50 -74c-2 -4 -2.66699 -7.5 -2 -10.5s1.33398 -6.5 2.00098 -10.5c7.33301 -2.66699 19 -6.66699 35 -12l53 -18.5l62 -22l62 -22.5l52.5 -19.5
c15.667 -5.66699 27.5 -9.83398 35.5 -12.501c9.33301 -4 17 -6.66699 23 -8s10.667 -3.16602 14 -5.49902s5.66602 -5.5 6.99902 -9.5s2 -10 2 -18c0 -19.333 -4.66699 -32 -14 -38s-22.666 -9 -39.999 -9c-51.333 3.33301 -101.666 14.166 -150.999 32.499
s-99.333 40.5 -150 66.5c-2 -12.667 -1.16699 -27.334 2.5 -44.001s8.16699 -33.334 13.5 -50.001l15.5 -49c5 -16 8 -30.333 9 -43s-0.5 -22.667 -4.5 -30s-13 -11 -27 -11z" />
    <glyph glyph-name="l" unicode="l" horiz-adv-x="234" 
d="M44 566c0 19.333 -1.33105 38.168 -3.99805 56.501s-3.33398 34.666 -2.00098 48.999s6.5 25.833 15.5 34.5s25.5 13 49.5 13c7.33301 -15.333 14.5 -38.666 21.5 -69.999s13.833 -67.333 20.5 -108s13 -84.834 19 -132.501s11.5 -95.5 16.5 -143.5
s9.33301 -95.167 13 -141.5s6.5 -88.5 8.5 -126.5c-22 -14.667 -39.667 -15.667 -53 -3s-24.333 34.167 -33 64.5s-15.334 67.333 -20.001 111s-9.16699 89 -13.5 136s-9.5 93.333 -15.5 139s-13.667 86.167 -23 121.5z" />
    <glyph glyph-name="m" unicode="m" horiz-adv-x="878" 
d="M-2 420c0 16.667 2.83594 29.668 8.50293 39.001s17.834 14 36.501 14c2 0 5.83301 -0.166992 11.5 -0.5s9.16699 -0.5 10.5 -0.5l14.5 -67.5c5 -24.333 10.833 -48.833 17.5 -73.5s14.167 -49 22.5 -73s18.5 -45.667 30.5 -65c12 12.667 20.667 27.667 26 45
s9.33301 34.833 12 52.5l7.5 51c2.33301 16.333 7.16602 30.333 14.499 42s18.166 20.167 32.499 25.5s34.166 5.33301 59.499 0c28 0 50.333 -5.16699 67 -15.5s31.167 -23.333 43.5 -39s24.333 -32.334 36 -50.001s26.5 -33.5 44.5 -47.5l15 32.5
c6 13 13.5 26.667 22.5 41s18.667 28.666 29 42.999s21.166 27.333 32.499 39s23 21.334 35 29.001s23.667 11.5 35 11.5c27.333 0 51 -8.5 71 -25.5s37.167 -38.333 51.5 -64s26.166 -54.334 35.499 -86.001s16.666 -62.167 21.999 -91.5s9.16602 -56.166 11.499 -80.499
s3.5 -41.833 3.5 -52.5c0 -8.66699 -2 -15.334 -6 -20.001s-9 -8.16699 -15 -10.5s-12.5 -3.83301 -19.5 -4.5s-13.5 -1 -19.5 -1c-1.33301 0 -3.33301 0.166992 -6 0.5s-5.66699 0.833008 -9 1.5c-2.66699 0.666992 -6.33398 1.66699 -11.001 3l-65 299
c0 2 -2.66699 5.83301 -8 11.5s-9.33301 9.16699 -12 10.5c-2 0 -3.66699 0.333008 -5 1c-1.33301 0 -2.33301 0.166992 -3 0.5s-1.33398 0.5 -2.00098 0.5c-14 0 -27.167 -5.66699 -39.5 -17s-23.833 -25.666 -34.5 -42.999s-20.667 -36.666 -30 -57.999
s-17.666 -42.5 -24.999 -63.5l-19.5 -58c-5.66699 -17.667 -10.167 -31.167 -13.5 -40.5c-2.66699 -1.33301 -8 -2.5 -16 -3.5s-13.333 -1.5 -16 -1.5c-18.667 0 -33 6.5 -43 19.5s-18.167 29.167 -24.5 48.5s-11.666 40.5 -15.999 63.5s-9.66602 44.167 -15.999 63.5
s-15 35.5 -26 48.5s-26.5 19.5 -46.5 19.5c-7.33301 0 -14.333 -7.33301 -21 -22s-12.667 -33.167 -18 -55.5s-10.333 -46.333 -15 -72s-8.5 -49.667 -11.5 -72s-5.16699 -41.166 -6.5 -56.499l-2 -23c-1.33301 -2 -4 -4.16699 -8 -6.5l-12.5 -7.5
c-4.33301 -2.66699 -8.66602 -4.66699 -12.999 -6s-7.5 -2 -9.5 -2c-18.667 0 -36.667 8.5 -54 25.5s-33.166 39 -47.499 66s-27.333 56.833 -39 89.5s-21.5 64.667 -29.5 96s-14.167 59.666 -18.5 84.999s-6.5 44.666 -6.5 57.999z" />
    <glyph glyph-name="n" unicode="n" horiz-adv-x="579" 
d="M20 337c0 17.333 4.33496 29.833 13.002 37.5s22.667 11.5 42 11.5h10l7 -37c2.66699 -14 6.66699 -28.333 12 -43s11.666 -28.167 18.999 -40.5s16.333 -22.166 27 -29.499c0.666992 23.333 6.5 45.833 17.5 67.5s24.667 41 41 58s34.333 31.333 54 43
s39.167 19.5 58.5 23.5h22c32 0 59.333 -7.16699 82 -21.5s41.5 -33 56.5 -56s26.5 -49.167 34.5 -78.5s14.167 -59.166 18.5 -89.499s7 -59.666 8 -87.999s1.5 -52.5 1.5 -72.5h-73c-4 40 -9 78.333 -15 115c-2 14.667 -4.66699 30.167 -8 46.5s-7 31.666 -11 45.999
s-8.33301 27.666 -13 39.999s-10 22.833 -16 31.5l-10.5 11l-13.5 14c-4.66699 4.66699 -9 8.66699 -13 12s-6.33301 5 -7 5c-20 5.33301 -37.333 1.5 -52 -11.5s-27.667 -30.5 -39 -52.5s-20.5 -47 -27.5 -75s-12.833 -54.833 -17.5 -80.5s-8 -48 -10 -67
s-3.33301 -30.5 -4 -34.5c-16.667 -12 -32.334 -15.5 -47.001 -10.5s-28.5 15.5 -41.5 31.5s-24.667 36 -35 60s-19.833 49.5 -28.5 76.5s-16.5 54.167 -23.5 81.5s-13.167 52.666 -18.5 75.999z" />
    <glyph glyph-name="o" unicode="o" 
d="M20 203c0 41.333 9.66309 79.8301 28.9961 115.497s44.833 66.334 76.5 92.001s67.334 45.834 107.001 60.501s79.834 22 120.501 22c22.667 0 42.834 -7.33301 60.501 -22s32.5 -32.5 44.5 -53.5s21.167 -43.167 27.5 -66.5s9.5 -43.666 9.5 -60.999
c0 -37.333 -9 -73.5 -27 -108.5s-41.333 -66 -70 -93s-61 -48.833 -97 -65.5s-72 -25 -108 -25c-32 0 -59 5.5 -81 16.5s-39.667 25.667 -53 44s-23.166 40 -29.499 65s-9.5 51.5 -9.5 79.5zM104.996 192.997c0 -17.333 1.49707 -32.502 4.49707 -45.502
s8.33301 -24.167 16 -33.5s17.834 -16.5 30.501 -21.5s28.334 -7.5 47.001 -7.5c24.667 0 49.334 6.83301 74.001 20.5s46.834 31 66.501 52s35.5 44.167 47.5 69.5s18 50 18 74c0 10.667 -1 22.334 -3 35.001s-5.33301 24.334 -10 35.001s-11.334 19.667 -20.001 27
s-19.667 11 -33 11c-12 0 -26.167 -4 -42.5 -12s-33.333 -18.333 -51 -31s-35 -27 -52 -43s-32.5 -32 -46.5 -48s-25.167 -31.333 -33.5 -46s-12.5 -26.667 -12.5 -36z" />
    <glyph glyph-name="p" unicode="p" horiz-adv-x="472" 
d="M20 369c0 64.667 15.001 112.672 45.001 144.005s76 47 138 47c25.333 0 51.5 -2.33301 78.5 -7s51.833 -12.834 74.5 -24.501s41.167 -27.834 55.5 -48.501s21.5 -47.334 21.5 -80.001c0 -36 -7.83301 -69.833 -23.5 -101.5s-35.334 -61.334 -59.001 -89.001
s-49.667 -53.334 -78 -77.001l-79.5 -67.5c-1.33301 -2.66699 -2.5 -8.16699 -3.5 -16.5s-1.5 -13.833 -1.5 -16.5c0 -22 6.5 -44.167 19.5 -66.5s27.167 -45 42.5 -68s29.333 -46.833 42 -71.5s19 -50.334 19 -77.001c0 -16 -3.33301 -25.5 -10 -28.5
s-20.667 -4.5 -42 -4.5c-13.333 5.33301 -26.5 17.833 -39.5 37.5s-26 43.834 -39 72.501s-25.667 60.834 -38 96.501s-24 72 -35 109s-21.333 73.667 -31 110s-18.167 69.833 -25.5 100.5l-19.5 79.5c-5.66699 22.333 -9.5 38.166 -11.5 47.499zM105.001 360.005
c0 -10 0.668945 -24.501 2.00195 -43.501s4.16602 -37.833 8.49902 -56.5s10.833 -34.834 19.5 -48.501s20.667 -20.5 36 -20.5c20.667 0 41.5 7 62.5 21s39.667 31.667 56 53s29.666 44.166 39.999 68.499s15.5 46.5 15.5 66.5c0 16.667 -4 29.834 -12 39.501
s-18.167 17.334 -30.5 23.001s-25.5 9.33398 -39.5 11.001s-27.333 2.5 -40 2.5c-38 0 -67.167 -10.167 -87.5 -30.5s-30.5 -48.833 -30.5 -85.5z" />
    <glyph glyph-name="q" unicode="q" horiz-adv-x="551" 
d="M377 130c-14 0 -27.668 -2.33008 -41.001 -6.99707s-26.666 -10 -39.999 -16s-26.833 -11.333 -40.5 -16s-28.167 -7 -43.5 -7c-29.333 0 -55.666 4.83301 -78.999 14.5s-43.166 23.167 -59.499 40.5s-29 37.833 -38 61.5s-13.5 49.5 -13.5 77.5c0 36.667 7 67.5 21 92.5
s32.5 45.167 55.5 60.5s49.167 26.166 78.5 32.499s59.333 9.5 90 9.5c34 -1.33301 64.667 -12.5 92 -33.5s51.833 -48.167 73.5 -81.5s40.5 -70.833 56.5 -112.5s29.167 -84.167 39.5 -127.5s17.833 -85.333 22.5 -126s6.66699 -76.834 6 -108.501
s-3.5 -56.834 -8.5 -75.501s-12.5 -27 -22.5 -25c-18 2.66699 -31.5 10.5 -40.5 23.5s-16 29.167 -21 48.5s-8 40.5 -9 63.5s-1.83301 46 -2.5 69s-1.83398 45 -3.50098 66s-4.83398 38.333 -9.50098 52s-12 23.167 -22 28.5s-23.667 4 -41 -4zM106.999 268.003
c0 -11.333 2.84082 -22.6699 8.50781 -34.0029s13.167 -21.666 22.5 -30.999s19.666 -17 30.999 -23s22.666 -9 33.999 -9s26 2.5 44 7.5s35.667 12.333 53 22s32.333 21 45 34s19 27.5 19 43.5c0 22.667 -1.33301 42.334 -4 59.001s-7.33398 30.334 -14.001 41.001
s-16.334 18.5 -29.001 23.5s-29.334 7.5 -50.001 7.5c-16.667 0 -34.334 -3.83301 -53.001 -11.5s-35.834 -18.167 -51.501 -31.5s-28.834 -28.5 -39.501 -45.5s-16 -34.5 -16 -52.5z" />
    <glyph glyph-name="r" unicode="r" horiz-adv-x="511" 
d="M20 420c0 6 0.333984 12.1699 1.00098 18.5029s2 12 4 17s5.16699 9.16699 9.5 12.5s10.5 5 18.5 5c6.66699 0 14.167 -5.16699 22.5 -15.5s16.833 -23.333 25.5 -39s17.167 -32.834 25.5 -51.501s15.666 -35.834 21.999 -51.501s11.5 -29.167 15.5 -40.5
s6.33301 -17.333 7 -18l29 76c10.667 27.333 23.834 52.833 39.501 76.5s34.334 43.5 56.001 59.5s48.167 24 79.5 24c16 0 31.167 -2.5 45.5 -7.5s27 -12.333 38 -22s19.833 -21.167 26.5 -34.5s10 -28.666 10 -45.999c0 -14.667 -5.83301 -25 -17.5 -31
s-24.834 -9 -39.501 -9h-10l-43 43c-1.33301 0 -2.33301 0.333008 -3 1c-1.33301 0 -2.5 0.166992 -3.5 0.5s-2.16699 0.5 -3.5 0.5c-23.333 0 -41.5 -6.5 -54.5 -19.5s-22.833 -29 -29.5 -48s-10.834 -39 -12.501 -60s-2.5 -40.167 -2.5 -57.5
c0 -13.333 1.33301 -26.833 4 -40.5s5.66699 -27 9 -40s6.33301 -26.333 9 -40s4 -27.834 4 -42.501c0 -28 -15 -42 -45 -42c-16.667 0 -34 8.83301 -52 26.5s-35.833 40.167 -53.5 67.5s-34.5 57.5 -50.5 90.5s-30 65.167 -42 96.5s-21.5 59.666 -28.5 84.999
s-10.5 44 -10.5 56z" />
    <glyph glyph-name="s" unicode="s" horiz-adv-x="493" 
d="M212 45c10.667 7.33301 23.5029 16.8359 38.5029 28.5029s30.167 24.167 45.5 37.5s29.666 27.333 42.999 42s23.833 28.834 31.5 42.501s11.5 26.5 11.5 38.5s-6 22 -18 30c-21.333 0 -44.666 -0.833008 -69.999 -2.5s-50.666 -2.33398 -75.999 -2.00098
s-49.833 2.5 -73.5 6.5s-44.834 11.333 -63.501 22s-33.5 25.834 -44.5 45.501s-16.5 44.834 -16.5 75.501c0 36 6.83301 68.5 20.5 97.5s31.834 54.667 54.501 77s48.167 42 76.5 59s56.833 31.5 85.5 43.5c17.333 -4.66699 33.333 -13 48 -25s27.334 -25.333 38.001 -40
c-4.66699 -14.667 -13.834 -26 -27.501 -34s-29.334 -15 -47.001 -21l-55.5 -19c-19.333 -6.66699 -36.833 -15.5 -52.5 -26.5s-28.834 -25.333 -39.501 -43s-16 -40.834 -16 -69.501c0 -21.333 5.33301 -37 16 -47s24.667 -16.833 42 -20.5s37 -5 59 -4s44.5 2.5 67.5 4.5
s45.5 3.16699 67.5 3.5s41.667 -2.33398 59 -8.00098s31.166 -14.834 41.499 -27.501s15.5 -31.334 15.5 -56.001c0 -10.667 -3.5 -24.334 -10.5 -41.001s-16.333 -34.5 -28 -53.5s-25.334 -37.833 -41.001 -56.5s-32 -35.5 -49 -50.5s-34 -27.333 -51 -37
s-32.833 -14.5 -47.5 -14.5c-14 0 -23.167 5 -27.5 15s-6.5 20 -6.5 30z" />
    <glyph glyph-name="t" unicode="t" horiz-adv-x="643" 
d="M-2 504c0 2 0.327148 3.66406 0.994141 4.99707c0 1.33301 0.333008 3 1 5c2.66699 3.33301 6.66699 7.66602 12 12.999s8.66602 8 9.99902 8h201c0 7.33301 -1 19 -3 35s-3.83301 33.667 -5.5 53s-2.16699 39.5 -1.5 60.5s3.5 40 8.5 57s13 31 24 42
s26.5 16.5 46.5 16.5c0 -67.333 4.66699 -121.333 14 -162s21.833 -72 37.5 -94s33.5 -36.333 53.5 -43s40.5 -9.5 61.5 -8.5s41.5 4.16699 61.5 9.5s37.833 9 53.5 11s28.167 0.5 37.5 -4.5s14 -16.833 14 -35.5c0 -14 -3.16699 -24 -9.5 -30s-18.5 -10.667 -36.5 -14
c-5.33301 -0.666992 -14.166 -1.83398 -26.499 -3.50098s-26.166 -3.16699 -41.499 -4.5s-31.666 -2.83301 -48.999 -4.5s-33.666 -3.16699 -48.999 -4.5s-29.333 -2.16602 -42 -2.49902s-22 -0.5 -28 -0.5c0 -3.33301 -0.333008 -9 -1 -17s-1 -13.333 -1 -16
c0 -29.333 4.66699 -57.833 14 -85.5s19.5 -55.167 30.5 -82.5s21.167 -54.666 30.5 -81.999s14 -55.666 14 -84.999c0 -5.33301 -0.5 -10.833 -1.5 -16.5s-3 -10.667 -6 -15s-7.33301 -7.66602 -13 -9.99902s-13.5 -1.83301 -23.5 1.5
c-25.333 6.66699 -44.166 21 -56.499 43s-21.5 48.167 -27.5 78.5s-10 62.5 -12 96.5s-5.16699 65.833 -9.5 95.5s-11.166 55 -20.499 76s-24.333 33.833 -45 38.5l-193 44c-2.66699 0 -6.66699 2.83301 -12 8.5s-8.66602 9.83398 -9.99902 12.501
c-0.666992 1.33301 -1 3 -1 5c-0.666992 1.33301 -1 3.33301 -1 6z" />
    <glyph glyph-name="u" unicode="u" 
d="M20 408c0 4 0.165039 11.167 0.498047 21.5s0.5 21.166 0.5 32.499s0.166992 21.833 0.5 31.5s0.5 16.5 0.5 20.5c4.66699 8 10.167 15.833 16.5 23.5s13 13 20 16s14.667 3.5 23 1.5s16.833 -8.66699 25.5 -20v-8v-13c-0.666992 -3.33301 -2 -11.166 -4 -23.499
s-4.33301 -25.833 -7 -40.5l-7.5 -40.5c-2.33301 -12.333 -3.5 -20.166 -3.5 -23.499c0 -12.667 1.33301 -28.5 4 -47.5s6.5 -38.833 11.5 -59.5s11.333 -41.334 19 -62.001s16.834 -39.167 27.501 -55.5s22.5 -29.833 35.5 -40.5s28.167 -16 45.5 -16
c21.333 0 40.166 5.66699 56.499 17s30.5 26 42.5 44s21.833 38.333 29.5 61s13.834 45.5 18.501 68.5s8 45.167 10 66.5s3 40 3 56s-1.16699 31.167 -3.5 45.5s-5.16602 28.5 -8.49902 42.5s-6.16602 27.833 -8.49902 41.5s-3.5 27.5 -3.5 41.5
c0 12.667 4.5 21.667 13.5 27s19.167 8 30.5 8c14 0 25.333 -4.16699 34 -12.5s15.5 -18.833 20.5 -31.5s8.33301 -27.167 10 -43.5s2.5 -32.5 2.5 -48.5s-0.333008 -31.167 -1 -45.5s-1 -25.833 -1 -34.5c0 -22.667 -1.66699 -48.334 -5 -77.001
s-9.16602 -58.167 -17.499 -88.5s-18.666 -60.166 -30.999 -89.499s-27.333 -55.5 -45 -78.5s-38 -41.5 -61 -55.5s-48.833 -21 -77.5 -21c-30 0 -56.333 7.16699 -79 21.5s-41.834 33.333 -57.501 57s-28.834 50.5 -39.501 80.5s-18.834 60 -24.501 90
s-9.66699 59.167 -12 87.5s-3.5 52.833 -3.5 73.5z" />
    <glyph glyph-name="v" unicode="v" horiz-adv-x="535" 
d="M14 521c4.66699 16 10.1709 23.3281 16.5039 21.9951s14.166 -9 23.499 -23s19.833 -32.667 31.5 -56l37.5 -75.5c13.333 -27 27.833 -54.5 43.5 -82.5s32 -53.667 49 -77s35 -42.666 54 -57.999s38.5 -24.333 58.5 -27l80 414c1.33301 11.333 6.5 17.833 15.5 19.5
s17.833 2.5 26.5 2.5c30 0 45 -14 45 -42c0 -14.667 -1.33301 -38 -4 -70s-7 -67.167 -13 -105.5s-13.333 -77.666 -22 -117.999s-19 -77.166 -31 -110.499s-25.833 -60.666 -41.5 -81.999s-32.834 -32 -51.501 -32c-27.333 0 -54.333 9.16699 -81 27.5
s-51.834 42.333 -75.501 72s-45.334 62.834 -65.001 99.501s-36.667 73.5 -51 110.5s-25.5 72.5 -33.5 106.5s-12 62.333 -12 85z" />
    <glyph glyph-name="w" unicode="w" horiz-adv-x="751" 
d="M-2 428c0 11.333 2.50293 21.6621 7.50293 30.9951s13.833 14 26.5 14c0.666992 0 1.66699 -0.166992 3 -0.5s2.66602 -0.5 3.99902 -0.5h4c2 -1.33301 5.83301 -4.66602 11.5 -9.99902s9.16699 -9.33301 10.5 -12l12.5 -26l23 -46.5l28 -56l28 -56.5l23 -46.5
c6.33301 -13 10.833 -21.5 13.5 -25.5c0.666992 -2 3.83398 -5.83301 9.50098 -11.5s9.83398 -9.16699 12.501 -10.5c5.33301 9.33301 10.666 23.333 15.999 42s10.833 39.167 16.5 61.5l17.5 69c6 23.667 12.833 45 20.5 64s16.167 34.667 25.5 47s20 18.5 32 18.5
c17.333 0 33.833 -6.66699 49.5 -20s30.667 -30.666 45 -51.999s28 -45.166 41 -71.499l37 -78l33 -71c10.333 -21.667 20.5 -38.834 30.5 -51.501c8 2.66699 14.667 9.33398 20 20.001s9.5 21.834 12.5 33.501s5.16699 22.667 6.5 33s2.33301 17.166 3 20.499l3 34.5
l4.5 53.5c1.66699 20 3.16699 40.667 4.5 62s2.83301 42 4.5 62s3 37.833 4 53.5s1.5 26.834 1.5 33.501c1.33301 0 4.66602 0.5 9.99902 1.5s9 1.5 11 1.5c9.33301 0 17.666 -1 24.999 -3s13 -9 17 -21c0 -4.66699 0.166992 -13 0.5 -25s0.666016 -24.833 0.999023 -38.5
s0.666016 -26.667 0.999023 -39s0.5 -20.833 0.5 -25.5c0 -10.667 0.166992 -27.167 0.5 -49.5s0 -47.166 -1 -74.499s-3.16699 -55.166 -6.5 -83.499s-8.5 -54.333 -15.5 -78s-16.5 -43 -28.5 -58s-27 -22.5 -45 -22.5c-20.667 0 -40 5 -58 15s-34.833 23.333 -50.5 40
s-30.5 35.167 -44.5 55.5s-26.833 41 -38.5 62l-32 60l-25.5 48.5c-5.33301 -12 -10.166 -27 -14.499 -45l-14.5 -58.5c-5.33301 -21 -11.333 -42 -18 -63s-14.167 -40 -22.5 -57s-18 -30.833 -29 -41.5s-23.5 -16 -37.5 -16c-6.66699 0 -12.667 -0.166992 -18 -0.5
s-10.333 0 -15 1s-9 3.16699 -13 6.5s-7.66699 8.66602 -11 15.999l-171 365c0 0.666992 -0.333008 3.5 -1 8.5s-1 8.83301 -1 11.5z" />
    <glyph glyph-name="x" unicode="x" horiz-adv-x="493" 
d="M0 472c-0.666992 0.666992 -1.00195 1.66602 -1.00195 2.99902c-0.666992 1.33301 -1 3.66602 -1 6.99902c0 12.667 5.33301 21.5 16 26.5s21 7.5 31 7.5c1.33301 0 2.83301 -0.166992 4.5 -0.5s3.83398 -0.5 6.50098 -0.5c2 -0.666992 5 -1 9 -1l140 -118
c24 34.667 43.5 61.667 58.5 81s26.833 33.5 35.5 42.5s15.167 14.333 19.5 16s7.5 2.5 9.5 2.5h15.5c5.66699 0 11.5 -0.5 17.5 -1.5s11.167 -3.16699 15.5 -6.5s7.5 -8.66602 9.5 -15.999c-11.333 -11.333 -22 -22.666 -32 -33.999s-19.333 -23.5 -28 -36.5
s-16.834 -27.5 -24.501 -43.5s-15.5 -34 -23.5 -54c12.667 -9.33301 28.5 -22.5 47.5 -39.5s38.333 -35.667 58 -56l57.5 -62c18.667 -21 34.167 -40.833 46.5 -59.5s20.333 -34.667 24 -48s1.16699 -22 -7.5 -26c-9.33301 -12 -15.666 -20.833 -18.999 -26.5
s-6.83301 -7.5 -10.5 -5.5s-8.5 8.33301 -14.5 19s-16.833 25.834 -32.5 45.501s-37.167 44.5 -64.5 74.5s-63.666 65.667 -108.999 107l-8 -247c0 -0.666992 -1.33301 -2 -4 -4l-8.5 -6.5c-3 -2.33301 -6.16699 -4.5 -9.5 -6.5s-6.33301 -3.66699 -9 -5h-12h-10
c-3.33301 2.66699 -7.83301 6.66699 -13.5 12s-8.5 8.66602 -8.5 9.99902v279z" />
    <glyph glyph-name="y" unicode="y" horiz-adv-x="493" 
d="M3 517c0 6 0.166016 12.1709 0.499023 18.5039s1.66602 12.333 3.99902 18s5.66602 10 9.99902 13s10.833 4.5 19.5 4.5h2.5h3.5c2 -0.666992 3.66699 -1 5 -1c12.667 -17.333 23.667 -39.5 33 -66.5s18.333 -55.667 27 -86s18 -61 28 -92s23 -58.833 39 -83.5
s35.667 -44.334 59 -59.001s52.333 -21 87 -19c15.333 0 25.333 8.33301 30 25s7.16699 38 7.5 64s-0.333984 54.667 -2.00098 86s-1.66699 61.166 0 89.499s6.66699 53.166 15 74.499s22.833 35.666 43.5 42.999c8.66699 -17.333 15.834 -44.5 21.501 -81.5
s9.83398 -79.667 12.501 -128s4 -100.666 4 -156.999s-1.33301 -112.333 -4 -168s-6.66699 -109.167 -12 -160.5s-11.333 -96.333 -18 -135s-14.5 -69.167 -23.5 -91.5s-18.5 -31.833 -28.5 -28.5c-14 13.333 -24.833 30.666 -32.5 51.999s-13 45 -16 71
s-4.16699 53.5 -3.5 82.5s1.83398 58.167 3.50098 87.5s3.66699 58 6 86s3.5 53.667 3.5 77c-24 -2 -48.5 1.66699 -73.5 11s-49.5 23.833 -73.5 43.5s-46.833 43.5 -68.5 71.5s-40.667 59.667 -57 95s-29.166 73.5 -38.499 114.5s-14 84.167 -14 129.5z" />
    <glyph glyph-name="z" unicode="z" horiz-adv-x="579" 
d="M364 493c1.33301 1.33301 2.49609 3.17285 3.49609 5.50586s1.5 4.16602 1.5 5.49902c0 15.333 -9.16699 25.5 -27.5 30.5s-41.166 7.33301 -68.499 7s-56.833 -1.83301 -88.5 -4.5s-61.167 -3.83398 -88.5 -3.50098s-50.166 3.66602 -68.499 9.99902
s-27.5 18.166 -27.5 35.499c0 11.333 0.833008 19.833 2.5 25.5s4.16699 9.66699 7.5 12s7.5 3.66602 12.5 3.99902s10.5 0.5 16.5 0.5h26c8 -0.666992 21 -1.5 39 -2.5s38.333 -2 61 -3s46.5 -2.33301 71.5 -4s48.667 -3.16699 71 -4.5s42.333 -2.66602 60 -3.99902
l40.5 -3c12 -7.33301 22.167 -14 30.5 -20s15 -12 20 -18s8.66699 -12.5 11 -19.5s3.5 -15.833 3.5 -26.5c0 -22.667 -4.66699 -44.834 -14 -66.501s-21.166 -43.334 -35.499 -65.001s-30.666 -43.334 -48.999 -65.001l-53.5 -64.5
c-17.333 -21.333 -33.666 -42.666 -48.999 -63.999s-27.333 -42 -36 -62h257c19.333 0 31.666 -3.66699 36.999 -11s8 -17.666 8 -30.999c0 -9.33301 -1 -18 -3 -26s-9 -14 -21 -18c-32 -2.66699 -64.333 -6.66699 -97 -12l-98 -16c-32.667 -5.33301 -65.5 -10 -98.5 -14
s-65.833 -6 -98.5 -6c0 48 7.5 94.167 22.5 138.5s34.333 87.166 58 128.499s49.667 81.333 78 120z" />
    <glyph glyph-name="braceleft" unicode="{" horiz-adv-x="472" 
d="M146 265c0 12 3.33398 24.001 10.001 36.001s14.667 23.5 24 34.5s19 21.833 29 32.5s18.333 21.667 25 33l-55 70.5c-18.667 23.667 -35.334 47.834 -50.001 72.501s-26.667 50.5 -36 77.5s-14 55.833 -14 86.5c0 23.333 5.16699 46.333 15.5 69s24 42.667 41 60
s36.833 31.333 59.5 42s46.334 16 71.001 16c8 0 16.833 -0.833008 26.5 -2.5s19 -4.16699 28 -7.5s17.167 -7.66602 24.5 -12.999s13 -12 17 -20c-16 -9.33301 -34.833 -17.666 -56.5 -24.999s-42.834 -15.833 -63.501 -25.5s-38.334 -22 -53.001 -37
s-22 -35.167 -22 -60.5c0 -20.667 3.83301 -39.667 11.5 -57s17.167 -33.833 28.5 -49.5s23.833 -30.834 37.5 -45.501s26.167 -29.834 37.5 -45.501s20.666 -32.167 27.999 -49.5s11 -36.333 11 -57c0 -13.333 -2.33301 -25.666 -7 -36.999s-9.66699 -22.166 -15 -32.499
l-15.5 -31.5c-5 -10.667 -7.5 -22 -7.5 -34c0 -2.66699 -0.666992 -13.334 -2 -32.001s-2.16602 -41.334 -2.49902 -68.001s0.166992 -55.167 1.5 -85.5s5 -58.333 11 -84s14.833 -47.167 26.5 -64.5s27.5 -26 47.5 -26c13.333 0 25.166 2.66699 35.499 8s20 11 29 17
s18 11.5 27 16.5s19.5 7.5 31.5 7.5s20.5 -4.83301 25.5 -14.5s7.5 -20.5 7.5 -32.5c0 -19.333 -5.83301 -35.833 -17.5 -49.5s-26.167 -24.834 -43.5 -33.501s-35.666 -14.834 -54.999 -18.501s-36.666 -5.5 -51.999 -5.5c-30 0 -55.5 8.66699 -76.5 26s-39 40 -54 68
s-27 59.333 -36 94s-16 69.167 -21 103.5s-8.33301 66.833 -10 97.5s-2.5 56 -2.5 76z" />
    <glyph glyph-name="bar" unicode="|" horiz-adv-x="278" 
d="M57 570c0 18.667 -1.33105 37.1641 -3.99805 55.4971s-3.33398 34.833 -2.00098 49.5s6.66602 26.334 15.999 35.001s25.666 13 48.999 13c13.333 -12 25.833 -32.667 37.5 -62s22.5 -64.166 32.5 -104.499s18.833 -84.666 26.5 -132.999s14 -97.333 19 -147
s8.83301 -98.667 11.5 -147s3.66699 -92.5 3 -132.5c-16.667 -10.667 -31.167 -13.667 -43.5 -9s-23.166 15.334 -32.499 32.001s-17.833 38 -25.5 64s-14.5 55.167 -20.5 87.5s-11.333 66.166 -16 101.499s-9.66699 70.666 -15 105.999s-11 69.333 -17 102
s-12.333 62.334 -19 89.001z" />
    <glyph glyph-name="braceright" unicode="}" horiz-adv-x="343" 
d="M40 -132c0 17.333 2.99805 29.832 8.99805 37.499s14 13.167 24 16.5s20.5 5.66602 31.5 6.99902s21.5 4 31.5 8s18.167 10.667 24.5 20s9.5 24 9.5 44c0 14 -3.5 28.167 -10.5 42.5l-22.5 44.5c-8 15.333 -15.5 31 -22.5 47s-10.5 32.667 -10.5 50v5c0 2 0.333008 4 1 6
c0 2.66699 0.333008 5.33398 1 8.00098c1.33301 2.66699 5.5 9.16699 12.5 19.5s14.167 21.5 21.5 33.5l20.5 34c6.33301 10.667 9.5 17.334 9.5 20.001c0 14 -4.5 28.5 -13.5 43.5s-19 30.667 -30 47s-21 33.333 -30 51s-13.5 36.167 -13.5 55.5c0 20 3.5 38.333 10.5 55
s14.833 32.667 23.5 48s16.5 30.833 23.5 46.5s10.5 32.167 10.5 49.5s-6.16699 30.5 -18.5 39.5s-26.5 15.5 -42.5 19.5s-32.167 6.33301 -48.5 7s-28.5 1 -36.5 1c0 14.667 2.5 27 7.5 37s11.833 17.833 20.5 23.5s18.5 9.66699 29.5 12s22.833 3.5 35.5 3.5
c15.333 0 32.166 -3 50.499 -9s35.666 -14.167 51.999 -24.5s30 -23 41 -38s16.5 -31.5 16.5 -49.5c0 -0.666992 -0.166992 -1.5 -0.5 -2.5s-0.5 -1.83301 -0.5 -2.5c-0.666992 -2 -1 -3.66699 -1 -5c-0.666992 -3.33301 -3.33398 -10 -8.00098 -20l-16 -35l-19 -42.5
l-19 -42l-15.5 -34.5c-4.33301 -10 -7.16602 -16.333 -8.49902 -19v-11c0 -20 3.83301 -36.667 11.5 -50s17.167 -24.666 28.5 -33.999s23.333 -17.666 36 -24.999l36.5 -22c11.667 -7.33301 21.167 -15.5 28.5 -24.5s11 -20.167 11 -33.5c0 -14 -2.66699 -25.833 -8 -35.5
s-12.166 -18 -20.499 -25s-17.333 -13.833 -27 -20.5s-18.667 -13.834 -27 -21.501s-15.166 -16.334 -20.499 -26.001s-8 -21.834 -8 -36.501c0 -15.333 2.5 -29.5 7.5 -42.5s10.333 -26 16 -39s11 -26.167 16 -39.5s7.5 -28.333 7.5 -45c0 -20 -2.16699 -40.5 -6.5 -61.5
s-11.833 -40 -22.5 -57s-24.167 -31 -40.5 -42s-36.5 -16.5 -60.5 -16.5c-10.667 0 -21.167 0.333008 -31.5 1s-19.666 2.5 -27.999 5.5s-15.166 7.83301 -20.499 14.5s-8 16.334 -8 29.001z" />
    <glyph glyph-name="asciitilde" unicode="~" horiz-adv-x="621" 
d="M34 514c0 22 2.00488 45.1709 6.00488 69.5039s11.333 46.666 22 66.999s25.5 37.166 44.5 50.499s43.5 20 73.5 20c21.333 0 39.833 -4.83301 55.5 -14.5s29.667 -21.667 42 -36s23.833 -30 34.5 -47s22 -32.833 34 -47.5s25.167 -26.667 39.5 -36
s31.166 -14 50.499 -14c22.667 0 39.167 3.33301 49.5 10s17.166 15.5 20.499 26.5s4.5 23.167 3.5 36.5s-1.5 26.5 -1.5 39.5s1.5 24.667 4.5 35s10.167 18.5 21.5 24.5h10h10c2 -0.666992 5.16699 -1.83398 9.5 -3.50098s8.66602 -3.5 12.999 -5.5
s8.66602 -4.16699 12.999 -6.5s7.16602 -3.83301 8.49902 -4.5c0 -2.66699 0.166992 -6.5 0.5 -11.5s0.5 -10.333 0.5 -16s0.166992 -11.167 0.5 -16.5s0.5 -8.66602 0.5 -9.99902c0 -58.667 -15.333 -104.5 -46 -137.5s-74.667 -49.5 -132 -49.5c-22 0 -41 4.33301 -57 13
s-30.167 19.667 -42.5 33s-23.5 27.833 -33.5 43.5s-20.333 30 -31 43s-22.167 24 -34.5 33s-26.833 13.5 -43.5 13.5c-21.333 0 -36.5 -4.16699 -45.5 -12.5s-15.167 -18.833 -18.5 -31.5s-5 -26.667 -5 -42s-1 -30.333 -3 -45s-6.16699 -27.834 -12.5 -39.501
s-17.166 -20.167 -32.499 -25.5l-23 21c0 2 -0.333008 6.16699 -1 12.5s-1.33398 13.166 -2.00098 20.499l-2 22.5c-0.666992 7.66699 -1 13.5 -1 17.5z" />
    <glyph glyph-name="nonbreakingspace" unicode="&#xa0;" horiz-adv-x="461" 
 />
    <glyph glyph-name="exclamdown" unicode="&#xa1;" horiz-adv-x="188" 
d="M117 650.142c8.66699 0 17.1709 2.44824 25.5039 7.34375s13.666 10.8623 15.999 17.9004c2.33301 7.03711 0.166016 14.8389 -6.50098 23.4062s-21 16.5225 -43 23.8652c-18 -2.44727 -30.833 -6.57812 -38.5 -12.3916s-12 -11.9326 -13 -18.3574
c-1 -6.42578 0.666992 -12.8516 5 -19.2764s9.66602 -11.9326 15.999 -16.5225c6.33301 -4.58887 13.166 -7.64844 20.499 -9.17871s13.333 -0.459961 18 3.21094zM42.0039 40.6514c18 -15.2988 31.999 -18.666 41.999 -10.0986s17.5 24.7832 22.5 48.6484
c5 23.8662 7.83301 52.4746 8.5 85.8252s1.16699 67.4668 1.5 102.348c0.333008 34.8799 1 67.9248 2 99.1338s3.83301 55.9922 8.5 74.3506c0 9.17871 -0.666992 17.1338 -2 23.8652s-3.66602 12.2393 -6.99902 16.5234c-3.33301 4.2832 -8.66602 7.49609 -15.999 9.6377
s-17 3.21289 -29 3.21289c-2 0 -4 -0.917969 -6 -2.75391s-4 -7.19043 -6 -16.0635s-4 -22.6416 -6 -41.3057s-3.83301 -44.8242 -5.5 -78.4805c-1.66699 -33.6572 -3.33398 -75.8809 -5.00098 -126.672s-2.5 -113.515 -2.5 -188.171z" />
    <glyph glyph-name="cent" unicode="&#xa2;" horiz-adv-x="472" 
d="M118 644c11.333 25.333 22.1689 35.9941 32.502 31.9941s19.833 -18 28.5 -42c8 -20 15.667 -45.333 23 -76c7.33301 1.33301 15 2 23 2c15.333 0 30.666 -2.66699 45.999 -8s29.166 -13 41.499 -23s22.333 -22 30 -36s11.5 -29.667 11.5 -47
c-12 0 -22.833 1.33301 -32.5 4s-19.167 5.83398 -28.5 9.50098s-18.5 6.83398 -27.5 9.50098s-18.833 4 -29.5 4c-5.33301 0 -10.666 -0.333008 -15.999 -1c4.66699 -22 9 -45 13 -69c8.66699 -47.333 16.667 -96 24 -146c7.33301 -47.333 15 -91.666 23 -132.999
c4 2.66699 8 5 12 7c11.333 8 22 16.5 32 25.5s20.5 17.333 31.5 25s23 14 36 19s27.833 7.5 44.5 7.5c0 -32.667 -5.83301 -61.667 -17.5 -87s-27.834 -47 -48.501 -65c-20 -16.667 -43 -30 -69 -40c1.33301 -3.33301 2.66602 -7.33301 3.99902 -12
c8 -31.333 16 -53 24 -65c-0.666992 0 -5.66699 -0.666992 -15 -2s-19.166 -2.83301 -29.499 -4.5l-28.5 -4.5c-8.66699 -1.33301 -13.334 -2 -14.001 -2c-7.33301 23.333 -14.666 48 -21.999 74h-17c-31.333 0 -59.5 10.667 -84.5 32s-46.333 47.5 -64 78.5
s-31.167 63.833 -40.5 98.5s-14 65.334 -14 92.001c0 28 6.16699 57.333 18.5 88s28.5 58.334 48.5 83.001c17.333 20 36 37.667 56 53c-3.33301 42.667 -5 82.334 -5 119.001zM129.003 399.994c-10 -20 -16.8311 -41.8369 -20.498 -65.5039s-5.5 -45.834 -5.5 -66.501
c0 -3.33301 0.166992 -9.66602 0.5 -18.999s0.666016 -19.166 0.999023 -29.499s0.666016 -20.166 0.999023 -29.499s0.833008 -15.666 1.5 -18.999c7.33301 -16 14.5 -28.333 21.5 -37s14.5 -15.167 22.5 -19.5s16.333 -7.16602 25 -8.49902
c5.33301 -0.666992 11.333 -1 18 -1c-12.667 57.333 -24.667 116 -36 176c-8 44.667 -15.333 89 -22 133c-2.66699 -4 -5 -8.66699 -7 -14z" />
    <glyph glyph-name="sterling" unicode="&#xa3;" horiz-adv-x="621" 
d="M-81 333c0 2 0.341797 5.66992 1.00879 11.0029s1 8.66602 1 9.99902c10 0 23 0.5 39 1.5s33.667 2.16699 53 3.5c-2.66699 27.333 -4.83398 56.666 -6.50098 87.999s-2.83398 61.333 -3.50098 90s-1.33398 53.667 -2.00098 75s-1 36 -1 44
c0 31.333 9.33301 53.666 28 66.999s42.5 20.666 71.5 21.999s61.167 -2.5 96.5 -11.5s69.833 -20.5 103.5 -34.5s64.5 -29.333 92.5 -46s48.833 -32.167 62.5 -46.5s18.5 -26.333 14.5 -36s-21.333 -14.5 -52 -14.5c-0.666992 0 -9.33398 2.66699 -26.001 8l-63.5 20
l-84 26l-84 25.5l-89.5 27.5c1.33301 -14 2.66602 -32.833 3.99902 -56.5s2.5 -49 3.5 -76s2.5 -54.833 4.5 -83.5s4.33301 -55.667 7 -81c18 1.33301 35.5 2.5 52.5 3.5s33.167 1.66699 48.5 2s29.166 0.333008 41.499 0s22.5 -1.16602 30.5 -2.49902
c12 0 20.333 -1.33301 25 -4s7 -12 7 -28c-11.333 -7.33301 -24.5 -13.666 -39.5 -18.999s-31 -9.66602 -48 -12.999s-34.5 -6.16602 -52.5 -8.49902s-35.667 -3.83301 -53 -4.5c3.33301 -22 6 -40.833 8 -56.5s4.5 -29.834 7.5 -42.501s7.16699 -24.834 12.5 -36.501
s12.666 -24.5 21.999 -38.5c12.667 -8 20.334 -13.833 23.001 -17.5s5 -5.16699 7 -4.5s6 3.33398 12 8.00098s18.167 11.167 36.5 19.5s45.166 18.5 80.499 30.5s83.333 25.667 144 41c42 -5.33301 73.833 -15.833 95.5 -31.5s36.667 -32.834 45 -51.501s11.333 -37 9 -55
s-6.33301 -32.333 -12 -43s-11.667 -15.5 -18 -14.5s-9.5 11.167 -9.5 30.5c0 24.667 -8.16699 42.5 -24.5 53.5s-37.333 16.667 -63 17s-53.667 -3.33398 -84 -11.001s-59.166 -16.667 -86.499 -27s-51.5 -21.333 -72.5 -33s-34.5 -21.5 -40.5 -29.5
c-12 -14 -23.833 -20.667 -35.5 -20s-23.334 7 -35.001 19s-22.834 28.5 -33.501 49.5s-20.667 44.5 -30 70.5s-17.333 53.833 -24 83.5s-11.667 58.834 -15 87.501h-56c-18.667 -1.33301 -30.834 2.16699 -36.501 10.5s-8.5 19.166 -8.5 32.499z" />
    <glyph glyph-name="currency" unicode="&#xa4;" horiz-adv-x="686" 
d="M115 312c0 23.333 3.33398 46.1738 10.001 68.5068s16 43.166 28 62.499l-113 123c-0.666992 1.33301 -1 2.66602 -1 3.99902c-0.666992 0.666992 -1 2.66699 -1 6c0 13.333 5.16699 22.333 15.5 27s20.833 7 31.5 7c0.666992 0 2 -0.166992 4 -0.5s4 -0.5 6 -0.5
c2.66699 -0.666992 5.66699 -1 9 -1l103 -101c32.667 30 70 53.333 112 70s85.333 25 130 25c12 0 23.333 -2.33301 34 -7s20.334 -10.667 29.001 -18c14 5.33301 27.667 11.333 41 18s25.666 13.167 36.999 19.5l27.5 15.5c7 4 11.167 6 12.5 6
c8.66699 0 16.667 -5.5 24 -16.5s12.666 -23.5 15.999 -37.5c-8.66699 -8 -23 -17.833 -43 -29.5l-67 -37.5c10 -20 17.5 -40.5 22.5 -61.5s7.5 -39.5 7.5 -55.5c0 -30.667 -6.16699 -60.834 -18.5 -90.501s-29.5 -57.167 -51.5 -82.5c15.333 -16.667 29.166 -33 41.499 -49
s22 -30.667 29 -44s11.167 -24.5 12.5 -33.5s-1.66699 -15.167 -9 -18.5c-8 -9.33301 -13.833 -16.833 -17.5 -22.5s-6.83398 -8.83398 -9.50098 -9.50098s-5.5 1 -8.5 5s-7.83301 11.167 -14.5 21.5s-16.167 23.666 -28.5 39.999s-29.166 36.166 -50.499 59.499
c-26 -21.333 -54.167 -37.833 -84.5 -49.5s-60.833 -17.5 -91.5 -17.5c-14 0 -26.667 1 -38 3s-22 5 -32 9l-71 -98c0 -0.666992 -1.16699 -2.16699 -3.5 -4.5s-5.16602 -4.5 -8.49902 -6.5l-10 -6c-3.33301 -2 -6.33301 -3.66699 -9 -5h-23l-12 12
c-5.33301 5.33301 -8 8.66602 -8 9.99902l85 138c-15.333 19.333 -26.5 42 -33.5 68s-10.5 54.333 -10.5 85zM193.001 301.008c0 -16.667 1.5 -31.5 4.5 -44.5s8.33301 -24.167 16 -33.5s18 -16.5 31 -21.5s28.833 -7.5 47.5 -7.5c24.667 0 49.167 6.83301 73.5 20.5
s46.333 31 66 52s35.667 44 48 69s18.5 49.5 18.5 73.5c0 11.333 -1 23.166 -3 35.499s-5.5 24 -10.5 35s-11.833 20 -20.5 27s-19.667 10.5 -33 10.5c-22 0 -46.833 -4.16699 -74.5 -12.5s-53.5 -21.333 -77.5 -39s-44.333 -40.167 -61 -67.5s-25 -59.666 -25 -96.999z" />
    <glyph glyph-name="yen" unicode="&#xa5;" horiz-adv-x="643" 
d="M559 351c19.333 1.33301 31.668 -2.16797 37.001 -10.501s8 -18.5 8 -30.5c0 -16.667 -4.5 -29.334 -13.5 -38.001s-20.333 -15 -34 -19s-28.167 -6.5 -43.5 -7.5s-29 -1.83301 -41 -2.5c-7.33301 -0.666992 -19.666 -1.33398 -36.999 -2.00098c2 -60 3 -121.333 3 -184
v-21c0 -8 -1.16699 -15.5 -3.5 -22.5s-6.5 -12.5 -12.5 -16.5s-15.333 -4.66699 -28 -2c-24 36 -40.333 77.333 -49 124c-7.33301 38 -12 77.667 -14 119h-22c-23.333 0 -45.833 -0.333008 -67.5 -1s-41.167 -1.16699 -58.5 -1.5s-29.666 -0.5 -36.999 -0.5
c0 27.333 9.33301 49.166 28 65.499s42 28.5 70 36.5c26.667 8 55.667 13.333 87 16l4 61l2 25h-10c-19.333 0 -39 1 -59 3s-38.833 5.33301 -56.5 10s-33.167 11.5 -46.5 20.5s-23.333 20.833 -30 35.5l21 22c54.667 3.33301 107 6 157 8c10 0.666992 19.667 1 29 1
c0 6.66699 0.333008 13 1 19c-26 5.33301 -52 17.333 -78 36s-50.833 41.334 -74.5 68.001s-46 56.334 -67 89.001s-39.167 65.667 -54.5 99s-27.333 65.666 -36 96.999s-13 59.333 -13 84c0 3.33301 0.166992 7.33301 0.5 12s1 9.16699 2 13.5s3.16699 8 6.5 11
s7.66602 4.5 12.999 4.5c16.667 0 31 -5.83301 43 -17.5s23 -27.167 33 -46.5s19.333 -41.333 28 -66l26.5 -75c9 -25.333 18.5 -50.333 28.5 -75s21.167 -46.667 33.5 -66s26.5 -34.833 42.5 -46.5s34.333 -17.5 55 -17.5c1.33301 0 3.16602 0.333008 5.49902 1
s4.16602 1 5.49902 1c18.667 16.667 35.5 38.834 50.5 66.501s28.833 57.5 41.5 89.5s25 65 37 99s24.5 65.667 37.5 95s26.667 55 41 77s30.833 37.333 49.5 46l43 -44c5.33301 -5.33301 6.16602 -16.166 2.49902 -32.499s-10 -36.666 -19 -60.999
s-20.167 -51.333 -33.5 -81l-42 -92.5l-44 -95c-14.667 -32 -27.834 -62 -39.501 -90s-21.167 -53 -28.5 -75c-2 -8 -4 -15.333 -6 -22h14c22.667 1.33301 43.834 2.5 63.501 3.5s37.167 2.16699 52.5 3.5h13c13.333 0 22 -4.5 26 -13.5s6 -18.833 6 -29.5
c0 -16 -2.83301 -28.5 -8.5 -37.5s-17.834 -17.5 -36.501 -25.5c-5.33301 0 -14.5 -0.166992 -27.5 -0.5s-26.833 -0.5 -41.5 -0.5s-28.667 -0.333008 -42 -1h-24l2 -88h5c30.667 0 57.334 -0.833008 80.001 -2.5s37.334 -2.16699 44.001 -1.5z" />
    <glyph glyph-name="brokenbar" unicode="&#xa6;" horiz-adv-x="236" 
d="M67 435c-5.33301 22 -9.83301 41.666 -13.5 58.999s-7 34.166 -10 50.499s-5.33301 32.833 -7 49.5s-2.5 35.667 -2.5 57v37c0 18 1.66699 35.333 5 52s8.83301 31.334 16.5 44.001s18.834 19 33.501 19c11.333 0 20.166 -7.66699 26.499 -23s11 -35 14 -59
s4.66699 -50.5 5 -79.5l1 -83c0.333008 -26.333 1 -50.166 2 -71.499s3.16699 -36 6.5 -44zM151 376.999c7.33301 -27.333 12 -57.1631 14 -89.4961s3.5 -63.333 4.5 -93s1.83301 -56.5 2.5 -80.5s2.66699 -41.333 6 -52c0 -1.33301 0.333008 -3.33301 1 -6s1 -4.66699 1 -6
c0 -6.66699 -2.33301 -12.334 -7 -17.001s-10.5 -8.16699 -17.5 -10.5s-14.333 -4 -22 -5s-14.5 -1.5 -20.5 -1.5c-2 0 -5.66699 0.333008 -11 1s-8.66602 1 -9.99902 1c-8.66699 27.333 -13.334 55.666 -14.001 84.999s-0.5 59.166 0.5 89.499s1.5 60.666 1.5 90.999
s-3.33301 61.5 -10 93.5h81z" />
    <glyph glyph-name="section" unicode="&#xa7;" horiz-adv-x="487" 
d="M105 49c14 -3.33301 32.3271 -6.33203 54.9941 -8.99902s46.334 -4.33398 71.001 -5.00098s48.5 0.333008 71.5 3s41.333 7.83398 55 15.501s21.167 18.167 22.5 31.5s-7 30.666 -25 51.999c-19.333 0 -40 -0.333008 -62 -1s-43.833 -0.5 -65.5 0.5s-42.5 3.5 -62.5 7.5
s-37.667 11 -53 21s-27.666 23.167 -36.999 39.5s-14 37.166 -14 62.499c0 33.333 7.16699 62.333 21.5 87s33.166 46.334 56.499 65.001c-16.667 2.66699 -32.167 6.5 -46.5 11.5s-26.666 12.167 -36.999 21.5s-18.5 21 -24.5 35s-9 30.667 -9 50
c0 32.667 5.83301 60 17.5 82s26.834 39.5 45.501 52.5s40.334 22.333 65.001 28s50 8.33398 76 8.00098s52 -3.33301 78 -9s49.667 -12.834 71 -21.501c15.333 -6.66699 24.666 -14.834 27.999 -24.501s3 -18.834 -1 -27.501s-10.5 -15.834 -19.5 -21.501
s-18.167 -7.5 -27.5 -5.5l-45.5 11.5c-17.667 4.33301 -36 8.16602 -55 11.499s-37.667 5.16602 -56 5.49902s-34.833 -2.16699 -49.5 -7.5s-26.5 -14.666 -35.5 -27.999s-13.5 -31.666 -13.5 -54.999c0 -18.667 6.5 -32.5 19.5 -41.5s29.333 -15 49 -18
s41.167 -3.5 64.5 -1.5s46 4.66699 68 8c17.333 0.666992 34.666 -0.166016 51.999 -2.49902s33 -7 47 -14s25.333 -16.333 34 -28s13 -26.167 13 -43.5c0 -9.33301 -0.333008 -20.166 -1 -32.499s-2.33398 -25.333 -5.00098 -39s-7 -27 -13 -40s-14.667 -25 -26 -36
s-25.666 -20.167 -42.999 -27.5c-15.333 -7.33301 -33.333 -12.333 -54 -15c20 0.666992 39.333 -0.333008 58 -3c20.667 -3.33301 38.834 -9.66602 54.501 -18.999s28 -22 37 -38s13.5 -36 13.5 -60c0 -22 -7.66699 -40 -23 -54s-35.166 -25 -59.499 -33
s-51.166 -13.667 -80.499 -17s-58 -5.33301 -86 -6s-53.833 -0.666992 -77.5 0s-41.5 1 -53.5 1c-11.333 0 -18 4.5 -20 13.5s-1.33301 18.5 2 28.5s8.33301 18.667 15 26s13.334 9 20.001 5zM210.994 225.001c15.333 0.666992 32.168 4.33398 50.501 11.001
s35.833 15.167 52.5 25.5s31.167 22.166 43.5 35.499s20.666 27 24.999 41s3 27.833 -4 41.5s-21.5 26.5 -43.5 38.5c-8 2 -18.5 3.16699 -31.5 3.5s-26.833 -1.16699 -41.5 -4.5s-29.334 -8.5 -44.001 -15.5s-27.834 -16.5 -39.501 -28.5s-21.167 -26.833 -28.5 -44.5
s-11 -38.5 -11 -62.5c0 -10 1.66699 -17.667 5 -23s8.33301 -9 15 -11s14.334 -3.33301 23.001 -4s18.334 -1.66699 29.001 -3z" />
    <glyph glyph-name="dieresis" unicode="&#xa8;" horiz-adv-x="768" 
d="M267 785c30 0 45.001 -15.668 45.001 -47.001c-7.33301 -19.333 -16.5 -32.333 -27.5 -39s-21.5 -9 -31.5 -7s-18.833 7 -26.5 15s-11.834 17 -12.501 27s3 19.833 11 29.5s22 16.834 42 21.501zM494.001 784.999c30 0 44.998 -15.668 44.998 -47.001
c-8 -19.333 -17.333 -32.333 -28 -39s-21.167 -9 -31.5 -7s-19.166 7 -26.499 15s-11.333 17 -12 27s2.83301 19.833 10.5 29.5s21.834 16.834 42.501 21.501z" />
    <glyph glyph-name="copyright" unicode="&#xa9;" horiz-adv-x="826" 
d="M206 377c0 22 5.16895 45.1641 15.502 69.4971s24.166 46.666 41.499 66.999s37.333 37 60 50s46.667 19.5 72 19.5c13.333 0 26.5 -2 39.5 -6s24.5 -10.167 34.5 -18.5s18.167 -18 24.5 -29s9.5 -23.167 9.5 -36.5c-9.33301 0 -18.166 1 -26.499 3s-16.333 4.5 -24 7.5
s-15.334 5.66699 -23.001 8s-15.834 3.5 -24.501 3.5c-22.667 0 -41.167 -5.66699 -55.5 -17s-25.666 -25 -33.999 -41s-14.166 -33.667 -17.499 -53s-5 -37 -5 -53c0 -3.33301 0.166992 -8.5 0.5 -15.5s0.666016 -14.5 0.999023 -22.5l1 -23
c0.333008 -7.33301 0.5 -12.666 0.5 -15.999c6 -12 11.833 -21.667 17.5 -29s12 -12.666 19 -15.999s14.5 -5.33301 22.5 -6s17 -1 27 -1c22 0 40.333 4.16699 55 12.5s28.5 17.833 41.5 28.5s26.667 20.167 41 28.5s32.166 12.5 53.499 12.5
c0 -26 -4.83301 -49.167 -14.5 -69.5s-23.5 -37.666 -41.5 -51.999s-38.833 -25.166 -62.5 -32.499s-49.167 -11 -76.5 -11c-26.667 0 -50.667 8.5 -72 25.5s-39.5 37.833 -54.5 62.5s-26.333 50.667 -34 78s-11.5 51.333 -11.5 72zM34.002 354.997
c0 28.667 2.50195 58.335 7.50195 89.002s12.333 60.667 22 90s22.167 57.166 37.5 83.499s33.333 49.5 54 69.5s44.167 36 70.5 48s55.833 18 88.5 18c54.667 10.667 109.667 8.83398 165 -5.49902s105 -38.333 149 -72s79.5 -75.834 106.5 -126.501s40.167 -107 39.5 -169
c0.666992 -38.667 -6 -76.5 -20 -113.5s-33.5 -71.833 -58.5 -104.5s-54.5 -62 -88.5 -88s-70.5 -47.333 -109.5 -64s-79.5 -28 -121.5 -34s-83.667 -5.33301 -125 2c-33.333 0 -61.833 6 -85.5 18s-43.5 28.333 -59.5 49s-28.833 43.834 -38.5 69.501
s-16.834 52.667 -21.501 81s-7.83398 56.166 -9.50098 83.499s-2.5 52.666 -2.5 75.999zM100.004 305.998c0 -27.333 2.83008 -56.166 8.49707 -86.499s15.334 -58.666 29.001 -84.999s32.167 -48 55.5 -65s52.333 -25.5 87 -25.5c34.667 -7.33301 69.5 -7.5 104.5 -0.5
s68.833 18.667 101.5 35s62.667 36.666 90 60.999s51 50.166 71 77.499s34.833 55.166 44.5 83.499s12.5 54.833 8.5 79.5c7.33301 25.333 7.16602 51.5 -0.500977 78.5s-20.334 52.667 -38.001 77s-39.167 46.833 -64.5 67.5s-52.5 38.334 -81.5 53.001
s-59.167 25 -90.5 31s-61 6.66699 -89 2c-29.333 0 -55.666 -6.16699 -78.999 -18.5s-43.666 -29 -60.999 -50s-32.166 -44.833 -44.499 -71.5s-22.166 -54.167 -29.499 -82.5s-12.833 -56.5 -16.5 -84.5s-5.5 -53.333 -5.5 -76z" />
    <glyph glyph-name="ordfeminine" unicode="&#xaa;" horiz-adv-x="369" 
d="M271.672 337.477l-38.3789 -25.0508c-10.7422 -7.36035 -21.1914 -13.5537 -31.3477 -18.5801s-20.9961 -8.79688 -32.5195 -11.3105c-11.5234 -2.5127 -25.6836 -3.76953 -42.4805 -3.76953c-36.3281 0 -63.2812 8.88672 -80.8594 26.6592
s-26.3672 44.2529 -26.3672 79.4404c0 13.6436 1.95312 27.8262 5.85938 42.5479s9.66797 29.3525 17.2852 43.8936c7.61719 14.542 16.6992 28.3652 27.2461 41.4707c10.5469 13.1045 22.4609 24.6836 35.7422 34.7373s27.4414 18.043 42.4805 23.9678
s30.957 8.88672 47.7539 8.88672c28.125 -2.5127 50.1953 -8.88574 66.2109 -19.1191s28.125 -23.3389 36.3281 -39.3164s13.8672 -33.75 16.9922 -53.3174c3.125 -19.5684 5.56641 -39.7646 7.32422 -60.5898s4.00391 -41.6504 6.73828 -62.4756
s8.39844 -40.0342 16.9922 -57.627c-5.07812 -11.8486 -9.86328 -20.1963 -14.3555 -25.043s-9.47266 -5.6543 -14.9414 -2.42285s-11.8164 11.1309 -19.043 23.6982s-16.1133 30.3408 -26.6602 53.3203zM69.5234 383.786c0 -20.4658 4.19922 -35.4541 12.5977 -44.9688
s23.3398 -14.2715 44.8242 -14.2715c16.0156 0 31.3477 2.60254 45.9961 7.80859s27.4414 12.3867 38.3789 21.542c10.9375 9.15625 19.7266 20.1973 26.3672 33.123s9.96094 27.2881 9.96094 43.0859c0 6.46191 0.195312 15.5273 0.585938 27.1963
s-0.390625 23.248 -2.34375 34.7373s-5.66406 21.4531 -11.1328 29.8906s-13.6719 12.6562 -24.6094 12.6562c-20.3125 0 -39.0625 -4.75684 -56.25 -14.2715s-32.0312 -21.6328 -44.5312 -36.3535c-12.5 -14.7217 -22.2656 -30.9688 -29.2969 -48.7412
s-10.5469 -34.917 -10.5469 -51.4336z" />
    <glyph glyph-name="guillemotleft" unicode="&#xab;" horiz-adv-x="826" 
d="M20 257c0 22 6.66699 43.999 20 65.999s31 43.5 53 64.5s47 40.667 75 59s56.5 34.5 85.5 48.5s57.333 25 85 33s51.834 12 72.501 12c0 -19.333 -4.83301 -37 -14.5 -53s-22.5 -31 -38.5 -45s-33.833 -27.5 -53.5 -40.5l-58 -38.5c-19 -12.667 -37.167 -26 -54.5 -40
s-31.333 -29 -42 -45c-0.666992 -2 -1.33398 -3.33301 -2.00098 -4v-6v-6c0.666992 -2 1.33398 -3.66699 2.00098 -5c1.33301 -0.666992 4.5 -4 9.5 -10s8.83301 -9.66699 11.5 -11c3.33301 -2.66699 11.166 -7.66699 23.499 -15s26.666 -16.333 42.999 -27l52 -33l51.5 -33
l42 -27.5c12 -7.66699 20.333 -12.834 25 -15.501c1.33301 -0.666992 4.83301 -3.83398 10.5 -9.50098s8.83398 -9.16699 9.50098 -10.5c0 -2 0.333008 -4 1 -6c0 -0.666992 0.166992 -1.66699 0.5 -3s0.5 -2.33301 0.5 -3s-0.166992 -1.5 -0.5 -2.5
s-0.5 -1.83301 -0.5 -2.5c-0.666992 -2 -1 -3.66699 -1 -5c-1.33301 -2.66699 -4.33301 -6.66699 -9 -12s-9.16699 -10.166 -13.5 -14.499s-8.5 -8.16602 -12.5 -11.499s-6.66699 -5 -8 -5c-10.667 0 -27.167 4.16699 -49.5 12.5s-47 19.5 -74 33.5s-54.667 30 -83 48
s-54.333 36.667 -78 56s-43 38.333 -58 57s-22.5 35.334 -22.5 50.001zM330 258.999c0 22 6.83203 43.9961 20.499 65.9961s31.334 43.5 53.001 64.5s46.667 40.667 75 59s56.833 34.333 85.5 48s56.834 24.667 84.501 33s52.167 12.5 73.5 12.5c0 -19.333 -5 -37 -15 -53
s-23 -31 -39 -45s-33.667 -27.5 -53 -40.5l-58 -38.5c-19.333 -12.667 -37.5 -26 -54.5 -40s-30.833 -29 -41.5 -45c-0.666992 -2 -1.33398 -3.66699 -2.00098 -5s-1 -3 -1 -5c0 -2.66699 0.333008 -4.66699 1 -6c0.666992 -2 1.33398 -3.66699 2.00098 -5
c1.33301 -1.33301 4.5 -4.83301 9.5 -10.5s8.83301 -9.16699 11.5 -10.5l24 -15.5l42 -27l51.5 -32.5l52 -33l42.5 -27.5l24 -15.5c2 -1.33301 5.66699 -4.66602 11 -9.99902l10 -10c0 -2 0.333008 -4 1 -6c0 -1.33301 0.166992 -2.5 0.5 -3.5s0.5 -1.83301 0.5 -2.5
s-0.166992 -1.5 -0.5 -2.5s-0.5 -2.16699 -0.5 -3.5c-0.666992 -1.33301 -1 -2.66602 -1 -3.99902c-2 -3.33301 -5.16699 -7.5 -9.5 -12.5s-8.83301 -9.66699 -13.5 -14s-9 -8.16602 -13 -11.499s-6.33301 -5 -7 -5c-11.333 0 -28 4.16699 -50 12.5s-46.5 19.5 -73.5 33.5
s-54.833 30 -83.5 48s-54.834 36.667 -78.501 56s-43 38.333 -58 57s-22.5 35.334 -22.5 50.001z" />
    <glyph glyph-name="logicalnot" unicode="&#xac;" horiz-adv-x="626" 
d="M505 199c-1.33301 20.667 -2.66895 37.332 -4.00195 49.999s-2.66602 23.167 -3.99902 31.5s-2.66602 15.333 -3.99902 21s-2.33301 11.667 -3 18s-1.33398 14 -2.00098 23s-1 21.5 -1 37.5c-75.333 0 -149.666 -3.33301 -222.999 -10s-147 -10 -221 -10
c0 23.333 8.5 42.5 25.5 57.5s38.5 26.5 64.5 34.5s55 13.5 87 16.5s63.5 4.83301 94.5 5.5s59.333 0.5 85 -0.5s45.5 -1.5 59.5 -1.5c6.66699 0 15.167 -0.166992 25.5 -0.5s20.5 -0.5 30.5 -0.5s18.667 -0.166992 26 -0.5s11.333 -0.5 12 -0.5
c3.33301 -28.667 6.33301 -52 9 -70s5 -33.167 7 -45.5s3.83301 -23 5.5 -32s3 -18.833 4 -29.5s1.83301 -23.167 2.5 -37.5s1.66699 -33.166 3 -56.499h-79z" />
    <glyph glyph-name="hyphen_" unicode="&#xad;" 
d="M76 325c0 2 0.333984 5.82812 1.00098 11.4951s1 8.83398 1 9.50098c10.667 0 25.167 0.833008 43.5 2.5s38.5 3.33398 60.5 5.00098s44.833 3.5 68.5 5.5s46.167 3.33301 67.5 4s41 1 59 1s32 -1 42 -3c12 0 20.5 -1.33301 25.5 -4s7.5 -11.667 7.5 -27
c-20 -13.333 -45 -23.166 -75 -29.499s-60.667 -10.833 -92 -13.5s-61.833 -4 -91.5 -4s-53.834 -0.333008 -72.501 -1c-18 -1.33301 -30 2.33398 -36 11.001s-9 19.334 -9 32.001z" />
    <glyph glyph-name="registered" unicode="&#xae;" horiz-adv-x="752" 
d="M40 342c0 27.333 3.33301 56.332 10 86.999s16.167 60.667 28.5 90s27.666 57.333 45.999 84s39 50 62 70s48.667 35.833 77 47.5s58.833 17.5 91.5 17.5c30 0 60 -5.16699 90 -15.5s58.833 -24.166 86.5 -41.499s53.334 -37.833 77.001 -61.5
s44.334 -49.334 62.001 -77.001s31.334 -56.167 41.001 -85.5s14.5 -58.666 14.5 -87.999c0 -34.667 -4.33301 -69.5 -13 -104.5s-21.5 -68.167 -38.5 -99.5s-38 -60 -63 -86s-53.667 -48.167 -86 -66.5s-68 -32 -107 -41s-81.167 -11.5 -126.5 -7.5c-34 0 -63.5 6 -88.5 18
s-46.833 28.167 -65.5 48.5s-34.334 43.5 -47.001 69.5s-22.834 53 -30.501 81s-13 56 -16 84s-4.5 53.667 -4.5 77zM111 309.999c0 -27.333 4.00586 -56.1699 12.0059 -86.5029s20.167 -58.333 36.5 -84s37.166 -47.167 62.499 -64.5s55.333 -26 90 -26
c31.333 -6 60.833 -7.66699 88.5 -5s53.167 8.83398 76.5 18.501s44.666 22.334 63.999 38.001s36 33.167 50 52.5c-18.667 3.33301 -37.334 8.5 -56.001 15.5l-58.5 22.5l-64.5 24.5c-22.667 8.33301 -47.667 15.5 -75 21.5c8 -14 14.833 -26.667 20.5 -38
s10.5 -22.333 14.5 -33s6.83301 -21.334 8.5 -32.001s2.5 -22.334 2.5 -35.001c0 -2.66699 -1.66699 -5.83398 -5 -9.50098s-7.5 -7.5 -12.5 -11.5s-10.333 -7.66699 -16 -11s-10.834 -5.33301 -15.501 -6c-14.667 11.333 -27 27.5 -37 48.5s-18.833 44.5 -26.5 70.5
s-13.834 53.167 -18.501 81.5s-8.83398 56 -12.501 83l-10.5 75c-3.33301 23 -7 41.5 -11 55.5c-2.66699 22 -0.166992 40.333 7.5 55s17.834 25.834 30.501 33.501s27 12.5 43 14.5s31.333 2 46 0c16 0 34.833 -1 56.5 -3s42.167 -6.16699 61.5 -12.5
s35.833 -15.166 49.5 -26.499s20.5 -26.333 20.5 -45c2 -28 -0.166992 -52 -6.5 -72s-14.833 -36.833 -25.5 -50.5s-23 -24.667 -37 -33s-27.5 -14.666 -40.5 -18.999s-24.833 -7.16602 -35.5 -8.49902s-18.334 -2 -23.001 -2c0 -1.33301 0.333008 -2.33301 1 -3l2 -2
c44.667 -12 88.167 -25.667 130.5 -41s84.5 -31.666 126.5 -48.999c10.667 25.333 17.5 51.333 20.5 78s1.5 52.667 -4.5 78c0 30.667 -7 62.667 -21 96s-32.667 64.166 -56 92.499s-50.5 51.5 -81.5 69.5s-64.167 27 -99.5 27c-44 0 -83 -11.333 -117 -34
s-62.333 -51.167 -85 -85.5s-40 -71.5 -52 -111.5s-18 -77 -18 -111zM292.006 451.995c0 -5.33301 -0.5 -12.1689 -1.5 -20.502s-1.16699 -16.666 -0.5 -24.999s2.16699 -16.333 4.5 -24s6.83301 -14.167 13.5 -19.5c0.666992 -0.666992 1.33398 -1 2.00098 -1
c0 -0.666992 1.33301 -1 4 -1c37.333 2.66699 66.333 8.66699 87 18s35.167 20 43.5 32s11.5 24.5 9.5 37.5s-7.33301 24.833 -16 35.5s-19.834 19.334 -33.501 26.001s-27.5 9.5 -41.5 8.5s-27.5 -6.66699 -40.5 -17s-23.167 -26.833 -30.5 -49.5z" />
    <glyph glyph-name="macron" unicode="&#xaf;" horiz-adv-x="420" 
d="M50 583c0 2 0.333008 5.83203 1 11.499s1 9.16699 1 10.5c16.667 0 38.167 1 64.5 3s53.333 3.83301 81 5.5s54.334 2.5 80.001 2.5s46.167 -1.33301 61.5 -4c12 0 20.5 -1.33301 25.5 -4s7.5 -12 7.5 -28c-20 -12.667 -42.167 -21.834 -66.5 -27.501s-49 -9.5 -74 -11.5
s-49.333 -2.5 -73 -1.5s-44.834 1.16699 -63.501 0.5c-18 -1.33301 -30 2.33398 -36 11.001s-9 19.334 -9 32.001z" />
    <glyph glyph-name="degree" unicode="&#xb0;" horiz-adv-x="320" 
d="M15.3496 495.547c0 23.3232 5 45.0449 15.0039 65.1709s23.1992 37.4307 39.585 51.9141s34.8418 25.8633 55.3682 34.1396s41.3105 12.4141 62.3535 12.4141c11.7295 0 22.165 -4.1377 31.3066 -12.4141s16.8174 -18.3389 23.0273 -30.1885
c6.20898 -11.8496 10.9521 -24.3574 14.2295 -37.5244c3.27734 -13.166 4.91602 -24.6396 4.91602 -34.4199c0 -21.0664 -4.65723 -41.4746 -13.9707 -61.2236c-9.31445 -19.749 -21.3887 -37.2412 -36.2227 -52.4766c-14.833 -15.2354 -31.5645 -27.5547 -50.1934 -36.959
c-18.6279 -9.40527 -37.2559 -14.1074 -55.8838 -14.1074c-16.5586 0 -30.5303 3.10352 -41.9141 9.31055s-20.5254 14.4834 -27.4248 24.8281s-11.9883 22.5703 -15.2656 36.6768c-3.27637 14.1064 -4.91504 29.0596 -4.91504 44.8594zM59.3311 489.901
c0 -9.78027 0.774414 -18.3359 2.32617 -25.6719c1.55273 -7.33496 4.3125 -13.6357 8.2793 -18.9023c3.96777 -5.2666 9.22852 -9.31055 15.7822 -12.1318c6.55469 -2.82129 14.6621 -4.23242 24.3213 -4.23242c12.7637 0 25.5273 3.85547 38.291 11.5674
c12.7646 7.71191 24.2354 17.4922 34.4121 29.3418c10.1768 11.8506 18.3701 24.9229 24.5801 39.2168c6.20996 14.2949 9.31445 28.2139 9.31445 41.7568c0 6.01855 -0.517578 12.6016 -1.55273 19.749c-1.03418 7.14746 -2.75879 13.7305 -5.17383 19.749
s-5.86426 11.0967 -10.3486 15.2344s-10.1768 6.20703 -17.0762 6.20703c-6.20996 0 -13.541 -2.25684 -21.9932 -6.77051c-8.45117 -4.51465 -17.248 -10.3457 -26.3896 -17.4932s-18.1113 -15.2354 -26.9082 -24.2637s-16.8174 -18.0566 -24.0615 -27.085
s-13.0225 -17.6807 -17.335 -25.957c-4.31152 -8.27637 -6.46777 -15.0479 -6.46777 -20.3145z" />
    <glyph glyph-name="plusminus" unicode="&#xb1;" horiz-adv-x="663" 
d="M85 80c0 17.333 5.83691 28.332 17.5039 32.999s28.167 6.33398 49.5 5.00098s47.333 -3.83301 78 -7.5s65 -4.83398 103 -3.50098c-9.33301 14 -17.166 29.333 -23.499 46s-11.833 33.5 -16.5 50.5s-8.5 33.5 -11.5 49.5s-4.83301 29.667 -5.5 41l-214 43
c-2 0 -5.83301 2.83301 -11.5 8.5s-9.16699 9.83398 -10.5 12.501v5c-0.666992 1.33301 -1 3.33301 -1 6s0.333008 4.66699 1 6v5l12 12c5.33301 5.33301 8.66602 8 9.99902 8h214c4.66699 35.333 10.334 71.333 17.001 108s15.334 72.667 26.001 108h22
c3.33301 -1.33301 7.33301 -3.16602 12 -5.49902l13.5 -7c4.33301 -2.33301 8.16602 -4.5 11.499 -6.5s5 -3.33301 5 -4v-201c11.333 0 25.833 2 43.5 6s34.5 6.16699 50.5 6.5s29.667 -2.66699 41 -9s17 -19.833 17 -40.5c0 -12 -3.66699 -20.833 -11 -26.5
s-16.666 -9.83398 -27.999 -12.501s-23.5 -4.5 -36.5 -5.5s-25.167 -2.66699 -36.5 -5s-20.833 -5.83301 -28.5 -10.5s-11.5 -12 -11.5 -22c0 -16 2.83301 -30.167 8.5 -42.5s12.167 -24.333 19.5 -36s14.166 -23.667 20.499 -36s10.166 -25.833 11.499 -40.5
c18 0 35.667 0.666992 53 2s33.333 2.83301 48 4.5s27.667 2.83398 39 3.50098s19.666 0.666992 24.999 0c6 0 10.5 -2.33301 13.5 -7s5.33301 -10.334 7 -17.001s2.66699 -14.167 3 -22.5s0.5 -16.166 0.5 -23.499c-13.333 -8.66699 -33.333 -15.667 -60 -21
s-56.667 -9.33301 -90 -12s-68.333 -4.5 -105 -5.5s-71.667 -1.33301 -105 -1s-63 0.666016 -89 0.999023s-45.333 0.5 -58 0.5c-8.66699 -0.666992 -15.834 0.833008 -21.501 4.5s-9.83398 8.66699 -12.501 15s-4.33398 13 -5.00098 20s-1 13.833 -1 20.5z" />
    <glyph glyph-name="twosuperior" unicode="&#xb2;" horiz-adv-x="431" 
d="M128.792 367.269c0 22.0264 2.04492 43.7539 6.13184 65.1787s8.66113 42.9502 13.7227 64.5762c5.06055 21.626 9.63477 43.5518 13.7217 65.7773c4.08691 22.2266 6.13086 44.7529 6.13086 67.5801c0 3.2041 -0.0966797 8.51074 -0.291016 15.9199
c-0.194336 7.4082 -0.291992 15.1172 -0.291992 23.127s-0.0976562 15.7188 -0.291992 23.127c-0.194336 7.40918 -0.291992 12.5156 -0.291992 15.3193c-0.77832 1.60254 -2.72461 4.00488 -5.83887 7.20801c-3.11426 3.2041 -5.25488 5.20703 -6.42285 6.00781h-6.42285
c-12.8467 0 -23.5518 -2.90332 -32.1162 -8.71094c-8.56445 -5.80664 -15.8633 -12.915 -21.8975 -21.3242c-6.03418 -8.41016 -11.5811 -17.7217 -16.6416 -27.9336s-10.6074 -19.5225 -16.6416 -27.9316c-6.03418 -8.41016 -12.8467 -15.5186 -20.4375 -21.3252
s-17.0312 -8.70996 -28.3203 -8.70996c0 21.2246 3.50391 41.9492 10.5107 62.1729s17.0312 38.2451 30.0723 54.0635c13.041 15.8193 28.6123 28.5342 46.7139 38.1455s38.0518 14.417 59.8516 14.417c9.34277 0 16.9336 -0.400391 22.7725 -1.20215
c5.83887 -0.800781 10.8994 -2.60254 15.1816 -5.40625s7.78613 -6.9082 10.5107 -12.3145c2.72559 -5.40625 5.83984 -12.7148 9.34277 -21.9258v-17.1201c0 -8.20996 0.0976562 -17.1201 0.291992 -26.7314s0.388672 -18.7217 0.583008 -27.332
s0.291992 -14.5176 0.291992 -17.7217c0 -21.2256 -1.16797 -42.0498 -3.50293 -62.4736c-2.33594 -20.4248 -5.1582 -40.6484 -8.46777 -60.6719c-3.30859 -20.0234 -6.13086 -40.1475 -8.4668 -60.3711c-2.33496 -20.2236 -3.50293 -40.748 -3.50293 -61.5723h10.5107
l137.806 64.2754c0.389648 0 1.26562 0.100586 2.62793 0.300781s3.0166 0.299805 4.96289 0.299805s3.79492 0.100586 5.5459 0.300781c1.75195 0.200195 3.01758 0.299805 3.7959 0.299805c3.50293 0 7.20117 -0.200195 11.0947 -0.600586
c3.89258 -0.400391 7.49316 -1.20117 10.8027 -2.40234c3.30859 -1.20215 6.13086 -3.20508 8.4668 -6.00879c2.33496 -2.80273 3.50293 -6.60742 3.50293 -11.4131c0 -8.40918 -2.53027 -15.0166 -7.59082 -19.8223s-10.9971 -8.61035 -17.8096 -11.4131
c-6.8125 -2.80371 -13.8193 -5.20703 -21.0215 -7.20996c-7.20215 -2.00195 -13.1387 -4.2041 -17.8096 -6.60742c-3.50293 -2.00293 -9.0498 -5.00684 -16.6406 -9.01172l-26.5684 -13.5156l-31.5322 -15.9189l-30.9473 -16.2197l-26.2773 -13.8164
c-7.78516 -4.00488 -13.624 -6.80762 -17.5176 -8.40918c-0.77832 0 -2.04297 -0.100586 -3.79395 -0.300781c-1.75195 -0.200195 -3.69824 -0.299805 -5.83984 -0.299805c-2.14062 0 -4.08691 -0.100586 -5.83887 -0.300781s-3.01758 -0.300781 -3.7959 -0.300781
c-7.78516 0 -13.916 0.901367 -18.3936 2.7041c-4.47656 1.80176 -7.68848 4.60449 -9.63477 8.4082c-1.94629 3.80469 -3.11426 8.51074 -3.50391 14.1172s-0.583984 12.6143 -0.583984 21.0234z" />
    <glyph glyph-name="threesuperior" unicode="&#xb3;" horiz-adv-x="332" 
d="M172.809 306.539c0 1.23438 0.286133 3.60156 0.866211 7.09863s0.870117 5.65723 0.870117 6.48047c9.66504 6.99512 20.2959 16.1504 31.8936 27.4658c11.5986 11.3154 22.4238 23.6592 32.4756 37.0312s18.46 27.4648 25.2256 42.2773
c6.76465 14.8125 10.1475 29.625 10.1475 44.4375c0 0.823242 -0.0966797 1.64648 -0.290039 2.46973c-0.192383 0.823242 -0.289062 1.64648 -0.289062 2.46973v1.85156l-7.53906 8.33203l-11.0176 12.0352l-11.3086 11.7266
c-3.67285 3.70312 -6.08887 6.37793 -7.24805 8.02344c-0.773438 0 -1.74023 0.206055 -2.90039 0.617188c-0.772461 0 -1.44922 0.102539 -2.0293 0.308594s-1.25684 0.308594 -2.0293 0.308594c-7.3457 0 -15.8506 -3.18848 -25.5156 -9.56641
s-19.1367 -13.5781 -28.415 -21.6016s-17.4932 -15.6357 -24.6455 -22.8359c-7.15137 -7.2002 -11.8867 -11.8291 -14.2061 -13.8867c-0.773438 -0.411133 -1.74023 -0.617188 -2.89941 -0.617188c-0.773438 -0.411133 -1.93359 -0.617188 -3.47949 -0.617188
s-2.5127 0.206055 -2.89941 0.617188c-1.16016 0 -2.12695 0.206055 -2.89941 0.617188c-1.54688 0.823242 -3.96289 2.9834 -7.24902 6.48047s-5.12207 6.06836 -5.50879 7.71387v5.55469v6.78906c3.09277 10.2861 7.3457 23.2471 12.7588 38.8828l16.2363 49.0664
c5.41309 17.0752 10.1494 34.1504 14.209 51.2256s6.08887 32.4023 6.08887 45.9805c0 9.875 -0.386719 19.6475 -1.16016 29.3164c-0.772461 9.66895 -2.70508 18.4121 -5.79785 26.2295s-7.53906 13.9893 -13.3389 18.5156
c-5.79883 4.52637 -13.7236 6.78906 -23.7754 6.78906c-13.5303 0 -25.418 -4.01172 -35.6631 -12.0352s-18.9434 -18.1045 -26.0957 -30.2422c-7.15137 -12.1377 -12.2734 -25.0986 -15.3662 -38.8828s-3.86621 -26.6426 -2.32031 -38.5752h-24.9355
c-0.386719 0 -1.16016 2.05762 -2.31934 6.17188c-1.16016 4.11426 -2.41699 8.94922 -3.76953 14.5039c-1.35352 5.55469 -2.61035 11.3154 -3.76953 17.2812l-2.89941 14.5039v12.9609c0 14.4014 3.86621 28.082 11.5977 41.043s17.3965 24.3789 28.9951 34.2539
c11.5977 9.875 24.0654 17.6924 37.4033 23.4531c13.3369 5.76074 25.8047 8.64062 37.4033 8.64062c17.7832 0 32.5703 -3.29199 44.3613 -9.875c11.792 -6.58301 21.457 -15.4297 28.9951 -26.5391s13.1436 -23.8643 16.8164 -38.2656s6.08887 -29.4199 7.24805 -45.0557
c1.16016 -15.6357 1.35352 -31.5801 0.580078 -47.833s-1.54688 -31.374 -2.31934 -45.3633c15.8506 -2.87988 30.6377 -6.99414 44.3613 -12.3428c13.7246 -5.34863 25.709 -12.4463 35.9541 -21.293s18.3633 -19.75 24.3555 -32.7109s8.98828 -28.6992 8.98828 -47.2148
c0 -10.2861 -1.73926 -22.0127 -5.21875 -35.1797s-8.40918 -26.8477 -14.7881 -41.043c-6.37793 -14.1953 -13.7227 -28.082 -22.0342 -41.6602s-17.2998 -25.8193 -26.9648 -36.7227s-19.9102 -19.6465 -30.7354 -26.2295s-21.6494 -9.875 -32.4736 -9.875
c-7.3457 0 -12.4678 2.77734 -15.3672 8.33203s-4.34961 11.624 -4.34961 18.207z" />
    <glyph glyph-name="acute" unicode="&#xb4;" 
d="M319 740l-108.002 -159.999c-8 -9.33301 -16 -13.333 -24 -12s-14.167 5.16602 -18.5 11.499s-6.66602 14.333 -6.99902 24s3.16699 19.167 10.5 28.5c2 2 4.16699 4.83301 6.5 8.5s3.83301 6.16699 4.5 7.5l23 36c8.66699 13.333 17.667 25.833 27 37.5s18.5 22 27.5 31
s17.5 15 25.5 18s14.833 2.33301 20.5 -2s9.83398 -13.833 12.501 -28.5z" />
    <glyph glyph-name="mu" unicode="&#xb5;" 
d="M20 408c0 4 0.166992 11.168 0.5 21.501s0.5 21.166 0.5 32.499s0.166992 21.833 0.5 31.5s0.5 16.5 0.5 20.5c4.66699 8 10.167 15.833 16.5 23.5s13 13 20 16s14.667 3.5 23 1.5s16.833 -8.66699 25.5 -20v-21c-0.666992 -3.33301 -2 -11.166 -4 -23.499
s-4.33301 -25.833 -7 -40.5l-7.5 -40.5c-2.33301 -12.333 -3.5 -20.166 -3.5 -23.499c0 -12.667 1.33301 -28.5 4 -47.5s6.5 -38.833 11.5 -59.5s11.333 -41.334 19 -62.001s16.834 -39.167 27.501 -55.5s22.5 -29.833 35.5 -40.5s28.167 -16 45.5 -16
c21.333 0 40.166 5.66699 56.499 17s30.5 26 42.5 44s21.833 38.333 29.5 61s13.834 45.5 18.501 68.5s8 45.167 10 66.5s3 40 3 56s-1.16699 31.167 -3.5 45.5s-5.16602 28.5 -8.49902 42.5s-6.16602 27.833 -8.49902 41.5s-3.5 27.5 -3.5 41.5
c0 12.667 4.5 21.667 13.5 27s19.167 8 30.5 8c14 0 25.333 -4.16699 34 -12.5s15.5 -18.833 20.5 -31.5s8.33301 -27.167 10 -43.5s2.5 -32.5 2.5 -48.5s-0.333008 -31.167 -1 -45.5s-1 -25.833 -1 -34.5v-48c0 -19.333 0.166992 -40.5 0.5 -63.5s0.5 -47.5 0.5 -73.5v-75
c0 -24 -0.166992 -47.333 -0.5 -70s-0.5 -42.667 -0.5 -60c-0.666992 -23.333 -6.33398 -36.333 -17.001 -39s-26.334 0.666016 -47.001 9.99902c-3.33301 2 -6 7 -8 15s-3.83301 16.5 -5.5 25.5s-3.33398 16.667 -5.00098 23s-4.16699 8.5 -7.5 6.5
c-6 -4 -15.5 -9.5 -28.5 -16.5s-27 -13.667 -42 -20s-29.667 -12 -44 -17s-25.166 -7.5 -32.499 -7.5c-22.667 0 -43.167 4.16699 -61.5 12.5s-34.833 19.833 -49.5 34.5c-3.33301 3.33301 -5.66602 6.33301 -6.99902 9s-2.5 5.16699 -3.5 7.5s-1.83301 5 -2.5 8
s-2.33398 6.83301 -5.00098 11.5c-1.33301 2.66699 -2.33301 -1.33301 -3 -12s-1.33398 -23.5 -2.00098 -38.5s-1.83398 -30 -3.50098 -45s-3.83398 -26.167 -6.50098 -33.5c-3.33301 -8 -7.66602 -13.333 -12.999 -16s-10.666 -3.66699 -15.999 -3
s-10.333 2.83398 -15 6.50098s-7.33398 7.16699 -8.00098 10.5c-5.33301 14 -9.33301 33.833 -12 59.5s-4.66699 53.667 -6 84s-2.16602 62 -2.49902 95s-0.5 64.167 -0.5 93.5s0.166992 55.166 0.5 77.499s0.5 38.5 0.5 48.5z" />
    <glyph glyph-name="paragraph" unicode="&#xb6;" horiz-adv-x="715" 
d="M543 670c0 4.66699 -3.00098 7.00098 -9.00098 7.00098s-14.167 -0.666992 -24.5 -2s-22 -2 -35 -2s-26.167 2.66699 -39.5 8c12.667 -24 23.167 -50.167 31.5 -78.5s14.5 -57.166 18.5 -86.499s6.66699 -58.166 8 -86.499s2 -54.5 2 -78.5v-19
c-1.33301 -8.66699 -3.33301 -21 -6 -37s-5.5 -34 -8.5 -54l-9.5 -61.5l-9.5 -61.5l-8 -54c-2.33301 -16 -4.5 -28 -6.5 -36c-4.66699 -10 -10.834 -16.333 -18.501 -19s-16 -3.83398 -25 -3.50098s-18.667 1.66602 -29 3.99902s-20.5 3.5 -30.5 3.5
c0 36 2.33301 67.833 7 95.5s9.83398 54.5 15.501 80.5s11 52.667 16 80s7.5 59 7.5 95c0 2 -0.166992 6.66699 -0.5 14l-1 23l-1 23c-0.333008 7.33301 -0.5 12 -0.5 14c-18 -19.333 -33.833 -35 -47.5 -47s-26.667 -20.833 -39 -26.5s-25.833 -9.33398 -40.5 -11.001
s-31.667 -2.5 -51 -2.5c-25.333 -2.66699 -49.333 0.333008 -72 9s-42.167 21.5 -58.5 38.5s-28.166 37.167 -35.499 60.5s-7.66602 48.666 -0.999023 75.999c0 34 4.16699 66 12.5 96s21.5 56.333 39.5 79s40.833 40.667 68.5 54s60.5 20 98.5 20
c31.333 0 57.666 -0.666992 78.999 -2l65 -4c22 -1.33301 47.333 -2.66602 76 -3.99902s66.334 -2 113.001 -2c8.66699 0 16 -7.33301 22 -22s10.833 -33.167 14.5 -55.5s6.5 -47 8.5 -74s3.33301 -52.5 4 -76.5s1.33398 -44.833 2.00098 -62.5s1.66699 -28.5 3 -32.5
c2.66699 -10.667 3.66699 -26.334 3 -47.001s-1.66699 -43.834 -3 -69.501s-3 -52.667 -5 -81s-3.5 -55.333 -4.5 -81s-1.33301 -48.667 -1 -69s2.16602 -35.5 5.49902 -45.5c0 -1.33301 0.333008 -3.16602 1 -5.49902s1 -4.16602 1 -5.49902
c0 -7.33301 -2.33301 -13.166 -7 -17.499s-10.5 -7.83301 -17.5 -10.5s-14.167 -4.33398 -21.5 -5.00098s-14 -1 -20 -1c-2.66699 0 -6.5 0.333008 -11.5 1s-8.16699 1 -9.5 1c-0.666992 54 -1.83398 110.167 -3.50098 168.5s-3.5 116 -5.5 173s-3.5 112.333 -4.5 166
s-1.5 103.5 -1.5 149.5z" />
    <glyph glyph-name="periodcentered" unicode="&#xb7;" horiz-adv-x="310" 
d="M85 270c0 10.667 4.16797 20.665 12.501 29.998s18.166 17.5 29.499 24.5s23.333 12.5 36 16.5s23 6 31 6c19.333 0 31.666 -5.66699 36.999 -17s8 -25.666 8 -42.999c0 -12.667 -2.66699 -23.667 -8 -33s-12.5 -16.833 -21.5 -22.5s-19.5 -9.83398 -31.5 -12.501
s-24.333 -4 -37 -4c-2 0 -4 0.333008 -6 1c-2 0 -3.66699 0.333008 -5 1c-2 0.666992 -5.16699 2.83398 -9.5 6.50098s-8.66602 7.83398 -12.999 12.501l-12.5 13.5c-4 4.33301 -6.66699 7.5 -8 9.5c-0.666992 1.33301 -1 3 -1 5c-0.666992 1.33301 -1 3.33301 -1 6z" />
    <glyph glyph-name="cedilla" unicode="&#xb8;" horiz-adv-x="493" 
d="M166 -364c10 7.33301 22.6689 15.834 38.002 25.501l46.5 30c15.667 10.333 30.834 21 45.501 32s26 21.5 34 31.5s12.167 20 12.5 30s-5.83398 19 -18.501 27c-32 0 -62.167 -0.833008 -90.5 -2.5s-53.333 1.33301 -75 9s-39 22.5 -52 44.5s-19.5 56.667 -19.5 104
c-1.33301 26 0.666992 45.167 6 57.5s12.166 19.5 20.499 21.5s17.166 0 26.499 -6s17.5 -13.5 24.5 -22.5s11.667 -18.333 14 -28s0.833008 -17.834 -4.5 -24.501c0 -21.333 3.66699 -37.166 11 -47.499s17 -17.5 29 -21.5s25.833 -5.66699 41.5 -5s31.667 1.66699 48 3
s32.333 1.83301 48 1.5s29.5 -3.33301 41.5 -9s21.833 -15.167 29.5 -28.5s11.5 -32.333 11.5 -57c0 -16 -8 -35.833 -24 -59.5s-35.833 -46.834 -59.5 -69.501s-49.167 -42 -76.5 -58s-52 -24 -74 -24c-14 0 -23.167 5 -27.5 15s-6.5 20.333 -6.5 31z" />
    <glyph glyph-name="onesuperior" unicode="&#xb9;" horiz-adv-x="184" 
d="M25.5537 655.632l-0.000976562 18.835c0 8.31836 1.12891 16.6367 3.3877 24.9551s5.87305 15.5771 10.8428 21.7754s12.6504 9.29688 23.041 9.29688c5.87305 0 10.7295 -3.66992 14.5703 -11.0098c3.83984 -7.33984 7.00195 -16.4736 9.4873 -27.4023
c2.48535 -10.9277 4.29297 -22.9971 5.42285 -36.209c1.12891 -13.2119 2.03223 -25.6895 2.70996 -37.4336c0.677734 -11.7432 1.24219 -21.9375 1.69434 -30.582s1.12988 -13.9453 2.0332 -15.9023c1.35547 -5.21973 3.95312 -13.0488 7.79297 -23.4873l12.5371 -35.4746
c4.51855 -13.2119 9.48828 -26.9941 14.9092 -41.3467l15.2471 -41.1035l13.2148 -35.2305c4.06641 -10.4385 7.22852 -17.9414 9.4873 -22.5088c0 -0.652344 0.225586 -1.63086 0.677734 -2.93555c0.452148 -1.30566 0.677734 -2.28418 0.677734 -2.93652
c0 -3.58789 -1.69434 -6.44238 -5.08203 -8.5625c-3.38867 -2.12012 -7.45508 -3.75098 -12.1982 -4.89258c-4.74414 -1.1416 -9.60059 -1.87598 -14.5703 -2.20215s-9.4873 -0.489258 -13.5537 -0.489258c-1.80664 0 -4.4043 0.163086 -7.79297 0.489258
s-5.53418 0.489258 -6.4375 0.489258l-30.1572 72.1748c-10.6162 25.2812 -20.2168 50.9707 -28.8008 77.0674s-15.5869 52.2754 -21.0078 78.5361s-8.13184 51.624 -8.13184 76.0898z" />
    <glyph glyph-name="ordmasculine" unicode="&#xba;" horiz-adv-x="383" 
d="M16.4492 455.756c0 28.8633 6.50293 55.75 19.5049 80.6553c13.001 24.9062 30.1494 46.3213 51.4443 64.2441c21.2959 17.9229 45.2812 32.0049 71.9561 42.2461c26.6748 10.2422 53.6865 15.3633 81.0352 15.3633c15.2432 0 28.8047 -5.12109 40.6846 -15.3633
c11.8809 -10.2412 21.8564 -22.6943 29.9258 -37.3584c8.07031 -14.665 14.2344 -30.1445 18.4932 -46.4385s6.38867 -30.4932 6.38867 -42.5977c0 -26.0693 -6.05273 -51.3242 -18.1572 -75.7646s-27.7959 -46.0879 -47.0742 -64.9424s-41.0225 -34.1006 -65.2324 -45.7393
c-24.21 -11.6377 -48.4189 -17.457 -72.6279 -17.457c-21.5195 0 -39.6768 3.84082 -54.4717 11.5215c-14.7949 7.68164 -26.6758 17.9238 -35.6416 30.7256c-8.9668 12.8018 -15.5801 27.9316 -19.8389 45.3896s-6.38867 35.9629 -6.38867 55.5156zM73.6133 448.774
c0 -12.1045 1.00781 -22.6943 3.02441 -31.7715c2.01758 -9.07812 5.60449 -16.876 10.7598 -23.3936c5.15625 -6.51758 11.9932 -11.5225 20.5117 -15.0137c8.51758 -3.49121 19.0527 -5.2373 31.6064 -5.2373c16.5879 0 33.1758 4.77148 49.7637 14.3154
s31.4951 21.6475 44.7207 36.3115c13.2256 14.665 23.873 30.8428 31.9424 48.5332c8.07031 17.6904 12.1055 34.915 12.1055 51.6738c0 7.44824 -0.672852 15.5947 -2.01758 24.4395s-3.58594 16.9912 -6.72363 24.4395
c-3.13867 7.44824 -7.62207 13.7334 -13.4502 18.8545s-13.2256 7.68164 -22.1924 7.68164c-8.06934 0 -17.5957 -2.79297 -28.5791 -8.37988c-10.9844 -5.58691 -22.417 -12.8027 -34.2969 -21.6475c-11.8809 -8.84473 -23.5371 -18.8535 -34.9697 -30.0264
c-11.4316 -11.1729 -21.8555 -22.3457 -31.2705 -33.5186s-16.9248 -21.8799 -22.5293 -32.1221c-5.60352 -10.2412 -8.40527 -18.6211 -8.40527 -25.1387z" />
    <glyph glyph-name="guillemotright" unicode="&#xbb;" horiz-adv-x="763" 
d="M85 43c0 10.667 4.66504 24.6699 13.998 42.0029s21.333 35.833 36 55.5l47.5 61l49.5 60l42 50l26 31.5c0 1.33301 0.333008 3.16602 1 5.49902s1 4.16602 1 5.49902l-1 5c-0.666992 1.33301 -1 3 -1 5c-1.33301 2.66699 -4.66602 6.66699 -9.99902 12
s-9.33301 8.66602 -12 9.99902c-4 2.66699 -12 7.66699 -24 15l-42 27l-51.5 33l-51.5 32.5l-42 27c-12 7.66699 -20.333 12.5 -25 14.5c-10 6.66699 -16.833 13.667 -20.5 21s-5.5 17 -5.5 29c18 0 41.5 -2.83301 70.5 -8.5s59.5 -13.334 91.5 -23.001
s64.333 -21.167 97 -34.5s62 -27.833 88 -43.5s47.333 -32.167 64 -49.5s25 -34.333 25 -51c0 -1.33301 -0.333008 -3.16602 -1 -5.49902s-1 -4.16602 -1 -5.49902l-27 -33l-41 -49l-48.5 -58.5l-49 -57.5l-42.5 -49l-28 -32c-10 -11.333 -18 -21 -24 -29
s-11.5 -14.667 -16.5 -20s-10.667 -9.33301 -17 -12s-15.166 -4 -26.499 -4c-2.66699 0 -6.5 0.166992 -11.5 0.5s-10 1.16602 -15 2.49902s-9.33301 3.5 -13 6.5s-5.5 7.5 -5.5 13.5zM343.998 84.0029c0 10.667 4.66602 24.502 13.999 41.502s21.166 35.5 35.499 55.5
s30 40.5 47 61.5l49.5 59.5l42.5 49.5c12.333 14.333 20.833 24.833 25.5 31.5c0 1.33301 0.5 3.16602 1.5 5.49902s1.5 4.16602 1.5 5.49902c0 0.666992 -0.666992 2.66699 -2 6c-0.666992 2 -1 3.66699 -1 5c-1.33301 2.66699 -4.66602 6.66699 -9.99902 12
s-9.33301 8.66602 -12 9.99902c-4 2 -12 6.83301 -24 14.5l-42.5 27l-51.5 32.5l-51 33c-16 10.667 -30.167 19.667 -42.5 27s-20.166 12.333 -23.499 15c-11.333 6.66699 -18.666 13.5 -21.999 20.5s-5 16.5 -5 28.5c18.667 0 42.334 -2.83301 71.001 -8.5
s59 -13.167 91 -22.5s64.167 -20.833 96.5 -34.5s61.666 -28.167 87.999 -43.5s47.666 -31.5 63.999 -48.5s24.5 -34.167 24.5 -51.5c0 -1.33301 -0.333008 -3.16602 -1 -5.49902s-1 -4.16602 -1 -5.49902c-5.33301 -7.33301 -14.166 -18.333 -26.499 -33l-41.5 -49.5
l-48.5 -58l-49 -58l-42 -49l-27.5 -31.5c-10.667 -11.333 -19 -21 -25 -29s-11.5 -14.833 -16.5 -20.5s-10.5 -9.83398 -16.5 -12.501s-14.333 -4 -25 -4c-3.33301 0 -7.5 0.166992 -12.5 0.5s-9.83301 1.33301 -14.5 3s-8.83398 4 -12.501 7s-5.5 7.5 -5.5 13.5z" />
    <glyph glyph-name="onequarter" unicode="&#xbc;" horiz-adv-x="837" 
d="M18.2148 700.464l0.000976562 24.0967c0 10.6406 1.18457 21.2812 3.55371 31.9219s6.16016 19.9248 11.3721 27.8525c5.21191 7.92871 13.2676 11.8926 24.166 11.8926c6.16016 0 11.2539 -4.69434 15.2812 -14.083s7.34375 -21.0723 9.9502 -35.0508
c2.60645 -13.9795 4.50195 -29.4189 5.68652 -46.3184s2.13184 -32.8604 2.84277 -47.8818c0.710938 -15.0225 1.30371 -28.0625 1.77734 -39.1201s1.18457 -17.8389 2.13281 -20.3428c1.4209 -6.67578 4.14551 -16.6904 8.17383 -30.043l13.1484 -45.3789
c4.73828 -16.8994 9.9502 -34.5293 15.6367 -52.8896l15.9922 -52.5762l13.8594 -45.0664c4.26465 -13.3525 7.58203 -22.9502 9.95117 -28.792c0 -0.834961 0.237305 -2.08691 0.710938 -3.75586s0.709961 -2.9209 0.709961 -3.75586
c0 -4.59082 -1.77637 -8.24219 -5.33008 -10.9541s-7.81836 -4.79785 -12.7939 -6.25781s-10.0693 -2.39844 -15.2812 -2.81543s-9.9502 -0.625977 -14.2148 -0.625977c-1.89551 0 -4.62012 0.208984 -8.17383 0.625977s-5.80469 0.625977 -6.75293 0.625977
l-31.6289 92.3223c-11.1348 32.3389 -21.2041 65.1992 -30.207 98.5811s-16.3477 66.8682 -22.0342 100.459s-8.5293 66.0342 -8.5293 97.3301zM195.506 73.4121c1.1543 5.63574 3.0293 15.7002 5.62793 30.1934c2.59766 14.4932 5.19531 29.9932 7.79297 46.499
l7.36133 45.8945c2.30957 14.0908 4.04102 23.9541 5.19531 29.5908c4.04102 22.5449 10.1025 53.7451 18.1855 93.6016s18.042 82.5303 29.877 128.022c11.835 45.4932 25.4014 91.3887 40.7002 137.687s32.3291 86.959 51.0918 121.984
c18.7627 35.0244 39.1133 61.7959 61.0508 80.3145c21.9385 18.5195 45.6084 22.9482 71.0098 13.2861c-8.08301 -45.0898 -18.3301 -87.5625 -30.7422 -127.419s-25.6904 -78.9072 -39.834 -117.152l-43.2988 -113.53l-42.8652 -114.133
c-13.8555 -38.6484 -26.4121 -78.9072 -37.6699 -120.777c-11.2568 -41.8682 -20.0605 -86.5557 -26.4111 -134.062c-2.88672 -23.3496 -8.37109 -36.8359 -16.4541 -40.46c-8.08203 -3.62305 -17.3193 -3.42188 -27.7109 0.603516
c-7.50488 2.41602 -14.4326 6.03906 -20.7832 10.8701s-10.3916 14.4932 -12.123 28.9863zM376.646 191.958c0 16.9736 3.38672 37.207 10.1611 60.708c6.77344 23.5029 16.3291 47.9844 28.667 73.4443c12.3389 25.46 26.7334 50.7031 43.1836 75.7285
s34.3525 47.5479 53.707 67.5674c19.3535 20.0205 39.7959 36.2324 61.3271 48.6357s42.9414 18.6055 64.2305 18.6055c4.83887 0 11.25 -0.108398 19.2334 -0.326172s15.8457 -0.979492 23.5869 -2.28516s14.5156 -3.48145 20.3223 -6.52734
c5.80566 -3.0459 8.70898 -7.61621 8.70898 -13.71c0 -0.43457 -0.483398 -1.74023 -1.45117 -3.91602c-0.484375 -1.30566 -0.726562 -2.17578 -0.726562 -2.61035c-0.967773 -1.74121 -2.78223 -4.02637 -5.44336 -6.85547s-5.56445 -5.7666 -8.70996 -8.8125
c-3.14453 -3.04688 -6.41016 -5.87598 -9.79785 -8.4873c-3.38672 -2.61133 -5.56445 -4.35254 -6.53223 -5.22266c0 -3.0459 -0.121094 -8.48633 -0.362305 -16.3213c-0.242188 -7.83301 -0.363281 -16.1016 -0.363281 -24.8057s-0.121094 -17.082 -0.362305 -25.1338
c-0.242188 -8.05176 -0.363281 -13.6006 -0.363281 -16.6465c0 -13.9268 -0.121094 -27.3096 -0.363281 -40.1484c-0.241211 -12.8389 0.12207 -25.5693 1.08984 -38.1904c0.967773 -12.6221 2.54004 -25.1348 4.7168 -37.5381
c2.17676 -12.4043 5.68457 -25.1348 10.5234 -38.1904c1.45215 0 3.62988 -0.109375 6.5332 -0.327148s6.04785 -0.326172 9.43457 -0.326172c3.3877 0 6.5332 -0.108398 9.43652 -0.326172s5.08008 -0.327148 6.53125 -0.327148
c6.29004 0 12.5801 0.109375 18.8701 0.327148s12.2178 1.19727 17.7822 2.93848c5.56348 1.74121 10.5225 4.57031 14.877 8.4873s7.9834 9.79199 10.8867 17.626c14.999 -5.6582 24.0713 -12.2949 27.2168 -19.9111s4.71777 -16.8652 4.71777 -27.7461
c0 -13.0557 -3.14551 -22.957 -9.43555 -29.7031s-14.6357 -11.6426 -25.0381 -14.6895c-10.4033 -3.0459 -22.2578 -4.67773 -35.5635 -4.89551s-26.7324 -0.543945 -40.2803 -0.978516c1.93555 -4.35254 4.35449 -11.8604 7.25781 -22.5234l9.43555 -33.9473
c3.38672 -11.9688 6.41113 -23.1758 9.07227 -33.6211l5.44238 -21.5439c0 -0.870117 0.242188 -3.26367 0.726562 -7.18066c0.483398 -3.91699 0.725586 -6.96387 0.725586 -9.13965c0 -11.751 -3.62891 -19.2588 -10.8867 -22.5225
c-7.25781 -3.26465 -17.1768 -4.89648 -29.7568 -4.89648c-1.45117 0 -5.20117 0.217773 -11.249 0.65332c-6.04785 0.43457 -9.79785 0.652344 -11.25 0.652344c-0.967773 5.22266 -2.90332 13.8184 -5.80664 25.7871l-9.07227 37.8643
c-3.14551 13.2744 -6.41113 25.7871 -9.79785 37.5381l-7.25781 24.8066c-1.45117 3.48145 -3.62793 8.05176 -6.53125 13.71s-6.41113 11.0986 -10.5234 16.3213s-8.70898 9.68359 -13.7891 13.3828c-5.08105 3.69922 -10.041 5.54883 -14.8799 5.54883h-222.811z
M599.456 450.476c-15.4834 -9.5752 -31.5703 -21.9766 -48.2627 -37.209c-16.6924 -15.2334 -32.1758 -31.7715 -46.4502 -49.6152c-14.2734 -17.8447 -26.0068 -36.2334 -35.1992 -55.166c-9.19336 -18.9316 -13.79 -36.8848 -13.79 -53.8584h159.67
c0 13.4922 -0.725586 30.1396 -2.17773 49.9414c-1.45215 19.8027 -3.02441 39.3877 -4.71777 58.7549c-1.69336 19.3682 -3.62891 37.1035 -5.80566 53.2061c-2.17773 16.1025 -3.2666 27.418 -3.2666 33.9463z" />
    <glyph glyph-name="onehalf" unicode="&#xbd;" horiz-adv-x="793" 
d="M84.8848 669.547l0.00195312 24.46c0 10.8018 1.15723 21.6035 3.4707 32.4053s6.01562 20.2266 11.1064 28.2744s12.959 12.0723 23.6035 12.0723c6.0166 0 10.9912 -4.76562 14.9248 -14.2969c3.93457 -9.53027 7.1748 -21.3906 9.7207 -35.5811
c2.5459 -14.1895 4.39746 -29.8623 5.55469 -47.0176s2.08301 -33.3574 2.77734 -48.6064s1.27246 -28.4863 1.73535 -39.7119c0.462891 -11.2246 1.15723 -18.1074 2.08301 -20.6494c1.38867 -6.77734 4.0498 -16.9434 7.9834 -30.498l12.8428 -46.0645
c4.62793 -17.1553 9.71875 -35.0518 15.2725 -53.6895l15.6191 -53.3721l13.5371 -45.7471c4.16504 -13.5547 7.4043 -23.2969 9.71777 -29.2266c0 -0.847656 0.231445 -2.11816 0.694336 -3.8125s0.694336 -2.96484 0.694336 -3.81152
c0 -4.65918 -1.73535 -8.36523 -5.20605 -11.1182c-3.47168 -2.75293 -7.63672 -4.87109 -12.4961 -6.35352s-9.83496 -2.43555 -14.9258 -2.85938s-9.71875 -0.635742 -13.8838 -0.635742c-1.85156 0 -4.5127 0.211914 -7.9834 0.635742
c-3.47168 0.423828 -5.66992 0.635742 -6.5957 0.635742l-30.8926 93.7178c-10.876 32.8271 -20.7109 66.1846 -29.5049 100.071s-15.9678 67.8799 -21.5215 101.979s-8.33008 67.0322 -8.33008 98.8008zM213.183 17.0029c0.786133 5.72949 2.06543 15.9658 3.83496 30.7012
s3.53906 30.4932 5.30762 47.2744l5.01367 46.6602c1.57324 14.3252 2.75293 24.3535 3.53906 30.084c2.75195 22.9209 6.87988 54.6416 12.3848 95.1621s12.2871 83.9062 20.3477 130.157s17.3008 92.9111 27.7197 139.98c10.4199 47.0693 22.0186 88.4092 34.7969 124.019
s26.6387 62.8281 41.5801 81.6553c14.9414 18.8281 31.0625 23.3301 48.3623 13.5068c-5.50488 -45.8418 -12.4844 -89.0234 -20.9385 -129.544c-8.45312 -40.5205 -17.4961 -80.2227 -27.1299 -119.106l-29.4893 -115.423l-29.1943 -116.037
c-9.43652 -39.293 -17.9883 -80.2236 -25.6553 -122.791s-13.6631 -88 -17.9883 -136.298c-1.96582 -23.7393 -5.70117 -37.4512 -11.2061 -41.1348c-5.50488 -3.68457 -11.7959 -3.48047 -18.873 0.612305c-5.11133 2.45605 -9.8291 6.13965 -14.1543 11.0518
c-4.3252 4.91113 -7.07812 14.7344 -8.25781 29.4697zM478.476 102.421c0 23.5947 2.13965 46.8682 6.41406 69.8203c4.27441 22.9512 9.05859 46.0098 14.3516 69.1748c5.29297 23.166 10.0771 46.6533 14.3525 70.4629c4.27441 23.8096 6.41211 47.9404 6.41211 72.3936
c0 3.43164 -0.101562 9.11523 -0.305664 17.0518c-0.203125 7.93652 -0.304688 16.1943 -0.304688 24.7734c0 8.58008 -0.101562 16.8389 -0.305664 24.7754s-0.305664 13.4062 -0.305664 16.4092c-0.813477 1.71582 -2.84961 4.29004 -6.10742 7.72266
c-3.25684 3.43164 -5.49609 5.57617 -6.71777 6.43457h-6.71777c-13.4355 0 -24.6318 -3.11035 -33.5889 -9.33008c-8.95801 -6.2207 -16.5918 -13.8359 -22.9023 -22.8447s-12.1123 -18.9824 -17.4053 -29.9219s-11.0947 -20.9141 -17.4053 -29.9229
c-6.31152 -9.00879 -13.4365 -16.623 -21.375 -22.8428c-7.93945 -6.2207 -17.8125 -9.33105 -29.6201 -9.33105c0 22.7373 3.66406 44.9375 10.9932 66.6016c7.32812 21.665 17.8115 40.9697 31.4512 57.915s29.9258 30.5654 48.8574 40.8613
c18.9326 10.2959 39.7988 15.4443 62.5986 15.4443c9.77148 0 17.7109 -0.428711 23.8184 -1.28711s11.4004 -2.78906 15.8789 -5.79199s8.14258 -7.40039 10.9922 -13.1924c2.85059 -5.79199 6.10742 -13.6211 9.77148 -23.4873v-18.3398
c0 -8.79395 0.101562 -18.3389 0.305664 -28.6348s0.408203 -20.0557 0.612305 -29.2793c0.203125 -9.22363 0.304688 -15.5518 0.304688 -18.9844c0 -22.7373 -1.22168 -45.0449 -3.66406 -66.9229c-2.44238 -21.8789 -5.39453 -43.543 -8.85547 -64.9932
s-6.41309 -43.0068 -8.85547 -64.6709c-2.44238 -21.665 -3.66406 -43.6514 -3.66406 -65.959h10.9932l144.129 68.8535c0.407227 0 1.32324 0.107422 2.74805 0.321289c1.4248 0.214844 3.15527 0.322266 5.19141 0.322266s3.96973 0.107422 5.80176 0.321289
c1.83203 0.214844 3.15527 0.322266 3.96973 0.322266c3.66406 0 7.53223 -0.214844 11.6035 -0.643555s7.83789 -1.28711 11.2988 -2.57422c3.45996 -1.28711 6.41211 -3.43164 8.85547 -6.43457c2.44238 -3.00293 3.66406 -7.07812 3.66406 -12.2256
c0 -9.00879 -2.64648 -16.0869 -7.93945 -21.2344s-11.502 -9.22266 -18.627 -12.2256s-14.4541 -5.57715 -21.9863 -7.72266s-13.7412 -4.50488 -18.627 -7.07812c-3.66406 -2.14551 -9.46582 -5.36328 -17.4053 -9.65332l-27.7871 -14.4795l-32.9795 -17.0518
l-32.3672 -17.375l-27.4824 -14.7998c-8.14355 -4.29004 -14.251 -7.29297 -18.3223 -9.00879c-0.813477 0 -2.13672 -0.107422 -3.96875 -0.322266c-1.83301 -0.213867 -3.86914 -0.321289 -6.1084 -0.321289s-4.27539 -0.107422 -6.10742 -0.322266
c-1.83203 -0.213867 -3.15527 -0.321289 -3.96973 -0.321289c-8.14258 0 -14.5547 0.964844 -19.2373 2.89551s-8.04199 4.93359 -10.0781 9.00879s-3.25781 9.11621 -3.66504 15.1221s-0.610352 13.5137 -0.610352 22.5225z" />
    <glyph glyph-name="threequarters" unicode="&#xbe;" horiz-adv-x="948" 
d="M178.702 378.836c0 1.15527 0.303711 3.37305 0.90332 6.64551c0.599609 3.27344 0.899414 5.29492 0.899414 6.06445c9.99414 6.5459 20.9883 15.1133 32.9814 25.7021s23.1875 22.1406 33.582 34.6553c10.3936 12.5137 19.0889 25.7012 26.085 39.5635
c6.99707 13.8623 10.4951 27.7246 10.4951 41.5869c0 0.769531 -0.0996094 1.53906 -0.299805 2.30957s-0.299805 1.54102 -0.299805 2.31152v1.73242l-7.7959 7.79785l-11.3936 11.2627l-11.6943 10.9736c-3.79785 3.46582 -6.2959 5.96875 -7.49512 7.50879
c-0.799805 0 -1.7998 0.192383 -2.99902 0.577148c-0.799805 0 -1.49902 0.0966797 -2.09863 0.289062s-1.29883 0.289062 -2.09863 0.289062c-7.5957 0 -16.3906 -2.98438 -26.3857 -8.95312c-9.99512 -5.96777 -19.79 -12.7061 -29.3848 -20.2148
s-18.0898 -14.6318 -25.4854 -21.3701s-12.293 -11.0703 -14.6914 -12.9951c-0.799805 -0.385742 -1.7998 -0.578125 -3 -0.578125c-0.799805 -0.384766 -1.99902 -0.577148 -3.59766 -0.577148s-2.59766 0.192383 -2.99707 0.577148
c-1.19922 0 -2.19922 0.192383 -2.99902 0.578125c-1.59863 0.769531 -4.09668 2.79102 -7.49414 6.06445c-3.39844 3.27246 -5.29785 5.67871 -5.69727 7.21875v5.19824v6.35254c3.19824 9.62598 7.5957 21.7549 13.1924 36.3867l16.791 45.917
c5.59668 15.9795 10.4941 31.959 14.6924 47.9385c4.19727 15.9795 6.2959 30.3223 6.2959 43.0293c0 9.24121 -0.399414 18.3857 -1.19922 27.4346s-2.79883 17.2314 -5.99707 24.5469s-7.7959 13.0908 -13.793 17.3262s-14.1924 6.35352 -24.5859 6.35352
c-13.9932 0 -26.2861 -3.75391 -36.8799 -11.2627c-10.5947 -7.50879 -19.5898 -16.9424 -26.9854 -28.3008c-7.39551 -11.3594 -12.6924 -23.4883 -15.8906 -36.3877s-3.99805 -24.9326 -2.39941 -36.0996h-25.7861c-0.399414 0 -1.19922 1.9248 -2.39844 5.77539
s-2.49805 8.375 -3.89746 13.5732s-2.69922 10.5889 -3.89844 16.1719l-2.99805 13.5723v12.1289c0 13.4775 3.99805 26.2803 11.9932 38.4092s17.9893 22.8145 29.9824 32.0557s24.8857 16.5566 38.6777 21.9473c13.793 5.3916 26.6855 8.08691 38.6787 8.08691
c18.3896 0 33.6816 -3.08008 45.875 -9.24121s22.1875 -14.4395 29.9834 -24.8359s13.5928 -22.333 17.3906 -35.8096c3.79785 -13.4775 6.29688 -27.5322 7.49609 -42.1641s1.39941 -29.5527 0.599609 -44.7627c-0.799805 -15.209 -1.59961 -29.3594 -2.39941 -42.4512
c16.3906 -2.69531 31.6826 -6.5459 45.875 -11.5518s26.585 -11.6484 37.1787 -19.9268c10.5947 -8.27832 18.9902 -18.4824 25.1865 -30.6113s9.29492 -26.8574 9.29492 -44.1846c0 -9.62598 -1.79883 -20.5996 -5.39746 -32.9209
c-3.59766 -12.3213 -8.69434 -25.124 -15.291 -38.4082s-14.1924 -26.2793 -22.7881 -38.9854c-8.59473 -12.707 -17.8896 -24.1621 -27.8838 -34.3662c-9.99512 -10.2041 -20.5898 -18.3867 -31.7842 -24.5479s-22.3877 -9.24121 -33.5811 -9.24121
c-7.5957 0 -12.8926 2.59863 -15.8916 7.79688c-2.99805 5.19824 -4.49707 10.8779 -4.49707 17.0391zM320.144 59.7725c0.915039 6.01172 2.40234 16.7441 4.46191 32.2021c2.05859 15.458 4.11719 31.9902 6.17676 49.5957l5.83398 48.9521
c1.83008 15.0293 3.20312 25.5498 4.11816 31.5615c3.20215 24.0459 8.00684 57.3242 14.4131 99.835c6.40527 42.5107 14.2979 88.0273 23.6777 136.55s20.1328 97.4746 32.2588 146.855c12.125 49.3818 25.623 92.752 40.4941 130.11
c14.8701 37.3584 30.999 65.9141 48.3867 85.667s36.1475 24.4766 56.2803 14.1709c-6.40625 -48.0928 -14.5283 -93.3945 -24.3652 -135.905c-9.83789 -42.5107 -20.3613 -84.1631 -31.5713 -124.957l-34.3174 -121.091l-33.9736 -121.736
c-10.9814 -41.2227 -20.9336 -84.1631 -29.8564 -128.82c-8.92188 -44.6582 -15.8994 -92.3223 -20.9326 -142.991c-2.28809 -24.9053 -6.63477 -39.29 -13.041 -43.1543c-6.40527 -3.86426 -13.7266 -3.64941 -21.9629 0.644531
c-5.94824 2.57617 -11.4385 6.44043 -16.4717 11.5938s-8.23633 15.459 -9.60938 30.917zM460.759 180.96c0 16.9736 3.30078 37.207 9.9043 60.708c6.60449 23.5029 15.9209 47.9844 27.9502 73.4443c12.0283 25.46 26.0615 50.7031 42.0996 75.7285
s33.4922 47.5479 52.3613 67.5674c18.8682 20.0205 38.7979 36.2324 59.7891 48.6357s41.8652 18.6055 62.6211 18.6055c4.71777 0 10.9678 -0.108398 18.751 -0.326172s15.4482 -0.979492 22.9961 -2.28516s14.1523 -3.48145 19.8135 -6.52734
s8.49121 -7.61621 8.49121 -13.71c0 -0.43457 -0.47168 -1.74023 -1.41504 -3.91602c-0.47168 -1.30566 -0.708008 -2.17578 -0.708008 -2.61035c-0.943359 -1.74121 -2.71191 -4.02637 -5.30664 -6.85547s-5.4248 -5.7666 -8.49121 -8.8125
c-3.06641 -3.04688 -6.25 -5.87598 -9.55176 -8.4873s-5.4248 -4.35254 -6.36816 -5.22266c0 -3.0459 -0.118164 -8.48633 -0.354492 -16.3213c-0.235352 -7.83301 -0.353516 -16.1016 -0.353516 -24.8057s-0.118164 -17.082 -0.353516 -25.1338
c-0.236328 -8.05176 -0.354492 -13.6006 -0.354492 -16.6465c0 -13.9268 -0.118164 -27.3096 -0.353516 -40.1484s0.118164 -25.5693 1.06152 -38.1904c0.943359 -12.6221 2.47656 -25.1348 4.59961 -37.5381c2.12207 -12.4043 5.54199 -25.1348 10.2598 -38.1904
c1.41504 0 3.53809 -0.109375 6.36914 -0.327148c2.83008 -0.217773 5.89648 -0.326172 9.19824 -0.326172s6.36816 -0.108398 9.19824 -0.326172c2.83105 -0.217773 4.9541 -0.327148 6.36914 -0.327148c6.13184 0 12.2637 0.109375 18.3955 0.327148
s11.9102 1.19727 17.335 2.93848s10.2598 4.57031 14.5049 8.4873s7.7832 9.79199 10.6143 17.626c14.623 -5.6582 23.4678 -12.2949 26.5342 -19.9111s4.59961 -16.8652 4.59961 -27.7461c0 -13.0557 -3.06641 -22.957 -9.19922 -29.7031
c-6.13184 -6.74609 -14.2686 -11.6426 -24.4102 -14.6895c-10.1416 -3.0459 -21.6992 -4.67773 -34.6719 -4.89551c-12.9717 -0.217773 -26.0615 -0.543945 -39.2695 -0.978516c1.88672 -4.35254 4.24512 -11.8604 7.07617 -22.5234l9.19824 -33.9473
c3.30176 -11.9688 6.25 -23.1758 8.84473 -33.6211l5.30664 -21.5439c0 -0.870117 0.236328 -3.26367 0.708008 -7.18066s0.707031 -6.96387 0.707031 -9.13965c0 -11.751 -3.53809 -19.2588 -10.6133 -22.5225c-7.0752 -3.26465 -16.7451 -4.89648 -29.0098 -4.89648
c-1.41504 0 -5.07129 0.217773 -10.9678 0.65332c-5.89648 0.43457 -9.55176 0.652344 -10.9668 0.652344c-0.944336 5.22266 -2.83105 13.8184 -5.66113 25.7871l-8.84473 37.8643c-3.06641 13.2744 -6.25098 25.7871 -9.55273 37.5381l-7.0752 24.8066
c-1.41504 3.48145 -3.53809 8.05176 -6.36816 13.71c-2.83105 5.6582 -6.25098 11.0986 -10.2598 16.3213c-4.00977 5.22266 -8.49121 9.68359 -13.4443 13.3828s-9.78809 5.54883 -14.5059 5.54883h-217.227zM677.984 439.478
c-15.0947 -9.5752 -30.7803 -21.9766 -47.0547 -37.209c-16.2744 -15.2334 -31.3691 -31.7715 -45.2842 -49.6152c-13.916 -17.8447 -25.3555 -36.2334 -34.3174 -55.166c-8.96289 -18.9316 -13.4443 -36.8848 -13.4443 -53.8584h155.668
c0 13.4922 -0.708008 30.1396 -2.12305 49.9414c-1.41504 19.8027 -2.94824 39.3877 -4.59961 58.7549c-1.65137 19.3682 -3.53809 37.1035 -5.66016 53.2061c-2.12305 16.1025 -3.18457 27.418 -3.18457 33.9463z" />
    <glyph glyph-name="questiondown" unicode="&#xbf;" horiz-adv-x="447" 
d="M195.742 764.255c0 -7.7666 -3.70605 -16.5039 -11.1133 -26.2119s-16.2549 -18.7686 -26.543 -27.1816c-10.2881 -8.41406 -21.3984 -15.5332 -33.3311 -21.3584c-11.9336 -5.8252 -23.25 -8.7373 -33.9492 -8.7373c-1.64551 0 -5.96582 2.75098 -12.9609 8.25195
s-12.1387 9.87012 -15.4307 13.1064c-1.64551 1.94141 -3.9082 5.01562 -6.78809 9.22266l-8.6416 13.1064c-2.88086 4.53027 -5.14453 8.5752 -6.79004 12.1348s-2.46875 5.66309 -2.46875 6.31055c0 12.2969 2.05762 21.5195 6.17188 27.668
c4.11523 6.14941 9.46484 10.3564 16.0488 12.6211c6.58398 2.26562 14.1963 3.39844 22.8379 3.39844h27.7764c3.29199 0 9.46484 0.162109 18.5176 0.485352s18.7227 -0.000976562 29.0107 -0.972656c10.2881 -0.970703 19.1357 -2.91211 26.543 -5.82422
c7.40723 -2.91309 11.1104 -8.25293 11.1104 -16.0195zM278.45 388.545c0 -23.2998 -5.96973 -45.1387 -17.9033 -65.5264c-11.9326 -20.3877 -24.6885 -40.29 -38.2676 -59.707c-13.5801 -19.417 -26.3369 -39.3193 -38.2695 -59.707
c-11.9336 -20.3877 -17.9004 -42.2314 -17.9004 -65.5312c0 -8.41406 3.08594 -16.3428 9.25879 -23.7852s13.7852 -13.915 22.8379 -19.417c9.05371 -5.50098 19.3408 -9.86914 30.8623 -13.1045c11.5225 -3.23633 22.6328 -4.85449 33.332 -4.85449
c15.6367 0 30.2451 3.23633 43.8242 9.70801c13.5791 6.47266 26.1299 14.0771 37.6523 22.8145s22.4268 17.96 32.7139 27.668c10.2881 9.70801 20.3701 17.7979 30.2461 24.2695c1.64648 1.29395 7.20215 2.58887 16.666 3.88379
c9.46387 1.29395 15.4307 1.94141 17.9004 1.94141c0 -25.2412 -4.32129 -48.541 -12.9629 -69.8994s-21.6035 -39.8037 -38.8857 -55.3369c-17.2832 -15.5332 -38.8867 -27.6689 -64.8115 -36.4062s-55.3467 -13.1064 -88.2666 -13.1064
c-23.0439 0 -46.7051 4.20703 -70.9834 12.6211c-24.2783 8.41309 -45.8818 19.5771 -64.8105 33.4922s-34.5654 29.6104 -46.9102 47.085c-12.3447 17.4756 -18.5176 35.5977 -18.5176 54.3662c0 23.2998 3.90918 44.4961 11.7275 63.5889s17.0771 36.8916 27.7764 53.3955
c10.6982 16.5039 21.8086 32.5225 33.3311 48.0566c11.5225 15.5322 21.3984 31.7129 29.6279 48.541c8.22949 16.8271 13.168 34.7871 14.8145 53.8799c1.64551 19.0928 -1.64648 40.9365 -9.87695 65.5312c1.64648 1.94238 4.93848 4.0459 9.87695 6.31055
c4.9375 2.26465 10.0811 4.36816 15.4307 6.31055l16.0488 5.8252c5.34961 1.94141 9.25879 2.91211 11.7275 2.91211c18.1064 0 32.5088 -3.72168 43.207 -11.165c10.6992 -7.44238 19.1348 -16.5029 25.3076 -27.1816s10.082 -22.167 11.7275 -34.4648
c1.64551 -12.2969 2.46875 -23.2998 2.46875 -33.0078z" />
    <glyph glyph-name="Agrave" unicode="&#xc0;" horiz-adv-x="686" 
d="M236 878c4 12 9.83203 19.0049 17.499 21.0049s16.5 3 26.5 3c15.333 0 32.5 -10.167 51.5 -30.5s38.5 -47.5 58.5 -81.5s40.167 -73 60.5 -117s40 -89.5 59 -136.5s36.833 -93.833 53.5 -140.5s31.167 -89.5 43.5 -128.5s21.833 -72.833 28.5 -101.5
s10 -48.334 10 -59.001s-2.5 -20.834 -7.5 -30.501s-13.833 -14.5 -26.5 -14.5c-8 0 -14.833 2.5 -20.5 7.5s-10.5 11.167 -14.5 18.5s-7.66699 14.666 -11 21.999s-6.33301 13.666 -9 18.999c-2.66699 7.33301 -8.16699 21.333 -16.5 42l-26 65l-25.5 64l-17 43
c-46.667 8 -93.5 15.5 -140.5 22.5s-96.5 13.833 -148.5 20.5h-11c-24 -103.333 -45.167 -185 -63.5 -245s-33.666 -102.667 -45.999 -128s-22 -35.833 -29 -31.5s-11.667 19.666 -14 45.999s-2 61.5 1 105.5s8.66699 92.5 17 145.5s18.5 108.5 30.5 166.5
s26.5 114 43.5 168s36 104.167 57 150.5s43.833 84.5 68.5 114.5zM211.999 526.005c0 -24.667 7.99805 -42.835 23.998 -54.502s35.333 -19.167 58 -22.5s46.5 -4.66602 71.5 -3.99902s46.5 1 64.5 1c0 26.667 -4.33301 55.5 -13 86.5s-19.667 61.833 -33 92.5
s-27.5 60.5 -42.5 89.5l-41.5 78.5c-7.33301 -7.33301 -15.166 -20.833 -23.499 -40.5s-16.666 -41.667 -24.999 -66s-15.833 -48.166 -22.5 -71.499s-11.667 -42.333 -15 -57c0 -2 -0.333008 -7.16699 -1 -15.5s-1 -13.833 -1 -16.5zM220.997 1082
c2.66699 13.333 6.99609 21.833 12.9961 25.5s12.833 4.16699 20.5 1.5s16 -8.16699 25 -16.5s18.167 -17.833 27.5 -28.5s18.333 -22 27 -34s16.334 -23.333 23.001 -34c0.666992 -0.666992 2.16699 -2.66699 4.5 -6s4.5 -6 6.5 -8
c7.33301 -8.66699 10.833 -17.5 10.5 -26.5s-2.66602 -16.5 -6.99902 -22.5s-10.666 -9.33301 -18.999 -10s-16.166 3 -23.499 11z" />
    <glyph glyph-name="Aacute" unicode="&#xc1;" horiz-adv-x="686" 
d="M236 878c4 12 9.83203 19.0049 17.499 21.0049s16.5 3 26.5 3c15.333 0 32.5 -10.167 51.5 -30.5s38.5 -47.5 58.5 -81.5s40.167 -73 60.5 -117s40 -89.5 59 -136.5s36.833 -93.833 53.5 -140.5s31.167 -89.5 43.5 -128.5s21.833 -72.833 28.5 -101.5
s10 -48.334 10 -59.001s-2.5 -20.834 -7.5 -30.501s-13.833 -14.5 -26.5 -14.5c-8 0 -14.833 2.5 -20.5 7.5s-10.5 11.167 -14.5 18.5s-7.66699 14.666 -11 21.999s-6.33301 13.666 -9 18.999c-2.66699 7.33301 -8.16699 21.333 -16.5 42l-26 65l-25.5 64l-17 43
c-46.667 8 -93.5 15.5 -140.5 22.5s-96.5 13.833 -148.5 20.5h-11c-24 -103.333 -45.167 -185 -63.5 -245s-33.666 -102.667 -45.999 -128s-22 -35.833 -29 -31.5s-11.667 19.666 -14 45.999s-2 61.5 1 105.5s8.66699 92.5 17 145.5s18.5 108.5 30.5 166.5
s26.5 114 43.5 168s36 104.167 57 150.5s43.833 84.5 68.5 114.5zM211.999 526.005c0 -24.667 7.99805 -42.835 23.998 -54.502s35.333 -19.167 58 -22.5s46.5 -4.66602 71.5 -3.99902s46.5 1 64.5 1c0 26.667 -4.33301 55.5 -13 86.5s-19.667 61.833 -33 92.5
s-27.5 60.5 -42.5 89.5l-41.5 78.5c-7.33301 -7.33301 -15.166 -20.833 -23.499 -40.5s-16.666 -41.667 -24.999 -66s-15.833 -48.166 -22.5 -71.499s-11.667 -42.333 -15 -57c0 -2 -0.333008 -7.16699 -1 -15.5s-1 -13.833 -1 -16.5zM340.997 1117l-108.002 -159.999
c-8 -9.33301 -16 -13.333 -24 -12s-14.167 5.16602 -18.5 11.499s-6.66602 14.333 -6.99902 24s3.16699 19.167 10.5 28.5c2 2 4.16699 4.83301 6.5 8.5s3.83301 6.16699 4.5 7.5l23 36c8.66699 13.333 17.667 25.833 27 37.5s18.5 22 27.5 31s17.5 15 25.5 18
s14.833 2.33301 20.5 -2s9.83398 -13.833 12.501 -28.5z" />
    <glyph glyph-name="Acircumflex" unicode="&#xc2;" horiz-adv-x="686" 
d="M236 878c4 12 9.83203 19.0049 17.499 21.0049s16.5 3 26.5 3c15.333 0 32.5 -10.167 51.5 -30.5s38.5 -47.5 58.5 -81.5s40.167 -73 60.5 -117s40 -89.5 59 -136.5s36.833 -93.833 53.5 -140.5s31.167 -89.5 43.5 -128.5s21.833 -72.833 28.5 -101.5
s10 -48.334 10 -59.001s-2.5 -20.834 -7.5 -30.501s-13.833 -14.5 -26.5 -14.5c-8 0 -14.833 2.5 -20.5 7.5s-10.5 11.167 -14.5 18.5s-7.66699 14.666 -11 21.999s-6.33301 13.666 -9 18.999c-2.66699 7.33301 -8.16699 21.333 -16.5 42l-26 65l-25.5 64l-17 43
c-46.667 8 -93.5 15.5 -140.5 22.5s-96.5 13.833 -148.5 20.5h-11c-24 -103.333 -45.167 -185 -63.5 -245s-33.666 -102.667 -45.999 -128s-22 -35.833 -29 -31.5s-11.667 19.666 -14 45.999s-2 61.5 1 105.5s8.66699 92.5 17 145.5s18.5 108.5 30.5 166.5
s26.5 114 43.5 168s36 104.167 57 150.5s43.833 84.5 68.5 114.5zM211.999 526.005c0 -24.667 7.99805 -42.835 23.998 -54.502s35.333 -19.167 58 -22.5s46.5 -4.66602 71.5 -3.99902s46.5 1 64.5 1c0 26.667 -4.33301 55.5 -13 86.5s-19.667 61.833 -33 92.5
s-27.5 60.5 -42.5 89.5l-41.5 78.5c-7.33301 -7.33301 -15.166 -20.833 -23.499 -40.5s-16.666 -41.667 -24.999 -66s-15.833 -48.166 -22.5 -71.499s-11.667 -42.333 -15 -57c0 -2 -0.333008 -7.16699 -1 -15.5s-1 -13.833 -1 -16.5zM257.997 1274
c13.333 -7.33301 27.002 -17.9961 41.002 -31.9961s28.167 -29.833 42.5 -47.5s28.333 -36.334 42 -56.001l39.5 -56.5l35.5 -50c11 -15.333 20.167 -27 27.5 -35c-0.666992 -1.33301 -2.66699 -4 -6 -8s-7.33301 -8.16699 -12 -12.5l-14 -13.5
c-4.66699 -4.66699 -8.33398 -8 -11.001 -10h-4c-2 -0.666992 -4 -1 -6 -1c-2.66699 0 -5 0.333008 -7 1h-4c-20 13.333 -35.333 29.166 -46 47.499l-30 52c-9.33301 16.333 -20 30.166 -32 41.499s-29 17 -51 17c-14 -34 -25 -61.667 -33 -83s-14.667 -38 -20 -50
s-10.333 -20.5 -15 -25.5s-10.834 -7.83301 -18.501 -8.5s-18 -0.333984 -31 0.999023s-30.167 2 -51.5 2c0 12.667 2.16699 28.667 6.5 48s10.333 40 18 62s16.667 44.667 27 68s21.5 45 33.5 65s24.833 37.5 38.5 52.5s27.167 25.5 40.5 31.5z" />
    <glyph glyph-name="Atilde" unicode="&#xc3;" horiz-adv-x="686" 
d="M236 878c4 12 9.83203 19.0049 17.499 21.0049s16.5 3 26.5 3c15.333 0 32.5 -10.167 51.5 -30.5s38.5 -47.5 58.5 -81.5s40.167 -73 60.5 -117s40 -89.5 59 -136.5s36.833 -93.833 53.5 -140.5s31.167 -89.5 43.5 -128.5s21.833 -72.833 28.5 -101.5
s10 -48.334 10 -59.001s-2.5 -20.834 -7.5 -30.501s-13.833 -14.5 -26.5 -14.5c-8 0 -14.833 2.5 -20.5 7.5s-10.5 11.167 -14.5 18.5s-7.66699 14.666 -11 21.999s-6.33301 13.666 -9 18.999c-2.66699 7.33301 -8.16699 21.333 -16.5 42l-26 65l-25.5 64l-17 43
c-46.667 8 -93.5 15.5 -140.5 22.5s-96.5 13.833 -148.5 20.5h-11c-24 -103.333 -45.167 -185 -63.5 -245s-33.666 -102.667 -45.999 -128s-22 -35.833 -29 -31.5s-11.667 19.666 -14 45.999s-2 61.5 1 105.5s8.66699 92.5 17 145.5s18.5 108.5 30.5 166.5
s26.5 114 43.5 168s36 104.167 57 150.5s43.833 84.5 68.5 114.5zM211.999 526.005c0 -24.667 7.99805 -42.835 23.998 -54.502s35.333 -19.167 58 -22.5s46.5 -4.66602 71.5 -3.99902s46.5 1 64.5 1c0 26.667 -4.33301 55.5 -13 86.5s-19.667 61.833 -33 92.5
s-27.5 60.5 -42.5 89.5l-41.5 78.5c-7.33301 -7.33301 -15.166 -20.833 -23.499 -40.5s-16.666 -41.667 -24.999 -66s-15.833 -48.166 -22.5 -71.499s-11.667 -42.333 -15 -57c0 -2 -0.333008 -7.16699 -1 -15.5s-1 -13.833 -1 -16.5zM59.9971 985.004
c0 22 2.00391 45.1699 6.00391 69.5029s11.333 46.666 22 66.999s25.5 37.166 44.5 50.499s43.5 20 73.5 20c21.333 0 39.833 -4.83301 55.5 -14.5s29.667 -21.667 42 -36s23.833 -30 34.5 -47s22 -32.833 34 -47.5s25.167 -26.667 39.5 -36s31.166 -14 50.499 -14
c22.667 0 39.167 3.33301 49.5 10s17.166 15.5 20.499 26.5s4.5 23.167 3.5 36.5s-1.5 26.5 -1.5 39.5s1.5 24.667 4.5 35s10.167 18.5 21.5 24.5h20c2 -0.666992 5.16699 -1.83398 9.5 -3.50098s8.66602 -3.5 12.999 -5.5s8.66602 -4.16699 12.999 -6.5
s7.16602 -3.83301 8.49902 -4.5c0 -2.66699 0.166992 -6.5 0.5 -11.5s0.5 -10.333 0.5 -16s0.166992 -11.167 0.5 -16.5s0.5 -8.66602 0.5 -9.99902c0 -58.667 -15.333 -104.5 -46 -137.5s-74.667 -49.5 -132 -49.5c-22 0 -41 4.33301 -57 13s-30.167 19.667 -42.5 33
s-23.5 27.833 -33.5 43.5s-20.333 30 -31 43s-22.167 24 -34.5 33s-26.833 13.5 -43.5 13.5c-21.333 0 -36.5 -4.16699 -45.5 -12.5s-15.167 -18.833 -18.5 -31.5s-5 -26.667 -5 -42s-1 -30.333 -3 -45s-6.16699 -27.834 -12.5 -39.501s-17.166 -20.167 -32.499 -25.5
l-23 21c0 2 -0.333008 6.16699 -1 12.5l-2 19.5l-2 23c-0.666992 8 -1 14 -1 18z" />
    <glyph glyph-name="Adieresis" unicode="&#xc4;" horiz-adv-x="686" 
d="M236 878c4 12 9.83203 19.0049 17.499 21.0049s16.5 3 26.5 3c15.333 0 32.5 -10.167 51.5 -30.5s38.5 -47.5 58.5 -81.5s40.167 -73 60.5 -117s40 -89.5 59 -136.5s36.833 -93.833 53.5 -140.5s31.167 -89.5 43.5 -128.5s21.833 -72.833 28.5 -101.5
s10 -48.334 10 -59.001s-2.5 -20.834 -7.5 -30.501s-13.833 -14.5 -26.5 -14.5c-8 0 -14.833 2.5 -20.5 7.5s-10.5 11.167 -14.5 18.5s-7.66699 14.666 -11 21.999s-6.33301 13.666 -9 18.999c-2.66699 7.33301 -8.16699 21.333 -16.5 42l-26 65l-25.5 64l-17 43
c-46.667 8 -93.5 15.5 -140.5 22.5s-96.5 13.833 -148.5 20.5h-11c-24 -103.333 -45.167 -185 -63.5 -245s-33.666 -102.667 -45.999 -128s-22 -35.833 -29 -31.5s-11.667 19.666 -14 45.999s-2 61.5 1 105.5s8.66699 92.5 17 145.5s18.5 108.5 30.5 166.5
s26.5 114 43.5 168s36 104.167 57 150.5s43.833 84.5 68.5 114.5zM211.999 526.005c0 -24.667 7.99805 -42.835 23.998 -54.502s35.333 -19.167 58 -22.5s46.5 -4.66602 71.5 -3.99902s46.5 1 64.5 1c0 26.667 -4.33301 55.5 -13 86.5s-19.667 61.833 -33 92.5
s-27.5 60.5 -42.5 89.5l-41.5 78.5c-7.33301 -7.33301 -15.166 -20.833 -23.499 -40.5s-16.666 -41.667 -24.999 -66s-15.833 -48.166 -22.5 -71.499s-11.667 -42.333 -15 -57c0 -2 -0.333008 -7.16699 -1 -15.5s-1 -13.833 -1 -16.5zM170.997 1077
c30 0 45.001 -15.668 45.001 -47.001c-7.33301 -19.333 -16.5 -32.333 -27.5 -39s-21.5 -9 -31.5 -7s-18.833 7 -26.5 15s-11.834 17 -12.501 27s3 19.833 11 29.5s22 16.834 42 21.501zM397.998 1077c30 0 44.998 -15.668 44.998 -47.001
c-8 -19.333 -17.333 -32.333 -28 -39s-21.167 -9 -31.5 -7s-19.166 7 -26.499 15s-11.333 17 -12 27s2.83301 19.833 10.5 29.5s21.834 16.834 42.501 21.501z" />
    <glyph glyph-name="Aring" unicode="&#xc5;" horiz-adv-x="686" 
d="M148 985c0 23.333 5.83105 44.8398 17.498 64.5068s26.834 36.667 45.501 51s40.167 25.666 64.5 33.999s48.833 12.5 73.5 12.5c13.333 0 25.333 -4.16699 36 -12.5s19.667 -18.333 27 -30s13 -24 17 -37s6 -24.833 6 -35.5c0 -20.667 -5.5 -40.834 -16.5 -60.501
s-25.167 -37.167 -42.5 -52.5c-16.667 -15.333 -35.667 -27.333 -57 -36l12 -12c19.333 -20 39 -47 59 -81s40.167 -73 60.5 -117s40 -89.5 59 -136.5s36.833 -93.833 53.5 -140.5s31.167 -89.5 43.5 -128.5s21.833 -72.833 28.5 -101.5s10 -48.334 10 -59.001
s-2.5 -20.834 -7.5 -30.501s-13.833 -14.5 -26.5 -14.5c-8 0 -14.833 2.5 -20.5 7.5s-10.5 11.167 -14.5 18.5s-7.66699 14.666 -11 21.999s-6.33301 13.666 -9 18.999c-2.66699 7.33301 -8.16699 21.333 -16.5 42l-26 65l-25.5 64l-17 43c-46.667 8 -93.5 15.5 -140.5 22.5
s-96.5 13.833 -148.5 20.5h-11c-24 -103.333 -45.167 -185 -63.5 -245s-33.666 -102.667 -45.999 -128s-22 -35.833 -29 -31.5s-11.667 19.666 -14 45.999s-2 61.5 1 105.5s8.66699 92.5 17 145.5s18.5 108.5 30.5 166.5s26.5 114 43.5 168s35.833 104 56.5 150
c18.667 42.667 39.334 78 62.001 106c-10 2 -18.667 4.66699 -26 8c-12.667 6 -23.334 14.333 -32.001 25s-14.667 23 -18 37s-5 29.333 -5 46zM211.998 526.007c0 -24.667 7.99805 -42.835 23.998 -54.502s35.333 -19.167 58 -22.5s46.5 -4.66602 71.5 -3.99902
s46.5 1 64.5 1c0 26.667 -4.33301 55.5 -13 86.5s-19.667 61.833 -33 92.5s-27.5 60.5 -42.5 89.5l-41.5 78.5c-7.33301 -7.33301 -15.166 -20.833 -23.499 -40.5s-16.666 -41.667 -24.999 -66s-15.833 -48.166 -22.5 -71.499s-11.667 -42.333 -15 -57
c0 -2 -0.333008 -7.16699 -1 -15.5s-1 -13.833 -1 -16.5zM221.996 983.006c0 -10 0.332031 -18.332 0.999023 -24.999s2.33398 -12.334 5.00098 -17.001s7.16699 -8.16699 13.5 -10.5s15.5 -3.5 27.5 -3.5c29.333 0 53 8.16699 71 24.5s27 37.833 27 64.5
c0 6 -0.666992 13 -2 21s-3.5 15.833 -6.5 23.5s-7.33301 14 -13 19s-12.5 7.5 -20.5 7.5c-10.667 0 -22 -3.83301 -34 -11.5s-23.167 -17.167 -33.5 -28.5s-18.833 -23 -25.5 -35s-10 -21.667 -10 -29z" />
    <glyph glyph-name="AE" unicode="&#xc6;" horiz-adv-x="935" 
d="M250 883c20.667 14.667 39.6699 17.998 57.0029 9.99805s33.666 -24.667 48.999 -50c10.667 4.66699 21.334 8.33398 32.001 11.001s19.334 4.33398 26.001 5.00098h21c16 -1.33301 35.167 -3.33301 57.5 -6s45.5 -5.83398 69.5 -9.50098l71 -10.5l64 -9.5l48.5 -7.5
c13 -2 20.833 -3 23.5 -3c6 -0.666992 13.167 -2 21.5 -4s16.666 -4.66699 24.999 -8s16.166 -7.66602 23.499 -12.999s12.666 -11.666 15.999 -18.999c-5.33301 -10.667 -10 -18.834 -14 -24.501s-8.16699 -9.83398 -12.5 -12.501s-9.16602 -4.16699 -14.499 -4.5
s-11.333 -0.5 -18 -0.5c-28.667 0 -57 1 -85 3l-169 12c-28.667 2.66699 -57.334 4 -86.001 4c0 -12.667 -1.5 -30.834 -4.5 -54.501s-5.16699 -48.834 -6.5 -75.501s-0.666016 -53.167 2.00098 -79.5s10 -48.5 22 -66.5c23.333 13.333 47.666 20.5 72.999 21.5
s51 1.5 77 1.5h43c17.333 0 34.166 -2 50.499 -6s30.166 -10.667 41.499 -20s17 -23.333 17 -42c0 -13.333 -2.66699 -23.5 -8 -30.5s-17.666 -10.5 -36.999 -10.5c-1.33301 0 -5.16602 1.16699 -11.499 3.5l-20.5 7.5l-20 7.5c-6 2.33301 -10 3.5 -12 3.5
c-0.666992 0 -3.16699 0.166992 -7.5 0.5s-9.5 0.5 -15.5 0.5s-11.833 0.166992 -17.5 0.5s-10.167 0.5 -13.5 0.5c-15.333 0 -30 -1.16699 -44 -3.5s-26.5 -6.66602 -37.5 -12.999s-19.667 -15.166 -26 -26.499s-9.5 -26 -9.5 -44c0 -6.66699 0.666992 -17 2 -31
s3.16602 -29.833 5.49902 -47.5s5.66602 -36 9.99902 -55s9.83301 -36.333 16.5 -52s14.167 -28.5 22.5 -38.5s18.166 -15 29.499 -15c2 0 5.83301 0.333008 11.5 1s8.83398 1 9.50098 1c22 14.667 44.5 31.167 67.5 49.5s47 35.333 72 51s50.667 28.834 77 39.501
s53.833 16 82.5 16v-48c0 -3.33301 -6.33301 -10.833 -19 -22.5s-29.5 -25.667 -50.5 -42s-44.5 -33.5 -70.5 -51.5s-52 -34.5 -78 -49.5s-50.833 -27.333 -74.5 -37s-43.834 -14.5 -60.501 -14.5c-24 0 -45.333 11.5 -64 34.5s-35 53.5 -49 91.5
c0 -16.667 -0.333008 -32.5 -1 -47.5s-1.66699 -28.5 -3 -40.5c-15.333 0 -28 1.5 -38 4.5s-17.333 9.83301 -22 20.5c-2 5.33301 -3 15.833 -3 31.5s0.833008 33.834 2.5 54.501l5.5 66l5.5 66.5c1.66699 21 2.5 39.333 2.5 55s-1 26.167 -3 31.5
c-23.333 3.33301 -41 7.16602 -53 11.499l-33.5 12.5c-10.333 4 -22.333 8 -36 12s-33.5 8 -59.5 12h-10c-24 -103.333 -45.167 -185 -63.5 -245s-33.666 -102.833 -45.999 -128.5s-22 -36.167 -29 -31.5s-11.5 20.167 -13.5 46.5s-1.5 61.333 1.5 105
s8.33301 92.167 16 145.5s17.834 108.833 30.501 166.5s27.167 113.5 43.5 167.5s35 104.333 56 151s44.167 85 69.5 115zM228.003 561.998c-14.667 -19.333 -21.668 -36.333 -21.001 -51s6.66699 -26.667 18 -36s26.833 -16.5 46.5 -21.5s41.5 -7.5 65.5 -7.5
c0 26.667 0.666992 55.667 2 87s1.66602 62.833 0.999023 94.5s-3.5 62.334 -8.5 92.001s-13.833 56.167 -26.5 79.5c-7.33301 -7.33301 -14.666 -21 -21.999 -41s-14.666 -42.167 -21.999 -66.5s-14 -48.333 -20 -72s-10.333 -42.834 -13 -57.501z" />
    <glyph glyph-name="Ccedilla" unicode="&#xc7;" horiz-adv-x="643" 
d="M287 -344c10 7.33301 22.6689 15.8301 38.002 25.4971l47 29.5c16 10 31.167 20.667 45.5 32s25.5 22 33.5 32s12.167 20 12.5 30s-5.83398 19 -18.501 27c-31.333 0 -61.333 -0.833008 -90 -2.5s-53.834 1.33301 -75.501 9s-38.834 22.5 -51.501 44.5
s-19 56.333 -19 103c-2 20 -1.33301 36 2 48c-32 15.333 -60.667 34.666 -86 57.999c-32.667 30 -58.334 66.167 -77.001 108.5s-28 89.833 -28 142.5c0 22.667 3.16699 47.334 9.5 74.001s15.166 53.5 26.499 80.5s25 53.333 41 79s34 48.334 54 68.001
s41.667 35.334 65 47.001s48 17.5 74 17.5c21.333 0 41.333 -2.83301 60 -8.5s34.667 -14.167 48 -25.5s23.833 -25.5 31.5 -42.5s11.5 -37.167 11.5 -60.5c-14.667 0 -26.5 3.83301 -35.5 11.5s-17.333 16.167 -25 25.5s-16 17.666 -25 24.999s-20.5 11 -34.5 11
c-20.667 0 -40.5 -5.33301 -59.5 -16s-36.667 -25 -53 -43s-30.666 -38.333 -42.999 -61s-23 -45.5 -32 -68.5s-16 -45.5 -21 -67.5s-7.5 -41 -7.5 -57c0 -34.667 5.16699 -67.167 15.5 -97.5s25.166 -56.666 44.499 -78.999s43.333 -39.833 72 -52.5s61.334 -19 98.001 -19
c23.333 0 45.5 3.5 66.5 10.5s41.333 14.667 61 23s39.167 16.166 58.5 23.499s38.666 11 57.999 11c2.66699 0 6.5 -0.166992 11.5 -0.5s9.66699 -1.16602 14 -2.49902s8.16602 -3.5 11.499 -6.5s5 -7.5 5 -13.5c0 -24 -9.16699 -44.333 -27.5 -61
s-40.166 -30.167 -65.499 -40.5s-51.666 -17.833 -78.999 -22.5s-49.666 -7 -66.999 -7c-28.667 0 -55.667 2.33301 -81 7c0.666992 -7.33301 -1.33301 -14 -6 -20c0 -21.333 3.83301 -37.166 11.5 -47.499s17.5 -17.5 29.5 -21.5s25.667 -5.66699 41 -5s31.333 1.5 48 2.5
s32.834 1.33301 48.501 1s29.5 -3.33301 41.5 -9s21.667 -15 29 -28s11 -31.833 11 -56.5c0 -16 -7.83301 -36 -23.5 -60s-35.5 -47.167 -59.5 -69.5s-49.5 -41.5 -76.5 -57.5s-51.833 -24 -74.5 -24c-13.333 0 -22.333 5 -27 15s-7 20.333 -7 31z" />
    <glyph glyph-name="Egrave" unicode="&#xc8;" horiz-adv-x="664" 
d="M65 793c-3.33301 0 -8.16211 0.84375 -14.4951 2.51074s-12.833 3.66699 -19.5 6s-13 4.66602 -19 6.99902s-10 4.16602 -12 5.49902c-0.666992 1.33301 -1 2.66602 -1 3.99902c-0.666992 1.33301 -1 3 -1 5c0 9.33301 3.66699 17.333 11 24s15.833 12.167 25.5 16.5
s19.167 7.66602 28.5 9.99902s16.666 3.83301 21.999 4.5h12h10c16 -1.33301 36.333 -3.33301 61 -6l78.5 -8.5l84 -9c28.333 -3 54 -6 77 -9s42.333 -5.33301 58 -7s24.834 -2.5 27.501 -2.5c5.33301 -0.666992 12.166 -1.83398 20.499 -3.50098
s16.833 -4.33398 25.5 -8.00098s16.667 -8 24 -13s12.666 -11.167 15.999 -18.5c-5.33301 -10.667 -10 -18.834 -14 -24.501s-8.33301 -10 -13 -13s-9.5 -4.5 -14.5 -4.5h-18.5c-28 0 -56.167 1 -84.5 3l-84.5 6l-84.5 6c-28.333 2 -56.833 3 -85.5 3
c0 -12 -1.5 -30 -4.5 -54s-5.33301 -49.333 -7 -76s-1 -53.167 2 -79.5s10.5 -48.5 22.5 -66.5c23.333 14 47.666 21.333 72.999 22s51 1 77 1h43c17.333 0 34.166 -2 50.499 -6s30.166 -10.667 41.499 -20s17 -23.333 17 -42c0 -13.333 -2.66699 -23.333 -8 -30
s-17.666 -10 -36.999 -10c-2 0 -6.16699 1 -12.5 3s-13 4.33301 -20 7s-13.5 5 -19.5 7s-10 3 -12 3c-0.666992 0 -3.16699 0.166992 -7.5 0.5s-9.5 0.5 -15.5 0.5s-11.833 0.166992 -17.5 0.5s-10.167 0.5 -13.5 0.5c-15.333 0 -30.166 -1 -44.499 -3s-26.833 -6 -37.5 -12
s-19.167 -14.667 -25.5 -26s-9.5 -26 -9.5 -44c0 -6 0.666992 -16.333 2 -31s3.16602 -30.834 5.49902 -48.501s5.5 -35.834 9.5 -54.501s9.33301 -35.834 16 -51.501s14.167 -28.667 22.5 -39s18.5 -15.5 30.5 -15.5c1.33301 0 4.66602 0.333008 9.99902 1
s8.66602 1 9.99902 1c22.667 15.333 45.5 32 68.5 50s46.833 34.833 71.5 50.5s50.334 29 77.001 40s54.334 16.5 83.001 16.5v-49c0 -2.66699 -6.5 -10 -19.5 -22s-30 -26 -51 -42s-44.5 -33 -70.5 -51s-52 -34.5 -78 -49.5s-50.833 -27.5 -74.5 -37.5s-43.5 -15 -59.5 -15
c-22.667 0 -42.834 10.167 -60.501 30.5s-33.5 47.333 -47.5 81s-25.667 72.5 -35 116.5s-17.5 89.333 -24.5 136s-12.667 93.167 -17 139.5s-7.83301 89.166 -10.5 128.499s-4.5 73.5 -5.5 102.5s-1.83301 49.167 -2.5 60.5zM202.004 1072.01
c2.66699 13.333 6.99609 21.833 12.9961 25.5s12.833 4.16699 20.5 1.5s16 -8.16699 25 -16.5s18.167 -17.833 27.5 -28.5s18.333 -22 27 -34s16.334 -23.333 23.001 -34c0.666992 -0.666992 2.16699 -2.66699 4.5 -6s4.5 -6 6.5 -8
c7.33301 -8.66699 10.833 -17.5 10.5 -26.5s-2.66602 -16.5 -6.99902 -22.5s-10.666 -9.33301 -18.999 -10s-16.166 3 -23.499 11z" />
    <glyph glyph-name="Eacute" unicode="&#xc9;" horiz-adv-x="664" 
d="M65 793c-3.33301 0 -8.16211 0.84375 -14.4951 2.51074s-12.833 3.66699 -19.5 6s-13 4.66602 -19 6.99902s-10 4.16602 -12 5.49902c-0.666992 1.33301 -1 2.66602 -1 3.99902c-0.666992 1.33301 -1 3 -1 5c0 9.33301 3.66699 17.333 11 24s15.833 12.167 25.5 16.5
s19.167 7.66602 28.5 9.99902s16.666 3.83301 21.999 4.5h12h10c16 -1.33301 36.333 -3.33301 61 -6l78.5 -8.5l84 -9c28.333 -3 54 -6 77 -9s42.333 -5.33301 58 -7s24.834 -2.5 27.501 -2.5c5.33301 -0.666992 12.166 -1.83398 20.499 -3.50098
s16.833 -4.33398 25.5 -8.00098s16.667 -8 24 -13s12.666 -11.167 15.999 -18.5c-5.33301 -10.667 -10 -18.834 -14 -24.501s-8.33301 -10 -13 -13s-9.5 -4.5 -14.5 -4.5h-18.5c-28 0 -56.167 1 -84.5 3l-84.5 6l-84.5 6c-28.333 2 -56.833 3 -85.5 3
c0 -12 -1.5 -30 -4.5 -54s-5.33301 -49.333 -7 -76s-1 -53.167 2 -79.5s10.5 -48.5 22.5 -66.5c23.333 14 47.666 21.333 72.999 22s51 1 77 1h43c17.333 0 34.166 -2 50.499 -6s30.166 -10.667 41.499 -20s17 -23.333 17 -42c0 -13.333 -2.66699 -23.333 -8 -30
s-17.666 -10 -36.999 -10c-2 0 -6.16699 1 -12.5 3s-13 4.33301 -20 7s-13.5 5 -19.5 7s-10 3 -12 3c-0.666992 0 -3.16699 0.166992 -7.5 0.5s-9.5 0.5 -15.5 0.5s-11.833 0.166992 -17.5 0.5s-10.167 0.5 -13.5 0.5c-15.333 0 -30.166 -1 -44.499 -3s-26.833 -6 -37.5 -12
s-19.167 -14.667 -25.5 -26s-9.5 -26 -9.5 -44c0 -6 0.666992 -16.333 2 -31s3.16602 -30.834 5.49902 -48.501s5.5 -35.834 9.5 -54.501s9.33301 -35.834 16 -51.501s14.167 -28.667 22.5 -39s18.5 -15.5 30.5 -15.5c1.33301 0 4.66602 0.333008 9.99902 1
s8.66602 1 9.99902 1c22.667 15.333 45.5 32 68.5 50s46.833 34.833 71.5 50.5s50.334 29 77.001 40s54.334 16.5 83.001 16.5v-49c0 -2.66699 -6.5 -10 -19.5 -22s-30 -26 -51 -42s-44.5 -33 -70.5 -51s-52 -34.5 -78 -49.5s-50.833 -27.5 -74.5 -37.5s-43.5 -15 -59.5 -15
c-22.667 0 -42.834 10.167 -60.501 30.5s-33.5 47.333 -47.5 81s-25.667 72.5 -35 116.5s-17.5 89.333 -24.5 136s-12.667 93.167 -17 139.5s-7.83301 89.166 -10.5 128.499s-4.5 73.5 -5.5 102.5s-1.83301 49.167 -2.5 60.5zM377.004 1075.01l-108.002 -159.999
c-8 -9.33301 -16 -13.333 -24 -12s-14.167 5.16602 -18.5 11.499s-6.66602 14.333 -6.99902 24s3.16699 19.167 10.5 28.5c2 2 4.16699 4.83301 6.5 8.5s3.83301 6.16699 4.5 7.5l23 36c8.66699 13.333 17.667 25.833 27 37.5s18.5 22 27.5 31s17.5 15 25.5 18
s14.833 2.33301 20.5 -2s9.83398 -13.833 12.501 -28.5z" />
    <glyph glyph-name="Ecircumflex" unicode="&#xca;" horiz-adv-x="664" 
d="M65 793c-3.33301 0 -8.16211 0.84375 -14.4951 2.51074s-12.833 3.66699 -19.5 6s-13 4.66602 -19 6.99902s-10 4.16602 -12 5.49902c-0.666992 1.33301 -1 2.66602 -1 3.99902c-0.666992 1.33301 -1 3 -1 5c0 9.33301 3.66699 17.333 11 24s15.833 12.167 25.5 16.5
s19.167 7.66602 28.5 9.99902s16.666 3.83301 21.999 4.5h12h10c16 -1.33301 36.333 -3.33301 61 -6l78.5 -8.5l84 -9c28.333 -3 54 -6 77 -9s42.333 -5.33301 58 -7s24.834 -2.5 27.501 -2.5c5.33301 -0.666992 12.166 -1.83398 20.499 -3.50098
s16.833 -4.33398 25.5 -8.00098s16.667 -8 24 -13s12.666 -11.167 15.999 -18.5c-5.33301 -10.667 -10 -18.834 -14 -24.501s-8.33301 -10 -13 -13s-9.5 -4.5 -14.5 -4.5h-18.5c-28 0 -56.167 1 -84.5 3l-84.5 6l-84.5 6c-28.333 2 -56.833 3 -85.5 3
c0 -12 -1.5 -30 -4.5 -54s-5.33301 -49.333 -7 -76s-1 -53.167 2 -79.5s10.5 -48.5 22.5 -66.5c23.333 14 47.666 21.333 72.999 22s51 1 77 1h43c17.333 0 34.166 -2 50.499 -6s30.166 -10.667 41.499 -20s17 -23.333 17 -42c0 -13.333 -2.66699 -23.333 -8 -30
s-17.666 -10 -36.999 -10c-2 0 -6.16699 1 -12.5 3s-13 4.33301 -20 7s-13.5 5 -19.5 7s-10 3 -12 3c-0.666992 0 -3.16699 0.166992 -7.5 0.5s-9.5 0.5 -15.5 0.5s-11.833 0.166992 -17.5 0.5s-10.167 0.5 -13.5 0.5c-15.333 0 -30.166 -1 -44.499 -3s-26.833 -6 -37.5 -12
s-19.167 -14.667 -25.5 -26s-9.5 -26 -9.5 -44c0 -6 0.666992 -16.333 2 -31s3.16602 -30.834 5.49902 -48.501s5.5 -35.834 9.5 -54.501s9.33301 -35.834 16 -51.501s14.167 -28.667 22.5 -39s18.5 -15.5 30.5 -15.5c1.33301 0 4.66602 0.333008 9.99902 1
s8.66602 1 9.99902 1c22.667 15.333 45.5 32 68.5 50s46.833 34.833 71.5 50.5s50.334 29 77.001 40s54.334 16.5 83.001 16.5v-49c0 -2.66699 -6.5 -10 -19.5 -22s-30 -26 -51 -42s-44.5 -33 -70.5 -51s-52 -34.5 -78 -49.5s-50.833 -27.5 -74.5 -37.5s-43.5 -15 -59.5 -15
c-22.667 0 -42.834 10.167 -60.501 30.5s-33.5 47.333 -47.5 81s-25.667 72.5 -35 116.5s-17.5 89.333 -24.5 136s-12.667 93.167 -17 139.5s-7.83301 89.166 -10.5 128.499s-4.5 73.5 -5.5 102.5s-1.83301 49.167 -2.5 60.5zM304.004 1260.01
c13.333 -7.33301 27.002 -17.9961 41.002 -31.9961s28.167 -29.833 42.5 -47.5s28.333 -36.334 42 -56.001l39.5 -56.5l35.5 -50c11 -15.333 20.167 -27 27.5 -35c-0.666992 -1.33301 -2.66699 -4 -6 -8s-7.33301 -8.16699 -12 -12.5l-14 -13.5
c-4.66699 -4.66699 -8.33398 -8 -11.001 -10h-4c-2 -0.666992 -4 -1 -6 -1c-2.66699 0 -5 0.333008 -7 1h-4c-20 13.333 -35.333 29.166 -46 47.499l-30 52c-9.33301 16.333 -20 30.166 -32 41.499s-29 17 -51 17c-14 -34 -25 -61.667 -33 -83s-14.667 -38 -20 -50
s-10.333 -20.5 -15 -25.5s-10.834 -7.83301 -18.501 -8.5s-18 -0.333984 -31 0.999023s-30.167 2 -51.5 2c0 12.667 2.16699 28.667 6.5 48s10.333 40 18 62s16.667 44.667 27 68s21.5 45 33.5 65s24.833 37.5 38.5 52.5s27.167 25.5 40.5 31.5z" />
    </font>
</defs>
</svg>
