<?xml version="1.0" standalone="no"?>
<!DOCTYPE svg PUBLIC "-//W3C//DTD SVG 1.1//EN" "http://www.w3.org/Graphics/SVG/1.1/DTD/svg11.dtd" >
<svg>
<metadata>
Created by FontForge 20090914 at Fri Jul 17 14:49:28 2015
 By www-data
Copyright (c) 2010, Kimberly Geswein (kimberlygeswein.com)
</metadata>
<defs>
<font id="IndieFlower" horiz-adv-x="585" >
  <font-face 
    font-family="Indie Flower"
    font-weight="400"
    font-stretch="normal"
    units-per-em="1024"
    panose-1="2 0 0 0 0 0 0 0 0 0"
    ascent="819"
    descent="-205"
    x-height="385.001"
    cap-height="565.998"
    bbox="-135.884 -500 1114 994"
    underline-thickness="51"
    underline-position="-52"
    unicode-range="U+0020-U+FB02"
  />
<missing-glyph horiz-adv-x="384" 
 />
    <glyph glyph-name=".notdef" horiz-adv-x="384" 
 />
    <glyph glyph-name="space" unicode=" " horiz-adv-x="384" 
 />
    <glyph glyph-name="exclam" unicode="!" horiz-adv-x="153" 
d="M16 49c0 20 7.33203 34.333 21.999 43c16 9.33301 34 14 54 14c6.66699 0 12.667 -2 18 -6s10 -8.83301 14 -14.5s6.83301 -11.667 8.5 -18s2.5 -12.5 2.5 -18.5c0 -7.33301 -2.66699 -14 -8 -20s-11.666 -11.333 -18.999 -16s-15.333 -8.16699 -24 -10.5
s-16 -3.5 -22 -3.5c-16.667 0 -28.5 4.5 -35.5 13.5s-10.5 21.167 -10.5 36.5zM46.999 274c-2.66699 17.333 -4.49902 40.8291 -5.49902 70.4961s-1.66699 62.334 -2 98.001s-0.333008 73 0 112s0.5 76.333 0.5 112v97.5c0 30.667 -0.666992 54.667 -2 72l49 8l1 -18
c0 -12 0.166992 -27.667 0.5 -47s0.666016 -41.666 0.999023 -66.999s0.833008 -51.666 1.5 -78.999s1 -54.833 1 -82.5s0.333008 -53.5 1 -77.5s1.16699 -45.167 1.5 -63.5s0.833008 -31.5 1.5 -39.5v-7.5c0 -3.66699 0.166992 -8 0.5 -13s0.5 -9.83301 0.5 -14.5v-11
c0 -5.33301 0.166992 -11.5 0.5 -18.5s0 -13.833 -1 -20.5s-3.16699 -12.167 -6.5 -16.5s-9 -6.5 -17 -6.5c-4.66699 0 -9.66699 0.333008 -15 1s-9 4.33398 -11 11.001z" />
    <glyph glyph-name="quotedbl" unicode="&#x22;" horiz-adv-x="240" 
d="M154 548c-1.33301 22.667 -2.66602 43.334 -3.99902 62.001s-2.33301 36.5 -3 53.5s-1.16699 33.833 -1.5 50.5s-0.5 34.667 -0.5 54v38c0.666992 1.33301 2.33398 3.33301 5.00098 6c1.33301 2 2.66602 3.66699 3.99902 5h3c0.666992 0 1 0.166992 1 0.5
s0.333008 0.5 1 0.5c8.66699 0 16 -6.33301 22 -19s11 -28.334 15 -47.001s7 -39.167 9 -61.5s3.66699 -43.333 5 -63s2 -36.5 2 -50.5v-25v-34c-1.33301 -2 -4.33301 -5.33301 -9 -10c-4.66699 -4 -8 -6.66699 -10 -8l-3 -1h-2c-4.66699 0 -8.83398 2.33301 -12.501 7
s-7.16699 10 -10.5 16s-6 11.5 -8 16.5s-3 8.16699 -3 9.5zM10 778c2 5.33301 4.83301 8.33301 8.5 9s7.5 1 11.5 1c6.66699 0 12.667 -4.83301 18 -14.5s10.333 -22.334 15 -38.001s9.16699 -32.834 13.5 -51.501l13 -56c4.33301 -18.667 8.66602 -36 12.999 -52
s8.83301 -28.667 13.5 -38c-4 -8 -8 -13.333 -12 -16s-9.66699 -4 -17 -4c-9.33301 0 -17.666 5.33301 -24.999 16s-13.833 24.334 -19.5 41.001s-10.5 35.334 -14.5 56.001s-7.33301 40.5 -10 59.5s-4.5 36.5 -5.5 52.5s-1.83301 27.667 -2.5 35z" />
    <glyph glyph-name="numbersign" unicode="#" horiz-adv-x="787" 
d="M394 154l-0.00390625 -86.0098c0 -1.33301 -1.33301 -3.16602 -4 -5.49902s-4.33398 -3.83301 -5.00098 -4.5c-2 -1.33301 -5.5 -3.16602 -10.5 -5.49902s-8.16699 -3.5 -9.5 -3.5c-8 0 -13.667 2.33301 -17 7s-5.83301 10.667 -7.5 18s-2.5 15.166 -2.5 23.499
s-0.5 16 -1.5 23s-2.66699 13 -5 18s-6.83301 7.5 -13.5 7.5c-1.33301 0 -3.16602 -0.166992 -5.49902 -0.5s-3.83301 -0.5 -4.5 -0.5c-2.66699 -0.666992 -9 -1.66699 -19 -3s-21.667 -3 -35 -5l-42 -6.5l-42 -6.5c-13.333 -2 -24.833 -3.83301 -34.5 -5.5
s-16.167 -2.5 -19.5 -2.5h-6c-6.66699 0 -12.334 3 -17.001 9s-7 12.667 -7 20c0 1.33301 0.166992 3 0.5 5s0.5 3.33301 0.5 4l96.5 20.5c31 6.33301 62.833 12.166 95.5 17.499l10.5 2.5l12.5 3c4 1 7.5 1.83301 10.5 2.5s4.5 1.33398 4.5 2.00098v66l-9 11
c-0.666992 0 -2.16699 0.166992 -4.5 0.5s-5 0.5 -8 0.5h-9h-6.5c-22 0 -44 -3 -66 -9s-43.5 -13 -64.5 -21s-41.333 -15 -61 -21s-37.834 -9 -54.501 -9c-7.33301 0 -13.333 1.33301 -18 4s-7 8.66699 -7 18c0 12.667 7.33301 23.334 22 32.001s33.167 16.334 55.5 23.001
s46.333 12.334 72 17.001s49.667 8.83398 72 12.501s40.833 6.83398 55.5 9.50098s22 6 22 10v134c0 2.66699 1.33301 5.5 4 8.5s5.83398 5.66699 9.50098 8s7.66699 4.16602 12 5.49902s7.83301 2 10.5 2c0 -10.667 0.666992 -22 2 -34s3 -24.167 5 -36.5
s4.33301 -24.333 7 -36s5 -22.834 7 -33.501c10.667 -4 19.834 -6.66699 27.501 -8s16.5 -2 26.5 -2c3.33301 0 7.5 0.666992 12.5 2s9.66699 3.5 14 6.5s8.16602 6.16699 11.499 9.5s5 7 5 11c0 6.66699 -1 13.167 -3 19.5s-4.33301 12.833 -7 19.5s-5 13.334 -7 20.001
c-2 5.33301 -3 11.333 -3 18c0 9.33301 2.33301 18.333 7 27s12 13 22 13h5h5c0.666992 -5.33301 2.33398 -14.833 5.00098 -28.5s6 -27.667 10 -42s8 -27 12 -38s7.66699 -16.5 11 -16.5h163c0.666992 0 2.5 -1.5 5.5 -4.5l10.5 -10.5l12.5 -12.5l10.5 -10.5v-3
c0 -1.33301 0.166992 -2 0.5 -2s0.5 -0.333008 0.5 -1c0 -2.66699 -1.16699 -5.33398 -3.5 -8.00098s-5.16602 -5.16699 -8.49902 -7.5s-6.66602 -4.16602 -9.99902 -5.49902s-6 -2 -8 -2c-0.666992 0 -1.83398 0.333008 -3.50098 1s-3.66699 1.66699 -6 3
s-4.33301 2.33301 -6 3s-2.83398 1.33398 -3.50098 2.00098c-1.33301 0 -4 0.5 -8 1.5s-8.5 2 -13.5 3l-15.5 3c-5.33301 1 -9 1.5 -11 1.5h-5h-5c-6.66699 -1.33301 -15 -2.33301 -25 -3s-19.333 -1.66699 -28 -3c-10.667 -1.33301 -21.667 -2.33301 -33 -3v-67l9 -9
c13.333 2 25.333 3.66699 36 5s20.5 2.33301 29.5 3s18.333 1 28 1h32.5c10.667 0 21.834 0.166992 33.501 0.5s22 -0.833984 31 -3.50098s16.5 -7.5 22.5 -14.5s9 -17.833 9 -32.5c0 -11.333 -6.66699 -17 -20 -17h-10c-2.66699 0 -8.16699 0.5 -16.5 1.5s-17.333 2 -27 3
s-18.834 2 -27.501 3s-13.667 1.5 -15 1.5h-5c-5.33301 0 -13.166 -1 -23.499 -3s-21 -4.33301 -32 -7l-29.5 -7c-9.33301 -2 -14.666 -3 -15.999 -3v-6.5v-9.5c0 -3.33301 -0.166992 -6.66602 -0.5 -9.99902s-0.5 -5.66602 -0.5 -6.99902c0 -16 1.83301 -31.5 5.5 -46.5
s5.5 -30.5 5.5 -46.5v-2.5v-2.5v-3l-7 -7l-11 -11l-12 -12c-4 -4 -7 -6.66699 -9 -8l-2 -1h-2c-3.33301 0 -6.33301 3.83301 -9 11.5s-5 17.334 -7 29.001s-3.66699 24.334 -5 38.001s-2.66602 26.5 -3.99902 38.5s-2.66602 22.333 -3.99902 31s-3 14.334 -5 17.001l-10 8z
M374.996 267.99c0 -2 0.332031 -5.66699 0.999023 -11s1.5 -11 2.5 -17l3 -17.5c1 -5.66699 2.16699 -9.16699 3.5 -10.5l86 18c0 2.66699 0.333008 5.33398 1 8.00098s1 5 1 7v5c0 1.33301 -0.166992 3.66602 -0.5 6.99902s-0.5 6.5 -0.5 9.5s-0.166992 5.66699 -0.5 8
s-0.5 3.83301 -0.5 4.5c-0.666992 2.66699 -2.16699 6.5 -4.5 11.5s-4.16602 7.5 -5.49902 7.5h-67c-0.666992 0 -2.16699 -1.33301 -4.5 -4s-3.83301 -4.66699 -4.5 -6c-1.33301 -2 -3.33301 -5.5 -6 -10.5s-4 -8.16699 -4 -9.5z" />
    <glyph glyph-name="dollar" unicode="$" horiz-adv-x="595" 
d="M292 110c-1.33301 -2.66699 -2.65918 -9.66211 -3.99219 -20.9951s-3.33301 -22.833 -6 -34.5s-5.83398 -22.334 -9.50098 -32.001s-7.83398 -14.5 -12.501 -14.5c-14 0 -23.333 5.16699 -28 15.5s-7.33398 22.333 -8.00098 36s-0.666992 26.834 0 39.501
s-0.333008 21.334 -3 26.001c-4 6.66699 -12.167 14.5 -24.5 23.5s-26.833 18.333 -43.5 28l-51.5 30c-17.667 10.333 -33.667 20.833 -48 31.5s-25.833 21 -34.5 31s-11.667 19.667 -9 29c2 8 5.66699 13.333 11 16s11.333 4 18 4c14 0 27.333 -6 40 -18
s25.667 -25.333 39 -40s26.666 -28 39.999 -40s28 -18 44 -18c9.33301 0 17 5.83301 23 17.5s11.167 26.5 15.5 44.5s7.83301 38.167 10.5 60.5s4.66699 43.833 6 64.5s2.16602 39.667 2.49902 57s0.5 30 0.5 38v7v10.5v10.5v6c-9.33301 12 -20.333 22.833 -33 32.5
s-24.334 19.5 -35.001 29.5s-19.834 21 -27.501 33s-11.5 27 -11.5 45c0 2 0.166992 6 0.5 12s0.5 10 0.5 12c16 23.333 35.667 43 59 59s48.666 28.333 75.999 37c1.33301 13.333 2.16602 28.666 2.49902 45.999s2.16602 34.333 5.49902 51s8.66602 32 15.999 46
s18.333 24 33 30c0 -10.667 1.33301 -20.334 4 -29.001s4.66699 -18.334 6 -29.001c0 -0.666992 -0.666992 -2 -2 -4s-2.33301 -4 -3 -6s-1.66699 -4 -3 -6l-2 -3v-5v-9.5c0 -3.66699 -0.166992 -7.33398 -0.5 -11.001s-0.5 -6.5 -0.5 -8.5
c0 -1.33301 0.166992 -3.5 0.5 -6.5s0.5 -6.33301 0.5 -10v-10.5v-7c8.66699 -4.66699 15.834 -7.5 21.501 -8.5s12.834 -1.5 21.501 -1.5c1.33301 0 4 0.166992 8 0.5s6.33301 0.5 7 0.5c0 9.33301 -0.166992 21 -0.5 35s0.666992 27.333 3 40s6.83301 23.667 13.5 33
s17.334 14 32.001 14v-151c2 -4.66699 5.5 -8.33398 10.5 -11.001l15.5 -8c5.33301 -2.66699 10.166 -5.5 14.499 -8.5s6.5 -6.5 6.5 -10.5c0 -2.66699 -2 -5.83398 -6 -9.50098s-8.83301 -7 -14.5 -10s-11.834 -5.5 -18.501 -7.5s-12.667 -2.66699 -18 -2
c-2.66699 -26.667 -6.66699 -51.667 -12 -75s-8 -48 -8 -74v-8.5v-13c0 -4.33301 0.166992 -8.5 0.5 -12.5s0.5 -7 0.5 -9c14 -17.333 29.833 -33.333 47.5 -48s34.334 -30.167 50.001 -46.5s29 -34.166 40 -53.499s16.5 -42.333 16.5 -69
c0 -70 -18.5 -123.833 -55.5 -161.5s-89.167 -58.5 -156.5 -62.5c1.33301 -6.66699 2 -14 2 -22s-1.16699 -15.5 -3.5 -22.5s-6.16602 -12.833 -11.499 -17.5s-12 -7 -20 -7c-1.33301 0 -3.83301 0.166992 -7.5 0.5s-6.16699 0.5 -7.5 0.5c-2 18.667 -4 36 -6 52
c-2.66699 13.333 -5.5 25.666 -8.5 36.999s-6.5 18.333 -10.5 21zM375.007 134.005c1.33301 -1.33301 4.50293 -2.99805 9.50293 -4.99805s8.16699 -3.33301 9.5 -4h4c21.333 0 39.666 4.83301 54.999 14.5s28 22 38 37s17.333 31.667 22 50s7 36.166 7 53.499
c0 37.333 -8.66699 68.333 -26 93s-41 47.667 -71 69c-8.66699 -4.66699 -15.834 -12.834 -21.501 -24.501s-10.334 -25.5 -14.001 -41.5s-6.5 -33 -8.5 -51s-3.33301 -35.667 -4 -53s-1 -33.333 -1 -48v-36v-10.5c0 -5 0.166992 -10.5 0.5 -16.5s0.5 -11.5 0.5 -16.5v-10.5
zM350.01 477.007c1.33301 2 0.833008 3.6709 -1.5 5.00391s-5.16602 2 -8.49902 2s-6.5 -0.333008 -9.5 -1s-4.16699 -1.66699 -3.5 -3c-2.66699 -15.333 -6.66699 -34 -12 -56l-16.5 -68c-5.66699 -23.333 -10.5 -46.333 -14.5 -69s-6.33301 -42.834 -7 -60.501
s1.33301 -31.334 6 -41.001s13 -13.167 25 -10.5c0 1.33301 1.16699 9.16602 3.5 23.499s5 32.166 8 53.499l9.5 69c3.33301 24.667 6.66602 47.667 9.99902 69s6 39.333 8 54s3 22.667 3 24v9zM326.01 584.011c0 -5.33301 -0.166992 -11.668 -0.5 -19.001
s0 -14.666 1 -21.999s3.16699 -14 6.5 -20s7.66602 -10.667 12.999 -14c9.33301 6.66699 17.333 15.667 24 27s11.667 23.833 15 37.5s5.66602 28.167 6.99902 43.5s2.16602 30.166 2.49902 44.499s0.166016 27.833 -0.500977 40.5v32
c-1.33301 0 -4.16602 -0.166992 -8.49902 -0.5s-9.16602 -0.833008 -14.499 -1.5s-10.166 -1.16699 -14.499 -1.5s-7.83301 -0.5 -10.5 -0.5c-1.33301 0 -3.16602 -1.33301 -5.49902 -4s-3.5 -4.33398 -3.5 -5.00098c-2.66699 -14.667 -4.66699 -27.667 -6 -39
s-2.5 -22.166 -3.5 -32.499s-1.5 -20.666 -1.5 -30.999v-34.5zM211.01 641.009c0 -5.33301 0.168945 -10.168 0.501953 -14.501s1.5 -8.33301 3.5 -12s5 -7 9 -10s9.66699 -5.83301 17 -8.5l3 -2c1.33301 -2 3.16602 -3.83301 5.49902 -5.5
s4.66602 -2.83398 6.99902 -3.50098s3.83301 -0.666992 4.5 0c5.33301 3.33301 9.16602 8.33301 11.499 15s4 14.167 5 22.5s1.5 16.5 1.5 24.5v21c0 2.66699 -0.666992 5.83398 -2 9.50098s-3.16602 7.33398 -5.49902 11.001s-4.83301 6.66699 -7.5 9s-5.66699 3.5 -9 3.5
c-8 0 -14.833 -1.83301 -20.5 -5.5s-10.167 -8.5 -13.5 -14.5s-5.83301 -12.5 -7.5 -19.5s-2.5 -13.833 -2.5 -20.5z" />
    <glyph glyph-name="percent" unicode="%" horiz-adv-x="652" 
d="M145 29c0 12.667 5.16602 31.001 15.499 55.001s23.833 51.167 40.5 81.5s36.167 62.666 58.5 96.999l68.5 102.5l70 98l63.5 83c19 24 35.5 43.167 49.5 57.5s23 21.5 27 21.5c2.66699 0 5 -1.5 7 -4.5s3.16699 -6 3.5 -9s0.166016 -6.16699 -0.500977 -9.5v-6
c-16 -26.667 -33 -50.834 -51 -72.501l-54 -65c-18 -21.667 -35.333 -44.5 -52 -68.5s-31.667 -51.333 -45 -82c-4 -6.66699 -10.333 -19 -19 -37s-19 -38.333 -31 -61l-38 -71.5c-13.333 -25 -26.166 -47.833 -38.499 -68.5s-23.5 -37.667 -33.5 -51
c-9.33301 -13.333 -16.666 -20 -21.999 -20c-8 0 -13.167 3.33301 -15.5 10s-3.5 13.334 -3.5 20.001zM363.999 100.001c0 12 1.83203 25.668 5.49902 41.001s9 30.5 16 45.5s15.167 30 24.5 45s19.833 28 31.5 39s24 20 37 27s26.5 10.5 40.5 10.5
c14.667 0 28.5 -4 41.5 -12s24.333 -18.167 34 -30.5s17.334 -26 23.001 -41s8.5 -29.167 8.5 -42.5c0 -19.333 -4.66699 -39.333 -14 -60s-21.5 -39.5 -36.5 -56.5s-32 -30.833 -51 -41.5s-38.5 -16 -58.5 -16c-14.667 0 -28.167 2 -40.5 6s-23 9.66699 -32 17
s-16.167 16.666 -21.5 27.999s-8 25 -8 41zM412.998 76.002c5.33301 -5.33301 11.166 -8.33203 17.499 -8.99902s13.5 -1 21.5 -1c14.667 0 28.834 2.83301 42.501 8.5s26 13.5 37 23.5s19.833 21.667 26.5 35c6.66699 14 10 28.333 10 43c0 6.66699 -1 14.167 -3 22.5
s-5 16.333 -9 24s-9 14.167 -15 19.5s-13.333 8 -22 8c-14.667 0 -28.667 -5.5 -42 -16.5s-24.833 -24.333 -34.5 -40s-17.167 -32.167 -22.5 -49.5s-8 -32 -8 -44v-11.5c0 -5.66699 0.333008 -9.83398 1 -12.501zM8.99805 413.003c0 16.667 3.16797 33.668 9.50098 51.001
s15.166 32.833 26.499 46.5s24.333 24.834 39 33.501c16 8.66699 32.667 13 50 13c15.333 0 31.166 -3.16699 47.499 -9.5s31 -15 44 -26s23.667 -24 32 -39s12.5 -31.167 12.5 -48.5c0 -18 -3.66699 -35.333 -11 -52s-17.333 -31.334 -30 -44.001
s-27.167 -22.834 -43.5 -30.501s-33.166 -11.5 -50.499 -11.5c-14.667 0 -29.5 3.16699 -44.5 9.5s-28.5 14.833 -40.5 25.5s-21.833 23 -29.5 37s-11.5 29 -11.5 45zM66.999 418.004c0 -6 0.499023 -12.8281 1.49902 -20.4951s3.16699 -15 6.5 -22
s7.33301 -13.167 12 -18.5s11 -9 19 -11c9.33301 -2.66699 20.666 -2.33398 33.999 0.999023s26 8.66602 38 15.999s22.167 16.166 30.5 26.499s12.5 21.166 12.5 32.499c0 10 -2.33301 19.667 -7 29s-11 17.666 -19 24.999s-16.833 13.166 -26.5 17.499
s-19.167 6.5 -28.5 6.5c-10.667 0 -20.667 -2.66699 -30 -8s-17.166 -12 -23.499 -20s-11.166 -16.667 -14.499 -26s-5 -18.666 -5 -27.999z" />
    <glyph glyph-name="ampersand" unicode="&#x26;" horiz-adv-x="468" 
d="M10 76c0 34 5.99805 65.5049 17.998 94.5049s25.667 57 41 84l45 81c14.667 27 25 55.833 31 86.5v11v18.5v18v10.5c0 6.66699 0.5 18.667 1.5 36s2 35.833 3 55.5s2 38 3 55s1.5 29.167 1.5 36.5c0 2.66699 0.833008 6.5 2.5 11.5s3.66699 10 6 15s5.33301 9.5 9 13.5
s7.5 6.33301 11.5 7c16 2.66699 29.667 0.666992 41 -6s20.333 -15.667 27 -27s11.667 -23.666 15 -36.999c2.66699 -13.333 4 -26 4 -38c0 -21.333 -1.33301 -40.5 -4 -57.5s-7 -33.333 -13 -49s-13.167 -31.667 -21.5 -48s-18.166 -34.166 -29.499 -53.499
c0 -1.33301 -0.166992 -3 -0.5 -5s-0.5 -3.66699 -0.5 -5c0 -10.667 1.5 -21.834 4.5 -33.501s6.83301 -23.334 11.5 -35.001s10 -23.167 16 -34.5l17 -31h19c6.66699 3.33301 12.334 8.83301 17.001 16.5s8.5 16.5 11.5 26.5s5.16699 20.667 6.5 32
s2.33301 22.166 3 32.499s1 19.666 1 27.999v18.5c3.33301 4 8.16602 6.66699 14.499 8s12.5 2.33301 18.5 3s12 0.666992 18 0s11 -1 15 -1c8 0 16.333 0.833008 25 2.5s16.667 2.33398 24 2.00098s13.333 -2.83301 18 -7.5s7 -13.334 7 -26.001
c0 -6.66699 -1.16699 -11.5 -3.5 -14.5s-7.83301 -4.83301 -16.5 -5.5c-3.33301 -0.666992 -7.66602 -1.33398 -12.999 -2.00098s-10.5 -1.16699 -15.5 -1.5s-10.167 -0.833008 -15.5 -1.5s-9.66602 -0.666992 -12.999 0c-9.33301 -19.333 -15.833 -36.833 -19.5 -52.5
l-10 -44c-3 -13.667 -6.66699 -27 -11 -40s-11.833 -26.5 -22.5 -40.5v-5c-0.666992 -1.33301 -1 -3.33301 -1 -6c0 -9.33301 3.66699 -20.833 11 -34.5s15.833 -27.667 25.5 -42s19.5 -27.833 29.5 -40.5s17 -22.334 21 -29.001c-2.66699 -6.66699 -6.66699 -10 -12 -10
c-5.33301 -1.33301 -11.333 -1.33301 -18 0l-85 100h-2h-2h-1c-7.33301 0 -14.333 -2.83301 -21 -8.5s-13.334 -13 -20.001 -22l-21.5 -28.5c-7.66699 -10 -16.5 -19.5 -26.5 -28.5s-21 -16.333 -33 -22s-26 -8.5 -42 -8.5h-8c-4 0 -8.33301 0.166992 -13 0.5
s-9 0.666016 -13 0.999023s-6.66699 0.5 -8 0.5c-5.33301 4 -11.333 9 -18 15s-13 12.333 -19 19s-11 13.667 -15 21s-6 14.333 -6 21zM66.998 96.0049c0 -3.33301 1.16895 -7.83301 3.50195 -13.5s5.16602 -11.167 8.49902 -16.5s7.33301 -9.83301 12 -13.5
s9.66699 -4.83398 15 -3.50098c9.33301 1.33301 21.333 6.83301 36 16.5s28.5 20.667 41.5 33s24.333 25.333 34 39s14.5 25.167 14.5 34.5c0 10 -2.33301 20.667 -7 32s-10.334 22.833 -17.001 34.5l-20 35.5c-6.66699 12 -11.667 23.333 -15 34
c-8 -1.33301 -16.167 -7.16602 -24.5 -17.499s-16.5 -22.666 -24.5 -36.999s-15.333 -30 -22 -47s-12.667 -33.167 -18 -48.5s-9.5 -28.833 -12.5 -40.5s-4.5 -18.834 -4.5 -21.501z" />
    <glyph glyph-name="quotesingle" unicode="'" horiz-adv-x="105" 
d="M20 712l0.00390625 10.5c0 3 0.666992 5.66699 2 8s3.33301 4.83301 6 7.5l10 10c7.33301 -4 13.833 -11 19.5 -21s10.334 -21.5 14.001 -34.5s6.5 -27.333 8.5 -43s3.66699 -31 5 -46s2.16602 -28.833 2.49902 -41.5s0.5 -23 0.5 -31c0 -9.33301 -0.666992 -17 -2 -23
s-7.33301 -9 -18 -9c-8.66699 0 -15.834 5 -21.501 15s-10.334 22.5 -14.001 37.5s-6.33398 31.5 -8.00098 49.5s-2.83398 35 -3.50098 51s-1 29.5 -1 40.5v19.5z" />
    <glyph glyph-name="parenleft" unicode="(" horiz-adv-x="432" 
d="M20 196c0 21.333 5.00195 46.332 15.002 74.999s23.667 57.834 41 87.501s37.333 58.667 60 87s46.334 53.666 71.001 75.999s49.667 40.5 75 54.5c26.667 13.333 51.334 20 74.001 20c6 0 12.333 -1.33301 19 -4s12.834 -6.33398 18.501 -11.001
s10.5 -9.83398 14.5 -15.501s6 -11.5 6 -17.5c0 -5.33301 -1 -11.666 -3 -18.999s-6.33301 -11 -13 -11c-4.66699 0 -8.66699 1 -12 3s-6.83301 4.33301 -10.5 7s-7.33398 5 -11.001 7s-7.83398 3 -12.501 3c-22.667 0 -45.334 -6 -68.001 -18s-44.334 -28 -65.001 -48
s-39.667 -42.833 -57 -68.5s-32.333 -52 -45 -79s-22.667 -53.333 -30 -79s-11 -48.5 -11 -68.5c0 -32 5.5 -58.167 16.5 -78.5s25.833 -36.5 44.5 -48.5s40.167 -20.833 64.5 -26.5s50.166 -10.167 77.499 -13.5c5.33301 -2 8.33301 -4.66699 9 -8s1 -7 1 -11
c0 -9.33301 -3.5 -16.166 -10.5 -20.499s-14.833 -7.16602 -23.5 -8.49902s-17.667 -1.83301 -27 -1.5s-16.333 0.5 -21 0.5c-31.333 0 -58.833 7 -82.5 21s-43.167 32.167 -58.5 54.5s-26.833 47.5 -34.5 75.5s-11.5 56 -11.5 84z" />
    <glyph glyph-name="parenright" unicode=")" horiz-adv-x="297" 
d="M9 -20c0 5.33301 5.16699 13.335 15.5 24.002l39.5 39.5l51.5 52.5c18.333 19.333 35.333 40.333 51 63s28.834 46.5 39.501 71.5s16 50.833 16 77.5c0 25.333 -3.66699 49.333 -11 72s-17.166 44.5 -29.499 65.5s-26.666 40.667 -42.999 59s-33.5 35.5 -51.5 51.5
c-4.66699 -2.66699 -9.33398 -3.33398 -14.001 -2.00098s-8.83398 3.66602 -12.501 6.99902s-6.83398 7.16602 -9.50098 11.499s-4 8.83301 -4 13.5c0 10 3 15.833 9 17.5s13.333 2.5 22 2.5c20 0 38.833 -4.83301 56.5 -14.5s34 -22.5 49 -38.5s28.5 -34.333 40.5 -55
s22.167 -41.667 30.5 -63s14.666 -42.333 18.999 -63s6.5 -39 6.5 -55s-3.66699 -36.333 -11 -61s-17.333 -50.834 -30 -78.501s-27.167 -55.667 -43.5 -84s-33.666 -53.666 -51.999 -75.999s-37 -40.5 -56 -54.5s-36.833 -21 -53.5 -21c-4 0 -7.5 1.33301 -10.5 4
s-5.66699 6 -8 10s-4 8.33301 -5 13s-1.5 8.33398 -1.5 11.001z" />
    <glyph glyph-name="asterisk" unicode="*" horiz-adv-x="422" 
d="M183 404c-0.666992 0 -1.83398 -0.829102 -3.50098 -2.49609l-5.5 -5.5l-6 -6c-1.33301 -2.66699 -2.66602 -4.66699 -3.99902 -6c-2.66699 -2.66699 -6.83398 -8 -12.501 -16l-17.5 -26l-17 -26.5l-11 -17.5c-1.33301 -1.33301 -3.33301 -2.5 -6 -3.5s-5.5 -2 -8.5 -3
s-5.83301 -1.83301 -8.5 -2.5c-3.33301 -0.666992 -5.66602 -1 -6.99902 -1c-2.66699 0 -4.66699 1 -6 3s-2.33301 4.33301 -3 7s-1 5.33398 -1 8.00098v6c0 9.33301 1.33301 18 4 26s5.5 15.667 8.5 23l9 23c3 8 4.5 16.667 4.5 26c-6.66699 0 -12 -0.5 -16 -1.5
s-7.5 -1.83301 -10.5 -2.5s-6.16699 -1.33398 -9.5 -2.00098s-8 -1 -14 -1c-2.66699 0 -5.66699 0.166992 -9 0.5s-6.16602 1 -8.49902 2s-4.16602 2.83301 -5.49902 5.5c-0.666992 2.66699 -0.333984 6.33398 0.999023 11.001c1.33301 6 4.83301 11.5 10.5 16.5
s12.334 9.16699 20.001 12.5s15.167 5.83301 22.5 7.5s13.666 2.5 18.999 2.5s9 -1 11 -3s3.66699 -4.33301 5 -7s2.66602 -5 3.99902 -7s4 -3 8 -3h3c0.666992 0 1.33398 0.333008 2.00098 1c1.33301 1.33301 3.16602 3 5.49902 5s3.5 3.66699 3.5 5
c0 12 -4.83301 23.167 -14.5 33.5s-20.167 20.333 -31.5 30l-30 26.5c-8.66699 8 -11.667 16.333 -9 25c0.666992 1.33301 3.33398 4.33301 8.00098 9s8.33398 8 11.001 10h2h1h1c0 -0.666992 0.333008 -0.666992 1 0h1h2l96 -57
c-1.33301 3.33301 -1.83301 7.83301 -1.5 13.5s1.16602 11.167 2.49902 16.5s3.5 9.83301 6.5 13.5s7.5 5.5 13.5 5.5c1.33301 0 3.16602 -0.166992 5.49902 -0.5s3.5 -0.833008 3.5 -1.5l28 -47c9.33301 6 20 14 32 24s24.667 20 38 30s27 19 41 27s28.333 13 43 15
c4 -5.33301 6.66699 -10.166 8 -14.499s2 -9.16602 2 -14.499c0 -6.66699 -5 -14.334 -15 -23.001s-21.667 -17.667 -35 -27s-26.333 -18 -39 -26s-21.334 -14.667 -26.001 -20c5.33301 0.666992 12.666 1.16699 21.999 1.5s18.833 -0.166992 28.5 -1.5
s17.834 -3.5 24.501 -6.5s10 -7.5 10 -13.5c0 -9.33301 -3 -15.833 -9 -19.5s-12.5 -6.83398 -19.5 -9.50098s-13.5 -5.83398 -19.5 -9.50098s-9 -9.83398 -9 -18.501c0 -10 2.33301 -19.833 7 -29.5s10.167 -19.334 16.5 -29.001l19.5 -28.5
c5.33301 -9.33301 10 -18.666 14 -27.999c-1.33301 -8.66699 -5 -15.667 -11 -21s-13.333 -8 -22 -8h-5c-1.33301 1.33301 -3.66602 3.16602 -6.99902 5.49902l-11 8c-4 3 -8 5.83301 -12 8.5c-4 3.33301 -6.66699 5.66602 -8 6.99902
c1.33301 -14.667 -1 -29.334 -7 -44.001s-16.333 -26 -31 -34c-3.33301 4.66699 -6.5 12.167 -9.5 22.5s-5.66699 22.333 -8 36s-5 27.667 -8 42s-6.5 27.166 -10.5 38.499s-8.5 20.333 -13.5 27s-10.833 9.33398 -17.5 8.00098z" />
    <glyph glyph-name="plus" unicode="+" horiz-adv-x="471" 
d="M183 192c-13.333 0 -26.4961 -1.00195 -39.4961 -3.00195s-25.833 -4.33301 -38.5 -7s-25.334 -5 -38.001 -7s-25.334 -3 -38.001 -3c-10 0 -16 2.66699 -18 8c-2 4 -3 9.33301 -3 16c0 8.66699 1 14.5 3 17.5s8 5.5 18 7.5c5.33301 1.33301 14.833 3.33301 28.5 6
l43.5 8.5l43.5 8.5c13.667 2.66699 23.167 4.66699 28.5 6c3.33301 0.666992 5.83301 2.5 7.5 5.5s2.66699 6.33301 3 10s0.5 7 0.5 10v7.5c0 10.667 -1 21.167 -3 31.5s-4.33301 20.833 -7 31.5s-5 21.334 -7 32.001s-3 21.334 -3 32.001v3c1.33301 2 4.33301 5.33301 9 10
l10 10h2c0.666992 0 1 0.333008 1 1h2h1c-0.666992 -0.666992 -0.333984 -1 0.999023 -1h3l19 -20l38 -134l10 -11l16 -2c11.333 -2 24.666 -4 39.999 -6l47.5 -6c16.333 -2 29.833 -3.33301 40.5 -4c2 0 5.66699 -0.333008 11 -1s10.833 -1.5 16.5 -2.5
s10.5 -2.83301 14.5 -5.5s6 -6.33398 6 -11.001c0 -2 -1.33301 -5.16699 -4 -9.5s-5.5 -8.5 -8.5 -12.5s-6.16699 -7.66699 -9.5 -11s-5.66602 -5 -6.99902 -5h-154v-172l-3 -3l-8 -6c-2.66699 -2 -5.66699 -4 -9 -6s-6 -3.66699 -8 -5
c-0.666992 -0.666992 -1.66699 -1 -3 -1h-2c-7.33301 0 -12.833 3.5 -16.5 10.5s-5.83398 14.833 -6.50098 23.5s-1 17 -1 25c0.666992 8 0.666992 14 0 18l-3.5 23.5l-5.5 35c-2 12.333 -4 23.833 -6 34.5s-3.33301 18.334 -4 23.001h-10z" />
    <glyph glyph-name="comma" unicode="," horiz-adv-x="134" 
d="M9 -158c0 16 1.66602 32.002 4.99902 48.002l10.5 49l10.5 50c3.33301 16.667 5 33 5 49v8c0 4 -0.166992 8 -0.5 12s-0.5 7.66699 -0.5 11v7c-9.33301 -0.666992 -15 1 -17 5s-3 8.66699 -3 14c0 13.333 2.33301 25.166 7 35.499s14.334 15.5 29.001 15.5
c13.333 0 22.833 -4.66699 28.5 -14s9.66699 -20.333 12 -33s3.33301 -25.5 3 -38.5s-0.5 -23.5 -0.5 -31.5c0 -5.33301 -0.833008 -14.5 -2.5 -27.5s-3.66699 -27.833 -6 -44.5s-5.5 -34 -9.5 -52s-8.66699 -34.333 -14 -49s-11 -26.667 -17 -36s-12.667 -14 -20 -14
c-4.66699 0 -8.33398 1.16699 -11.001 3.5s-4.66699 5.33301 -6 9s-2.16602 7.66699 -2.49902 12s-0.5 8.16602 -0.5 11.499z" />
    <glyph glyph-name="hyphen" unicode="-" horiz-adv-x="384" 
d="M254 327c9.33301 0 19.3311 -0.167969 29.998 -0.500977s20.667 -2.16602 30 -5.49902s17 -8.16602 23 -14.499s9 -15.5 9 -27.5c0 -14 -6.33301 -21 -19 -21c-14.667 0 -28.167 1.83301 -40.5 5.5s-26.166 5.5 -41.499 5.5c-19.333 0 -38.5 -1.16699 -57.5 -3.5
s-38.167 -4.83301 -57.5 -7.5s-38.5 -5.16699 -57.5 -7.5s-38.167 -3.5 -57.5 -3.5c0 16 3.66699 28.667 11 38s17 16.833 29 22.5s25.5 9.5 40.5 11.5s30.5 3.16699 46.5 3.5l47 1c15.333 0.333008 29 1.16602 41 2.49902h3c2 0 4.33301 0.166992 7 0.5
s5.33398 0.5 8.00098 0.5h6z" />
    <glyph glyph-name="period" unicode="." horiz-adv-x="209" 
d="M45 96c0 5.33301 2.16992 13.335 6.50293 24.002s9.5 21.5 15.5 32.5s12.167 20.5 18.5 28.5s11.833 12 16.5 12c13.333 0 25 -3.5 35 -10.5s18.167 -15.833 24.5 -26.5s11.166 -22.334 14.499 -35.001s5 -24.334 5 -35.001c0 -8 -2.33301 -17 -7 -27
s-10.5 -19.333 -17.5 -28s-14.833 -16 -23.5 -22s-17.334 -9 -26.001 -9c-10 0 -18.667 3.5 -26 10.5s-13.833 15.667 -19.5 26s-9.83398 21 -12.501 32s-4 20.167 -4 27.5z" />
    <glyph glyph-name="slash" unicode="/" horiz-adv-x="317" 
d="M10 34c0 9.33301 2.16895 20.834 6.50195 34.501s9.66602 27.834 15.999 42.501s12.833 28.5 19.5 41.5l16 30.5l163 451c2 9.33301 4 21 6 35s4.66699 27.667 8 41s7.66602 25.666 12.999 36.999s12.333 18.333 21 21c6 -1.33301 10.333 -3.66602 13 -6.99902
s4.5 -7.33301 5.5 -12s1.33301 -9.33398 1 -14.001s-0.5 -9 -0.5 -13c0 -10 -3 -28.167 -9 -54.5s-14.167 -57.333 -24.5 -93s-22.333 -74.667 -36 -117l-42.5 -127.5c-14.667 -42.667 -29.667 -83.834 -45 -123.501s-29.5 -74.667 -42.5 -105s-24.833 -54.833 -35.5 -73.5
s-18.667 -28 -24 -28c-8.66699 0 -15.667 4 -21 12s-8 15.333 -8 22z" />
    <glyph glyph-name="zero" unicode="0" horiz-adv-x="441" 
d="M19 223c0 22.667 6.16602 46.832 18.499 72.499s28.333 49.334 48 71.001s41.834 39.667 66.501 54s49.334 21.5 74.001 21.5c15.333 0 30.5 -3.5 45.5 -10.5s29.5 -16.333 43.5 -28s27 -25 39 -40s22.5 -30.667 31.5 -47s16 -32.666 21 -48.999s7.5 -31.5 7.5 -45.5
c0 -25.333 -3.66699 -51 -11 -77s-18.333 -49.833 -33 -71.5s-33 -39.5 -55 -53.5s-47.667 -21 -77 -21c-30.667 0 -59.334 5.83301 -86.001 17.5s-50 27.667 -70 48s-35.5 44.166 -46.5 71.499s-16.5 56.333 -16.5 87zM67.999 229.998
c-2.66699 -23.333 -0.668945 -45.334 5.99805 -66.001s17.167 -39 31.5 -55s31.5 -28.667 51.5 -38s41.667 -14 65 -14c8.66699 0 16.167 0.5 22.5 1.5s12.666 2.66699 18.999 5s13 5.5 20 9.5l24.5 14c1.33301 9.33301 4.5 17.5 9.5 24.5l16 22.5
c5.66699 8 10.834 17.333 15.501 28s7 24.334 7 41.001c0 22 -3.5 43.333 -10.5 64s-17.167 39 -30.5 55s-29.666 28.833 -48.999 38.5s-41.333 14.5 -66 14.5c-17.333 0 -33.666 -4.5 -48.999 -13.5s-28.833 -20.667 -40.5 -35s-21.167 -30 -28.5 -47s-12 -33.5 -14 -49.5z
" />
    <glyph glyph-name="one" unicode="1" horiz-adv-x="326" 
d="M183 20l0.00390625 6.50391c0 3 -0.166992 6.33301 -0.5 10s-0.5 7.16699 -0.5 10.5v6c0 6.66699 0.333008 16.334 1 29.001s1.66699 26.834 3 42.501s2.66602 32.167 3.99902 49.5s2.66602 33.833 3.99902 49.5s2.33301 29.667 3 42s1 22.166 1 29.499v12
c0 4 -0.5 7.66699 -1.5 11s-2.83301 6.66602 -5.5 9.99902c-3.33301 2.66699 -7.66602 4.66699 -12.999 6c-2.66699 -2.66699 -7.33398 -7.83398 -14.001 -15.501l-22 -26.5c-8 -10 -17 -20.5 -27 -31.5l-28.5 -30c-9 -9 -17.833 -16.5 -26.5 -22.5s-16 -9 -22 -9
c-16 0 -24 8.33301 -24 25v6c1.33301 1.33301 2.83301 3.33301 4.5 6l5.5 8.5l5.5 8c1.66699 2.33301 3.16699 4.16602 4.5 5.49902l183 192c5.33301 5.33301 9.66602 13 12.999 23s6.16602 20.833 8.49902 32.5s4.5 23.334 6.5 35.001s4.5 22.167 7.5 31.5s7 17 12 23
s11.167 9 18.5 9c4 0 7.66699 -0.333008 11 -1s6 -3.33398 8 -8.00098v-7c0 -3.33301 0.166992 -6.83301 0.5 -10.5s0.5 -7.16699 0.5 -10.5v-6c0 -2.66699 -0.833008 -12.834 -2.5 -30.501s-4 -39.834 -7 -66.501l-10.5 -90.5c-4 -33.667 -8.5 -67.667 -13.5 -102
l-14.5 -100.5c-4.66699 -32.667 -9.66699 -61.667 -15 -87s-10.333 -45.833 -15 -61.5s-9 -23.5 -13 -23.5c-6.66699 0 -12.167 1.5 -16.5 4.5s-8.5 8.5 -12.5 16.5z" />
    <glyph glyph-name="two" unicode="2" horiz-adv-x="509" 
d="M280 30c-24 0 -47.1699 -1.83496 -69.5029 -5.50195s-45.833 -5.5 -70.5 -5.5c-13.333 0 -27.166 1.5 -41.499 4.5s-27.666 8 -39.999 15s-23 16 -32 27s-14.5 24.5 -16.5 40.5c-1.33301 10 0.166992 18.167 4.5 24.5s10 11.333 17 15s14.833 6 23.5 7s16 1.5 22 1.5
c15.333 0 30.5 -2.33301 45.5 -7s29.667 -10.167 44 -16.5s28.833 -12 43.5 -17s30 -7.5 46 -7.5c14 0 27 4.66699 39 14s22.833 21.5 32.5 36.5s18.167 32 25.5 51s13.333 37.5 18 55.5s8.33398 34.833 11.001 50.5s4 27.834 4 36.501c0 9.33301 -1.33301 23 -4 41
s-7 35.667 -13 53s-13.833 32.5 -23.5 45.5s-22.167 19.5 -37.5 19.5c-14 0 -24.5 -5 -31.5 -15s-12.5 -21.167 -16.5 -33.5l-11.5 -35.5c-3.66699 -11.333 -9.5 -18.333 -17.5 -21c-10 6.66699 -15.833 15.334 -17.5 26.001s-2.5 20.667 -2.5 30
c0 13.333 2.5 25.833 7.5 37.5s12.167 22 21.5 31s20.333 15.833 33 20.5s26 7 40 7c23.333 0 43.333 -7 60 -21s30.167 -31.333 40.5 -52s18 -42.667 23 -66s7.5 -43.666 7.5 -60.999s-0.5 -32.666 -1.5 -45.999s-3 -26.333 -6 -39s-7.16699 -25.834 -12.5 -39.501
s-12 -29.834 -20 -48.501c-4.66699 -3.33301 -10.334 -8.83301 -17.001 -16.5s-13 -15.834 -19 -24.501s-11.167 -17.167 -15.5 -25.5s-6.5 -15.166 -6.5 -20.499c0 -6.66699 3.5 -11.834 10.5 -15.501s15.5 -6.5 25.5 -8.5s20.667 -3.66699 32 -5s22 -3.16602 32 -5.49902
s18.5 -6 25.5 -11s10.5 -12.167 10.5 -21.5c0 -6.66699 -3.33301 -13 -10 -19c-5.33301 -6.66699 -12 -10 -20 -10c-14.667 0 -29.167 1.5 -43.5 4.5s-28.666 6.33301 -42.999 10l-42.5 10.5c-14 3.33301 -28.333 5 -43 5z" />
    <glyph glyph-name="three" unicode="3" horiz-adv-x="441" 
d="M20 125c-0.666992 1.33301 -1 2.33008 -1 2.99707v6c0 11.333 3.16699 20.666 9.5 27.999s15.166 11 26.499 11c4.66699 0 11.834 -6 21.501 -18s22.667 -25.333 39 -40s36 -28 59 -40s50.167 -18 81.5 -18c12 0 24 0.833008 36 2.5s22.667 4.83398 32 9.50098
s17 11 23 19s9 18.333 9 31c0 28 -7 51 -21 69s-31.833 32.833 -53.5 44.5s-45.167 20.5 -70.5 26.5l-70 17c-21.333 5.33301 -39.166 10.333 -53.499 15s-21.5 11.667 -21.5 21c0 1.33301 0.333008 2.33301 1 3s1 1.33398 1 2.00098c1.33301 2 4.33301 5.33301 9 10l10 10
c6.66699 1.33301 16.667 3.16602 30 5.49902s27.833 5.33301 43.5 9s31.5 8.16699 47.5 13.5s30.667 11.5 44 18.5s24.333 15.333 33 25s13 20.834 13 33.501c0 10 -4 18.167 -12 24.5s-17.167 11.333 -27.5 15s-21 6 -32 7s-19.833 1.5 -26.5 1.5
s-16.334 -0.166992 -29.001 -0.5s-25.167 -1.33301 -37.5 -3s-23.166 -3.66699 -32.499 -6s-14 -5.5 -14 -9.5v-22c-15.333 0 -27.333 3.66699 -36 11s-13 18.666 -13 33.999c0 6.66699 1.83301 12.667 5.5 18s8.5 10 14.5 14s12.333 7 19 9s13 3 19 3h145
c15.333 0 29.5 -3.5 42.5 -10.5s24.167 -16 33.5 -27s16.5 -23.5 21.5 -37.5s7.5 -28 7.5 -42s-4.5 -25.667 -13.5 -35s-19 -17.666 -30 -24.999s-21.167 -14.666 -30.5 -21.999s-14 -16.333 -14 -27c0 -0.666992 0.333008 -1.33398 1 -2.00098l1 -2
c20.667 -7.33301 40.167 -17.333 58.5 -30s34.666 -27.334 48.999 -44.001s25.833 -35 34.5 -55c8 -19.333 12 -40.333 12 -63c0 -20.667 -4.5 -38.5 -13.5 -53.5s-20.667 -27 -35 -36s-30.333 -15.833 -48 -20.5s-35.167 -7 -52.5 -7
c-16.667 1.33301 -32.5 2.83301 -47.5 4.5s-31.5 6.33398 -49.5 14.001s-38.667 19.834 -62 36.501s-52 40.334 -86 71.001z" />
    <glyph glyph-name="four" unicode="4" horiz-adv-x="422" 
d="M303 222c-9.33301 -5.33301 -19.832 -11.832 -31.499 -19.499s-23.834 -14.834 -36.501 -21.501s-25.5 -11.834 -38.5 -15.501s-25.833 -4.16699 -38.5 -1.5c-26 0 -47.833 7.16699 -65.5 21.5s-32 32.333 -43 54s-18.833 44.5 -23.5 68.5s-7 46 -7 66
c0 22 1 41.667 3 59s5.16699 34.333 9.5 51s9.5 33.834 15.5 51.501l21 60.5c1.33301 6.66699 5 11.667 11 15s12.667 5.16602 20 5.49902s14 -0.833984 20 -3.50098s8.33301 -7 7 -13c0 -17.333 -3.16699 -35 -9.5 -53s-13.166 -36.167 -20.499 -54.5
s-14.166 -37 -20.499 -56s-9.5 -38.167 -9.5 -57.5c0 -14 1.83301 -29.333 5.5 -46s9.33398 -32 17.001 -46s17.5 -25.667 29.5 -35s26.333 -14 43 -14c22.667 0 43.167 5.5 61.5 16.5s35 24.667 50 41s28 34.166 39 53.499s20.333 37.333 28 54s13.5 30.334 17.5 41.001
c3.33301 10.667 5.66602 16 6.99902 16c16 0 26.667 -2.66699 32 -8c4.66699 -5.33301 7 -12.666 7 -21.999c0 -13.333 -1.5 -28.333 -4.5 -45s-6.5 -33.667 -10.5 -51s-7.33301 -34.5 -10 -51.5s-4 -32.5 -4 -46.5c0 -16 1 -32 3 -48s4.33301 -32 7 -48s5 -31.833 7 -47.5
s3 -31.167 3 -46.5c0 -13.333 -4 -24.666 -12 -33.999s-18.667 -14 -32 -14c-8.66699 0 -14.834 5.5 -18.501 16.5s-6.33398 24.833 -8.00098 41.5s-2.5 34.667 -2.5 54s-0.166992 37.333 -0.5 54s-1.83301 30.5 -4.5 41.5s-7 16.5 -13 16.5z" />
    <glyph glyph-name="five" unicode="5" 
d="M19 145c-1.33301 18.667 0.670898 34.1709 6.00391 46.5039s11.166 19 17.499 20s11.666 -5.16699 15.999 -18.5s5.5 -36 3.5 -68c0 -6.66699 4.33301 -12.834 13 -18.501s19.667 -10.5 33 -14.5s28 -7.66699 44 -11s31 -6.16602 45 -8.49902s26.333 -4 37 -5
s17.334 -1.5 20.001 -1.5c22 0 44.333 2 67 6s43.167 11.167 61.5 21.5s33.166 24 44.499 41s17 38.167 17 63.5c0 28 -5 51.667 -15 71s-23.333 35.333 -40 48s-35.667 22.667 -57 30s-43.5 13.166 -66.5 17.499s-45.833 7.83301 -68.5 10.5s-43.667 5.66699 -63 9
c-4 5.33301 -6.66699 10.166 -8 14.499s-2 9.16602 -2 14.499v5l1 4c2.66699 5.33301 7.83398 14.833 15.501 28.5l23.5 44l23 44c7.33301 13.667 12.333 23.167 15 28.5c0.666992 0.666992 1.5 2.16699 2.5 4.5s1.83301 5 2.5 8s1.66699 5.83301 3 8.5
c1.33301 4 2 6.66699 2 8s-0.166992 3 -0.5 5s-0.5 3.33301 -0.5 4h-23c0 13.333 3.66699 24.166 11 32.499s16.666 15 27.999 20s24.333 8.66699 39 11s29.334 3.83301 44.001 4.5s28.334 0.833984 41.001 0.500977s23.667 -0.5 33 -0.5c13.333 0 28 0.333008 44 1
s32 0.166992 48 -1.5s31 -5.5 45 -11.5s25.667 -15 35 -27c0 -0.666992 0.166992 -1.5 0.5 -2.5s0.5 -1.83301 0.5 -2.5c0 -2.66699 -1.16699 -5.5 -3.5 -8.5s-4.83301 -5.5 -7.5 -7.5s-5.66699 -3.83301 -9 -5.5s-6 -2.5 -8 -2.5c-1.33301 0 -5 0.5 -11 1.5l-18.5 3
c-6.33301 1 -12.333 2 -18 3s-9.16699 1.5 -10.5 1.5s-6.5 0.166992 -15.5 0.5s-18.833 0.666016 -29.5 0.999023s-21.334 0.5 -32.001 0.5h-25h-18c-7.33301 0 -14.833 -0.166992 -22.5 -0.5s-14.5 -0.666016 -20.5 -0.999023s-9.33301 -0.5 -10 -0.5l-30 -9
c-2 -11.333 -6 -23.833 -12 -37.5s-12.5 -27.5 -19.5 -41.5s-13 -27.5 -18 -40.5s-7.5 -24.167 -7.5 -33.5c0 -1.33301 0.333008 -3.33301 1 -6v-4c36.667 -6 72.167 -15.333 106.5 -28s65.166 -29.334 92.499 -50.001s49 -46.167 65 -76.5s24 -66.833 24 -109.5
c2.66699 -25.333 -1.83301 -48.5 -13.5 -69.5s-27.334 -39.333 -47.001 -55s-41.834 -28.167 -66.501 -37.5s-48 -14.666 -70 -15.999c-15.333 0 -33.166 0.333008 -53.499 1s-41 2.66699 -62 6s-41.667 8.16602 -62 14.499s-38.333 14.833 -54 25.5s-28.334 24 -38.001 40
s-14.5 35.333 -14.5 58z" />
    <glyph glyph-name="six" unicode="6" horiz-adv-x="451" 
d="M19 212c0 26 4.16309 53.8311 12.4961 83.498s19.833 58.834 34.5 87.501s32.334 56.334 53.001 83.001s43.167 50.5 67.5 71.5s50 38.333 77 52s54.5 21.834 82.5 24.501c6.66699 0.666992 14.334 0.166992 23.001 -1.5s17 -4.5 25 -8.5s14.833 -9 20.5 -15
s8.5 -13.333 8.5 -22c0 -4 -0.5 -8.16699 -1.5 -12.5s-2.5 -8.66602 -4.5 -12.999s-4.5 -8 -7.5 -11s-6.83301 -4.5 -11.5 -4.5c-1.33301 0 -4.33301 1.5 -9 4.5l-15.5 10c-5.66699 3.66699 -10.834 6.83398 -15.501 9.50098l-12 6h-5c-13.333 0 -28.166 -3.5 -44.499 -10.5
s-33.333 -16.667 -51 -29s-34.667 -26.333 -51 -42s-31.166 -32 -44.499 -49s-24 -33.667 -32 -50s-12 -31.166 -12 -44.499v-5c14 5.33301 26.333 9.33301 37 12s21.167 4.66699 31.5 6s20.833 2 31.5 2h36c26 0 50 -4.33301 72 -13s41 -20.834 57 -36.501
s28.667 -34.334 38 -56.001s14 -45.834 14 -72.501c0 -30.667 -7 -56.834 -21 -78.501s-32.167 -39.167 -54.5 -52.5s-47.166 -23 -74.499 -29s-54.666 -9 -81.999 -9c-30.667 0 -56.834 6.16699 -78.501 18.5s-39.5 28.5 -53.5 48.5s-24.167 42.667 -30.5 68
s-9.5 51.333 -9.5 78zM67.9961 191.998c8.66699 -41.333 24.832 -72.001 48.499 -92.001s53.5 -31.333 89.5 -34c18.667 0 37.334 1.66699 56.001 5s35.667 9.33301 51 18s27.833 20.334 37.5 35.001s14.5 33.334 14.5 56.001c0 12 -3.83301 25 -11.5 39
s-17.167 27 -28.5 39s-23.833 21.833 -37.5 29.5s-26.5 11.5 -38.5 11.5c-24 0 -47.333 -2.16699 -70 -6.5s-42.667 -10.833 -60 -19.5s-30.833 -19.834 -40.5 -33.501s-13.167 -29.5 -10.5 -47.5z" />
    <glyph glyph-name="seven" unicode="7" horiz-adv-x="422" 
d="M183 29c9.33301 36.667 17.6729 71.3359 25.0059 104.003s11 67.334 11 104.001c-22 0 -45 1 -69 3s-46 3 -66 3c-7.33301 13.333 -9.83301 23.5 -7.5 30.5s7.5 12.167 15.5 15.5s18 5.16602 30 5.49902s24.833 0.333008 38.5 0s26.667 -0.5 39 -0.5s22.5 1.33301 30.5 4
l2 3c0.666992 2 1.5 4.66699 2.5 8s2 6.5 3 9.5s2.16699 5.5 3.5 7.5c3.33301 13.333 6 26 8 38s3.16699 24.5 3.5 37.5s0.166016 26.667 -0.500977 41s-1.33398 30.166 -2.00098 47.499c-12.667 1.33301 -27.834 1.66602 -45.501 0.999023l-54.5 -2
c-18.667 -0.666992 -36.667 -0.666992 -54 0s-31.833 3 -43.5 7s-19.334 10 -23.001 18s-0.833984 19.333 8.49902 34c12.667 -1.33301 29.834 -3 51.501 -5s45.167 -3.5 70.5 -4.5s51 -1.66699 77 -2s49.667 0.166992 71 1.5v-14.5v-22v-21.5v-14
c0 -29.333 -1.66699 -58 -5 -86s-5 -56 -5 -84h30c12 0 23.667 -1.16699 35 -3.5s21 -6.66602 29 -12.999s12 -16.166 12 -29.499c0 -6.66699 -1 -13.334 -3 -20.001s-7.33301 -10 -16 -10c-6.66699 0 -13.5 1 -20.5 3s-13.833 4.66699 -20.5 8s-13.334 6 -20.001 8
s-13.667 3 -21 3h-9.5c-3.66699 0 -5.5 -0.333008 -5.5 -1l-47 -221c-2.66699 -8.66699 -6.83398 -14.334 -12.501 -17.001s-11.167 -4 -16.5 -4c-8.66699 0 -15 3.16699 -19 9.5s-7.33301 13.166 -10 20.499z" />
    <glyph glyph-name="eight" unicode="8" horiz-adv-x="384" 
d="M49 221c6.66699 14 15.666 27.668 26.999 41.001c12 14.667 25.333 30 40 46v2v1v1v3v2c-9.33301 8 -19.833 16 -31.5 24s-22.5 16.667 -32.5 26s-18.333 19.333 -25 30s-9.33398 22.667 -8.00098 36c-4 8 -4.5 17.5 -1.5 28.5s8.5 22.5 16.5 34.5s17.667 23.667 29 35
s23.333 21.333 36 30s25.334 15.667 38.001 21c12.667 4 24.334 5.33301 35.001 4c12.667 0 26.334 -2.16699 41.001 -6.5s28.334 -10.666 41.001 -18.999s23.334 -18.5 32.001 -30.5c8 -12 12 -25.333 12 -40c0 -17.333 -4.33301 -33 -13 -47s-18.667 -27.667 -30 -41
s-21.333 -26.333 -30 -39s-13 -26.334 -13 -41.001c0 -7.33301 3.5 -15.166 10.5 -23.499s15.833 -17 26.5 -26l35 -29.5c12.667 -10.667 24.167 -22.334 34.5 -35.001s19.166 -26.667 26.499 -42c7.33301 -14.667 11 -31.334 11 -50.001c0 -36 -10 -64.667 -30 -86
c-20 -20.667 -48 -31 -84 -31c-26.667 0 -53.334 6 -80.001 18s-49.834 28.167 -69.501 48.5s-34 43.833 -43 70.5s-9.16699 55 -0.5 85zM103.999 177.001c0 -17.333 3.5 -33.833 10.5 -49.5s16.5 -29.5 28.5 -41.5s25.833 -21.667 41.5 -29s32.5 -11 50.5 -11
c6.66699 0 14.334 1.33301 23.001 4s16.5 6.33398 23.5 11.001s13.167 10.334 18.5 17.001s8 14 8 22c0 19.333 -4.16699 38.166 -12.5 56.499s-19 35.166 -32 50.499s-27.5 29 -43.5 41s-32 22.333 -48 31c-0.666992 0 -2 0.333008 -4 1h-4
c-6.66699 0 -13.834 -4.16699 -21.501 -12.5s-14.167 -18.333 -19.5 -30s-9.83301 -23.167 -13.5 -34.5s-5.5 -20 -5.5 -26zM67.999 442.001c-2 -9.33301 0.499023 -18.668 7.49902 -28.001s15.5 -18 25.5 -26s20.333 -14.667 31 -20l22 -12
c2.66699 2.66699 7.66699 7.33398 15 14.001s15 14.167 23 22.5s15 16.666 21 24.999s9 14.833 9 19.5c6.66699 6 11.5 13.833 14.5 23.5s3 19 0 28s-9.66699 17 -20 24s-25.166 10.833 -44.499 11.5c-13.333 0 -25.5 -2.66699 -36.5 -8s-20.833 -12.166 -29.5 -20.499
s-16.167 -17.333 -22.5 -27s-11.5 -18.5 -15.5 -26.5z" />
    <glyph glyph-name="nine" unicode="9" horiz-adv-x="308" 
d="M10 452c0 22 3.33301 42.834 10 62.501s16.334 37 29.001 52s28 26.833 46 35.5s38.333 13 61 13c18.667 0 36.5 -3.5 53.5 -10.5s32 -16.5 45 -28.5s23.5 -26.333 31.5 -43s12 -34.334 12 -53.001c-6 -27.333 -10.833 -56.833 -14.5 -88.5s-7 -63.5 -10 -95.5
s-5 -63.167 -6 -93.5s-1.5 -57.666 -1.5 -81.999s0.333008 -44.833 1 -61.5s2.33398 -27.667 5.00098 -33c0 -8 -3.66699 -13 -11 -15s-17 -3 -29 -3c-7.33301 0 -12.333 7 -15 21s-4.33398 31.5 -5.00098 52.5s-0.5 44 0.5 69s1.5 48.333 1.5 70s-0.833008 39.667 -2.5 54
s-4.83398 22.166 -9.50098 23.499l-70.5 12c-23 4 -43.5 11 -61.5 21s-32.5 24.333 -43.5 43s-16.5 44.667 -16.5 78zM67 459.001c0 -12 1.83301 -24.1709 5.5 -36.5039s9.16699 -23.666 16.5 -33.999s16.333 -18.666 27 -24.999s23 -9.5 37 -9.5
c6.66699 0 13.5 0.333008 20.5 1s13.5 3.66699 19.5 9c0.666992 7.33301 3 19 7 35s8.33301 32.333 13 49l13 45.5c4 13.667 6 21.834 6 24.501c0 6.66699 -2.5 13 -7.5 19s-11 11.333 -18 16s-14.5 8.33398 -22.5 11.001s-14.667 4 -20 4
c-33.333 0 -57.833 -10.167 -73.5 -30.5s-23.5 -46.5 -23.5 -78.5z" />
    <glyph glyph-name="colon" unicode=":" horiz-adv-x="87" 
d="M20 100c0 8 3 14.332 9 18.999s12.667 7 20 7c8 0 13.167 -2.33301 15.5 -7s3.5 -11 3.5 -19c0 -9.33301 -1.83301 -15.666 -5.5 -18.999s-10.5 -5 -20.5 -5c-14.667 -0.666992 -22 7.33301 -22 24zM19 321.999c0 5.33301 0.666992 10.668 2 16.001s5.66602 8 12.999 8
c6 0 11.833 -2 17.5 -6s10.5 -8.83301 14.5 -14.5s7.33301 -11.834 10 -18.501c1.33301 -6.66699 1.33301 -13 0 -19c0 -1.33301 -2.33301 -4.33301 -7 -9l-11 -11c-1.33301 -0.666992 -2 -0.666992 -2 0h-3c-5.33301 0 -10.166 2 -14.499 6s-8 8.83301 -11 14.5
s-5.16699 11.5 -6.5 17.5s-2 11.333 -2 16z" />
    <glyph glyph-name="semicolon" unicode=";" horiz-adv-x="132" 
d="M-15 -158c0 22 2.66895 40.168 8.00195 54.501s11.5 27.833 18.5 40.5l21 40c7 14 12.5 31.333 16.5 52c1.33301 6.66699 1.83301 15.167 1.5 25.5s0.166992 21.166 1.5 32.499s3.66602 22.333 6.99902 33s9 19 17 25c14 -8.66699 22.5 -20.167 25.5 -34.5
s4.5 -28.5 4.5 -42.5c0 -10.667 -1 -24.667 -3 -42s-5 -35.5 -9 -54.5s-9.16699 -38 -15.5 -57s-13.333 -36.167 -21 -51.5s-16.5 -27.666 -26.5 -36.999s-20.333 -14 -31 -14c-4.66699 0 -8.16699 1 -10.5 3s-3.83301 4.66699 -4.5 8s-0.833984 6.66602 -0.500977 9.99902
s0.5 6.33301 0.5 9zM20.002 384.001c-0.666992 8 2.5 12.8311 9.5 14.498s14.333 1.66699 22 0s14.334 -4.16699 20.001 -7.5s7.16699 -5.66602 4.5 -6.99902c5.33301 -13.333 8.5 -24.333 9.5 -33s0.333008 -16 -2 -22s-5.5 -10.667 -9.5 -14s-8 -5.66602 -12 -6.99902
c-9.33301 0 -17 2.33301 -23 7s-10.667 10.667 -14 18s-5.33301 15.333 -6 24s-0.333984 17.667 0.999023 27z" />
    <glyph glyph-name="less" unicode="&#x3c;" horiz-adv-x="499" 
d="M77 183c1.33301 0.666992 6.66895 4.50488 16.002 11.5049s21.666 15.667 36.999 26l51 35.5l56.5 40l54.5 38c17.333 12 32.333 22 45 30c6.66699 5.33301 14.5 10.666 23.5 15.999l27.5 16c9.33301 5.33301 18.666 10.166 27.999 14.499s18 8.16602 26 11.499
c1.33301 -1.33301 3.5 -3.16602 6.5 -5.49902s6 -5 9 -8l8.5 -8.5c2.66699 -2.66699 4.33398 -4.66699 5.00098 -6c0 -0.666992 -4 -4 -12 -10s-18.333 -13.167 -31 -21.5l-41.5 -28l-43 -29l-36 -23.5c-10.333 -6.66699 -16.5 -11.334 -18.5 -14.001
c-14.667 -10 -30.167 -19.833 -46.5 -29.5s-32.5 -20 -48.5 -31s-31.667 -22.5 -47 -34.5s-29 -25 -41 -39c1.33301 -2.66699 6.33301 -5.5 15 -8.5s19 -5.83301 31 -8.5s24.833 -5.16699 38.5 -7.5l39 -6.5c12.333 -2 23 -3.66699 32 -5s14.833 -2 17.5 -2l39 -6
c17.333 -2.66699 34.666 -6.66699 51.999 -12s32.5 -12.333 45.5 -21s19.5 -19.667 19.5 -33c0 -16 -8.66699 -24 -26 -24c-6.66699 0 -13.5 1.33301 -20.5 4s-14 5.5 -21 8.5s-13.833 6.16699 -20.5 9.5s-13.334 5.66602 -20.001 6.99902
c-5.33301 1.33301 -14.666 2.66602 -27.999 3.99902s-29 3 -47 5s-37.5 4.33301 -58.5 7s-41.833 5.5 -62.5 8.5s-40 6.66699 -58 11s-32.833 9 -44.5 14s-19.667 10.5 -24 16.5s-2.5 13 5.5 21z" />
    <glyph glyph-name="equal" unicode="=" horiz-adv-x="537" 
d="M20 172c0 1.33301 1.16797 3.5 3.50098 6.5s4.16602 4.5 5.49902 4.5c28.667 2 53.834 3.66699 75.501 5s42.5 2.33301 62.5 3s40.167 1.16699 60.5 1.5s43.166 0.5 68.499 0.5c10.667 0 25.334 0.666992 44.001 2s37.5 1.5 56.5 0.5s36.333 -4.5 52 -10.5
s26.167 -16.333 31.5 -31l-38 -20h-366c-8.66699 0 -16.334 0.333008 -23.001 1s-12.5 2.16699 -17.5 4.5s-8.83301 6 -11.5 11s-4 12.167 -4 21.5zM406.001 346c-14.667 0 -30.3359 -1.00195 -47.0029 -3.00195s-37.5 -4.16699 -62.5 -6.5s-56.667 -4 -95 -5
s-87.166 -0.166992 -146.499 2.5c-8 0 -16 1.66699 -24 5s-12 10.333 -12 21c5.33301 8.66699 14.833 15.334 28.5 20.001s30.667 8.16699 51 10.5s42.666 3.83301 66.999 4.5s49.5 0.833984 75.5 0.500977l78 -1c26 -0.333008 51 -0.5 75 -0.5h34.5
c13 0 25.5 -1.83301 37.5 -5.5s22.167 -9.5 30.5 -17.5s12.5 -19.333 12.5 -34c0 -1.33301 -2.5 -4.5 -7.5 -9.5s-8.83301 -8.5 -11.5 -10.5l-2 -1c-1.33301 -0.666992 -2.66602 -0.666992 -3.99902 0c-6.66699 0 -13.167 1.66699 -19.5 5l-19 10.5
c-6.33301 3.66699 -12.666 7 -18.999 10s-13.166 4.5 -20.499 4.5z" />
    <glyph glyph-name="greater" unicode="&#x3e;" horiz-adv-x="413" 
d="M28 34c1.33301 6 7.83008 14.167 19.4971 24.5s26 21.666 43 33.999l57 40l61.5 42.5c20 14 38.833 28 56.5 42s31.5 27 41.5 39s15.667 22.667 17 32s-4 16 -16 20c-12 0.666992 -26.833 2.83398 -44.5 6.50098s-36.334 9 -56.001 16s-39.5 15 -59.5 24
s-38.333 18.5 -55 28.5s-30.667 20 -42 30s-18.666 19.667 -21.999 29c0 0.666992 -0.166992 2.16699 -0.5 4.5s-0.5 4.16602 -0.5 5.49902c0 8.66699 3.33301 14 10 16c5.33301 2.66699 12 4 20 4c10.667 0 19.834 -2.33301 27.501 -7s14.834 -10.167 21.501 -16.5
l21.5 -20c7.66699 -7 16.167 -12.167 25.5 -15.5c34.667 -13.333 72.167 -26.5 112.5 -39.5s79.833 -22.167 118.5 -27.5c10.667 -3.33301 16.667 -8.16602 18 -14.499s2 -13.5 2 -21.5c2.66699 -12 2 -23 -2 -33s-9.66699 -19.167 -17 -27.5s-15.5 -16.333 -24.5 -24
s-17.167 -15.5 -24.5 -23.5c-3.33301 -2.66699 -12.666 -9.66699 -27.999 -21l-53.5 -40l-65 -47.5l-64 -45.5l-50 -35c-13.667 -9.33301 -21.834 -14 -24.501 -14c-11.333 0 -18.166 3.5 -20.499 10.5s-3.5 15.167 -3.5 24.5z" />
    <glyph glyph-name="question" unicode="?" horiz-adv-x="279" 
d="M182 38c0 12 3.66602 21.5 10.999 28.5s16.666 10.5 27.999 10.5c10.667 0 18.334 -4.83301 23.001 -14.5s7 -19.167 7 -28.5c0 -7.33301 -2.5 -14.833 -7.5 -22.5s-12.5 -11.5 -22.5 -11.5c-13.333 0 -23.166 3.5 -29.499 10.5s-9.5 16.167 -9.5 27.5zM76.999 384
c0 20 3.16602 39.333 9.49902 58s14.166 37 23.499 55s19.333 36 30 54s20.667 36.167 30 54.5s17 37.166 23 56.499s9 39.666 9 60.999c0 34.667 -9.33301 60.5 -28 77.5s-45 25.5 -79 25.5c-13.333 0 -27.333 -3.33301 -42 -10s-25.667 -16 -33 -28
c-4 0.666992 -6.83301 2.66699 -8.5 6s-2.66699 7 -3 11s-0.333008 7.66699 0 11s0.5 5.66602 0.5 6.99902c0 10.667 3.33301 19.834 10 27.501s15 13.834 25 18.501s20.5 8.33398 31.5 11.001s21.167 4 30.5 4c25.333 0 47.5 -5.16699 66.5 -15.5s35 -24 48 -41
s22.833 -36 29.5 -57s10 -42.5 10 -64.5c0 -25.333 -4.16699 -51.666 -12.5 -78.999s-19 -54.166 -32 -80.499s-26.667 -51.666 -41 -75.999l-39.5 -66.5c1.33301 -2.66699 3 -5.66699 5 -9s6.33301 -6.33301 13 -9s16.167 -5.33398 28.5 -8.00098
s28.833 -5.33398 49.5 -8.00098c3.33301 0 6.33301 -1.33301 9 -4s4.83398 -5.83398 6.50098 -9.50098s2.83398 -7.5 3.50098 -11.5c0.666992 -4.66699 1 -8.33398 1 -11.001c0 -6 -2.16699 -10.167 -6.5 -12.5s-9.83301 -4 -16.5 -5s-13.167 -1.33301 -19.5 -1
s-11.5 0.5 -15.5 0.5c-10 0 -21.667 0.833008 -35 2.5s-26 5 -38 10s-22.167 11.833 -30.5 20.5s-12.5 20.334 -12.5 35.001z" />
    <glyph glyph-name="at" unicode="@" horiz-adv-x="835" 
d="M384 0c-54.667 22.667 -104.336 50.834 -149.003 84.501s-82.667 72.167 -114 115.5s-56 91.5 -74 144.5s-27.333 110.5 -28 172.5c0 31.333 4.5 63 13.5 95s21.667 62.667 38 92s36 56.833 59 82.5s48.167 47.834 75.5 66.501s56.666 33.5 87.999 44.5
s64.333 16.5 99 16.5c21.333 0 44 -3.16699 68 -9.5s48.5 -15 73.5 -26s49.5 -23.833 73.5 -38.5s46.667 -30.167 68 -46.5s40.833 -33.333 58.5 -51s32.5 -34.5 44.5 -50.5c6.66699 -9.33301 12 -21.333 16 -36s7 -29.5 9 -44.5s3.16699 -30 3.5 -45s0.5 -27.5 0.5 -37.5
c0 -15.333 -1.16699 -32.833 -3.5 -52.5s-6 -39.5 -11 -59.5s-11.667 -39.5 -20 -58.5s-18.5 -35.833 -30.5 -50.5s-26 -26.334 -42 -35.001s-34.667 -13 -56 -13c-9.33301 0 -18.666 1.5 -27.999 4.5s-18 7.33301 -26 13s-15.667 12 -23 19s-13.666 13.833 -18.999 20.5
c-9.33301 -12 -20.666 -24.167 -33.999 -36.5s-27.5 -23.666 -42.5 -33.999s-30.667 -18.666 -47 -24.999s-32.833 -9.5 -49.5 -9.5c-24 0 -45.5 4.5 -64.5 13.5s-35.167 21.333 -48.5 37s-23.666 33.5 -30.999 53.5s-11 41 -11 63c0 34 6 67 18 99s28.833 60.333 50.5 85
s47.667 44.334 78 59.001s63.5 22 99.5 22c10.667 0 26 -2.5 46 -7.5s39.667 -12.167 59 -21.5s36.333 -20.5 51 -33.5s22 -27.5 22 -43.5c0 -9.33301 -3 -18.5 -9 -27.5s-13 -15.833 -21 -20.5c-9.33301 16.667 -19.333 31.5 -30 44.5s-22.334 24 -35.001 33s-27 16 -43 21
s-34 7.5 -54 7.5c-30 0 -56.5 -6.33301 -79.5 -19s-42.167 -29.334 -57.5 -50.001s-27 -44 -35 -70s-12 -52 -12 -78c0 -16 2 -30.833 6 -44.5s10 -25.334 18 -35.001s18.667 -17.334 32 -23.001s28.666 -8.5 45.999 -8.5c13.333 0 26.833 3 40.5 9s27 13.833 40 23.5
s24.5 20.167 34.5 31.5c10 10.667 18 21.334 24 32.001c-0.666992 2 -1.33398 7.16699 -2.00098 15.5s-1 17.833 -1 28.5s0.333008 22 1 34s2.5 23 5.5 33s7.16699 18.333 12.5 25c6 6.66699 13.667 10 23 10s16.666 -3.33301 21.999 -10s9.33301 -15 12 -25
s4.66699 -21 6 -33s1.83301 -23.333 1.5 -34s-1 -20 -2 -28s-1.5 -13.333 -1.5 -16c1.33301 -1.33301 4.33301 -4.83301 9 -10.5s10.334 -11.5 17.001 -17.5s13.667 -11 21 -15s13.666 -5.33301 18.999 -4c18.667 5.33301 34.667 16.666 48 33.999s24.333 36.833 33 58.5
s15.167 43.167 19.5 64.5s6.5 38.666 6.5 51.999c1.33301 37.333 -4 71 -16 101s-28.167 57 -48.5 81s-43.833 44.833 -70.5 62.5s-54.167 33 -82.5 46s-56.333 23.333 -84 31s-52.167 13.167 -73.5 16.5c-41.333 -2.66699 -81.666 -14.5 -120.999 -35.5
s-74.333 -47.333 -105 -79s-55.167 -67.334 -73.5 -107.001s-27.5 -80.167 -27.5 -121.5c0 -35.333 5.33301 -71.666 16 -108.999s25.5 -73.666 44.5 -108.999s41.667 -68.5 68 -99.5s55.333 -58.333 87 -82s64.834 -42.167 99.501 -55.5s70.667 -20 108 -20
c24.667 0 48.834 2.66699 72.501 8s47.167 11.166 70.5 17.499s46.666 12.166 69.999 17.499s47 8 71 8c6.66699 -11.333 6 -22 -2 -32s-21 -19 -39 -27s-40.167 -15 -66.5 -21s-54.666 -10.667 -84.999 -14s-61.666 -5.16602 -93.999 -5.49902s-63.5 0.5 -93.5 2.5z" />
    <glyph glyph-name="A" unicode="A" horiz-adv-x="576" 
d="M470 23c0 11.333 1.00195 22.833 3.00195 34.5s4.33301 23.334 7 35.001s5 23.5 7 35.5s3 24 3 36c0 18.667 -0.666992 38.667 -2 60s-4.66602 41.666 -9.99902 60.999c-18.667 -4 -37.834 -5.5 -57.501 -4.5s-39.334 2.83301 -59.001 5.5l-59.5 8
c-20 2.66699 -40 4 -60 4h-28.5c-13 0 -26.333 -0.333008 -40 -1s-26.167 -1.66699 -37.5 -3c-10.667 -1.33301 -17.334 -3.33301 -20.001 -6l-10 -9c0 -0.666992 -0.166992 -2.16699 -0.5 -4.5s-0.5 -5.16602 -0.5 -8.49902s-0.166992 -6.66602 -0.5 -9.99902
s-0.5 -6 -0.5 -8c0 -19.333 1.5 -38.833 4.5 -58.5s6.33301 -38.834 10 -57.501l10.5 -56c3.33301 -18.667 5 -37.334 5 -56.001v-10c-10 -9.33301 -19 -12.5 -27 -9.5s-15.167 10.333 -21.5 22s-11.666 26.667 -15.999 45s-7.66602 38.333 -9.99902 60
s-3.66602 43.834 -3.99902 66.501s0.5 44.667 2.5 66c-1.33301 1.33301 -4 4.16602 -8 8.49902s-8 9 -12 14l-12 14.5c-2.66699 4.66699 -4.66699 8.33398 -6 11.001l-1 2v2c0 4.66699 1.16699 8 3.5 10s5.16602 3.5 8.49902 4.5s6.66602 2.16699 9.99902 3.5
s6 3.66602 8 6.99902v5v8.5v8.5v5c2.66699 28 4.83398 57.833 6.50098 89.5s4.66699 62.667 9 93s11 59.5 20 87.5s21.5 52.667 37.5 74s36.333 38.333 61 51s55.667 19 93 19c29.333 0 55.833 -7 79.5 -21s44.667 -32.833 63 -56.5s34.333 -51 48 -82
s25.167 -63.833 34.5 -98.5s17.166 -69.667 23.499 -105s11.166 -69 14.499 -101s5.66602 -61.333 6.99902 -88s2 -48.667 2 -66v-34c0 -10 -0.5 -19.833 -1.5 -29.5l-3 -30.5c-1 -10.667 -2.83301 -23 -5.5 -37c-5.33301 -7.33301 -12.166 -14.166 -20.499 -20.499
s-17.5 -9.5 -27.5 -9.5c-8.66699 0 -14.167 2.16699 -16.5 6.5s-3.5 10.166 -3.5 17.499zM446.002 326c2 0 4.50098 0.167969 7.50098 0.500977s5.5 2 7.5 5s4 7.83301 6 14.5s3.66699 16 5 28c0 19.333 -1.83301 41.5 -5.5 66.5s-9.16699 50.833 -16.5 77.5
s-16.833 52.667 -28.5 78s-25.5 48 -41.5 68s-34.5 36 -55.5 48s-44.5 18 -70.5 18c-27.333 0 -50.333 -7.16699 -69 -21.5s-33.834 -33 -45.501 -56s-20.667 -48.833 -27 -77.5s-10.833 -57.334 -13.5 -86.001s-4.16699 -55.667 -4.5 -81s-0.5 -46 -0.5 -62z" />
    <glyph glyph-name="B" unicode="B" horiz-adv-x="759" 
d="M308 29l-15.502 7.99805c-9 4.66699 -18.333 10.334 -28 17.001s-18.167 13.667 -25.5 21s-10.333 14.333 -9 21c2.66699 7.33301 6.83398 12.5 12.501 15.5s11.334 5.83301 17.001 8.5s10.5 6.33398 14.5 11.001s5.66699 12.334 5 23.001l-31 210.5
c-9.33301 61 -19.166 112.167 -29.499 153.5s-21.666 72.666 -33.999 93.999s-27.5 32 -45.5 32h-1h-2h-2c-5.33301 -3.33301 -12.5 -6.83301 -21.5 -10.5s-18.667 -7.33398 -29 -11.001s-20.5 -7 -30.5 -10s-18 -5.5 -24 -7.5c-1.33301 0 -3 -0.333008 -5 -1h-4v30
c0 6.66699 6 13 18 19s27.167 11.833 45.5 17.5s38.5 11 60.5 16s43.167 9.16699 63.5 12.5s38.5 6 54.5 8s26.667 3 32 3c12 0 26.333 -1.33301 43 -4s34.167 -6.66699 52.5 -12s36.333 -12.166 54 -20.499s33.5 -17.833 47.5 -28.5s25.333 -22.667 34 -36
c8.66699 -12.667 13 -27 13 -43c0 -17.333 -3.5 -33.333 -10.5 -48s-15 -27.834 -24 -39.501l-24 -31c-7 -9 -10.5 -17.5 -10.5 -25.5c0 -1.33301 6.5 -5.16602 19.5 -11.499s29.667 -15.166 50 -26.499s42.166 -25.333 65.499 -42s45.166 -35.167 65.499 -55.5
s37.166 -42.333 50.499 -66s20 -48.834 20 -75.501c0 -28 -6.16699 -51.333 -18.5 -70s-28.166 -33.5 -47.499 -44.5s-40.833 -19 -64.5 -24s-46.5 -7.5 -68.5 -7.5s-41.5 0.5 -58.5 1.5s-34 2.66699 -51 5s-35.167 5.33301 -54.5 9s-42.333 8.5 -69 14.5zM336.998 147.998
c-8.66699 -13.333 -11.335 -24.998 -8.00195 -34.998s10.666 -18.667 21.999 -26s25 -13.166 41 -17.499s32 -7.66602 48 -9.99902s30.667 -3.5 44 -3.5s23.333 0.333008 30 1c20 0 39.667 0.833008 59 2.5s36.333 6 51 13s26.334 17.167 35.001 30.5s13 31.666 13 54.999
c0 32.667 -8.5 59.834 -25.5 81.501s-38.333 40.167 -64 55.5s-53.5 28.166 -83.5 38.499l-84 29c-26 9 -47.333 18.5 -64 28.5s-25 22 -25 36c0 7.33301 3.83301 13.166 11.5 17.499s17.334 8.16602 29.001 11.499l37.5 10.5c13.333 3.66699 26 9 38 16
s21.833 15.833 29.5 26.5s11.5 25 11.5 43c0 14.667 -4 27.667 -12 39s-18.167 21 -30.5 29s-25.666 14 -39.999 18s-27.833 6 -40.5 6c-18.667 0 -38 -2 -58 -6s-37.333 -12 -52 -24l27 -112c10 -40.667 19.5 -81.834 28.5 -123.501s16.5 -82.5 22.5 -122.5s9 -76 9 -108z
" />
    <glyph glyph-name="C" unicode="C" horiz-adv-x="528" 
d="M19 277c0 26.667 4.33789 54.501 13.0049 83.501s20.667 57.833 36 86.5s33.5 56 54.5 82s44.167 49 69.5 69s52 36 80 48c28 11.333 56 17 84 17c16 0 28 -6 36 -18s12 -25.333 12 -40c0 -8.66699 -1.66699 -18.667 -5 -30s-8.33301 -22.5 -15 -33.5
s-14.167 -20.333 -22.5 -28s-17.5 -11.5 -27.5 -11.5c0 6.66699 1 13.167 3 19.5s4.66699 12.333 8 18s6 11.5 8 17.5s3 12.667 3 20c0 9.33301 -3.83301 14.833 -11.5 16.5s-15.167 2.5 -22.5 2.5h-8h-6c-30.667 -12 -60.667 -27.833 -90 -47.5
s-55.333 -42.334 -78 -68.001s-40.667 -54 -54 -85s-20 -64.167 -20 -99.5c0 -22.667 2.16699 -47.5 6.5 -74.5s11.833 -52 22.5 -75s25.167 -42.167 43.5 -57.5s41.166 -23 68.499 -23c22.667 0 45.167 2.16699 67.5 6.5s44.666 9 66.999 14s44.666 9.5 66.999 13.5
s44.833 6 67.5 6c5.33301 0 10.666 -0.666992 15.999 -2s8 -5.33301 8 -12c0 -3.33301 -2 -7.5 -6 -12.5s-9 -9.83301 -15 -14.5s-11.667 -8.33398 -17 -11.001l-10 -5l-231 -49c-1.33301 0 -4.16602 -0.166992 -8.49902 -0.5s-7.83301 -0.5 -10.5 -0.5
c-22 0 -41.833 4.5 -59.5 13.5s-33.334 20.667 -47.001 35s-25.334 31 -35.001 50s-17.667 38.833 -24 59.5s-10.833 41.334 -13.5 62.001s-4 40 -4 58z" />
    <glyph glyph-name="D" unicode="D" horiz-adv-x="759" 
d="M249 62c0 5.33301 0.837891 10.8311 2.50488 16.498s5.83398 8.5 12.501 8.5c3.33301 0 11.833 -1.83301 25.5 -5.5l44.5 -12.5c16 -4.66699 31.667 -9 47 -13s26 -6.33301 32 -7h5c29.333 0 59 5.5 89 16.5s57.333 26.5 82 46.5s44.834 43.167 60.501 69.5
s23.5 54.833 23.5 85.5c0 24 -4.66699 47.5 -14 70.5s-21.833 45.167 -37.5 66.5s-34 41 -55 59s-43.167 34.167 -66.5 48.5s-47 26.5 -71 36.5s-47 17 -69 21c0.666992 -42.667 4.16699 -83 10.5 -121l19 -109.5c6.33301 -35 11.166 -69.167 14.499 -102.5
c4 -33.333 4 -66.666 0 -99.999v-12.5c0 -4.33301 -0.833008 -8.66602 -2.5 -12.999s-4.33398 -7.83301 -8.00098 -10.5s-8.16699 -4 -13.5 -4c-10 -5.33301 -17.667 -3.33301 -23 6s-9.33301 23.5 -12 42.5s-4.33398 41.5 -5.00098 67.5s-1.83398 53.167 -3.50098 81.5
s-3.83398 56.166 -6.50098 83.499s-7 52.333 -13 75l-5 31c-2 12.667 -4.66699 25.834 -8 39.501s-7.16602 26.334 -11.499 38.001s-8.83301 20.167 -13.5 25.5c-48 0 -86.333 -1.5 -115 -4.5s-51.5 -6.5 -68.5 -10.5s-29.333 -8.16699 -37 -12.5
s-14.5 -7.83301 -20.5 -10.5l-2 -1c-1.33301 -0.666992 -2.33301 -1 -3 -1c-1.33301 0 -2 0.333008 -2 1c-0.666992 0.666992 -1.33398 1 -2.00098 1c-0.666992 0.666992 -1.33398 2 -2.00098 4l-2.5 7.5c-1 3 -2 6.16699 -3 9.5s-1.5 5.66602 -1.5 6.99902v4
c0 9.33301 4.83301 17.333 14.5 24s21.667 12.334 36 17.001s30.166 8.5 47.499 11.5s33.5 5.16699 48.5 6.5s27.667 2.5 38 3.5s15.833 1.5 16.5 1.5c34 0 70.333 -3.83301 109 -11.5s76.834 -18.834 114.501 -33.501s73.667 -32.834 108 -54.501
s64.666 -46.5 90.999 -74.5s47.333 -59.333 63 -94s23.5 -72 23.5 -112c0 -36.667 -5.66699 -69.667 -17 -99s-27 -55 -47 -77s-43.333 -40.5 -70 -55.5s-55 -26 -85 -33s-60.833 -10.5 -92.5 -10.5s-62.5 3.66699 -92.5 11c-6 2 -13.333 4.83301 -22 8.5
s-17.167 7.83398 -25.5 12.501s-15.333 10.5 -21 17.5s-8.5 14.833 -8.5 23.5z" />
    <glyph glyph-name="E" unicode="E" horiz-adv-x="537" 
d="M94 569c-2.66699 0 -5.00293 0.334961 -7.00293 1.00195c3.33301 -6.66699 5 -11.334 5 -14.001v-181c3.33301 -5.33301 13 -7.83301 29 -7.5s35 1.5 57 3.5s45.333 5.16699 70 9.5l69 12c21.333 3.66699 39 6.83398 53 9.50098
c14.667 2.66699 22.667 3.33398 24 2.00098c2 0 5.83301 0.166992 11.5 0.5s11.834 0.666016 18.501 0.999023s12.667 0.666016 18 0.999023s9 0.5 11 0.5c0 -16 -8.83301 -29 -26.5 -39s-39.834 -17.667 -66.501 -23s-55.5 -9.5 -86.5 -12.5s-60 -5.5 -87 -7.5
s-49.833 -4.33301 -68.5 -7c-19.333 -1.33301 -29.666 -4.66602 -30.999 -9.99902c-4 -10.667 -6.83301 -22.667 -8.5 -36s-2.66699 -26.833 -3 -40.5s-0.333008 -27.334 0 -41.001s0.5 -25.834 0.5 -36.501v-14v-20.5v-20v-12.5c2.66699 -6.66699 8.66699 -11.667 18 -15
s19.333 -5.5 30 -6.5s20.667 -1.16699 30 -0.5c10.667 0.666992 18 1 22 1c22.667 0 45.334 1.16699 68.001 3.5l67.5 7l67 7c22.333 2.33301 44.833 3.5 67.5 3.5h6c1.33301 -0.666992 3.33301 -1.33398 6 -2.00098s5.5 -1.66699 8.5 -3s5.5 -2.66602 7.5 -3.99902
c2.66699 -1.33301 4.66699 -2 6 -2c1.33301 -0.666992 3.33301 -2 6 -4c2.66699 -1.33301 4 -2.66602 4 -3.99902c0 -12.667 -7 -23.167 -21 -31.5s-31.667 -15 -53 -20s-44.666 -8.66699 -69.999 -11s-49.666 -4 -72.999 -5s-43.333 -1.5 -60 -1.5h-32
c-26.667 0 -50.167 2.33301 -70.5 7s-37.333 12.5 -51 23.5s-23.834 25.833 -30.501 44.5c-6.66699 20 -10 44 -10 72c0 25.333 1.83301 50.666 5.5 75.999s5.5 51 5.5 77c0 10.667 -1.66699 19.667 -5 27s-5 15.333 -5 24v6c1.33301 1.33301 3.66602 4.5 6.99902 9.5
s5.66602 8.16699 6.99902 9.5v221c0 10.667 1.16699 18.667 3.5 24s8 9 17 11s21.667 2.66699 38 2s38.666 -1.66699 66.999 -3s63.166 -2.33301 104.499 -3c42.667 -0.666992 93.334 -0.666992 152.001 0c6.66699 -2.66699 13.334 -5.5 20.001 -8.5
s12.834 -6.83301 18.501 -11.5s10.167 -10 13.5 -16s5 -13.333 5 -22c0 -2 -1.16699 -4.33301 -3.5 -7s-4.16602 -3.66699 -5.49902 -3l-48 19z" />
    <glyph glyph-name="F" unicode="F" horiz-adv-x="527" 
d="M194 19c-4 18 -7.00586 33.0098 -9.00586 45.0098s-3.5 22.833 -4.5 32.5s-1.5 18.5 -1.5 26.5s-0.166992 16.667 -0.5 26s-1.16602 20.166 -2.49902 32.499s-3.33301 27.5 -6 45.5c-2 13.333 -6.66699 22.5 -14 27.5s-15.833 7.66699 -25.5 8
s-19.667 -0.333984 -30 -2.00098s-20 -2.5 -29 -2.5s-16.167 2 -21.5 6c-6 5.33301 -9 14 -9 26c0 1.33301 1.5 3.16602 4.5 5.49902s5.16699 3.5 6.5 3.5c12 1.33301 23.667 2.16602 35 2.49902s21.5 2.16602 30.5 5.49902s16.5 9 22.5 17c5.33301 9.33301 8 22 8 38
c-5.33301 32.667 -7.66602 60.834 -6.99902 84.501s-0.166016 43.167 -2.49902 58.5s-8.16602 25.666 -17.499 30.999c-10 6 -27 7.33301 -51 4h-13.5c-6.33301 0 -13 -0.166992 -20 -0.5s-13.667 -0.5 -20 -0.5h-13.5c-1.33301 -1.33301 -4.5 -3 -9.5 -5
s-8.16699 -3.33301 -9.5 -4h-3c-1.33301 -0.666992 -2.33301 -1 -3 -1l-2 1h-2c-1.33301 1.33301 -3 4.33301 -5 9s-3.33301 8 -4 10v5c9.33301 9.33301 25.666 17.666 48.999 24.999s51 13.666 83 18.999s67 9.33301 105 12s76.167 3.83398 114.5 3.50098
s75.833 -3 112.5 -8s69.334 -12 98.001 -21s52.334 -20.833 71.001 -35.5c18.667 -15.333 29 -33 31 -53c-21.333 0 -42.166 2.66699 -62.499 8s-40.833 11.333 -61.5 18s-41.5 12.667 -62.5 18s-42.833 8 -65.5 8c-5.33301 0 -13.166 0.166992 -23.499 0.5
s-22.166 0.666016 -35.499 0.999023s-27 0 -41 -1s-27 -3 -39 -6s-21.667 -7.33301 -29 -13s-11 -13.167 -11 -22.5c0 -10 -0.666992 -23.667 -2 -41s-1.66602 -35.166 -0.999023 -53.499s3 -35.5 7 -51.5s11.333 -27.667 22 -35h7h11h12h8c50 4 90.5 5 121.5 3
s53.167 -6 66.5 -12s18.166 -12.833 14.499 -20.5s-15 -14.834 -34 -21.501s-45.5 -12.167 -79.5 -16.5s-74.667 -5.83301 -122 -4.5c1.33301 -30 2.66602 -53.5 3.99902 -70.5s2.83301 -30.333 4.5 -40s3.16699 -17.334 4.5 -23.001s3 -12.334 5 -20.001s3.66699 -18 5 -31
s2.66602 -32.167 3.99902 -57.5c-9.33301 1.33301 -18 2.16602 -26 2.49902s-14.833 0.5 -20.5 0.5s-10 0.333008 -13 1s-3.83301 1.66699 -2.5 3z" />
    <glyph glyph-name="G" unicode="G" 
d="M476 45c-2 0 -6.16309 0.171875 -12.4961 0.504883s-10.166 0.5 -11.499 0.5c-18.667 0 -37.834 -2.16699 -57.501 -6.5l-58.5 -13.5l-58.5 -13.5c-19.667 -4.33301 -39.834 -6.5 -60.501 -6.5c-28 0 -53.333 4.83301 -76 14.5s-42 23.167 -58 40.5
s-28.333 37.833 -37 61.5s-13 49.5 -13 77.5c0 29.333 6.33301 57.666 19 84.999s29.667 53.166 51 77.499s45.833 46.666 73.5 66.999s56.5 38 86.5 53s60 27 90 36s58 14.833 84 17.5c13.333 1.33301 26.166 0.166016 38.499 -3.50098s22.833 -8.83398 31.5 -15.501
s15.667 -15.167 21 -25.5s8 -22.166 8 -35.499c-9.33301 0 -18.333 1.16699 -27 3.5s-17.334 5 -26.001 8s-17.667 5.5 -27 7.5s-18.666 3 -27.999 3c-24 0 -49.333 -3.5 -76 -10.5s-52.834 -17.167 -78.501 -30.5s-50 -29.166 -73 -47.499s-43.333 -38.5 -61 -60.5
s-31.667 -45.667 -42 -71s-15.5 -51.333 -15.5 -78c0 -18.667 4.66699 -35.334 14 -50.001s21 -26.834 35 -36.501s29.333 -17 46 -22s33 -7.5 49 -7.5c29.333 0 59.5 0.833008 90.5 2.5s59.167 6.66699 84.5 15s46 21.5 62 39.5s24 43.333 24 76
c0 4 -0.666992 10.333 -2 19c-0.666992 8.66699 -3.66699 15.667 -9 21h-183c-5.33301 0 -10.166 1.33301 -14.499 4s-8.5 6.16699 -12.5 10.5s-7 9 -9 14s-3 9.83301 -3 14.5c0 5.33301 0.666992 10.833 2 16.5s5.33301 8.5 12 8.5s13.334 -1.16699 20.001 -3.5l20 -7
l20 -7c6.66699 -2.33301 13.667 -3.5 21 -3.5c23.333 0 46.333 2 69 6s46 6 70 6c5.33301 0 11 -1.5 17 -4.5s11.333 -6.66699 16 -11s8.66699 -9.5 12 -15.5s5 -11.667 5 -17v-250c1.33301 -1.33301 3.66602 -3.33301 6.99902 -6s6.66602 -5.5 9.99902 -8.5l10 -9
c3.33301 -3 5.66602 -5.16699 6.99902 -6.5c1.33301 -4.66699 0.833008 -9.16699 -1.5 -13.5s-5.5 -8.33301 -9.5 -12s-8.5 -6.66699 -13.5 -9s-9.5 -3.5 -13.5 -3.5c-14 0 -24.833 4.33301 -32.5 13s-13.5 19 -17.5 31s-6.33301 24.5 -7 37.5s-1 24.167 -1 33.5z" />
    <glyph glyph-name="H" unicode="H" horiz-adv-x="537" 
d="M364 337c-6 -2.66699 -14.8301 -6.8291 -26.4971 -12.4961l-40.5 -19l-48 -22l-47.5 -22.5c-15 -7.33301 -28.667 -13.666 -41 -18.999s-21.166 -9.33301 -26.499 -12l2 -200c0 -2 -2.33301 -5.5 -7 -10.5s-8.33398 -8.16699 -11.001 -9.5
c-10.667 -2.66699 -18.167 1.5 -22.5 12.5s-7.33301 25.333 -9 43s-3 36.5 -4 56.5s-3.33301 38.333 -7 55s-9.83398 29.5 -18.501 38.5s-21 10.833 -37 5.5c-0.666992 1.33301 -1.5 3.66602 -2.5 6.99902s-1.5 5.66602 -1.5 6.99902c0 8.66699 2.16699 14.334 6.5 17.001
s9.16602 5.16699 14.499 7.5s10.166 5.33301 14.499 9s6.5 10.5 6.5 20.5c0 26.667 -1 53 -3 79s-4.33301 52.333 -7 79s-5 53.167 -7 79.5s-3 52.5 -3 78.5v10v14.5v14v8.5c2 5.33301 4.83301 8.66602 8.5 9.99902s7.5 2 11.5 2c3.33301 0 7.33301 -0.666992 12 -2
c4 -1.33301 6 -4.66602 6 -9.99902l40 -335c0 -1.33301 1.16699 -4.66602 3.5 -9.99902s4.16602 -8.33301 5.49902 -9h4h5l16 4c8 2 22 7.16699 42 15.5s47.667 21 83 38l143 69.5l4 227c0 4 1.33301 8.5 4 13.5s6 9.5 10 13.5s8 7.16699 12 9.5s8 3.5 12 3.5
c6 0 10.833 -1 14.5 -3s5.5 -7.66699 5.5 -17c0 -2 -1.33301 -5.5 -4 -10.5s-4.33398 -8.16699 -5.00098 -9.5c0 -2.66699 -0.166992 -7.33398 -0.5 -14.001s-0.5 -13.834 -0.5 -21.501v-22v-14.5c0 -56.667 0.666992 -113.334 2 -170.001s4 -113 8 -169l3.5 -35.5
l5.5 -54.5l6 -55.5c2 -17.667 3.66699 -30.167 5 -37.5c0 -1.33301 0.333008 -3.33301 1 -6s1.66699 -5.66699 3 -9s2.33301 -6.33301 3 -9s1.33398 -4.33398 2.00098 -5.00098v-6v-3c-1.33301 -1.33301 -3.33301 -3.16602 -6 -5.49902s-5.5 -4.5 -8.5 -6.5l-8.5 -5.5
c-2.66699 -1.66699 -4.66699 -2.5 -6 -2.5c-9.33301 -2 -17 2 -23 12s-10.667 21.833 -14 35.5s-5.66602 27.167 -6.99902 40.5s-2.33301 22.666 -3 27.999c0 0.666992 -0.166992 5.66699 -0.5 15s-0.833008 21.166 -1.5 35.499s-1.5 30.5 -2.5 48.5s-2.16699 36 -3.5 54
s-2.83301 35 -4.5 51s-3.16699 29.333 -4.5 40z" />
    <glyph glyph-name="I" unicode="I" horiz-adv-x="172" 
d="M96 38c-3.33301 24.667 -6.49902 50.498 -9.49902 77.498s-5.83301 54.167 -8.5 81.5s-5.66699 54.333 -9 81c-3.33301 28 -7 54 -11 78c-2 10 -5.5 23.333 -10.5 40s-9.83301 34.5 -14.5 53.5s-8.83398 38.167 -12.501 57.5s-5.5 37 -5.5 53c8 10.667 16 12.667 24 6
s16 -19.167 24 -37.5s15.833 -41.666 23.5 -69.999s14.667 -58.5 21 -90.5s12.333 -65 18 -99s10.5 -66 14.5 -96s7.33301 -56.667 10 -80s4 -41 4 -53v-12c0 -4 -0.333008 -7.83301 -1 -11.5s-2.5 -7 -5.5 -10s-7.5 -5.16699 -13.5 -6.5
c-4 -1.33301 -8 -0.166016 -12 3.50098s-8 7.83398 -12 12.501s-7.16699 9.16699 -9.5 13.5s-3.83301 7.16602 -4.5 8.49902z" />
    <glyph glyph-name="J" unicode="J" horiz-adv-x="450" 
d="M325 -1c-27.333 5.33301 -52.8359 15.4971 -76.5029 30.4971s-45.667 32.333 -66 52s-40.166 40.667 -59.499 63l-56 67.5l-16 20c-5.33301 6.66699 -10.166 14 -14.499 22s-7.83301 17 -10.5 27s-4 21.333 -4 34c0 12 4.66699 23 14 33c8 9.33301 19.333 14.333 34 15
c7.33301 -4 10 -8.33301 8 -13c-2.66699 -4 -5.33398 -9.33301 -8.00098 -16v-5c0 -17.333 4.5 -36.166 13.5 -56.499s20.667 -40.5 35 -60.5s30.833 -39.5 49.5 -58.5s37.667 -35.667 57 -50s38.166 -25.666 56.499 -33.999s34.833 -12.5 49.5 -12.5
c8 0 14.5 4.5 19.5 13.5s9.16699 20.333 12.5 34s6 28.667 8 45s3.16699 31.833 3.5 46.5s0.5 27.334 0.5 38.001v22v15.5c0 7 -0.166992 13.667 -0.5 20s-0.5 12 -0.5 17v8.5l-53 375c8 20.667 15.833 30 23.5 28s14.834 -11.5 21.501 -28.5s13.167 -39.667 19.5 -68
s12.166 -58.666 17.499 -90.999s10 -65 14 -98s7.16699 -62.667 9.5 -89l5.5 -63.5c0.666992 -16 0.333984 -23.333 -0.999023 -22c0.666992 -10.667 0.833984 -24.5 0.500977 -41.5s-1.5 -35.167 -3.5 -54.5s-5.16699 -38.833 -9.5 -58.5s-10.5 -37.334 -18.5 -53.001
s-18.167 -28.5 -30.5 -38.5s-27.166 -15 -44.499 -15z" />
    <glyph glyph-name="K" unicode="K" horiz-adv-x="480" 
d="M394 10c-10.667 8.66699 -24.3389 18.5 -41.0059 29.5l-53 35.5l-58 39c-20 13.333 -39 26.666 -57 39.999s-34 26.333 -48 39s-25 25 -33 37c-2.66699 -11.333 -3.5 -25.166 -2.5 -41.499s2.66699 -33.166 5 -50.499s4.83301 -34.333 7.5 -51s4 -31.667 4 -45
s-1.66699 -24 -5 -32s-9.66602 -12 -18.999 -12s-17 6.66699 -23 20s-10.667 30.333 -14 51s-5.66602 43.334 -6.99902 68.001s-2 48 -2 70s0.166992 41.333 0.5 58s0.5 27.667 0.5 33c-1.33301 21.333 -3.5 43.666 -6.5 66.999s-6.33301 47 -10 71
s-6.83398 47.667 -9.50098 71s-4 45 -4 65c0 1.33301 0.5 3.5 1.5 6.5s2.5 6 4.5 9s4.5 5.5 7.5 7.5s5.83301 3 8.5 3c6 0 10.5 -2 13.5 -6s5.33301 -8.83301 7 -14.5s2.83398 -11.334 3.50098 -17.001s1.66699 -9.83398 3 -12.501
c2.66699 -10.667 4.66699 -23.334 6 -38.001l4.5 -47.5l5 -51.5c1.66699 -17.333 3.5 -34.333 5.5 -51c8.66699 9.33301 18.834 21.666 30.501 36.999l38.5 50l44.5 55c15.667 18.667 31.5 35.334 47.5 50.001s32 26.5 48 35.5s32 13.167 48 12.5
c4.66699 -4.66699 5.83398 -10.167 3.50098 -16.5s-6.5 -13.5 -12.5 -21.5s-13.333 -16.333 -22 -25l-27 -28c-14 -16.667 -29.167 -33.667 -45.5 -51l-48.5 -52c-16 -17.333 -31 -34.666 -45 -51.999c-14 -16 -25.333 -31.333 -34 -46
c18.667 -26 39.834 -50.167 63.501 -72.5s48.5 -43.5 74.5 -63.5s53 -38.667 81 -56l82 -53c8 -2.66699 15 -6.66699 21 -12s10.5 -11.166 13.5 -17.499s4.33301 -12.333 4 -18s-2.66602 -10.167 -6.99902 -13.5s-10.833 -4.5 -19.5 -3.5s-20 4.83301 -34 11.5z" />
    <glyph glyph-name="L" unicode="L" horiz-adv-x="355" 
d="M19 162l4.50195 79.498c1.66699 29.667 3.83398 59.334 6.50098 89.001s5.66699 58.334 9 86.001s7.33301 51.834 12 72.501s9.66699 36.667 15 48c6.66699 11.333 13.334 15 20.001 11c9.33301 -1.33301 15.333 -8.66602 18 -21.999s3.5 -31 2.5 -53s-3.5 -47 -7.5 -75
s-7.83301 -56.667 -11.5 -86s-6.83398 -58.5 -9.50098 -87.5s-3.33398 -55.5 -2.00098 -79.5c0 -6.66699 1.16699 -13.834 3.5 -21.501s5.5 -14.834 9.5 -21.501s9 -12.667 15 -18c6.66699 -5.33301 13.667 -8 21 -8l201 -18c6 -0.666992 9.5 -4 10.5 -10
s1.5 -10.667 1.5 -14c0 -12 -3.66699 -20 -11 -24s-17 -7.33301 -29 -10c-2.66699 -0 -7.5 -0.166992 -14.5 -0.5l-22 -1c-7.66699 -0.333008 -14.834 -0.5 -21.501 -0.5h-14c-30.667 0 -58.834 2.33301 -84.501 7s-47.5 13.167 -65.5 25.5s-32 29 -42 50
s-15 48.167 -15 81.5z" />
    <glyph glyph-name="M" unicode="M" horiz-adv-x="547" 
d="M452 20c-1.33301 6.66699 -2.66406 17.334 -3.99707 32.001s-3 31 -5 49s-4 37.167 -6 57.5s-4 39.666 -6 57.999l-5.5 49c-1.66699 14.333 -2.83398 25.166 -3.50098 32.499c-1.33301 6.66699 -1.83301 15 -1.5 25s-0.333984 20.333 -2.00098 31
s-4.33398 20.667 -8.00098 30s-9.16699 16 -16.5 20c-24 -13.333 -48 -23.333 -72 -30s-49.333 -10 -76 -10c-39.333 0 -78.666 24 -117.999 72c-2.66699 0 -4.5 -2 -5.5 -6s-1.83301 -8.66699 -2.5 -14s-0.833984 -11 -0.500977 -17s0.5 -11 0.5 -15l-1 -334
c0 -4 -1.16699 -7.5 -3.5 -10.5s-5.16602 -5.16699 -8.49902 -6.5s-6.83301 -2.5 -10.5 -3.5s-7.16699 -1.5 -10.5 -1.5c-10.667 0 -17.834 4.5 -21.501 13.5s-6.16699 17.833 -7.5 26.5v144c0 44 1.83301 87.333 5.5 130s5.5 86 5.5 130c0 13.333 -2.66699 25.333 -8 36
s-11 21.167 -17 31.5s-11.5 20.666 -16.5 30.999s-7.5 21.833 -7.5 34.5c0 14 6.66699 21 20 21c16.667 0 30.667 -5 42 -15s21.333 -22 30 -36s17 -29.667 25 -47s17.5 -33 28.5 -47s23.667 -26 38 -36s32.166 -15 53.499 -15
c26.667 -1.33301 48.834 2.83398 66.501 12.501s32 22 43 37s20 31.333 27 49s13.167 34 18.5 49s11 27.167 17 36.5c6.66699 9.33301 14.667 13 24 11c7.33301 1.33301 12.833 -0.333984 16.5 -5.00098s6.5 -10.5 8.5 -17.5s3.16699 -13.833 3.5 -20.5
s0.5 -11.334 0.5 -14.001c0 -25.333 -1.83301 -49.5 -5.5 -72.5s-5.5 -47.5 -5.5 -73.5c0 -34 2.33301 -67.667 7 -101s10.167 -66.833 16.5 -100.5s12 -67.167 17 -100.5s7.5 -66.666 7.5 -99.999c0 -5.33301 -0.666992 -9.66602 -2 -12.999s-3.33301 -5.66602 -6 -6.99902
s-5.66699 -2 -9 -2h-11c-8.66699 0 -16.5 1 -23.5 3s-11.833 8.33301 -14.5 19z" />
    <glyph glyph-name="N" unicode="N" horiz-adv-x="624" 
d="M29 61c0 31.333 1.00098 62.665 3.00098 93.998s4.5 62.5 7.5 93.5s5.5 61.833 7.5 92.5c2 31.333 3 62.333 3 93c0 17.333 -1.83301 34 -5.5 50s-5.5 32.333 -5.5 49v5c1.33301 0.666992 3.83301 1.5 7.5 2.5s7.5 1.83301 11.5 2.5s8 1.66699 12 3
c3.33301 1.33301 5.66602 2 6.99902 2h10c5.33301 -24 12.5 -52.667 21.5 -86s19.833 -67.333 32.5 -102s27.667 -69.167 45 -103.5s37.333 -65 60 -92s48 -48.667 76 -65s59.333 -24.166 94 -23.499c20.667 0 38.834 3.5 54.501 10.5s28.5 16.667 38.5 29
s17.5 26.833 22.5 43.5s7.5 35 7.5 55c0 26 -5.16699 50.167 -15.5 72.5s-21.5 43.833 -33.5 64.5s-23.167 41.334 -33.5 62.001s-15.5 43 -15.5 67c0 9.33301 1 16.666 3 21.999s7.66699 8 17 8c10.667 0 21.5 -6 32.5 -18s21.5 -27.333 31.5 -46s19.333 -39.5 28 -62.5
s16.334 -45.833 23.001 -68.5s11.834 -43.667 15.501 -63s5.5 -34.666 5.5 -45.999c0 -28.667 -4.66699 -54.834 -14 -78.501s-22.5 -44.334 -39.5 -62.001s-37.333 -31.334 -61 -41.001s-49.834 -14.5 -78.501 -14.5c-31.333 0 -59.5 6 -84.5 18s-47.333 27.5 -67 46.5
s-37 39.167 -52 60.5s-27.833 41.5 -38.5 60.5s-19.834 34.5 -27.501 46.5s-13.834 18 -18.501 18c-8.66699 0 -15 -3 -19 -9s-6.83301 -13 -8.5 -21s-2.5 -16.5 -2.5 -25.5v-20.5c0 -21.333 2 -41.166 6 -59.499s6 -37.833 6 -58.5c0 -4.66699 -0.5 -10.667 -1.5 -18
s-2.66699 -14.666 -5 -21.999s-5.83301 -13.666 -10.5 -18.999s-10.667 -8 -18 -8c-6.66699 0 -12.167 2.5 -16.5 7.5s-7.83301 10.667 -10.5 17s-4.5 13 -5.5 20s-1.5 12.833 -1.5 17.5z" />
    <glyph glyph-name="O" unicode="O" horiz-adv-x="624" 
d="M19 279c-1.33301 29.333 2.50098 56.666 11.501 81.999s21.833 47.833 38.5 67.5s37 35.5 61 47.5c24 10.667 50.333 17.334 79 20.001c50 -7.33301 97.833 -20 143.5 -38s86 -41 121 -69s63.5 -60.667 85.5 -98s34.333 -79.333 37 -126
c-6.66699 -34.667 -20.334 -62 -41.001 -82s-45 -35.5 -73 -46.5s-58 -19.167 -90 -24.5l-88 -13c-41.333 0 -79.5 6.83301 -114.5 20.5s-65 32.5 -90 56.5s-44.667 53.333 -59 88s-21.5 73 -21.5 115zM66.001 284c-0.666992 -30.667 5.83887 -59.334 19.5059 -86.001
s31.5 -50 53.5 -70s46.667 -36.667 74 -50s54.666 -22 81.999 -26c9.33301 0 21.666 0.833008 36.999 2.5s32 4.33398 50 8.00098s36.167 8.66699 54.5 15s35 14 50 23s27.333 19.667 37 32s14.5 26.5 14.5 42.5c-4.66699 33.333 -14.834 63 -30.501 89
s-34.834 49 -57.501 69s-47.334 37 -74.001 51s-53 25.167 -79 33.5s-50.333 13.833 -73 16.5s-41.334 2.66699 -56.001 0c-20.667 -7.33301 -37.5 -17 -50.5 -29s-23.333 -24.833 -31 -38.5s-13 -27.5 -16 -41.5s-4.5 -27.667 -4.5 -41z" />
    <glyph glyph-name="P" unicode="P" horiz-adv-x="643" 
d="M308 0c-9.33301 16.667 -17.1621 38.168 -23.4951 64.501s-11.666 53.833 -15.999 82.5s-7.83301 55.667 -10.5 81s-5.33398 45.333 -8.00098 60v172c0 7.33301 3 14.166 9 20.499s12.667 9.5 20 9.5h5h4c2.66699 -18 4.66699 -36.5 6 -55.5s2.5 -37.833 3.5 -56.5
s3.16699 -37.334 6.5 -56.001c2.66699 -18.667 7 -36.667 13 -54c10.667 -2.66699 22.334 -4.66699 35.001 -6c12 0 26 -0.666992 42 -2c17.333 0 36.166 2.83301 56.499 8.5s39.166 13.834 56.499 24.501s31.833 23.834 43.5 39.501s17.5 33.167 17.5 52.5
c0 21.333 -7 40.166 -21 56.499s-32 30.833 -54 43.5s-46.333 23.667 -73 33s-52.834 16.833 -78.501 22.5s-49.5 9.83398 -71.5 12.501s-39 4 -51 4c-4 0 -11.333 0.333008 -22 1s-22.5 0.833984 -35.5 0.500977s-25.5 -1.16602 -37.5 -2.49902s-21.333 -4 -28 -8
c-6 -3.33301 -11.5 -9.33301 -16.5 -18s-9.83301 -17.5 -14.5 -26.5s-9.5 -16.833 -14.5 -23.5s-10.5 -10 -16.5 -10h-2c-0.666992 0 -1.66699 0.333008 -3 1s-2.33301 1.66699 -3 3s-1.5 4.66602 -2.5 9.99902s-1.83301 13 -2.5 23s-1 23.667 -1 41
c0 7.33301 3.5 14.166 10.5 20.499s16.333 11.833 28 16.5s24.167 8.83398 37.5 12.501s26.166 6.66699 38.499 9s23.333 4.16602 33 5.49902s16.167 2 19.5 2c22.667 0 49.167 -1.33301 79.5 -4s61.666 -7.5 93.999 -14.5s64.333 -16.333 96 -28s59.834 -26 84.501 -43
s45 -37.5 61 -61.5c15.333 -23.333 23 -51 23 -83c3.33301 -22.667 -0.666992 -43.5 -12 -62.5s-26.833 -36 -46.5 -51s-41.834 -28 -66.501 -39s-48.667 -19.667 -72 -26s-44.333 -10.333 -63 -12s-31.667 -0.833984 -39 2.49902v-9c0 -23.333 2 -46.333 6 -69
s6 -45.667 6 -69c0 -2.66699 -0.333008 -6.83398 -1 -12.501s-2.16699 -11.167 -4.5 -16.5s-5.33301 -9.66602 -9 -12.999s-8.83398 -4.33301 -15.501 -3z" />
    <glyph glyph-name="Q" unicode="Q" horiz-adv-x="658" 
d="M430 12l-12 -0.000976562l-8 -1c-2 -0.666992 -6.83301 -1.33398 -14.5 -2.00098s-15.834 -1.66699 -24.501 -3s-16.834 -2.33301 -24.501 -3s-12.5 -1 -14.5 -1h-4c-40 -3.33301 -78.333 1.66699 -115 15s-69 33 -97 59s-50 56.5 -66 91.5s-24 72.5 -24 112.5v14
c0 32 5.83301 63.333 17.5 94s27.834 58 48.501 82s45.167 43.333 73.5 58s59.166 22 92.499 22c22 0 46.5 -5.33301 73.5 -16s54.333 -25.167 82 -43.5s54.667 -39.333 81 -63s49.666 -48.334 69.999 -74.001s36.666 -51.334 48.999 -77.001s18.5 -49.834 18.5 -72.501
c0 -18 -3 -34.5 -9 -49.5s-13.833 -28.667 -23.5 -41s-21 -23.666 -34 -33.999s-26.833 -20.166 -41.5 -29.499v-10c0 -12 3.5 -22.833 10.5 -32.5s15.833 -18.167 26.5 -25.5s22.167 -14.333 34.5 -21l34.5 -19c10.667 -6 19.834 -12 27.501 -18s11.834 -12.333 12.501 -19
c-14.667 -14 -28.5 -21 -41.5 -21s-25.667 4.16699 -38 12.5s-24.666 19.333 -36.999 33s-25 26.834 -38 39.501s-26.667 23.334 -41 32.001s-29.166 12.334 -44.499 11.001zM82 279.999c-2.66699 -31.333 1.66895 -60.166 13.002 -86.499s27.666 -48.833 48.999 -67.5
s46 -33.334 74 -44.001c26.667 -10.667 55.334 -15.667 86.001 -15h19.5c7 0 13.333 1 19 3s10.334 5.33301 14.001 10s5.5 12 5.5 22c-2.66699 12.667 -8.33398 25.667 -17.001 39s-16.334 26 -23.001 38s-11 23.167 -13 33.5s1.66699 18.833 11 25.5
c10.667 0 21.667 -6 33 -18s22.666 -25.833 33.999 -41.5l33 -46.5c10 -14.667 19.333 -26 28 -34c1.33301 0 3.66602 -0.166992 6.99902 -0.5s5.66602 -0.5 6.99902 -0.5c9.33301 0 20.666 2.83301 33.999 8.5s26.333 12.834 39 21.501s23.667 18.5 33 29.5
s14 21.833 14 32.5c0 14 -2.33301 27.833 -7 41.5s-10.667 27 -18 40s-15.666 24.833 -24.999 35.5c-8 11.333 -16.667 22 -26 32l-21 21.5l-26 26c-8.66699 8.33301 -16.667 15.333 -24 21s-12.666 8.5 -15.999 8.5c-1.33301 -15.333 -4.16602 -30.5 -8.49902 -45.5
s-11.166 -28.833 -20.499 -41.5h-2l-2 -1h-3c-0.666992 0 -1.33398 0.333008 -2.00098 1c-0.666992 0 -2.33398 0.666992 -5.00098 2s-5.66699 3 -9 5s-6.33301 3.66699 -9 5l-4 4c12 29.333 16.333 53.166 13 71.499s-11.166 32.833 -23.499 43.5s-27.333 18.167 -45 22.5
s-34.667 6.5 -51 6.5s-30.166 -0.666992 -41.499 -2c-12 -1.33301 -17.667 -2.66602 -17 -3.99902c-22.667 -8 -41 -19.167 -55 -33.5s-24.833 -30.5 -32.5 -48.5s-12.834 -37.333 -15.501 -58s-4 -41.334 -4 -62.001z" />
    <glyph glyph-name="R" unicode="R" horiz-adv-x="593" 
d="M198 222c4.66699 -30 10.1699 -57.501 16.5029 -82.501s11.166 -46.833 14.499 -65.5s4.33301 -33.667 3 -45s-8 -18.333 -20 -21c-1.33301 -4 -4 -1.66699 -8 7s-8.66699 21.834 -14 39.501s-11 38.834 -17 63.501s-11.833 50.834 -17.5 78.501
s-10.834 56.167 -15.501 85.5s-8.5 57.333 -11.5 84s-4.5 51 -4.5 73s2 40.333 6 55c8 6 15.167 7.5 21.5 4.5s11.333 -7.83301 15 -14.5s6.16699 -14.334 7.5 -23.001c0 -8.66699 -0.666992 -16.667 -2 -24c0.666992 -2.66699 1.83398 -7.66699 3.50098 -15l5.5 -23.5
c2 -8.33301 4 -16.166 6 -23.499s3.66699 -12.333 5 -15c9.33301 1.33301 23.166 3.16602 41.499 5.49902s38.166 5.66602 59.499 9.99902s43.166 9.5 65.499 15.5s42.5 13 60.5 21s32.833 17.333 44.5 28s17.5 22.667 17.5 36c0 1.33301 -0.333008 3 -1 5v3
c-18.667 21.333 -37.667 38.666 -57 51.999s-39.833 23.166 -61.5 29.499s-44.5 10.5 -68.5 12.5s-49.667 3 -77 3c-20 0 -41 -0.166992 -63 -0.5s-42.167 -3.16602 -60.5 -8.49902s-33.5 -15 -45.5 -29s-18 -34.333 -18 -61c-6 0 -11.333 2 -16 6
s-8.66699 8.83301 -12 14.5s-6 11.667 -8 18s-3 11.833 -3 16.5c0 9.33301 2 18.166 6 26.499s9.33301 15.833 16 22.5s14 12.834 22 18.501s16 10.5 24 14.5c21.333 4 40.166 7.33301 56.499 10s31.833 4.83398 46.5 6.50098s29.5 2.66699 44.5 3s31.833 0.5 50.5 0.5
s38.334 -1.5 59.001 -4.5s41.667 -7.5 63 -13.5s41.5 -13.833 60.5 -23.5s36 -21.334 51 -35.001s26.833 -29.334 35.5 -47.001s13 -37.5 13 -59.5c0 -19.333 -6 -36.333 -18 -51s-28 -27.334 -48 -38.001s-42.167 -19.667 -66.5 -27s-48.666 -13.833 -72.999 -19.5
s-47.166 -10.5 -68.499 -14.5c-21.333 -5.33301 -38.666 -10 -51.999 -14c33.333 -46 66.333 -85 99 -117s63.334 -59 92.001 -81s54.667 -39.833 78 -53.5s42.333 -25.167 57 -34.5s24 -16.666 28 -21.999s1 -11.333 -9 -18
c-7.33301 -9.33301 -19.333 -11.666 -36 -6.99902s-35.834 13.834 -57.501 27.501s-44.834 30.667 -69.501 51s-49 41.5 -73 63.5l-68.5 65c-21.667 21.333 -39.834 40 -54.501 56z" />
    <glyph glyph-name="S" unicode="S" horiz-adv-x="643" 
d="M20 178c0 6.66699 1.33008 13.835 3.99707 21.502s6.33398 15 11.001 22s10.334 12.833 17.001 17.5s13.667 7 21 7c0 -43.333 7.66699 -77.5 23 -102.5s36.5 -44.167 63.5 -57.5s57.833 -22.333 92.5 -27s72 -8 112 -10c13.333 0.666992 30.833 1.16699 52.5 1.5
s42.5 2.66602 62.5 6.99902s37 11.5 51 21.5s20.667 25.333 20 46c0 9.33301 -0.333008 17.666 -1 24.999s-2.16699 13.833 -4.5 19.5s-6.33301 11.167 -12 16.5s-13.5 10.666 -23.5 15.999l-297 162c-10.667 6 -21 13.5 -31 22.5s-18.333 19 -25 30s-12 22.667 -16 35
s-6 24.5 -6 36.5c0 25.333 6.83301 46 20.5 62s30.667 28.833 51 38.5s42.333 16.5 66 20.5s45.5 6 65.5 6c9.33301 0 21.333 -0.833008 36 -2.5s30.334 -4.16699 47.001 -7.5s33.167 -7.66602 49.5 -12.999s30.833 -12.166 43.5 -20.499s23.167 -18 31.5 -29
s12.5 -23.833 12.5 -38.5c-9.33301 -5.33301 -18.833 -7 -28.5 -5s-19.5 5.66699 -29.5 11s-20.333 11.333 -31 18l-33 20c-11.333 6.66699 -23.333 12 -36 16s-26 5.33301 -40 4c-12.667 0 -29 -0.666992 -49 -2s-39.5 -4.5 -58.5 -9.5s-35.333 -12.667 -49 -23
s-20.5 -24.833 -20.5 -43.5c0 -18 6.33301 -34.5 19 -49.5s29.834 -29.333 51.501 -43s46 -26.667 73 -39l82 -38c27.667 -13 54.667 -26.5 81 -40.5s49.333 -29.333 69 -46s35 -34.5 46 -53.5s14.833 -40.5 11.5 -64.5s-13.666 -44.667 -30.999 -62
s-39.333 -30.833 -66 -40.5s-56.334 -16 -89.001 -19s-66.334 -2.83301 -101.001 0.5s-69 9.66602 -103 18.999s-65 21.833 -93 37.5s-52 34 -72 55s-33.333 44.833 -40 71.5z" />
    <glyph glyph-name="T" unicode="T" horiz-adv-x="595" 
d="M316 556c-46.667 0 -94.835 3.17285 -144.502 9.50586s-97.167 13.166 -142.5 20.499c-6 -1.33301 -10.667 -0.5 -14 2.5s-6 7 -8 12s-3.16699 9.83301 -3.5 14.5s-0.5 8.33398 -0.5 11.001h52c24.667 0 53.834 -0.333008 87.501 -1s70.334 -1.66699 110.001 -3
s79.5 -3.33301 119.5 -6s78.667 -5.83398 116 -9.50098s70.5 -8.33398 99.5 -14.001s52 -12.167 69 -19.5s25.5 -15.666 25.5 -24.999c0 -6.66699 -1 -13.334 -3 -20.001s-7 -10 -15 -10c-24.667 1.33301 -49 5 -73 11l-72 17.5c-24 5.66699 -48.5 9.66699 -73.5 12
s-50.5 -0.5 -76.5 -8.5c0 -30.667 1.83301 -64.334 5.5 -101.001s8 -74 13 -112s10.667 -76 17 -114l18.5 -107c1.33301 -8.66699 4.16602 -17.167 8.49902 -25.5s8.83301 -16.333 13.5 -24s8.66699 -15.5 12 -23.5s5 -16 5 -24c0 -5.33301 -1.66699 -9.5 -5 -12.5
s-7.33301 -5 -12 -6s-9.66699 -1.5 -15 -1.5h-13c-13.333 0 -23.833 5.33301 -31.5 16s-13.5 23.167 -17.5 37.5s-6.66699 29.166 -8 44.499s-2.66602 27.666 -3.99902 36.999c-5.33301 36.667 -10 72.167 -14 106.5s-7.5 68.666 -10.5 102.999s-5.66699 69 -8 104z" />
    <glyph glyph-name="U" unicode="U" 
d="M28 390c0 6 0.166992 14.166 0.5 24.499s1 21.666 2 33.999s2.83301 25 5.5 38s6.66699 24.667 12 35s12 18.833 20 25.5s17.667 10 29 10c7.33301 0 13 -2 17 -6s6.33301 -8.83301 7 -14.5s-1 -11.834 -5 -18.501s-10.333 -12.667 -19 -18c-6 0 -10.333 -4.5 -13 -13.5
s-4.66699 -18.833 -6 -29.5s-2 -21 -2 -31v-18c0 -17.333 0.666992 -37.333 2 -60s4 -46.167 8 -70.5s9.83301 -48.5 17.5 -72.5s17.667 -45.833 30 -65.5s27.166 -36.167 44.499 -49.5s38.333 -20.666 63 -21.999c18.667 -1.33301 40.334 2 65.001 10s47.667 19.5 69 34.5
s39.5 32.333 54.5 52s22.5 40.167 22.5 61.5v4c-4.66699 28 -9.5 51.333 -14.5 70s-9.33301 35.667 -13 51s-6.66699 31 -9 47s-3.5 34.667 -3.5 56c2 30.667 5.5 53.5 10.5 68.5s10.167 23.333 15.5 25s11 -2.16602 17 -11.499s11.333 -22.833 16 -40.5s8 -38.667 10 -63
s2.66699 -50.166 2 -77.499c0.666992 -20 4.5 -42 11.5 -66s14.833 -48 23.5 -72l26.5 -70c9 -22.667 15.833 -42.5 20.5 -59.5s6 -31 4 -42s-9 -16.5 -21 -16.5c-13.333 0 -23.333 4 -30 12s-12.334 16.833 -17.001 26.5s-9.66699 18.5 -15 26.5s-12 12 -20 12
c-6.66699 0 -14.667 -2.5 -24 -7.5s-19.833 -11.5 -31.5 -19.5l-38 -26c-13.667 -9.33301 -27.834 -18 -42.501 -26s-29.667 -14.667 -45 -20s-31 -8 -47 -8c-28.667 0 -53.667 6.83301 -75 20.5s-39.666 31.5 -54.999 53.5s-28.166 47.167 -38.499 75.5s-18.5 57 -24.5 86
s-10.333 57 -13 84s-4 50.833 -4 71.5z" />
    <glyph glyph-name="V" unicode="V" horiz-adv-x="432" 
d="M19 514c0 7.33301 2.50098 11.835 7.50098 13.502s10.167 2.5 15.5 2.5c12.667 0 24.334 -7.33301 35.001 -22s20.5 -31.834 29.5 -51.501s17 -39.334 24 -59.001s13.167 -34.834 18.5 -45.501l12 -25l20.5 -45l24 -54.5l24.5 -54.5c8 -17.333 14.667 -32.5 20 -45.5
s9 -21.5 11 -25.5c4 4 8.16699 13.333 12.5 28s9 32.834 14 54.501s9.83301 45.334 14.5 71.001l14.5 78c5 26.333 10.167 51.666 15.5 75.999s10.666 45.833 15.999 64.5s10.5 33.167 15.5 43.5s10.167 14.5 15.5 12.5c10 2.66699 17 -2.16602 21 -14.499
s5.66699 -29.666 5 -51.999s-3.33398 -48.833 -8.00098 -79.5s-10.834 -62.167 -18.501 -94.5s-16.334 -64.833 -26.001 -97.5s-20.167 -62.334 -31.5 -89.001s-22.666 -49.334 -33.999 -68.001s-22.333 -30.667 -33 -36c-1.33301 0 -3.66602 0.166992 -6.99902 0.5
s-5.33301 0.5 -6 0.5l-18 34.5l-27 52l-26 51.5c-8 16 -13.333 27.333 -16 34l-18.5 40l-27.5 60.5l-30.5 70.5l-29 70.5c-9 22.333 -16.167 42.333 -21.5 60s-8 31.167 -8 40.5z" />
    <glyph glyph-name="W" unicode="W" horiz-adv-x="720" 
d="M332 116l-1.49902 -0.00195312h-1.5h-2c-29.333 -26.667 -53 -47.334 -71 -62.001s-32.333 -25.5 -43 -32.5s-18.334 -11 -23.001 -12s-8 -1.5 -10 -1.5c-25.333 0 -47.166 7.16699 -65.499 21.5s-33.666 32.833 -45.999 55.5s-22.333 48.5 -30 77.5
s-13.5 57.833 -17.5 86.5s-6.83301 55.667 -8.5 81s-2.5 46.666 -2.5 63.999v21.5c0 12.333 1 25.5 3 39.5s5.66699 26.667 11 38c6.66699 11.333 15.334 17 26.001 17c4.66699 0 8 -6.33301 10 -19s3.83301 -29 5.5 -49l5.5 -69c2 -26 4.16699 -52.667 6.5 -80
s5.66602 -54 9.99902 -80s10 -49.167 17 -69.5s15.667 -36.666 26 -48.999s22.833 -18.5 37.5 -18.5c12 0 23.5 3.33301 34.5 10s21.167 14.667 30.5 24s17.833 19 25.5 29s14.5 18.333 20.5 25c4 9.33301 6.83301 20 8.5 32s2.66699 24.333 3 37s0.333008 24.667 0 36
s-0.833008 21 -1.5 29c3.33301 9.33301 7.33301 15.833 12 19.5s9 4.83398 13 3.50098s8 -4.83301 12 -10.5s7.66699 -13.167 11 -22.5c3.33301 -21.333 9.33301 -45 18 -71s20.167 -50.167 34.5 -72.5s31.833 -41 52.5 -56s44.667 -22.5 72 -22.5
c14.667 0 29.834 3 45.501 9s29.667 14.333 42 25s22.5 23 30.5 37s12 29 12 45c0 25.333 -4 50 -12 74s-17 47.833 -27 71.5s-19 47.334 -27 71.001s-12 47.834 -12 72.501c8.66699 18.667 18.167 26.5 28.5 23.5s20.666 -12.833 30.999 -29.5s20.166 -38.167 29.499 -64.5
s17.666 -53 24.999 -80s12.833 -52.333 16.5 -76s5.16699 -41.167 4.5 -52.5c0 -25.333 -5.33301 -49.333 -16 -72s-25.167 -43 -43.5 -61s-39.333 -32.333 -63 -43s-48.167 -16 -73.5 -16c-20 0 -39.5 6 -58.5 18s-36 25.333 -51 40s-28 28 -39 40s-19.167 18 -24.5 18z
" />
    <glyph glyph-name="X" unicode="X" horiz-adv-x="547" 
d="M20 -31c0 24.667 6.50488 50.665 19.5049 77.998s29 54.833 48 82.5s38.833 54.167 59.5 79.5l55 68c0 10.667 -2.83301 22.5 -8.5 35.5s-12.834 26.333 -21.501 40s-18 27.667 -28 42s-19.333 28.333 -28 42s-15.834 27 -21.501 40s-8.5 25.5 -8.5 37.5
c0 8 1.16699 14 3.5 18s7.83301 6 16.5 6c3.33301 -0.666992 8.16602 -5 14.499 -13s13.333 -18 21 -30l24 -39l23.5 -40.5c7.33301 -13 14 -24.333 20 -34s10.333 -16.167 13 -19.5c6.66699 -12 13.5 -20.667 20.5 -26s17 -4.83301 30 1.5s31.167 19.5 54.5 39.5
s54.333 49.333 93 88c4.66699 4 13 9.66699 25 17s24.5 13.166 37.5 17.499s25.167 5.83301 36.5 4.5s18 -8.66602 20 -21.999c-21.333 -13.333 -43.833 -28.333 -67.5 -45s-47 -34.5 -70 -53.5s-45.167 -38.5 -66.5 -58.5s-39.666 -39.667 -54.999 -59
c6 -16.667 16.167 -35.5 30.5 -56.5s29.666 -42.167 45.999 -63.5l47.5 -61.5c15.333 -19.667 26.833 -36.5 34.5 -50.5s10.167 -24.167 7.5 -30.5s-14 -6.83301 -34 -1.5c-17.333 13.333 -33.666 29 -48.999 47s-30 36.5 -44 55.5l-43 56
c-14.667 18.333 -29.667 34.5 -45 48.5h-5c-4 0 -9.33301 -3.16699 -16 -9.5s-13.834 -14.166 -21.501 -23.499s-15.667 -19.833 -24 -31.5l-24.5 -35c-8 -11.667 -14.667 -22.167 -20 -31.5c-6.66699 -9.33301 -11.334 -16.666 -14.001 -21.999
c-4 -4.66699 -8.66699 -13.167 -14 -25.5l-17 -38.5c-6 -13.333 -12.333 -25.333 -19 -36s-12.334 -16.667 -17.001 -18c-8 0 -13.167 2.83301 -15.5 8.5s-3.5 13.167 -3.5 22.5z" />
    <glyph glyph-name="Y" unicode="Y" horiz-adv-x="413" 
d="M202 4l-0.000976562 10.5029v16v16v10.5c0 28.667 1.5 54.167 4.5 76.5s7 44.166 12 65.499s11.167 43.166 18.5 65.499s15 47.5 23 75.5c0 1.33301 0.166992 3.83301 0.5 7.5s0.5 6.16699 0.5 7.5c1.33301 0.666992 -4.5 4 -17.5 10s-28.833 14.5 -47.5 25.5
s-39 24.833 -61 41.5s-42.167 36 -60.5 58s-33 46.667 -44 74s-15.167 57.666 -12.5 90.999c0.666992 0 2.5 0.166992 5.5 0.5s6.33301 0.666016 10 0.999023s7.16699 0.833008 10.5 1.5h6c4.66699 -13.333 11 -28.333 19 -45s17.833 -33.667 29.5 -51
s24.5 -34.166 38.5 -50.499s28.833 -31 44.5 -44s32 -23.333 49 -31s34.5 -11.5 52.5 -11.5l28.5 63.5l16.5 36.5c4 8.66699 6.66699 15.167 8 19.5s2.33301 9 3 14s1.33398 11 2.00098 18s2.33398 17.833 5.00098 32.5c0 2.66699 2.66699 5.5 8 8.5
s10.833 4.83301 16.5 5.5s11 0 16 -2s7.5 -6 7.5 -12c0 -36.667 -4 -71.5 -12 -104.5s-18 -65.167 -30 -96.5s-24.667 -62.5 -38 -93.5s-25 -62.833 -35 -95.5s-17.167 -66.667 -21.5 -102s-3.5 -73 2.5 -113c-4 -7.33301 -8 -12.5 -12 -15.5s-9.33301 -4.5 -16 -4.5
s-12.334 1.5 -17.001 4.5s-9 8.16699 -13 15.5z" />
    <glyph glyph-name="Z" unicode="Z" 
d="M172 72c0 16.667 4.99805 32.333 14.998 47s21 29 33 43s23 27.833 33 41.5s15 27.5 15 41.5v5c-0.666992 1.33301 -2 4.33301 -4 9c-1.33301 4.66699 -2.66602 7.66699 -3.99902 9h-7c-3.33301 0 -6.83301 0.166992 -10.5 0.5s-7.16699 0.5 -10.5 0.5h-6
c-19.333 0 -38.5 -2 -57.5 -6s-38.5 -6 -58.5 -6c0 9.33301 1.5 19.166 4.5 29.499s9.5 17.5 19.5 21.5c22 6.66699 42.833 11.334 62.5 14.001s37.5 5.33398 53.5 8.00098s30.5 5.83398 43.5 9.50098s24.167 9.83398 33.5 18.501s17 20.834 23 36.501s10.333 36.5 13 62.5
c0 24 -5.83301 44.167 -17.5 60.5s-26.5 29.666 -44.5 39.999s-37.667 17.666 -59 21.999s-41.666 6.5 -60.999 6.5c-16 0 -31 -2 -45 -6s-27.333 -8.5 -40 -13.5l-35.5 -13.5c-11 -4 -22.167 -6 -33.5 -6c-1.33301 0 -3 1.16699 -5 3.5s-3.66699 4.16602 -5 5.49902v6
c0 17.333 5.83301 30.666 17.5 39.999s25.5 16.666 41.5 21.999s32.167 8.33301 48.5 9s29.833 1 40.5 1c30.667 0 61 -2.66699 91 -8s56.5 -15 79.5 -29s41.5 -33 55.5 -57s21 -54.333 21 -91c0 -10.667 -1 -19.667 -3 -27s-4.16699 -14.166 -6.5 -20.499
s-4.33301 -13.166 -6 -20.499s-2.5 -15.666 -2.5 -24.999c0 -3.33301 3.33301 -6 10 -8s15 -3.5 25 -4.5s20.833 -1.83301 32.5 -2.5s22.5 -2 32.5 -4s18.5 -5 25.5 -9s10.5 -9.33301 10.5 -16v-2l-1 -2l-16 -9c-6 -3.33301 -12.333 -6.5 -19 -9.5
s-13.334 -5.5 -20.001 -7.5s-12.667 -3 -18 -3c-2.66699 0 -4.83398 0.5 -6.50098 1.5l-5 3c-1.66699 1 -3.16699 2 -4.5 3s-3.33301 1.5 -6 1.5c-26 0 -48.5 -6.33301 -67.5 -19s-35.833 -28.667 -50.5 -48s-28 -40.333 -40 -63s-23.667 -43.334 -35 -62.001
c0 -1.33301 -0.5 -3.83301 -1.5 -7.5s-1.5 -5.83398 -1.5 -6.50098c0 -10.667 2.33301 -17.5 7 -20.5s12 -4.5 22 -4.5c24 0 47.833 2.66699 71.5 8s47 11 70 17s46.167 11.333 69.5 16c24 5.33301 47.333 8 70 8c8.66699 0 14.167 -2.33301 16.5 -7s3.5 -10.667 3.5 -18
c0 -8 -1 -14.333 -3 -19s-7.66699 -9 -17 -13c-42.667 -14.667 -85.5 -26.667 -128.5 -36s-86.833 -14 -131.5 -14h-13.5c-6.33301 0 -13.166 0.166992 -20.499 0.5s-14.166 0.5 -20.499 0.5h-12.5c-16.667 5.33301 -29 14.5 -37 27.5s-12 27.833 -12 44.5z" />
    <glyph glyph-name="bracketleft" unicode="[" horiz-adv-x="489" 
d="M20 576l-0.00292969 4.00195c0 6.66699 1.66699 13.167 5 19.5s7.66602 11.166 12.999 14.499l97 36c35.333 12.667 71.333 24.167 108 34.5s73.5 19 110.5 26s71.5 10.5 103.5 10.5h3c1.33301 -1.33301 3.33301 -4.33301 6 -9s4.33398 -8.33398 5.00098 -11.001v-5v-4
c-1.33301 -1.33301 -3.16602 -3.33301 -5.49902 -6s-4.16602 -4 -5.49902 -4c-28 -6 -57.5 -12.833 -88.5 -20.5s-62.333 -15.834 -94 -24.501s-63 -18.167 -94 -28.5s-60.167 -21.166 -87.5 -32.499h-8c0 -6 1 -15.167 3 -27.5s4.83301 -25.333 8.5 -39
s7.66699 -26.667 12 -39s8.83301 -21.833 13.5 -28.5c13.333 -88 23.5 -161.5 30.5 -220.5s12.833 -106.333 17.5 -142s9 -61.167 13 -76.5c5.33301 -15.333 12 -23 20 -23c38.667 0 77.167 2 115.5 6s76.833 6 115.5 6h17.5c9 0 18.333 -0.166992 28 -0.5s19 -0.5 28 -0.5
h18.5c6 -5.33301 12.167 -11.833 18.5 -19.5s9.5 -16.167 9.5 -25.5c0 -0.666992 -0.333008 -1.33398 -1 -2.00098v0v-2c-1.33301 -1.33301 -4.16602 -3 -8.49902 -5s-7.5 -3.33301 -9.5 -4c-19.333 0.666992 -43.166 1.16699 -71.499 1.5s-57.5 0.333008 -87.5 0
s-59 -1.16602 -87 -2.49902s-51.667 -4 -71 -8c-1.33301 0 -3.83301 -0.666992 -7.5 -2s-7.5 -2.33301 -11.5 -3s-7.83301 -1.66699 -11.5 -3s-6.16699 -2 -7.5 -2c-1.33301 -0.666992 -3.33301 -1.5 -6 -2.5s-5.5 -2.16699 -8.5 -3.5s-6.16699 -2.33301 -9.5 -3l-5 -1
c-0.666992 0 -2.16699 1.33301 -4.5 4s-3.83301 4.66699 -4.5 6c-2 2.66699 -4.33301 7.5 -7 14.5s-4 11.5 -4 13.5c-0.666992 2.66699 -1 8.33398 -1 17.001s-0.5 18.5 -1.5 29.5s-1.66699 22.833 -2 35.5s-0.833008 24.5 -1.5 35.5s-1.33398 20.667 -2.00098 29
s-1 14.166 -1 17.499c-0.666992 3.33301 -1.83398 10.166 -3.50098 20.499l-6 37l-7.5 47l-8 49.5l-7.5 44c-2.33301 13.333 -4.16602 24.333 -5.49902 33c-0.666992 0.666992 -1.5 2.33398 -2.5 5.00098s-2 5.5 -3 8.5s-2.16699 5.83301 -3.5 8.5
c-1.33301 2 -2 3.66699 -2 5v11z" />
    <glyph glyph-name="backslash" unicode="\" horiz-adv-x="441" 
d="M337 87c-6.66699 7.33301 -16.665 19.332 -29.998 35.999l-44.5 56l-51.5 65.5l-51.5 66l-44 56.5l-28.5 37c-2.66699 4 -8.33398 11.333 -17.001 22s-17.5 23 -26.5 37s-16.833 28.167 -23.5 42.5s-10 26.5 -10 36.5c0 5.33301 2.16699 9.16602 6.5 11.499
s8.5 3.5 12.5 3.5c1.33301 0 7.83301 -6.16699 19.5 -18.5l45.5 -48.5l63 -70l72 -84l72 -88c23.333 -29.333 44.166 -57.166 62.499 -83.499s33 -49.666 44 -69.999s16.5 -36.5 16.5 -48.5c0 -4 -1 -8.83301 -3 -14.5s-4.83301 -11 -8.5 -16
s-7.83398 -9.16699 -12.501 -12.5s-9.66699 -4.33301 -15 -3c-12 2.66699 -20.333 7.16699 -25 13.5s-7.66699 13.833 -9 22.5l-4 26.5c-1.33301 9 -4.66602 17.167 -9.99902 24.5z" />
    <glyph glyph-name="bracketright" unicode="]" horiz-adv-x="441" 
d="M66 -47v11.002c1.33301 4 2 6.66699 2 8l19 8h259c5.33301 0 8.33301 2.33301 9 7s1 8.33398 1 11.001c0 33.333 0.333008 71 1 113s0.833984 86 0.500977 132s-1.33301 92.833 -3 140.5s-5 93.834 -10 138.501s-12 86.5 -21 125.5s-20.5 72.5 -34.5 100.5
c-9.33301 5.33301 -22.5 10 -39.5 14s-36 7.66699 -57 11l-64 10c-21.667 3.33301 -41.334 7.33301 -59.001 12s-32.167 9.66699 -43.5 15s-17 12 -17 20c2.66699 7.33301 10.5 12.5 23.5 15.5s28.333 4.33301 46 4s36.667 -1.83301 57 -4.5s39.666 -5.5 57.999 -8.5
s34.333 -5.5 48 -7.5s22.834 -3 27.501 -3c23.333 -4.66699 41.833 -12.834 55.5 -24.501s24.334 -25.834 32.001 -42.501s13.167 -35 16.5 -55c3.33301 -18.667 7.33301 -38.667 12 -60c0.666992 -13.333 1.5 -31.833 2.5 -55.5s2.33301 -51 4 -82l5.5 -100l6 -108.5
l6 -108.5c2 -35.667 4 -68.834 6 -99.501s3.66699 -58 5 -82l3 -55v-18c0 -5.33301 -1.83301 -9.83301 -5.5 -13.5s-7.83398 -6.83398 -12.501 -9.50098s-9.66699 -4.66699 -15 -6s-10.333 -2 -15 -2h-269c-17.333 0 -28.333 4.5 -33 13.5s-7 20.833 -7 35.5z" />
    <glyph glyph-name="asciicircum" unicode="^" horiz-adv-x="384" 
d="M192 634c-12.667 -16 -26.1641 -31.834 -40.4971 -47.501s-28 -27.667 -41 -36s-25 -11.5 -36 -9.5s-19.167 12.333 -24.5 31c18.667 17.333 34.667 31.333 48 42s24.5 21.334 33.5 32.001s16.667 23 23 37s12.166 33 17.499 57
c1.33301 5.33301 4.16602 8.16602 8.49902 8.49902s8.5 0.5 12.5 0.5c9.33301 0 16.333 -2.16699 21 -6.5s10 -11.5 16 -21.5c4 -6.66699 9.66699 -14.167 17 -22.5l22.5 -26l22 -26c7 -8.33301 12.5 -15.166 16.5 -20.499c4.66699 -7.33301 8.16699 -13.333 10.5 -18
s4.16602 -8.83398 5.49902 -12.501s2.33301 -7.5 3 -11.5s1 -9.33301 1 -16c0 -9.33301 -1 -16.666 -3 -21.999s-7.66699 -8 -17 -8c-10 0 -19.167 3.66699 -27.5 11s-16.833 16 -25.5 26l-28.5 31.5c-10.333 11 -21.833 20.167 -34.5 27.5z" />
    <glyph glyph-name="underscore" unicode="_" horiz-adv-x="672" 
d="M28 87c0 10.667 3.99902 16.502 11.999 17.502s17 1.5 27 1.5c24 0 48.167 -2.5 72.5 -7.5s48.5 -8.83301 72.5 -11.5h9c2.66699 0 9.16699 -0.333008 19.5 -1s22 -1.5 35 -2.5s27 -1.83301 42 -2.5s29 -1.33398 42 -2.00098s24.333 -1.33398 34 -2.00098
s16.167 -1 19.5 -1h18.5h33h40h40h33h18.5c7.33301 0 14.5 -1 21.5 -3s13.167 -4.83301 18.5 -8.5s9.66602 -8.5 12.999 -14.5s5 -13 5 -21c0 -6.66699 -2.16699 -13.167 -6.5 -19.5s-9.83301 -9.5 -16.5 -9.5c-17.333 0 -39.166 0.666992 -65.499 2s-55.166 3 -86.499 5
s-64.333 4.5 -99 7.5s-68.667 6.5 -102 10.5s-65 8.33301 -95 13s-56.5 9.66699 -79.5 15s-41.333 10.833 -55 16.5s-20.5 11.5 -20.5 17.5z" />
    <glyph glyph-name="grave" unicode="`" horiz-adv-x="177" 
d="M88 548c8 -6.66699 14.165 -12.0029 18.498 -16.0029l12 -11l12 -11c4.33301 -4 10.5 -9.33301 18.5 -16c1.33301 -1.33301 3.33301 -4.33301 6 -9s4 -7.66699 4 -9c0 -13.333 -2.33301 -21.666 -7 -24.999c-5.33301 -3.33301 -12.666 -5 -21.999 -5
c-1.33301 0 -3 0.333008 -5 1s-6.33301 3.5 -13 8.5s-15.667 12.333 -27 22s-26.333 23.5 -45 41.5c-5.33301 7.33301 -10.166 15.333 -14.499 24s-6 15.334 -5 20.001s6.5 6.33398 16.5 5.00098s27 -8 51 -20z" />
    <glyph glyph-name="a" unicode="a" horiz-adv-x="518" 
d="M19 169c0.666992 11.333 4.00195 24.3369 10.002 39.0039s15.333 29 28 43s28.667 26.5 48 37.5s42.166 18.833 68.499 23.5s56.333 5 90 1s71.167 -14 112.5 -30v10l-1 9c0 17.333 -5 35 -15 53s-22.833 34.167 -38.5 48.5s-32.5 26 -50.5 35s-35.333 13.5 -52 13.5
c-6.66699 0 -12.5 -1 -17.5 -3s-9.83301 -4.5 -14.5 -7.5s-9.16699 -5.66699 -13.5 -8s-9.5 -3.5 -15.5 -3.5c-1.33301 0 -2 0.333008 -2 1l-2 2c-1.33301 1.33301 -3.16602 3 -5.49902 5s-3.5 3.33301 -3.5 4c0 12 2.16699 22.333 6.5 31s10.333 15.667 18 21
s16.334 9.5 26.001 12.5s19.834 4.5 30.501 4.5c26.667 -2.66699 52.167 -10.834 76.5 -24.501s46.666 -30.834 66.999 -51.501s38.166 -44.5 53.499 -71.5s28.166 -55 38.499 -84s17.166 -58.167 20.499 -87.5c4 -30.667 4.33301 -59.334 1 -86.001
c-0.666992 0 -2.66699 0.166992 -6 0.5s-7 0.666016 -11 0.999023s-7.33301 0.833008 -10 1.5l-5 1c-14 31.333 -29.667 56.666 -47 75.999s-34.5 34.5 -51.5 45.5s-32.833 18.667 -47.5 23s-26.667 7.5 -36 9.5c-10 0 -21.833 -0.666992 -35.5 -2
s-27.834 -3.66602 -42.501 -6.99902s-29.5 -7.83301 -44.5 -13.5s-28.333 -12.5 -40 -20.5s-21 -17.5 -28 -28.5s-10.5 -23.833 -10.5 -38.5c0 -16 6.33301 -29.5 19 -40.5s28 -20 46 -27s36.333 -11.833 55 -14.5s33.667 -4 45 -4c18.667 0 37 1 55 3
s35.833 4.33301 53.5 7s35.167 5 52.5 7s34.666 3 51.999 3h7c3.33301 0 6.83301 -0.166992 10.5 -0.5s7 -0.5 10 -0.5h6.5c5.33301 -2 8.33301 -5 9 -9s1 -8 1 -12s-4.16699 -8.33301 -12.5 -13s-19.166 -9.33398 -32.499 -14.001s-28.166 -9.5 -44.499 -14.5
s-32 -9.16699 -47 -12.5s-29 -6.16602 -42 -8.49902s-22.167 -3.5 -27.5 -3.5c-28 -0 -57.667 2.33301 -89 7s-60 13.167 -86 25.5s-47.5 29.5 -64.5 51.5s-25.5 50.333 -25.5 85z" />
    <glyph glyph-name="b" unicode="b" horiz-adv-x="509" 
d="M29 480c-3.33301 29.333 -7.33105 54.333 -11.998 75s-6.83398 37.667 -6.50098 51s4.5 23.666 12.5 30.999c8.66699 7.33301 23.667 12.333 45 15c1.33301 -6.66699 3 -19.334 5 -38.001l6.5 -63.5c2.33301 -23.667 5 -48.334 8 -74.001l8.5 -70.5
c2.66699 -21.333 5.66699 -38.666 9 -51.999c3.33301 -14.667 6.33301 -21.334 9 -20.001c12 0 23.833 2 35.5 6s24.167 6 37.5 6c20 0 41.333 -1.83301 64 -5.5s45.167 -9.16699 67.5 -16.5s44 -16.833 65 -28.5s39.333 -25.167 55 -40.5s28.167 -33 37.5 -53
s14 -42 14 -66c0 -30.667 -7.5 -55.167 -22.5 -73.5s-34.167 -32.166 -57.5 -41.499s-48.666 -15.333 -75.999 -18c-28 -2.66699 -54 -4 -78 -4c-33.333 0 -61 4.16699 -83 12.5s-40 19.833 -54 34.5s-24.667 31.667 -32 51s-12.666 40.5 -15.999 63.5
s-5.66602 47 -6.99902 72s-3.33301 50.167 -6 75.5c-0.666992 4.66699 -2.33398 15.167 -5.00098 31.5s-5.83398 34.333 -9.50098 54s-6.83398 37.834 -9.50098 54.501s-4.33398 27.334 -5.00098 32.001zM125.002 218c-6.66699 -29.333 -4.83496 -54.666 5.49805 -75.999
s25.333 -38.833 45 -52.5s42.334 -23.167 68.001 -28.5s51.167 -6.16602 76.5 -2.49902s48 11.5 68 23.5c21.333 12.667 36.666 30 45.999 52c0 18 -4.16699 34.333 -12.5 49s-19.166 27.667 -32.499 39s-28.5 21.166 -45.5 29.499s-34.333 15.166 -52 20.499
s-35.167 9.5 -52.5 12.5s-32.666 4.5 -45.999 4.5c-22 0 -38.833 -6.33301 -50.5 -19s-17.5 -30 -17.5 -52z" />
    <glyph glyph-name="c" unicode="c" horiz-adv-x="460" 
d="M19 223c0 29.333 5.6709 57.833 17.0039 85.5s26.833 52.167 46.5 73.5s42.5 38.333 68.5 51s53.667 19 83 19c13.333 0 27.5 -1.5 42.5 -4.5s29.167 -7.83301 42.5 -14.5s24.333 -15.5 33 -26.5s13 -24.833 13 -41.5c0 -2.66699 -0.833008 -8 -2.5 -16
s-3.83398 -16 -6.50098 -24s-5.83398 -15.167 -9.50098 -21.5s-6.83398 -9.5 -9.50098 -9.5c0 31.333 -8.66699 57.5 -26 78.5s-42.666 31.5 -75.999 31.5c-25.333 0 -48 -5.33301 -68 -16s-36.667 -24.667 -50 -42s-23.5 -36.833 -30.5 -58.5s-10.5 -43.834 -10.5 -66.501
c0 -30.667 5 -56 15 -76s23.667 -36.167 41 -48.5s37.333 -21.5 60 -27.5s46.667 -10 72 -12s50.666 -2.66699 75.999 -2s49.666 1.66699 72.999 3c2 0 5.33301 -1.33301 10 -4s8 -4.33398 10 -5.00098v-3c0 -1.33301 0.166992 -2 0.5 -2s0.5 -0.333008 0.5 -1
c0 -7.33301 -3.66699 -13.666 -11 -18.999s-16.333 -9.66602 -27 -12.999s-22.334 -5.66602 -35.001 -6.99902s-25.167 -2.5 -37.5 -3.5s-23.166 -1.5 -32.499 -1.5h-20c-38.667 0 -73.5 4.33301 -104.5 13s-57.333 22.167 -79 40.5s-38.5 41.666 -50.5 69.999
s-18 61.833 -18 100.5z" />
    <glyph glyph-name="d" unicode="d" horiz-adv-x="537" 
d="M19 227c0 24.667 3.16504 50.668 9.49805 78.001s16.333 52.666 30 75.999s31 42.5 52 57.5s46.833 22.5 77.5 22.5c16 0 32 -2.33301 48 -7s32.5 -11.334 49.5 -20.001s34.667 -18.834 53 -30.501l58.5 -38.5c2.66699 26.667 1.66699 54.167 -3 82.5
s-10.667 56.166 -18 83.499s-14.833 53.166 -22.5 77.499s-13.167 46.166 -16.5 65.499s-3.66602 35.333 -0.999023 48s10.667 20.667 24 24c18 -13.333 33.5 -32.166 46.5 -56.499s24.167 -52.5 33.5 -84.5s17 -66.167 23 -102.5s11 -73.166 15 -110.499
s7.16699 -73.666 9.5 -108.999s4.83301 -67.833 7.5 -97.5s5.16699 -55 7.5 -76s5.83301 -35.833 10.5 -44.5c0 -10.667 -3.83301 -17.334 -11.5 -20.001s-15.5 -4 -23.5 -4c-6.66699 0 -12.334 2.5 -17.001 7.5s-8.33398 10.833 -11.001 17.5s-5.16699 14.167 -7.5 22.5
s-4.83301 16 -7.5 23s-5.66699 12.833 -9 17.5s-7.66602 7 -12.999 7c-1.33301 0 -3.16602 -0.166992 -5.49902 -0.5s-3.5 -0.833008 -3.5 -1.5c-12.667 -17.333 -27.5 -34.166 -44.5 -50.499s-35.667 -30.666 -56 -42.999s-41.666 -22.166 -63.999 -29.499
s-44.833 -11 -67.5 -11c-25.333 -0 -47.5 8.33301 -66.5 25s-35 36.667 -48 60s-22.667 48 -29 74s-9.5 48.667 -9.5 68zM80.998 209.001l17.9951 -63c5.33301 -18 11.833 -32.667 19.5 -44s16.834 -19.833 27.501 -25.5s24.667 -8.5 42 -8.5c21.333 0 44 6.16699 68 18.5
s46.333 28.166 67 47.499s37.667 40.5 51 63.5s20 45.167 20 66.5v12v12c-35.333 34.667 -67.833 59.5 -97.5 74.5s-56.167 22.667 -79.5 23s-43.666 -4.83398 -60.999 -15.501s-31.666 -24.667 -42.999 -42s-19.666 -36.666 -24.999 -57.999
s-7.66602 -41.666 -6.99902 -60.999z" />
    <glyph glyph-name="e" unicode="e" horiz-adv-x="528" 
d="M19 268c0 34.667 5.16992 67.8359 15.5029 99.5029s25.333 59.5 45 83.5s43.667 43.167 72 57.5s61.166 21.5 98.499 21.5c22 -2.66699 41.167 -8.66699 57.5 -18s29.666 -20.833 39.999 -34.5s17.833 -29.5 22.5 -47.5c4 -17.333 6 -36 6 -56c0 -24 -7 -45.667 -21 -65
s-31.667 -35.5 -53 -48.5s-44.333 -23 -69 -30s-47.667 -10.5 -69 -10.5h-24.5c-8.33301 0 -15.833 1.33301 -22.5 4s-12 6.66699 -16 12s-6 13.333 -6 24c0 3.33301 0.5 6.16602 1.5 8.49902s3.83301 4 8.5 5s11.667 1.16699 21 0.5c9.33301 -1.33301 22 -3.33301 38 -6
c9.33301 0 22.833 3.16699 40.5 9.5s35.667 14.5 54 24.5s34.166 21.5 47.499 34.5s20 25.833 20 38.5c0 13.333 -2.16699 26.5 -6.5 39.5s-10.833 24.5 -19.5 34.5s-18.834 18 -30.501 24s-24.834 8.33301 -39.501 7c-23.333 -2 -44.5 -8.33301 -63.5 -19
s-35.167 -24.5 -48.5 -41.5s-23.666 -35.833 -30.999 -56.5s-11 -42.334 -11 -65.001c0 -17.333 0.333008 -34.666 1 -51.999s3.16699 -34.333 7.5 -51s11.333 -32.667 21 -48s23.667 -28.833 42 -40.5s41.5 -21.334 69.5 -29.001s62.667 -12.5 104 -14.5l179 12
c-10.667 -14.667 -24.167 -26.667 -40.5 -36s-33.666 -16.833 -51.999 -22.5s-36.5 -9.83398 -54.5 -12.501s-35 -4 -51 -4c-38.667 -0 -75 6.33301 -109 19s-64 30.5 -90 53.5s-46.5 51 -61.5 84s-22.5 70.167 -22.5 111.5z" />
    <glyph glyph-name="f" unicode="f" horiz-adv-x="386" 
d="M338 318c14 0 20.0029 -6.66211 18.0029 -19.9951c6 -7.33301 5.83301 -14.166 -0.5 -20.499s-16.833 -11 -31.5 -14s-33 -4.33301 -55 -4s-46 3.16602 -72 8.49902c0 -25.333 5.83301 -49 17.5 -71s24.5 -43 38.5 -63l39 -58c12 -18.667 18 -37.334 18 -56.001
c0 -8.66699 -2.66699 -14.334 -8 -17.001c-4 -2.66699 -10 -4 -18 -4c-6.66699 0 -13.834 2.5 -21.501 7.5s-14.667 11.167 -21 18.5s-12.166 15 -17.499 23c-4.66699 8 -8.33398 14.667 -11.001 20l-11.5 23l-17.5 35l-20 41.5l-19.5 41.5l-16.5 36
c-5.33301 10 -9 17.667 -11 23l-11 11c-3.33301 -1.33301 -9.5 -2.83301 -18.5 -4.5l-28.5 -5.5l-29 -6c-9.33301 -2 -16 -3 -20 -3h-5c-5.33301 0 -9 1.83301 -11 5.5s-3 8.16699 -3 13.5c0 11.333 4 20 12 26s17.667 10.333 29 13s23.166 4.5 35.499 5.5l30.5 2.5
c-1.33301 20 -2.33301 43.667 -3 71s0.666016 55.666 3.99902 84.999s8.83301 58.166 16.5 86.499s18.667 53.833 33 76.5s32.5 41 54.5 55s49 21 81 21c18 0 37.667 -4.5 59 -13.5s41.166 -20.833 59.499 -35.5s33.5 -31.167 45.5 -49.5s18 -36.833 18 -55.5h-23
c-13.333 0 -25.166 5 -35.499 15s-21.166 21.167 -32.499 33.5s-23.333 23.5 -36 33.5s-27 15 -43 15c-22.667 0 -43.334 -5 -62.001 -15s-34.667 -23.333 -48 -40s-23.333 -35.334 -30 -56.001s-10 -41.667 -10 -63v-10l18 -143c1.33301 -1.33301 5 -2.5 11 -3.5
s15.5 -2.33301 28.5 -4s30.333 -3.5 52 -5.5s49.167 -4 82.5 -6z" />
    <glyph glyph-name="g" unicode="g" horiz-adv-x="375" 
d="M-134 -278c-2.66699 9.33301 -2.50293 17.667 0.49707 25s7.16699 13.333 12.5 18s11.166 7.66699 17.499 9s11.666 0.5 15.999 -2.5s7 -8.5 8 -16.5s-1.16699 -19 -6.5 -33c0 -14.667 6.16699 -29 18.5 -43s28.333 -26.667 48 -38s41.167 -21.666 64.5 -30.999
s46 -17.333 68 -24s41.667 -11.667 59 -15c16 -3.33301 28 -5 36 -5c16.667 0 30.834 4.33301 42.501 13s21.667 20 30 34s15 29.833 20 47.5s8.83301 35.334 11.5 53.001s4.33398 34.834 5.00098 51.501s1 30.667 1 42c0 5.33301 -0.5 15.166 -1.5 29.499
s-2.5 30.833 -4.5 49.5s-4.33301 38 -7 58s-5.66699 38.667 -9 56s-6.83301 31.333 -10.5 42s-7.5 16 -11.5 16c-6.66699 0 -14.5 -2 -23.5 -6l-28 -13c-9.66699 -4.66699 -19.5 -9 -29.5 -13s-19.667 -6 -29 -6c-18.667 0 -37 4 -55 12s-33.5 18.333 -46.5 31
s-23.5 27.667 -31.5 45s-12 35.333 -12 54c0 29.333 5.83301 59.333 17.5 90s27.667 58.667 48 84s44.333 46 72 62s57.167 24 88.5 24c24 -6.66699 43.5 -21.834 58.5 -45.501s26.667 -52.834 35 -87.501s14.333 -73.167 18 -115.5s6.16699 -85.5 7.5 -129.5
s2.5 -87.167 3.5 -129.5s3.5 -80.833 7.5 -115.5c0 -15.333 -0.833008 -33.5 -2.5 -54.5s-4.5 -42.5 -8.5 -64.5s-9.5 -43.833 -16.5 -65.5s-16.167 -41 -27.5 -58s-25.166 -30.667 -41.499 -41s-35.166 -15.5 -56.499 -15.5c-17.333 0 -38.166 2 -62.499 6
s-49.666 10.333 -75.999 19s-52.5 19.334 -78.5 32.001s-49.333 27.167 -70 43.5s-37.334 34.666 -50.001 54.999s-19 42.5 -19 66.5zM75.9971 179.001c0 -12 1.83203 -23.499 5.49902 -34.499s9 -20.833 16 -29.5s15.667 -15.5 26 -20.5s21.833 -7.5 34.5 -7.5
c34 0 59.833 6.66699 77.5 20s29.834 30 36.501 50s10 41.333 10 64c-0.666992 23.333 -1.66699 44.333 -3 63c0 9.33301 -0.666992 18.666 -2 27.999s-4 18 -8 26s-9.5 14.333 -16.5 19s-15.833 7 -26.5 7c-22 0 -42.333 -6.16699 -61 -18.5s-34.5 -27.666 -47.5 -45.999
s-23.167 -38.333 -30.5 -60s-11 -41.834 -11 -60.501z" />
    <glyph glyph-name="h" unicode="h" horiz-adv-x="438" 
d="M328 18l4 53.9971c1.33301 18.667 2.5 37.334 3.5 56.001s1.66699 37 2 55s0.5 34.333 0.5 49c0 21.333 -3 41.666 -9 60.999s-14.667 36.166 -26 50.499s-25.5 25.666 -42.5 33.999s-37.167 12.5 -60.5 12.5c-9.33301 0 -17.333 -0.666992 -24 -2
s-13.334 -3.5 -20.001 -6.5s-14 -6.83301 -22 -11.5l-28 -19c0 -1.33301 -0.166992 -3.83301 -0.5 -7.5s-0.5 -5.83398 -0.5 -6.50098c0 -14.667 1.5 -34.167 4.5 -58.5l9.5 -76l10 -76.5c3.33301 -24.667 5 -44.667 5 -60v-8c0 -4 -0.166992 -8.33301 -0.5 -13
s-0.5 -9 -0.5 -13v-9c-4 -9.33301 -8.83301 -15.166 -14.5 -17.499s-12.5 -3.5 -20.5 -3.5c-8 -1.33301 -14 4.33398 -18 17.001s-7 31 -9 55s-3.83301 53 -5.5 87s-4 71.333 -7 112s-7.33301 83.834 -13 129.501s-13.834 92.5 -24.501 140.5
c-5.33301 18.667 -9.5 34.5 -12.5 47.5s-5.83301 24.667 -8.5 35s-5 21 -7 32l-7 39.5v4c0 2.66699 1.66699 5.16699 5 7.5s7.16602 4.5 11.499 6.5s8.66602 3.5 12.999 4.5s7.83301 1.5 10.5 1.5c12.667 -33.333 22.834 -61.5 30.501 -84.5s13.834 -42.833 18.501 -59.5
s8 -30.667 10 -42s3.66699 -22.333 5 -33s2.33301 -21.667 3 -33s2 -25 4 -41c34.667 21.333 66.167 33 94.5 35s53.5 -2.16699 75.5 -12.5s41.167 -26.166 57.5 -47.499s29.833 -45.333 40.5 -72s18.834 -55 24.501 -85s9.33398 -59 11.001 -87s1 -53.833 -2 -77.5
s-7.5 -42.667 -13.5 -57s-14 -22.666 -24 -24.999s-21 3.83398 -33 18.501z" />
    <glyph glyph-name="i" unicode="i" horiz-adv-x="179" 
d="M63 346v15c0 7.33301 0.166992 15 0.5 23s0.5 15.667 0.5 23v15c-2.66699 20.667 3.33301 31 18 31c6.66699 0 12.334 -1.66699 17.001 -5s9 -8.33301 13 -15c-2 -34.667 -0.5 -68.167 4.5 -100.5s10.667 -64.333 17 -96s12.333 -63.5 18 -95.5s8.5 -65.333 8.5 -100
c0 -9.33301 -2.83301 -18.666 -8.5 -27.999s-14.167 -14 -25.5 -14c-8.66699 0 -16.167 7.5 -22.5 22.5s-11.833 34 -16.5 57s-8.66699 48.5 -12 76.5s-5.83301 54.833 -7.5 80.5s-2.83398 48.667 -3.50098 69s-1 34.166 -1 41.499zM12 597
c0 8 2.33398 13.166 7.00098 15.499s10.667 3.5 18 3.5c4.66699 0.666992 10.834 -2.16602 18.501 -8.49902s14 -13.5 19 -21.5s7.83301 -15.333 8.5 -22c0.666992 -8 -4.33301 -12.667 -15 -14h-5c-10 0 -18.333 0.666992 -25 2s-11.834 3.5 -15.501 6.5
s-6.33398 7.5 -8.00098 13.5s-2.5 14.333 -2.5 25z" />
    <glyph glyph-name="j" unicode="j" horiz-adv-x="205" 
d="M146 -459c-32 8.66699 -62.6758 23.0029 -92.0088 43.0029s-55.666 43.667 -78.999 71s-42.666 57.5 -57.999 90.5s-25 66.833 -29 101.5c0 4.66699 -0.166992 9 -0.5 13s-0.166016 8 0.500977 12s2.33398 7.66699 5.00098 11s7 5.66602 13 6.99902
c8.66699 -4.66699 17.167 -14.167 25.5 -28.5s17.166 -31.5 26.499 -51.5l30 -63c10.667 -22 23 -42 37 -60s30 -33 48 -45s38.333 -18 61 -18c7.33301 0 13.5 2 18.5 6s9 8.83301 12 14.5s5 11.834 6 18.501s1.5 12.667 1.5 18
c2.66699 58.667 0.333984 117.167 -6.99902 175.5s-16.333 116.5 -27 174.5l-33 173c-11.333 57.333 -19.333 114.666 -24 171.999c1.33301 4.66699 2 8.66699 2 12s0.833008 6.16602 2.5 8.49902s4.16699 4.16602 7.5 5.49902s9 2 17 2
c6.66699 -4.66699 13.834 -16.667 21.501 -36s15.5 -44 23.5 -74s16 -64.167 24 -102.5s15.333 -78.5 22 -120.5s12.334 -84.667 17.001 -128s7.83398 -85.333 9.50098 -126s1.66699 -78.667 0 -114s-5.66699 -65.5 -12 -90.5s-15.166 -44 -26.499 -57
s-25.666 -17.833 -42.999 -14.5zM28.9912 578.003c0 2.66699 2.5 6.33398 7.5 11.001s9.16699 7.33398 12.5 8.00098c9.33301 2 17.166 0.833008 23.499 -3.5s11.5 -10 15.5 -17s7 -14.833 9 -23.5s3 -16.334 3 -23.001c-7.33301 -6.66699 -15.166 -10.334 -23.499 -11.001
s-16 1.33301 -23 6s-12.833 11.667 -17.5 21s-7 20 -7 32z" />
    <glyph glyph-name="k" unicode="k" horiz-adv-x="413" 
d="M50 29c0 1.33301 0.333984 4.83008 1.00098 10.4971s1.66699 11.834 3 18.501s2.33301 12.834 3 18.501s1 9.16699 1 10.5v10.5c0 5.66699 0.166992 12.167 0.5 19.5s0.5 15 0.5 23v18v16c0 6.66699 -0.166992 13.5 -0.5 20.5s-0.5 13 -0.5 18v8.5
c-2 30.667 -5.83301 63.167 -11.5 97.5s-11.667 68.5 -18 102.5l-18 100c-5.66699 32.667 -9.83398 62.667 -12.501 90c6 16 12.5 21.5 19.5 16.5s14.167 -16.833 21.5 -35.5s14.666 -41.834 21.999 -69.501s13.833 -55.834 19.5 -84.501l15.5 -81
c4 -25.333 7.33301 -45 10 -59c1.33301 -1.33301 3.83301 -2 7.5 -2h7.5c13.333 0 25 4 35 12s19.5 18.167 28.5 30.5s17.833 25.666 26.5 39.999s17.667 27.5 27 39.5s19.666 22.167 30.999 30.5s24.333 12.5 39 12.5c9.33301 0 15 -2.83301 17 -8.5
s2.66699 -12.167 2 -19.5c-9.33301 -7.33301 -20 -17 -32 -29l-38.5 -39l-41 -44c-13.667 -15.333 -25.667 -30.166 -36 -44.499s-19 -28.166 -26 -41.499s-10.5 -25 -10.5 -35c0 -14.667 4.83301 -28 14.5 -40s22 -23 37 -33s31.833 -18.5 50.5 -25.5
s37.334 -13 56.001 -18s36.334 -8.83301 53.001 -11.5c16 -2.66699 29.333 -4 40 -4c6 -1.33301 9.33301 -4.66602 10 -9.99902s1 -10.333 1 -15c0 -10 -3.16699 -17.333 -9.5 -22s-14 -8 -23 -10s-18.333 -3 -28 -3h-24.5c-14.667 0 -31.5 4.66699 -50.5 14
s-37.333 19.5 -55 30.5s-33.167 21.167 -46.5 30.5s-22.666 14 -27.999 14c-10.667 0 -17.834 -5.16699 -21.501 -15.5s-6.16699 -21.5 -7.5 -33.5s-3.5 -23.167 -6.5 -33.5s-9.5 -15.5 -19.5 -15.5c-8.66699 0 -16.667 2.33301 -24 7s-11 12.334 -11 23.001z" />
    <glyph glyph-name="l" unicode="l" horiz-adv-x="123" 
d="M41 8c-6.66699 47.333 -10.832 94.499 -12.499 141.499s-2.5 94.167 -2.5 141.5s0.666992 94.333 2 141s1.66602 93.334 0.999023 140.001c0 5.33301 2 9 6 11s8.66699 3 14 3c6 0 11.333 -2.16699 16 -6.5s8.66699 -9.66602 12 -15.999s5.83301 -12.666 7.5 -18.999
s2.5 -11.5 2.5 -15.5c4 -95.333 6.66699 -174.833 8 -238.5s1.33301 -115 0 -154s-3.5 -67.833 -6.5 -86.5s-6.83301 -31.334 -11.5 -38.001s-10.167 -9.33398 -16.5 -8.00098z" />
    <glyph glyph-name="m" unicode="m" horiz-adv-x="768" 
d="M671 35c0 2 0.164062 4.67383 0.49707 8.00684s0.5 6.66602 0.5 9.99902v9l1 6c0 2 0.5 7.66699 1.5 17s2.16699 19.333 3.5 30s2.33301 20.834 3 30.501s1 15.834 1 18.501c-1.33301 14 -4.33301 32.333 -9 55s-11.834 45 -21.501 67s-21.834 41 -36.501 57
s-32 24 -52 24c-18 0 -36.833 -4.5 -56.5 -13.5s-38 -20.667 -55 -35s-30.833 -30.833 -41.5 -49.5c-11.333 -18 -17 -37 -17 -57c0 -10 1.66699 -19.833 5 -29.5s6.83301 -19.167 10.5 -28.5s7.16699 -19 10.5 -29s5 -20.333 5 -31c0 -8 -1.5 -16 -4.5 -24
s-10.167 -12 -21.5 -12c-12 0 -21.833 7 -29.5 21s-14.667 31.833 -21 53.5l-20 69.5c-7 24.667 -15.667 47.834 -26 69.501s-23 39.5 -38 53.5s-34.167 21 -57.5 21c-18 0 -34 -3.83301 -48 -11.5s-25.5 -17.834 -34.5 -30.501s-16 -27 -21 -43s-7.5 -32.333 -7.5 -49
c0 -26.667 1.83301 -52.834 5.5 -78.501s5.5 -51.5 5.5 -77.5c0 -9.33301 -1 -17.833 -3 -25.5s-8.66699 -11.5 -20 -11.5c-7.33301 0 -13.5 1.83301 -18.5 5.5s-9.16699 8.33398 -12.5 14.001s-6 12 -8 19s-3.66699 13.167 -5 18.5c1.33301 27.333 1.5 52.666 0.5 75.999
s-2.33301 45.5 -4 66.5l-5 63.5c-1.66699 21.333 -2.5 44 -2.5 68v7c0 3.33301 0.166992 6.83301 0.5 10.5s0.5 7 0.5 10v6.5c0.666992 1.33301 2.33398 3 5.00098 5s4.33398 3.66699 5.00098 5h5c11.333 0 19.666 -4 24.999 -12c5.33301 -6.66699 8 -15.334 8 -26.001
c10.667 11.333 20.167 20.166 28.5 26.499s16.333 11.166 24 14.499s15.667 5.33301 24 6s18.5 1 30.5 1c19.333 0 36.833 -2 52.5 -6s29.834 -9.83301 42.501 -17.5s24.334 -17.834 35.001 -30.501c10.667 -12 21.334 -26 32.001 -42c0.666992 0 1.5 -0.166992 2.5 -0.5
s1.83301 -0.5 2.5 -0.5s4 3.16699 10 9.5s14 14 24 23l35 30c13.333 11 27.333 21.167 42 30.5s29.667 17.166 45 23.499s30.333 9.5 45 9.5c22.667 0 42.834 -4.66699 60.501 -14s33.5 -21.833 47.5 -37.5s26 -33.334 36 -53.001s18.333 -40 25 -61
s11.5 -41.833 14.5 -62.5s4.5 -39.667 4.5 -57c0 -6.66699 -0.166992 -18.167 -0.5 -34.5s-2 -33 -5 -50s-7.83301 -32 -14.5 -45s-16 -19.5 -28 -19.5c-6 0 -10.333 1.16699 -13 3.5s-4.66699 5.16602 -6 8.49902s-2 7 -2 11v13z" />
    <glyph glyph-name="n" unicode="n" horiz-adv-x="471" 
d="M29 390c0 6 2.16602 9.83301 6.49902 11.5s9.16602 2.5 14.499 2.5c4 0 6.83301 -1 8.5 -3s2.83398 -4.33301 3.50098 -7s1.66699 -5.16699 3 -7.5s3.66602 -3.5 6.99902 -3.5c9.33301 0 20.666 3.66699 33.999 11l43.5 24c15.667 8.66699 32.334 16.667 50.001 24
s35.167 11 52.5 11c22.667 0 43.5 -5.83301 62.5 -17.5s36 -27.167 51 -46.5s27.833 -41 38.5 -65s19.667 -48.5 27 -73.5s12.666 -49.333 15.999 -73s5 -44.167 5 -61.5c0 -6 -0.5 -15 -1.5 -27s-2.66699 -24 -5 -36s-6.16602 -22.5 -11.499 -31.5s-12 -13.5 -20 -13.5
c-1.33301 0 -3.66602 0.166992 -6.99902 0.5s-6.66602 1 -9.99902 2s-6.16602 2.16699 -8.49902 3.5s-3.5 3.33301 -3.5 6c6 51.333 6 99.5 0 144.5s-15.667 84.5 -29 118.5s-29.666 61 -48.999 81s-40 30 -62 30c-20.667 0 -40 -3.33301 -58 -10
s-33.667 -16.334 -47 -29.001s-23.833 -28 -31.5 -46s-11.5 -37.667 -11.5 -59s2 -42.5 6 -63.5s8.5 -42 13.5 -63s9.5 -42.167 13.5 -63.5s6 -42.666 6 -63.999c-18.667 0 -34.334 7.66699 -47.001 23s-22.834 35 -30.501 59s-13.667 51 -18 81s-7.33301 59.5 -9 88.5
s-2.5 56.333 -2.5 82v60.5z" />
    <glyph glyph-name="o" unicode="o" horiz-adv-x="499" 
d="M19 204c0 36.667 8 68.667 24 96s37 50.333 63 69s55.167 32.5 87.5 41.5s64.833 13.5 97.5 13.5c17.333 0 33.5 -3.16699 48.5 -9.5s29.333 -15 43 -26s25.834 -23.667 36.501 -38s19.834 -29.166 27.501 -44.499s13.5 -30.833 17.5 -46.5s6 -30.834 6 -45.501
c0 -34 -6.66699 -64.333 -20 -91s-31.333 -49.167 -54 -67.5s-48.334 -32.333 -77.001 -42s-58 -14.5 -88 -14.5c-30.667 0 -58.834 4.83301 -84.501 14.5s-48 23.167 -67 40.5s-33.833 38.833 -44.5 64.5s-16 54.167 -16 85.5zM68 212
c0 -20.667 3.83301 -40.5029 11.5 -59.5029s18.334 -35.5 32.001 -49.5s29.834 -25.167 48.501 -33.5s38.667 -12.5 60 -12.5c11.333 -1.33301 25.166 0.5 41.499 5.5s32.666 12.333 48.999 22s32 21.334 47 35.001s27.5 28.667 37.5 45s16.167 33.333 18.5 51
s-0.666992 35.334 -9 53.001s-23.5 34.667 -45.5 51s-52.333 31.5 -91 45.5c-22 0 -44.833 -3.16699 -68.5 -9.5s-45.167 -15.833 -64.5 -28.5s-35.333 -28.667 -48 -48s-19 -41.666 -19 -66.999z" />
    <glyph glyph-name="p" unicode="p" horiz-adv-x="533" 
d="M19 131c0 42 7.33203 77.3262 21.999 105.993s34.167 51.667 58.5 69s52.666 30 84.999 38s66.166 12 101.499 12c28.667 0 56.5 -4.66699 83.5 -14s51.167 -22.333 72.5 -39s38.333 -37 51 -61s19 -51.333 19 -82c0 -26.667 -5 -48.5 -15 -65.5s-23.667 -30.333 -41 -40
s-36.5 -16.5 -57.5 -20.5s-42.5 -6 -64.5 -6c-21.333 0 -43.166 1 -65.499 3s-42.833 6.66699 -61.5 14s-34 18.333 -46 33s-18 35.334 -18 62.001c14 0 27.5 -2.83301 40.5 -8.5l39.5 -18c13.333 -6.33301 26.666 -12.166 39.999 -17.499c12.667 -6 26.334 -9 41.001 -9
c10.667 0 24.834 1 42.501 3s34.334 5.83301 50.001 11.5s29.167 13.5 40.5 23.5s17 22.667 17 38c0 22.667 -5 42.334 -15 59.001s-23 30.5 -39 41.5s-34 19.5 -54 25.5s-40 9 -60 9c-2.66699 0 -9.16699 -0.666992 -19.5 -2s-22.166 -3.5 -35.499 -6.5
s-27.333 -6.66699 -42 -11s-28.167 -9.66602 -40.5 -15.999s-22.5 -13.5 -30.5 -21.5s-12 -17 -12 -27v-12c0.666992 -7.33301 1.5 -17.166 2.5 -29.499s1.83301 -24.666 2.5 -36.999s1.66699 -23.166 3 -32.499s2 -14.666 2 -15.999
c1.33301 -10.667 3.66602 -27.167 6.99902 -49.5l11 -75c4 -27.667 8.5 -56.834 13.5 -87.501l14.5 -87.5l12.5 -74.5c3.66699 -22 6.5 -38 8.5 -48c0 -1.33301 0.166992 -2.5 0.5 -3.5s0.5 -1.83301 0.5 -2.5v-1l-1 -2v-2c-1.33301 -2 -4.33301 -5.33301 -9 -10
c-5.33301 -4 -8.66602 -6.66699 -9.99902 -8h-6c-6.66699 0 -13.667 6.16699 -21 18.5s-14.833 29 -22.5 50s-15.334 45.167 -23.001 72.5s-15.167 55.666 -22.5 84.999s-14 58.333 -20 87s-11.333 55.334 -16 80.001s-8.16699 46 -10.5 64s-3.5 30.667 -3.5 38z" />
    <glyph glyph-name="q" unicode="q" horiz-adv-x="422" 
d="M260 29c-1.33301 -0.666992 -4.99805 -1.33105 -10.998 -1.99805s-12.333 -1.66699 -19 -3s-12.667 -2.33301 -18 -3s-8.66602 -1 -9.99902 -1c-32.667 0 -60.5 6.16699 -83.5 18.5s-41.833 28.833 -56.5 49.5s-25.5 44.334 -32.5 71.001s-10.5 54 -10.5 82
c0 33.333 5.16699 66.166 15.5 98.499s25.5 61.166 45.5 86.499s44.167 45.666 72.5 60.999s60.166 23 95.499 23c13.333 0 28 -2.33301 44 -7s30.667 -11.334 44 -20.001s24.666 -19.667 33.999 -33s14 -28.666 14 -45.999l-30 -346c0 -29.333 1.16699 -58.5 3.5 -87.5
s4.83301 -58 7.5 -87s5.16699 -58.167 7.5 -87.5s3.5 -58.333 3.5 -87c0 -10 -0.666992 -18.333 -2 -25c0 -7.33301 -6 -11 -18 -11c-10.667 0 -19.334 5.16699 -26.001 15.5s-11.667 23.833 -15 40.5s-5.33301 35.667 -6 57l-2 65l-2 65c-0.666992 21.333 -2 40.333 -4 57
s-5.5 30.167 -10.5 40.5s-12.167 15.5 -21.5 15.5h-9zM66.002 238.003c0 -19.333 3 -38.168 9 -56.501s14.667 -34.5 26 -48.5s25 -25.333 41 -34c17.333 -8.66699 36.666 -13 57.999 -13c14.667 0 29.667 1.16699 45 3.5s29.666 7.83301 42.999 16.5
c3.33301 20.667 5.5 42.834 6.5 66.501s2.5 47.834 4.5 72.501s5 49.334 9 74.001s10.333 48.667 19 72c0 11.333 -3.16699 21.333 -9.5 30s-14.166 16 -23.499 22s-19.666 10.333 -30.999 13s-22.333 4 -33 4c-25.333 0 -48 -7.66699 -68 -23s-37.167 -34.333 -51.5 -57
s-25.333 -46.834 -33 -72.501s-11.5 -48.834 -11.5 -69.501z" />
    <glyph glyph-name="r" unicode="r" horiz-adv-x="355" 
d="M110 0c-14.667 26.667 -27.333 55.6748 -38 87.0078s-19.667 63 -27 95s-13.166 63.167 -17.499 93.5s-7.16602 57.833 -8.49902 82.5c0 4.66699 -0.333008 9.83398 -1 15.501s-0.833984 11.5 -0.500977 17.5s1.33301 11.667 3 17s4.5 10 8.5 14h2
c0.666992 0 1 0.166992 1 0.5s0.333008 0.5 1 0.5s1 -0.166992 1 -0.5s0.666992 -0.5 2 -0.5h2c1.33301 -0.666992 4.66602 -2 9.99902 -4s8.66602 -3.66699 9.99902 -5c12 4 24.333 8.83301 37 14.5s25.5 11 38.5 16s26.167 9.16699 39.5 12.5s26.333 5 39 5
c9.33301 0 17.5 -0.333008 24.5 -1s14 -1.83398 21 -3.50098s14.5 -3.66699 22.5 -6l28 -8.5c5.33301 -4 10.166 -7.83301 14.499 -11.5s8.33301 -7.83398 12 -12.501s6.5 -10.334 8.5 -17.001s3 -15.334 3 -26.001c-10.667 -1.33301 -23.167 -0.5 -37.5 2.5
s-29.333 6.83301 -45 11.5s-31.834 8.66699 -48.501 12s-32.667 4.66602 -48 3.99902s-29.666 -5 -42.999 -13c-14 -6.66699 -26.333 -18.667 -37 -36c-4.66699 -19.333 -6.66699 -38.333 -6 -57s3 -36.834 7 -54.501s9.16699 -35.334 15.5 -53.001
s12.333 -35.334 18 -53.001s10.834 -35.167 15.501 -52.5s7.66699 -35 9 -53c0 -6.66699 -3.66699 -13.834 -11 -21.501s-15.666 -11.5 -24.999 -11.5z" />
    <glyph glyph-name="s" unicode="s" horiz-adv-x="527" 
d="M17 121c5.33301 4 10.1729 6.50098 14.5059 7.50098s9.16602 1.5 14.499 1.5c6 0 12 -1.5 18 -4.5s11.5 -6.66699 16.5 -11s10.167 -8.5 15.5 -12.5s11 -7.33301 17 -10l41.5 -18c10.333 -4.66699 19.833 -8.33398 28.5 -11.001s18.667 -4.33398 30 -5.00098s26 -1 44 -1
c14 0 31 -0.166992 51 -0.5s39 1.33398 57 5.00098s33.333 10.334 46 20.001s19 24.5 19 44.5c0.666992 19.333 -4.5 34.5 -15.5 45.5s-25.833 19.5 -44.5 25.5s-39.667 10.167 -63 12.5l-72 7.5c-24.667 2.66699 -48.834 6.5 -72.501 11.5s-44.834 12.833 -63.501 23.5
s-33.667 25.334 -45 44.001s-17.333 42.667 -18 72c4 21.333 14.5 39.166 31.5 53.499s37.333 25.333 61 33s48.834 11.667 75.501 12s51.167 -3 73.5 -10s41 -18.167 56 -33.5s22.833 -34.333 23.5 -57c1.33301 -13.333 0.333008 -24.333 -3 -33
s-7.83301 -15.167 -13.5 -19.5s-11.5 -6.33301 -17.5 -6s-10.667 2.66602 -14 6.99902s-4.83301 10.666 -4.5 18.999s4.16602 18.833 11.499 31.5c-2.66699 12.667 -10.334 22.667 -23.001 30s-27.334 12.5 -44.001 15.5s-34.5 3.66699 -53.5 2s-36.333 -5.16699 -52 -10.5
s-28.334 -12.333 -38.001 -21s-13.834 -18.667 -12.501 -30c0 -20 5.83301 -35.5 17.5 -46.5s26.834 -19.5 45.501 -25.5s40.167 -10.333 64.5 -13s49.333 -5.16699 75 -7.5s50.5 -5.66602 74.5 -9.99902s45.667 -11.5 65 -21.5s34.666 -23.5 45.999 -40.5
s17 -39.167 17 -66.5c0 -20.667 -5.33301 -38.5 -16 -53.5s-24.167 -27.5 -40.5 -37.5s-34.166 -17.333 -53.499 -22s-37.666 -7 -54.999 -7s-35.833 0.166992 -55.5 0.5s-39.667 1.5 -60 3.5s-40.833 5.16699 -61.5 9.5s-39.834 11 -57.501 20s-33.5 20.5 -47.5 34.5
s-25.333 31.667 -34 53z" />
    <glyph glyph-name="t" unicode="t" horiz-adv-x="336" 
d="M136 344l-28.0049 0.00195312c-13.333 0 -27.166 1.16699 -41.499 3.5s-27.333 6.16602 -39 11.499s-17.5 13 -17.5 23c0 2.66699 0.5 6.5 1.5 11.5s4.16699 7.5 9.5 7.5l103 9c2.66699 24.667 4.66699 44.834 6 60.501s1.66602 30.334 0.999023 44.001s-1.5 28 -2.5 43
s-1.83301 34.5 -2.5 58.5c0 4.66699 1 8.33398 3 11.001s4.5 4.66699 7.5 6s6.33301 2.33301 10 3s6.5 1 8.5 1c4 0 8.16699 -1.33301 12.5 -4s8.16602 -6 11.499 -10s6 -8.16699 8 -12.5s3 -8.5 3 -12.5l8 -187l86 -4c11.333 1.33301 21.833 -0.833984 31.5 -6.50098
s14.834 -16.167 15.501 -31.5c-8 -8.66699 -17.667 -13.834 -29 -15.501s-23.166 -2.33398 -35.499 -2.00098s-24.5 0.333008 -36.5 0s-22.667 -3.5 -32 -9.5c0 -4 0.333008 -15 1 -33s1.33398 -39.333 2.00098 -64s1.5 -51 2.5 -79s1.83301 -53.833 2.5 -77.5
s1.16699 -43.834 1.5 -60.501s0.5 -26 0.5 -28c-15.333 -9.33301 -27.666 -8.5 -36.999 2.5s-16.833 27.333 -22.5 49s-9.66699 47 -12 76s-3.66602 57.667 -3.99902 86s-0.166016 54.5 0.500977 78.5s1.66699 41.333 3 52z" />
    <glyph glyph-name="u" unicode="u" horiz-adv-x="514" 
d="M384 145c-15.333 -8.66699 -28.499 -19.1621 -39.499 -31.4951s-22.167 -24 -33.5 -35s-23.833 -20.5 -37.5 -28.5s-31.167 -12 -52.5 -12c-24 0 -45.667 5.16699 -65 15.5s-36.5 24.333 -51.5 42s-28 37.667 -39 60s-20 45.333 -27 69s-12.333 47 -16 70
s-5.5 43.833 -5.5 62.5c-5.33301 36 -4.33301 64.167 3 84.5s16.166 33.333 26.499 39s19.166 4.33398 26.499 -3.99902s8.33301 -22.833 3 -43.5c-1.33301 -2.66699 -2.33301 -6.83398 -3 -12.501l-2 -17.5c-0.666992 -6 -1.33398 -11.667 -2.00098 -17s-1 -9 -1 -11
c0 -14 1.33301 -30.5 4 -49.5s6.83398 -38.833 12.501 -59.5s12.834 -41.167 21.501 -61.5s19 -38.5 31 -54.5s25.833 -29 41.5 -39s32.834 -15 51.501 -15c12 0 25.667 5.83301 41 17.5s29.833 25.667 43.5 42s25.334 33.166 35.001 50.499s14.5 32 14.5 44
c0 6.66699 0.166992 17.667 0.5 33s0.5 31.666 0.5 48.999s-0.166992 33.666 -0.5 48.999s-0.5 26 -0.5 32c4 6.66699 8.33301 11.834 13 15.501s10.334 5.5 17.001 5.5c8 0 14.667 -5.33301 20 -16s9.66602 -24.334 12.999 -41.001s5.66602 -34.667 6.99902 -54
s2.33301 -38 3 -56s1.33398 -33.833 2.00098 -47.5s1.66699 -22.834 3 -27.501c3.33301 -13.333 8.16602 -28.333 14.499 -45l18.5 -48.5l16 -43c4.66699 -13 7 -22.833 7 -29.5c0 -10 -2.83301 -16 -8.5 -18s-12.834 -3 -21.501 -3c-10.667 0 -18.5 2.66699 -23.5 8
s-8.66699 12.166 -11 20.499s-4.16602 17.5 -5.49902 27.5s-3.5 20.333 -6.5 31s-7.33301 20.667 -13 30s-13.834 17 -24.501 23z" />
    <glyph glyph-name="v" unicode="v" horiz-adv-x="399" 
d="M10 356c0.666992 2 1.67188 4.50195 3.00488 7.50195s3.16602 6.16699 5.49902 9.5s4.66602 6.16602 6.99902 8.49902s5.16602 3.5 8.49902 3.5c0.666992 0 1 -0.166992 1 -0.5s0.666992 -0.5 2 -0.5h2c15.333 -7.33301 28 -17.833 38 -31.5s18.833 -29.167 26.5 -46.5
s14.834 -35.833 21.501 -55.5s14.167 -39 22.5 -58s18.166 -37.5 29.499 -55.5s25.666 -34 42.999 -48l18 58.5c6 19 12.833 38.167 20.5 57.5s16.667 39.333 27 60s22.166 43 35.499 67c16 6.66699 28.833 10.667 38.5 12s16.5 0.166016 20.5 -3.50098
s4.66699 -9.16699 2 -16.5s-8.33398 -16 -17.001 -26c-5.33301 -4.66699 -11.5 -15.334 -18.5 -32.001s-14.5 -36.334 -22.5 -59.001l-25.5 -71c-9 -24.667 -18.167 -47.167 -27.5 -67.5s-18.5 -37.166 -27.5 -50.499s-17.833 -19.666 -26.5 -18.999
c-9.33301 0 -19.833 7.16699 -31.5 21.5s-24.167 32.833 -37.5 55.5s-26.666 47.5 -39.999 74.5l-38.5 80.5l-34 73.5c-10.333 22.333 -18.833 39.5 -25.5 51.5z" />
    <glyph glyph-name="w" unicode="w" horiz-adv-x="672" 
d="M346 96c-26.667 -36 -53.4932 -61.1689 -80.4932 -75.502s-52.667 -20.666 -77 -18.999s-47.333 10.5 -69 26.5s-40.334 36 -56.001 60s-28.334 51.167 -38.001 81.5s-14.834 61.166 -15.501 92.499s3.5 61.833 12.5 91.5s24.167 56.167 45.5 79.5
c10.667 -4 16.667 -9.33301 18 -16c1.33301 -7.33301 2 -15 2 -23c0 -11.333 -1.16699 -22.166 -3.5 -32.499s-4.83301 -20.833 -7.5 -31.5s-5.16699 -21.667 -7.5 -33s-3.5 -23 -3.5 -35c0 -8.66699 1 -19.5 3 -32.5s4.83301 -26.833 8.5 -41.5s8.5 -29.167 14.5 -43.5
s13.167 -27.333 21.5 -39s17.5 -21.334 27.5 -29.001s21.333 -11.5 34 -11.5c11.333 0 24.833 3.5 40.5 10.5s30.667 15.833 45 26.5s26.333 22.667 36 36s14.5 26.666 14.5 39.999l6 130c0 2 1.33301 4 4 6s5.5 3.83301 8.5 5.5s6.16699 3.16699 9.5 4.5
s5.66602 2 6.99902 2c9.33301 0 15.666 -6 18.999 -18s6 -27.5 8 -46.5s4.33301 -39.167 7 -60.5s7.5 -41.5 14.5 -60.5s17.5 -34.5 31.5 -46.5c13.333 -12 32.666 -18 57.999 -18c24.667 0.666992 44.334 5.83398 59.001 15.501s25.334 22.5 32.001 38.5
s9.83398 33.833 9.50098 53.5s-3 39.334 -8 59.001s-11.667 38.5 -20 56.5s-17.5 33.667 -27.5 47c-1.33301 5.33301 -1.33301 9.16602 0 11.499s3.16602 4 5.49902 5s5.16602 1.66699 8.49902 2s6 0.5 8 0.5c10.667 -2.66699 22.167 -11.5 34.5 -26.5
s23.166 -32.833 32.499 -53.5s16.5 -43.667 21.5 -69s6.33301 -50.333 4 -75s-9.5 -47.667 -21.5 -69s-30.333 -38.666 -55 -51.999c-29.333 -2 -53.333 -3.16699 -72 -3.5s-34.167 0.333984 -46.5 2.00098s-22.166 4.5 -29.499 8.5s-14.333 9.16699 -21 15.5
s-13.834 13.833 -21.501 22.5s-17.834 19 -30.501 31z" />
    <glyph glyph-name="x" unicode="x" horiz-adv-x="459" 
d="M393 -52c-18 15.333 -34.6699 31.6631 -50.0029 48.9961l-47 52.5c-16 17.667 -32.333 34.334 -49 50.001s-35.334 29.167 -56.001 40.5c-9.33301 0 -17.833 -3.16699 -25.5 -9.5s-15.167 -14.666 -22.5 -24.999s-14.166 -21.666 -20.499 -33.999l-18 -34.5
c-5.66699 -10.667 -10.834 -20 -15.501 -28s-9 -12.667 -13 -14c-12.667 0.666992 -19 7 -19 19c0 18.667 5 36.5 15 53.5s21.167 33 33.5 48l33.5 42c10 13 15 24.833 15 35.5c0 0.666992 -0.166992 1.33398 -0.5 2.00098s-0.5 1.33398 -0.5 2.00098l-39 37l-44.5 44.5
c-15 15.667 -28.833 31.5 -41.5 47.5c-12 14.667 -21.667 29.334 -29 44.001c-1.33301 5.33301 -1.16602 9.33301 0.500977 12s3.83398 4.83398 6.50098 6.50098s5.66699 2.66699 9 3s6 0.5 8 0.5c16.667 -6 32.5 -15.667 47.5 -29s29.5 -27.333 43.5 -42l41.5 -43
c13.667 -14 27.167 -24.667 40.5 -32c13.333 2 28.333 8.83301 45 20.5s34 24.834 52 39.501l53 44.5c17.333 15 33.333 26.667 48 35s27 12.166 37 11.499s17 -9.33398 21 -26.001c0 -3.33301 -4.5 -8.83301 -13.5 -16.5l-33.5 -27.5c-13.333 -10.667 -28.333 -22 -45 -34
l-48.5 -35c-15.667 -11.333 -30 -22.5 -43 -33.5s-22.833 -20.167 -29.5 -27.5l49.5 -46c19 -17.333 37.833 -35.833 56.5 -55.5s35.834 -39.834 51.501 -60.501s27.167 -40 34.5 -58c-2.66699 -6.66699 -6 -13.334 -10 -20.001s-10 -10 -18 -10
c-1.33301 0 -3.16602 0.166992 -5.49902 0.5s-3.83301 0.5 -4.5 0.5z" />
    <glyph glyph-name="y" unicode="y" horiz-adv-x="499" 
d="M46 -312l-0.00390625 13.502c0 4.33301 0.666992 8 2 11s3.33301 5.5 6 7.5c4 1.33301 8.66699 2 14 2l38.5 -43.5c15.667 -17.667 33.5 -34.834 53.5 -51.501s41 -31.334 63 -44.001s44.333 -19 67 -19c18.667 0.666992 34.667 5.5 48 14.5s24.666 20.833 33.999 35.5
s17 31.334 23 50.001s10.833 37.667 14.5 57s6.33398 38 8.00098 56s3.5 33.667 5.5 47c1.33301 6.66699 2.83301 17.834 4.5 33.501s3.33398 33 5.00098 52s3 38.833 4 59.5s0.833008 39.5 -0.5 56.5s-4 31 -8 42s-10 16.5 -18 16.5c-11.333 0 -23.333 -3.33301 -36 -10
s-25.834 -14.167 -39.501 -22.5s-27.5 -15.833 -41.5 -22.5s-27.667 -10 -41 -10c-25.333 0 -48.5 5.16699 -69.5 15.5s-40.167 23.833 -57.5 40.5s-32.666 36.167 -45.999 58.5s-24.5 45.5 -33.5 69.5s-15.667 48 -20 72s-6.5 46.667 -6.5 68
c0 4.66699 -0.5 12.334 -1.5 23.001s-0.833008 21.667 0.5 33s4.33301 21.333 9 30s12 13 22 13c2.66699 0 4.83398 -5.33301 6.50098 -16s3.66699 -24.5 6 -41.5s5.33301 -36.5 9 -58.5s8.5 -44.333 14.5 -67s13.333 -45 22 -67s19.334 -41.5 32.001 -58.5
s27.834 -30.833 45.501 -41.5s37.834 -16 60.501 -16c14.667 0 30 3.16699 46 9.5s31.167 14.5 45.5 24.5s27.5 21.333 39.5 34c12 13.333 21.333 26.333 28 39c0 2.66699 -0.333008 9 -1 19s-1.33398 21.5 -2.00098 34.5s-1.33398 27.167 -2.00098 42.5
s-1.33398 29.833 -2.00098 43.5s-1.16699 25.5 -1.5 35.5s-0.5 16.333 -0.5 19c1.33301 40.667 4.33301 65.5 9 74.5s10.334 6.16699 17.001 -8.5s13.667 -39.334 21 -74.001s14.166 -75.167 20.499 -121.5s11.333 -96.833 15 -151.5s5.16699 -109.5 4.5 -164.5
s-4.16699 -108.167 -10.5 -159.5s-16.5 -96.833 -30.5 -136.5s-32.333 -71.834 -55 -96.501s-50.667 -37.667 -84 -39c-13.333 0 -29.166 2.5 -47.499 7.5s-36.833 11.833 -55.5 20.5s-37.167 19 -55.5 31s-34.666 25 -48.999 39s-26 28.667 -35 44
s-13.5 30.666 -13.5 45.999z" />
    <glyph glyph-name="z" unicode="z" horiz-adv-x="471" 
d="M86 68c0 11.333 3.49609 23.999 10.4961 37.999s15.667 27.833 26 41.5s20.833 26.667 31.5 39l27 30.5l-132 4c-2.66699 0 -4.83398 1 -6.50098 3s-2.83398 4.5 -3.50098 7.5s-1 5.83301 -1 8.5v5c0 6 0.333008 10.5 1 13.5s2.33398 5.16699 5.00098 6.5s6 2.33301 10 3
h14c6.66699 0.666992 18 2 34 4s33.333 4 52 6l52.5 5.5c16.333 1.66699 27.833 3.16699 34.5 4.5c9.33301 13.333 17 24.833 23 34.5s10.833 18.667 14.5 27s6.33398 16.833 8.00098 25.5s2.5 19 2.5 31c0 5.33301 -0.5 11.666 -1.5 18.999s-3 14.5 -6 21.5
s-7 12.833 -12 17.5s-11.5 7 -19.5 7h-125c-7.33301 0 -14.166 -2.66699 -20.499 -8s-12 -11 -17 -17s-10.167 -11.333 -15.5 -16c-5.33301 -5.33301 -10 -8 -14 -8c-11.333 0 -20.666 3 -27.999 9s-11 14.667 -11 26c0 10.667 3.83301 19.667 11.5 27
s17.834 13.833 30.501 19.5s26.334 10 41.001 13s29.334 5.5 44.001 7.5s28.167 3.5 40.5 4.5s21.833 1.5 28.5 1.5c18.667 0 36.167 -2.66699 52.5 -8s30.166 -13.166 41.499 -23.499s20.333 -22.833 27 -37.5s10 -31.667 10 -51c0 -12 -1.33301 -23 -4 -33
s-5.66699 -20 -9 -30s-6.33301 -20 -9 -30s-4 -20.667 -4 -32c0.666992 0 4.83398 0.5 12.501 1.5s16.167 1.66699 25.5 2s17.666 -0.333984 24.999 -2.00098s11 -5.5 11 -11.5v-2.5v-1.5v-3c-2 -3.33301 -5.5 -8 -10.5 -14s-7.83301 -9 -8.5 -9l-107 -10
c-5.33301 -9.33301 -13 -19.5 -23 -30.5l-30 -34c-10 -11.667 -19 -23.167 -27 -34.5s-12.667 -21.666 -14 -30.999s2 -17.5 10 -24.5s23.333 -11.833 46 -14.5c14.667 0 30.5 1.33301 47.5 4s34.167 6.33398 51.5 11.001s34 10 50 16s30.333 12.333 43 19
c5.33301 -4 10 -9 14 -15s6 -12.333 6 -19c0 -10 -4.66699 -18.833 -14 -26.5s-21.333 -14.5 -36 -20.5s-31 -11.333 -49 -16s-35.833 -8.33398 -53.5 -11.001s-34 -4.66699 -49 -6s-26.5 -2 -34.5 -2c-9.33301 0 -20.833 1.33301 -34.5 4s-27 6.5 -40 11.5
s-23.833 11.833 -32.5 20.5s-13 19.334 -13 32.001z" />
    <glyph glyph-name="braceleft" unicode="{" horiz-adv-x="403" 
d="M66 72c0 24.667 5.33008 45.833 15.9971 63.5s24 33.834 40 48.501s33 28.167 51 40.5s35 25.333 51 39s29.333 28.5 40 44.5s16 34.667 16 56v6.5c0 3 -0.166992 6 -0.5 9s-0.5 5.83301 -0.5 8.5v6c-1.33301 1.33301 -4.66602 3.33301 -9.99902 6
c-4.66699 2.66699 -7.66699 4 -9 4h-6c-13.333 0 -28.666 -3.16699 -45.999 -9.5s-35.166 -13.833 -53.499 -22.5s-35.333 -17.334 -51 -26.001l-35.5 -20h-5.5h-4.5c-8.66699 0 -14.167 2 -16.5 6s-3.5 10 -3.5 18v8v6c9.33301 4.66699 21.666 10.5 36.999 17.5
s30.333 15 45 24s28 19 40 30s19.667 22.833 23 35.5c-26.667 4.66699 -50.167 14.5 -70.5 29.5s-37.5 32.833 -51.5 53.5s-24.5 43.167 -31.5 67.5s-10.5 48.5 -10.5 72.5c0 30 8.5 58.333 25.5 85s38.667 50 65 70s55 35.833 86 47.5s60.5 17.5 88.5 17.5
c9.33301 0 19.5 -1.33301 30.5 -4s21 -6.83398 30 -12.501s16.5 -13 22.5 -22s9 -19.5 9 -31.5c0 -5.33301 -1 -11.666 -3 -18.999s-6.33301 -11 -13 -11c-4 0 -8.5 2.66699 -13.5 8l-17 17.5c-6.33301 6.33301 -13.166 12.166 -20.499 17.499s-15.666 8 -24.999 8
c-28.667 -2.66699 -54.834 -9.16699 -78.501 -19.5s-44.667 -24 -63 -41s-34 -36.667 -47 -59s-22.833 -46.833 -29.5 -73.5c0 -20.667 4 -38.5 12 -53.5s18.667 -28.333 32 -40s28.666 -21.834 45.999 -30.501s34.833 -16.667 52.5 -24l52 -21.5
c17 -7 32.833 -14.5 47.5 -22.5c-4 -12.667 -4.16699 -24 -0.5 -34s8.33398 -19.5 14.001 -28.5s11.167 -18.5 16.5 -28.5s8 -21 8 -33c0 -23.333 -5.66699 -43.833 -17 -61.5s-25.5 -33.667 -42.5 -48s-35.5 -27.833 -55.5 -40.5s-38.5 -26.334 -55.5 -41.001
s-31.167 -30.5 -42.5 -47.5s-17 -36.833 -17 -59.5v-9c8 -14 16.333 -27 25 -39s18.667 -22.167 30 -30.5s23.833 -14.833 37.5 -19.5s28.834 -7 45.501 -7h6c24.667 4.66699 48.834 9 72.501 13s48.167 6 73.5 6c0 -11.333 -3.83301 -21 -11.5 -29s-17.5 -14.5 -29.5 -19.5
s-25.333 -8.83301 -40 -11.5s-29.167 -4.66699 -43.5 -6s-27.333 -2.16602 -39 -2.49902s-20.5 -0.5 -26.5 -0.5c-24 -4.66699 -45.333 -2.16699 -64 7.5s-34.334 23.334 -47.001 41.001s-22.334 37.334 -29.001 59.001s-10 42.167 -10 61.5z" />
    <glyph glyph-name="bar" unicode="|" horiz-adv-x="153" 
d="M76 10c-0.666992 5.33301 -1.16699 14.6699 -1.5 28.0029s-1.16602 27.666 -2.49902 42.999s-2.33301 30 -3 44s-1 23.667 -1 29c-1.33301 30.667 -1.83301 59.167 -1.5 85.5s0 52.333 -1 78s-2.5 51.5 -4.5 77.5s-6 54.333 -12 85
c-5.33301 22.667 -11.666 46.667 -18.999 72s-11 50 -11 74c0 4 0.333008 9.33301 1 16v10c0 1.33301 1.16699 3.5 3.5 6.5s4.16602 4.5 5.49902 4.5c2 0 5.33301 -1.33301 10 -4l10 -7c17.333 -47.333 31.166 -95 41.499 -143s18.333 -96.333 24 -145
s9.33398 -97.834 11.001 -147.501s1.5 -99.167 -0.5 -148.5c0.666992 -1.33301 1.5 -3.33301 2.5 -6s2 -5.5 3 -8.5s1.83301 -6 2.5 -9s1 -5.16699 1 -6.5c0 -14.667 -4 -24.667 -12 -30c-6.66699 -5.33301 -16.667 -8 -30 -8h-5c-1.33301 0.666992 -3.33301 2.16699 -6 4.5
s-4.33398 4.16602 -5.00098 5.49902z" />
    <glyph glyph-name="braceright" unicode="}" horiz-adv-x="451" 
d="M211 -231c-18.667 -2 -39.3301 -1.67188 -61.9971 0.995117s-44.334 8.16699 -65.001 16.5s-38.667 20.5 -54 36.5c-15.333 15.333 -25.333 35.666 -30 60.999c0 2 0.666992 4.83301 2 8.5s3.16602 7.16699 5.49902 10.5s5 6 8 8s5.83301 3 8.5 3
c6.66699 0 11.834 -2 15.501 -6s6.66699 -8.83301 9 -14.5s4.83301 -10.834 7.5 -15.501c4 -5.33301 8 -9.33301 12 -12l24.5 -13l31 -16l27 -13.5c7.66699 -3.66699 12.167 -5.5 13.5 -5.5c26 -5.33301 51.667 -4.83301 77 1.5s47.833 17 67.5 32s35.667 33.667 48 56
s18.5 46.833 18.5 73.5c0 11.333 -2.16699 24.666 -6.5 39.999s-10 31.166 -17 47.499s-15 32.833 -24 49.5s-18.167 32.834 -27.5 48.501s-18.333 29.834 -27 42.501s-16.334 23.334 -23.001 32.001c-12 14.667 -25.333 27.5 -40 38.5s-28.5 22.5 -41.5 34.5
s-23.667 25.333 -32 40s-12.5 32.667 -12.5 54c0 12.667 1.66699 23 5 31s5 17 5 27c0 6.66699 -1 13 -3 19s-4.16699 12 -6.5 18s-4.5 12.333 -6.5 19s-3 13.334 -3 20.001c0 12.667 0.833008 23.834 2.5 33.501s7.16699 19.5 16.5 29.5l164 163
c2.66699 2.66699 4.83398 6.66699 6.50098 12s2.66699 10.833 3 16.5s0.5 11 0.5 16v13.5c0 20 -5 35.833 -15 47.5s-22.667 20.5 -38 26.5s-32 9.83301 -50 11.5s-35.333 2.5 -52 2.5c-8.66699 0 -16.834 -0.833008 -24.501 -2.5l-23 -5
c-7.66699 -1.66699 -15.5 -3 -23.5 -4s-16 -1.16699 -24 -0.5c3.33301 -8.66699 8.16602 -13.834 14.499 -15.501s12.833 -2.5 19.5 -2.5s12.334 -1 17.001 -3s7 -7.66699 7 -17c0 -10 -2.83301 -15.833 -8.5 -17.5s-12.5 -2.5 -20.5 -2.5c-24.667 0 -44 6.66699 -58 20
s-21 31.333 -21 54c0 10.667 3.33301 19 10 25s15.5 10.667 26.5 14s22.833 5.33301 35.5 6s25.167 0.833984 37.5 0.500977s23.5 -0.833008 33.5 -1.5s17 -1 21 -1h17.5c8.33301 0 17.166 -0.166992 26.499 -0.5s18 -0.5 26 -0.5h18c16.667 -6 31.834 -13.833 45.501 -23.5
s25.667 -20.5 36 -32.5s18.5 -26 24.5 -42s9 -33 9 -51c0 -21.333 -5 -40.5 -15 -57.5s-22.5 -33 -37.5 -48s-31.333 -29 -49 -42s-34 -25.833 -49 -38.5s-27.5 -25.667 -37.5 -39s-15 -28 -15 -44c0 -8 1.66699 -14 5 -18s7.5 -7 12.5 -9s11.167 -3.33301 18.5 -4l22 -2
c4.66699 -0.666992 12.5 -1 23.5 -1h35h34.5c10.667 0 18.334 0.333008 23.001 1c9.33301 -4 14.833 -8.5 16.5 -13.5s2.5 -11.5 2.5 -19.5c0 -4 -0.333008 -8.66699 -1 -14c0 -5.33301 -2.66699 -8.66602 -8 -9.99902c-5.33301 -0.666992 -14.333 -1.5 -27 -2.5
s-26.167 -1.83301 -40.5 -2.5s-27.833 -1.66699 -40.5 -3s-21.667 -2 -27 -2c-11.333 -1.33301 -21.666 -5 -30.999 -11s-15.333 -15 -18 -27c-0.666992 -2 2.16602 -7 8.49902 -15l23.5 -28.5c9.33301 -11 19.833 -22.667 31.5 -35l33.5 -36.5l29 -34
c8.66699 -10.667 15 -19 19 -25l38 -61c12.667 -20 24.167 -40.667 34.5 -62s18.666 -43.166 24.999 -65.499s9.5 -46.166 9.5 -71.499c0 -33.333 -5.33301 -62.333 -16 -87s-25.667 -45.667 -45 -63s-41.833 -30.166 -67.5 -38.499s-53.834 -12.5 -84.501 -12.5z" />
    <glyph glyph-name="asciitilde" unicode="~" horiz-adv-x="412" 
d="M291 449c-17.333 -6.66699 -32.834 -8.3291 -46.501 -4.99609s-26.667 9 -39 17s-24.5 16.833 -36.5 26.5s-25 17.834 -39 24.501c-18.667 1.33301 -32.5 -1.83398 -41.5 -9.50098s-15.167 -17 -18.5 -28s-4.83301 -22.167 -4.5 -33.5s-0.166992 -20 -1.5 -26
s-4.33301 -8.16699 -9 -6.5s-13.667 10.5 -27 26.5c-5.33301 16 -6.83301 31.167 -4.5 45.5s7.5 26.666 15.5 36.999s18.333 18.833 31 25.5c12 7.33301 25 11 39 11c1.33301 0.666992 3.83301 0.833984 7.5 0.500977s9.5 -1.83301 17.5 -4.5s18.5 -7.33398 31.5 -14.001
s30.167 -16.334 51.5 -29.001c12.667 -7.33301 22.667 -11.333 30 -12s16.333 1 27 5c2.66699 1.33301 6 2.66602 10 3.99902s6 2.33301 6 3l61 48c8 -0.666992 14.167 -2.33398 18.5 -5.00098s7.33301 -5.66699 9 -9s2.33398 -6.66602 2.00098 -9.99902
s-1.83301 -6 -4.5 -8c-18 -14.667 -31.833 -26.667 -41.5 -36l-21.5 -21c-4.66699 -4.66699 -7.5 -7.83398 -8.5 -9.50098s-1.66699 -2.83398 -2 -3.50098s-1 -1.16699 -2 -1.5s-4.16699 -1.16602 -9.5 -2.49902z" />
    <glyph glyph-name="nonbreakingspace" unicode="&#xa0;" horiz-adv-x="384" 
 />
    <glyph glyph-name="exclamdown" unicode="&#xa1;" horiz-adv-x="153" 
d="M21.2773 638.173c0 -16.2568 7.00293 -27.9072 21.0068 -34.9512c15.2773 -7.58594 32.4648 -11.3789 51.5615 -11.3789c6.36523 0 12.0938 1.62598 17.1865 4.87695s9.54883 7.17969 13.3682 11.7852c3.81934 4.60645 6.52441 9.4834 8.11523 14.6309
s2.38672 10.1602 2.38672 15.0371c0 5.95996 -2.5459 11.3789 -7.63867 16.2559s-11.1396 9.21191 -18.1416 13.0049s-14.6406 6.6377 -22.916 8.53418s-15.2773 2.84473 -21.0068 2.84473c-15.9131 0 -27.2119 -3.65723 -33.8965 -10.9727
c-6.68359 -7.31543 -10.0254 -17.2041 -10.0254 -29.667zM50.8779 455.291c-2.5459 -14.0889 -4.2959 -33.1885 -5.25 -57.3018c-0.955078 -24.1133 -1.5918 -50.665 -1.91016 -79.6543c-0.318359 -28.9902 -0.318359 -59.335 0 -91.0342
c0.318359 -31.7002 0.477539 -62.0449 0.477539 -91.0342v-79.249c0 -24.9258 -0.636719 -44.4326 -1.91016 -58.5215l46.7871 -6.50293l0.955078 14.6309c0 9.75391 0.15918 22.4883 0.477539 38.2021s0.636719 33.8662 0.955078 54.457s0.795898 41.9941 1.43164 64.2109
c0.636719 22.2168 0.955078 44.5693 0.955078 67.0566s0.318359 43.4844 0.955078 62.9912c0.635742 19.5068 1.11328 36.7109 1.43164 51.6123s0.795898 25.6035 1.43262 32.1055v6.09668c0 2.97949 0.15918 6.50195 0.477539 10.5664
c0.318359 4.06348 0.477539 7.99219 0.477539 11.7852v8.94141c0 4.33496 0.15918 9.34766 0.477539 15.0381c0.318359 5.68945 0 11.2432 -0.955078 16.6621s-3.02344 9.88965 -6.20605 13.4121s-8.59375 5.2832 -16.2324 5.2832
c-4.45605 0 -9.23047 -0.270508 -14.3232 -0.8125s-8.59375 -3.52246 -10.5039 -8.94141z" />
    <glyph glyph-name="cent" unicode="&#xa2;" horiz-adv-x="460" 
d="M226 -51c-0.666992 3.33301 -0.832031 9.00684 -0.499023 17.0068s0.166016 17.667 -0.500977 29c-68.667 4 -120.167 24.333 -154.5 61s-51.5 92.334 -51.5 167.001c0 26.667 4.83301 52.834 14.5 78.501s23 49 40 70s36.833 38.333 59.5 52s47.334 22.5 74.001 26.5
l-3 15c-1.33301 5.33301 -2 10.333 -2 15c-2.66699 25.333 -3 43.166 -1 53.499s5.33301 15.666 10 15.999s9.66699 -3 15 -10s10.333 -15.833 15 -26.5s8.33398 -21.667 11.001 -33s3 -21 1 -29c12.667 -1.33301 25.5 -3.83301 38.5 -7.5s25 -8.83398 36 -15.501
s20 -15.167 27 -25.5s10.5 -22.833 10.5 -37.5c0 -2.66699 -0.833008 -8 -2.5 -16s-3.83398 -16 -6.50098 -24s-5.83398 -15.167 -9.50098 -21.5s-6.83398 -9.5 -9.50098 -9.5c0 26.667 -6 49.667 -18 69s-30 31.666 -54 36.999
c5.33301 -26.667 9.16602 -52.334 11.499 -77.001s3.83301 -50.167 4.5 -76.5s0.666992 -54.166 0 -83.499c-0.666992 -28.667 -1.33398 -60.334 -2.00098 -95.001c0.666992 -1.33301 1.33398 -3 2.00098 -5s1.66699 -4.33301 3 -7
c22 -1.33301 43.833 -1.66602 65.5 -0.999023s42.834 1.66699 63.501 3c2 0 5.33301 -1.33301 10 -4s8 -4.33398 10 -5.00098v-3c0 -1.33301 0.166992 -2 0.5 -2s0.5 -0.333008 0.5 -1c2.66699 -8.66699 -1 -15.334 -11 -20.001s-22.833 -8.33398 -38.5 -11.001
s-33 -4.83398 -52 -6.50098s-36.167 -3.5 -51.5 -5.5c-2 -7.33301 -4.33301 -14.666 -7 -21.999s-5.66699 -13.833 -9 -19.5s-7 -10.334 -11 -14.001s-8 -5.5 -12 -5.5h-6c-1.33301 0.666992 -3.16602 2.16699 -5.49902 4.5s-3.83301 4.16602 -4.5 5.49902zM76.002 221.007
c0 -26.667 3.83203 -49.1631 11.499 -67.4961s18.167 -33.833 31.5 -46.5s29 -22.334 47 -29.001c17.333 -6.66699 36.333 -12 57 -16c-0.666992 21.333 -1.16699 40.666 -1.5 57.999s-0.5 28.666 -0.5 33.999c-1.33301 24 -1.66602 46.333 -0.999023 67v61
c0 20 -0.5 39.833 -1.5 59.5s-2.5 40.167 -4.5 61.5c-22 -2.66699 -41.5 -9.83398 -58.5 -21.501s-31.5 -25.834 -43.5 -42.501s-21 -35.167 -27 -55.5s-9 -41.166 -9 -62.499z" />
    <glyph glyph-name="sterling" unicode="&#xa3;" horiz-adv-x="777" 
d="M10 87c0 12 3.00684 21.168 9.00684 27.501s13.5 11.166 22.5 14.499s18.667 5.16602 29 5.49902s19.833 0.5 28.5 0.5c13.333 0 25.5 -0.166992 36.5 -0.5s21.833 -0.833008 32.5 -1.5s21.667 -1.66699 33 -3s24.666 -3 39.999 -5c12 8 23.667 21.5 35 40.5
s21.5 39.667 30.5 62s16.333 44.666 22 66.999s8.5 41.5 8.5 57.5c0 6.66699 -1.66699 11.5 -5 14.5s-7.33301 5.5 -12 7.5c-5.33301 1.33301 -10.666 2 -15.999 2h-14c-12 0 -23.833 -1 -35.5 -3s-23.334 -4.33301 -35.001 -7s-23.5 -5 -35.5 -7s-24 -3 -36 -3h-3
c-1.33301 1.33301 -3.16602 4.33301 -5.49902 9s-3.83301 8 -4.5 10v9c1.33301 2 4.5 5.5 9.5 10.5l9.5 9.5c4.66699 1.33301 12.834 3.16602 24.501 5.49902s24.167 5.16602 37.5 8.49902s26 6.33301 38 9s20.333 4.66699 25 6h10c17.333 2.66699 31.833 9.16699 43.5 19.5
s21.667 23 30 38s15.666 31.667 21.999 50s13.166 36.666 20.499 54.999s15.666 36.166 24.999 53.499s21.166 32.833 35.499 46.5s32 24.5 53 32.5s46.5 12 76.5 12c19.333 0 38.333 -3.16699 57 -9.5s35.167 -15.666 49.5 -27.999s25.833 -27.166 34.5 -44.499
s13 -36.666 13 -57.999c0 -8 -1 -16 -3 -24c-2.66699 -7.33301 -8 -11 -16 -11c-5.33301 0 -9.66602 2.83301 -12.999 8.5s-7 12.834 -11 21.501l-13.5 28.5c-5 10.333 -11.667 19.833 -20 28.5s-18.666 15.834 -30.999 21.501s-27.166 8.5 -44.499 8.5
c-26.667 0 -49.5 -4 -68.5 -12s-35.167 -19 -48.5 -33s-24.333 -31.167 -33 -51.5s-16.667 -42.833 -24 -67.5c-1.33301 -2.66699 -2.5 -6.66699 -3.5 -12l-3 -16c-1 -5.33301 -1.83301 -10 -2.5 -14l-1 -5l10 -11h173c4.66699 0 8.33398 -1 11.001 -3
s4.66699 -4.66699 6 -8s2.16602 -6.83301 2.49902 -10.5s0.5 -7.16699 0.5 -10.5c0 -9.33301 -1.33301 -17.666 -4 -24.999s-9.33398 -11 -20.001 -11c-6.66699 0 -12.667 0.666992 -18 2s-11 4.66602 -17 9.99902h-10h-16h-16h-10
c-26.667 0 -48.334 -3.83301 -65.001 -11.5s-30.167 -18.167 -40.5 -31.5s-18.333 -28.666 -24 -45.999s-11 -36 -16 -56s-10.5 -40.667 -16.5 -62s-14.667 -42.333 -26 -63l20 -9c18 -1.33301 37.167 -1.66602 57.5 -0.999023s40.166 -0.333008 59.499 -3
s37.166 -7.83398 53.499 -15.501s29.833 -20.167 40.5 -37.5c-14.667 -10.667 -30.834 -17 -48.501 -19s-34.834 -3 -51.501 -3c-24 0 -47.5 2 -70.5 6s-46.5 6 -70.5 6c-17.333 0 -33.333 -3 -48 -9s-28.834 -13 -42.501 -21s-27.667 -15 -42 -21s-30.5 -9 -48.5 -9
c-13.333 0 -26.833 1.66699 -40.5 5s-26 8.5 -37 15.5s-20.167 16.167 -27.5 27.5s-11 25 -11 41z" />
    <glyph glyph-name="currency" unicode="&#xa4;" horiz-adv-x="633" 
d="M497 26c-13.333 10.667 -26.1719 22.8311 -38.5049 36.498l-38.5 43.5c-33.333 -13.333 -68.333 -20 -105 -20c-50.667 0 -94 12 -130 36l-26.5 -37.5c-8.33301 -11.667 -16.166 -22 -23.499 -31s-14.166 -16.167 -20.499 -21.5s-11.5 -7.66602 -15.5 -6.99902
c-12.667 0.666992 -19 7 -19 19c0 16 6 34.667 18 56s26.333 42.666 43 63.999c-12 16.667 -21.5 35.5 -28.5 56.5s-10.5 44.167 -10.5 69.5c0 21.333 3 41.333 9 60s14 35.667 24 51l-32.5 33l-30.5 32.5c-9.33301 10.333 -17.333 20.333 -24 30s-12 18.167 -16 25.5
c-1.33301 5.33301 -1.16602 9.33301 0.500977 12s3.83398 4.83398 6.50098 6.50098s5.5 2.66699 8.5 3s5.83301 0.5 8.5 0.5c8 -2.66699 16.833 -7.33398 26.5 -14.001l31 -22.5c11 -8.33301 22.167 -17.333 33.5 -27l35 -30.5c26.667 20 56.834 35.167 90.501 45.5
s67.834 15.5 102.501 15.5c18.667 0 36.5 -4.16699 53.5 -12.5s32.833 -19.166 47.5 -32.499c13.333 12 26.166 22.833 38.499 32.5s23.5 16.667 33.5 21s18.5 5.33301 25.5 3s11.5 -9.5 13.5 -21.5c-14.667 -12.667 -28.167 -25.334 -40.5 -38.001
s-24.166 -25.667 -35.499 -39c13.333 -20 23.833 -41 31.5 -63s11.5 -42.333 11.5 -61c0 -37.333 -8 -70 -24 -98s-37 -51.333 -63 -70c16.667 -25.333 39.667 -50.666 69 -75.999c-2.66699 -7.33301 -6.33398 -14.166 -11.001 -20.499s-11 -9.5 -19 -9.5h-5h-4z
M149.994 285.997c0 -20.667 3.83301 -40.1689 11.5 -58.502s18.334 -34.666 32.001 -48.999s29.834 -25.666 48.501 -33.999s38.667 -12.5 60 -12.5c27.333 -2.66699 54.5 2 81.5 14s50.5 28 70.5 48s35.167 42.5 45.5 67.5s12.833 49.333 7.5 73s-20.333 45.167 -45 64.5
s-61.667 33.333 -111 42c-22 0 -44.833 -3.16699 -68.5 -9.5s-45.334 -16 -65.001 -29s-35.834 -29.333 -48.501 -49s-19 -42.167 -19 -67.5z" />
    <glyph glyph-name="yen" unicode="&#xa5;" horiz-adv-x="399" 
d="M35 206c0 2 1.33887 4.33105 4.00586 6.99805s4.66699 4 6 4c18.667 1.33301 32.167 2.33301 40.5 3s14.166 1.33398 17.499 2.00098l4 1h70l7 69l-132 12c-8 0 -16 1.66699 -24 5s-12 10 -12 20c-7.33301 1.33301 -7.16602 3 0.500977 5s20.167 3.5 37.5 4.5
s38 1.83301 62 2.5s48.333 0.666992 73 0l5 41l-155 354c0.666992 2 1.66699 4.66699 3 8s3.16602 6.66602 5.49902 9.99902s4.66602 6.16602 6.99902 8.49902s5.16602 3.5 8.49902 3.5l1 -1h2h2c15.333 -7.33301 27.5 -18.166 36.5 -32.499s16.333 -30.333 22 -48
s10.667 -36.5 15 -56.5s9.66602 -39.833 15.999 -59.5s14.666 -38.667 24.999 -57s24.166 -34.166 41.499 -47.499c6 20 13.333 39.833 22 59.5s18.5 39.667 29.5 60l35.5 62.5c12.667 20 25.667 42 39 66c32 14 51.667 17 59 9s2.33301 -22 -15 -42l-145 -292l-3 -49
c14.667 -1.33301 28.667 -3 42 -5s24.833 -4.5 34.5 -7.5s17.5 -6.5 23.5 -10.5c5.33301 -3.33301 8 -7.66602 8 -12.999c0 -1.33301 -2.66699 -4.33301 -8 -9s-9.33301 -8 -12 -10l-2 -1c-1.33301 -0.666992 -2.33301 -1 -3 -1l-86 7l-5 -62
c11.333 0 22.833 -0.666992 34.5 -2s22 -3.5 31 -6.5s17.167 -7.5 24.5 -13.5c8 -5.33301 13.333 -12 16 -20l-39 -20l-70 1l-11 -168l-70 -3l17 172l-78 2c-8.66699 0 -16.667 0.333008 -24 1s-13.333 2.16699 -18 4.5s-8.5 6 -11.5 11s-4.5 12.167 -4.5 21.5z" />
    <glyph glyph-name="brokenbar" unicode="&#xa6;" horiz-adv-x="120" 
d="M83 295c2 -69.333 3.33301 -124.498 4 -165.498s0.5 -72.5 -0.5 -94.5s-2.83301 -36 -5.5 -42s-5.83398 -8 -9.50098 -6s-8.16699 5.66699 -13.5 11s-11 8.66602 -17 9.99902c-4.66699 30.667 -8.16699 57.167 -10.5 79.5s-4.16602 43.666 -5.49902 63.999
s-2 41.5 -2 63.5s0.333008 48.667 1 80h59zM29 328.002c0.666992 16 0.999023 34.9971 0.999023 56.9971v65c0 22.667 -0.166992 44.667 -0.5 66s-0.5 40 -0.5 56c0 5.33301 2 9 6 11s8.66699 3 14 3c6 0 11.333 -2.16699 16 -6.5s8.66699 -9.66602 12 -15.999
s5.83301 -12.666 7.5 -18.999s2.5 -11.5 2.5 -15.5c0.666992 -14 0.666992 -30.333 0 -49s-1.66699 -37.667 -3 -57s-2.66602 -37.666 -3.99902 -54.999v-42z" />
    <glyph glyph-name="section" unicode="&#xa7;" horiz-adv-x="527" 
d="M315 208c-18 -0.666992 -37.665 -0.663086 -58.998 0.00390625s-42.5 2.66699 -63.5 6s-41.167 8.33301 -60.5 15s-36.333 16 -51 28s-26.334 27 -35.001 45c-8 18.667 -11.333 40.667 -10 66c4 22 14.667 40.167 32 54.5s38 24.833 62 31.5
c-21.333 10.667 -38.666 25.5 -51.999 44.5s-20.333 44.833 -21 77.5c3.33301 21.333 12.166 39.166 26.499 53.499s32 25.5 53 33.5s44.167 12.667 69.5 14s50.833 -0.5 76.5 -5.5s50.5 -12.667 74.5 -23s45.333 -23.833 64 -40.5c22 -22 35.667 -40.167 41 -54.5
s4.33301 -23.5 -3 -27.5s-19.333 -2 -36 6c-16.667 6.66699 -36 20.667 -58 42c-10 10.667 -23.333 19.167 -40 25.5s-34.667 10.833 -54 13.5s-38.666 3.66699 -57.999 3s-36.5 -3.33398 -51.5 -8.00098s-27 -11.167 -36 -19.5s-12.833 -18.166 -11.5 -29.499
c0 -19.333 5.66699 -34.666 17 -45.999s26.666 -20 45.999 -26s41 -10.167 65 -12.5l74 -7.5c25.333 -2.66699 50.166 -6.33398 74.499 -11.001s46 -11.834 65 -21.501s34.167 -23 45.5 -40s17 -39.167 17 -66.5c0 -12.667 -2 -24.167 -6 -34.5
s-9.83301 -19.833 -17.5 -28.5s-16.334 -16.334 -26.001 -23.001s-20.167 -12.334 -31.5 -17.001c18 -10 32.667 -23.333 44 -40s17 -38.334 17 -65.001c0 -20.667 -5.33301 -38.5 -16 -53.5s-24.167 -27.5 -40.5 -37.5s-34.166 -17.333 -53.499 -22s-37.666 -7 -54.999 -7
c-25.333 0 -52.5 0.666992 -81.5 2s-56.833 6 -83.5 14s-51.334 20.333 -74.001 37c-24 16.667 -42 40.667 -54 72c5.33301 4 10.333 7.5 15 10.5s9.66699 2.83301 15 -0.5c16 -9.33301 30.667 -18.5 44 -27.5s27 -17.333 41 -25s29 -13.834 45 -18.501s35 -7 57 -7
c14 0 31 -0.166992 51 -0.5s39 1.33398 57 5.00098s33.333 10.334 46 20.001s19 24.5 19 44.5c0 14 -3 25.833 -9 35.5s-14 17.5 -24 23.5s-22 10.667 -36 14s-29.333 6.33301 -46 9zM340.002 416.004c-39.333 -1.33301 -72.165 -3.00195 -98.498 -5.00195
s-48 -4.16699 -65 -6.5s-30.333 -5.5 -40 -9.5s-16.834 -9 -21.501 -15s-8.16699 -13.5 -10.5 -22.5s-4.83301 -19.5 -7.5 -31.5c8 -13.333 17.833 -24 29.5 -32s25.167 -14.167 40.5 -18.5s32.333 -7.16602 51 -8.49902s38.667 -2 60 -2c14 0 30.833 -0.166992 50.5 -0.5
s38.5 1.33398 56.5 5.00098s33.5 10.334 46.5 20.001s19.5 24.5 19.5 44.5c0 13.333 -2.83301 24.666 -8.5 33.999s-13.334 17.166 -23.001 23.499s-21.5 11.333 -35.5 15s-28.667 6.83398 -44 9.50098z" />
    <glyph glyph-name="dieresis" unicode="&#xa8;" horiz-adv-x="407" 
d="M69 488c0 2.66699 1.66504 6.66699 4.99805 12s7.16602 11 11.499 17s9.16602 11 14.499 15c4 4 8 6 12 6c10.667 0 19.834 -1.83301 27.501 -5.5s13.834 -8.16699 18.501 -13.5s8.16699 -11.333 10.5 -18s3.5 -13 3.5 -19c0 -4 -1.66699 -8.5 -5 -13.5
s-7.66602 -9.66699 -12.999 -14s-11.166 -8 -17.499 -11s-12.833 -4.5 -19.5 -4.5c-7.33301 0 -14 1.83301 -20 5.5s-11 8 -15 13s-7.16699 10.333 -9.5 16s-3.5 10.5 -3.5 14.5zM228.998 488c0 2.66699 1.5 6.66699 4.5 12s7 11 12 17s10 11 15 15s9.16699 6 12.5 6
c10 0 18.667 -1.83301 26 -5.5s13.5 -8.16699 18.5 -13.5s8.66699 -11.333 11 -18s3.5 -13 3.5 -19c0 -4 -1.66699 -8.5 -5 -13.5s-7.5 -9.66699 -12.5 -14s-11 -8 -18 -11s-13.5 -4.5 -19.5 -4.5c-7.33301 0 -14 1.83301 -20 5.5s-11 8 -15 13s-7.16699 10.333 -9.5 16
s-3.5 10.5 -3.5 14.5z" />
    <glyph glyph-name="copyright" unicode="&#xa9;" horiz-adv-x="684" 
d="M35 276c-1.33301 19.333 0.836914 39.8379 6.50391 61.5049s13.5 43.167 23.5 64.5s22 41.666 36 60.999s29.333 36.666 46 51.999s34.5 27.666 53.5 36.999s37.833 14.666 56.5 15.999c37.333 4.66699 73.666 4 108.999 -2s68.666 -16.5 99.999 -31.5s60 -34.5 86 -58.5
s48 -51.5 66 -82.5s31.5 -65 40.5 -102s12.167 -76.5 9.5 -118.5c-4.66699 -22.667 -13.834 -42.5 -27.501 -59.5s-30.334 -31.667 -50.001 -44s-41.334 -22.5 -65.001 -30.5s-47.667 -14.833 -72 -20.5s-48 -10.167 -71 -13.5l-61.5 -9
c-41.333 0 -79.5 6.83301 -114.5 20.5s-65.167 32.667 -90.5 57s-45.166 53.666 -59.499 87.999s-21.5 72.5 -21.5 114.5zM83.0029 280.005c-0.666992 -30.667 5.83301 -59.168 19.5 -85.501s31.5 -49.666 53.5 -69.999s46.833 -36.833 74.5 -49.5s54.834 -21 81.501 -25
c9.33301 0 23.166 1.16699 41.499 3.5s38.666 6.16602 60.999 11.499s45.5 11.666 69.5 18.999s46 16.333 66 27s36.167 22.5 48.5 35.5s18.5 27.5 18.5 43.5c3.33301 42 -1.5 80 -14.5 114s-31.333 63.833 -55 89.5s-50.667 47.334 -81 65.001s-61 31.334 -92 41.001
s-60.5 15.167 -88.5 16.5s-51 -2 -69 -10c-13.333 -5.33301 -26.166 -13.333 -38.499 -24s-23.5 -23 -33.5 -37s-18.833 -28.667 -26.5 -44s-14 -30.5 -19 -45.5s-9 -29.167 -12 -42.5s-4.5 -24.333 -4.5 -33zM172.003 250.004c0.666992 22 3.82715 43.4951 9.49414 64.4951
s14.5 40.667 26.5 59s27.833 35 47.5 50s43.834 27.167 72.501 36.5c13.333 0 27.5 -1.33301 42.5 -4s29.167 -7.5 42.5 -14.5s24.333 -16 33 -27s13 -24.5 13 -40.5c0 -3.33301 -0.833008 -9 -2.5 -17s-3.83398 -16.167 -6.50098 -24.5s-5.83398 -15.5 -9.50098 -21.5
s-7.16699 -9 -10.5 -9c0 31.333 -8.66699 57.333 -26 78c-17.333 21.333 -42.666 32 -75.999 32c-25.333 -10 -44.833 -21 -58.5 -33s-23.5 -25 -29.5 -39s-9.16699 -28.667 -9.5 -44s-0.5 -31.333 -0.5 -48c2.66699 -26 7.83398 -46.167 15.501 -60.5
s17.667 -24.833 30 -31.5s26.5 -10.167 42.5 -10.5s33.333 0.166992 52 1.5s38.334 3 59.001 5s42.334 2.33301 65.001 1c2.66699 0 6.33398 -1.16699 11.001 -3.5s7.33398 -4.5 8.00098 -6.5v-2v-2l1 -1c0 -11.333 -5.33301 -20.166 -16 -26.499s-23 -11 -37 -14
s-28 -4.66699 -42 -5s-24 -0.5 -30 -0.5c-37.333 2.66699 -68.833 5.83398 -94.5 9.50098s-47.167 10.834 -64.5 21.501s-30.666 25.834 -39.999 45.501s-15.333 46.834 -18 81.501z" />
    <glyph glyph-name="ordfeminine" unicode="&#xaa;" horiz-adv-x="273" 
d="M18.2598 324.741c0.325195 6.15234 1.94922 13.209 4.87402 21.1709c2.92383 7.96191 7.47266 15.7432 13.6465 23.3438c6.17285 7.59961 13.9707 14.3848 23.3936 20.3564c9.42188 5.97168 20.5498 10.2236 33.3838 12.7568s27.4551 2.71387 43.8633 0.542969
s34.6846 -7.59961 54.8291 -16.2852v5.42773l-0.488281 4.88574c0 9.40918 -2.43652 19 -7.31055 28.7715c-4.87305 9.77051 -11.127 18.5469 -18.7627 26.3281c-7.63574 7.78027 -15.8398 14.1133 -24.6123 18.999s-17.2197 7.3291 -25.3418 7.3291
c-3.24902 0 -6.0918 -0.542969 -8.52832 -1.62891s-4.79199 -2.44336 -7.06641 -4.07129c-2.27441 -1.62891 -4.46777 -3.07617 -6.58008 -4.34277s-4.62988 -1.90039 -7.55371 -1.90039c-0.649414 0 -0.974609 0.180664 -0.974609 0.542969l-0.974609 1.08594
c-0.649414 0.723633 -1.54297 1.62793 -2.68066 2.71289c-1.1377 1.08594 -1.70605 1.80957 -1.70605 2.17188c0 6.51367 1.05566 12.123 3.16797 16.8281c2.1123 4.7041 5.03613 8.50391 8.77246 11.3994s7.95996 5.15723 12.6719 6.78613
c4.71094 1.62793 9.66602 2.44238 14.8643 2.44238c12.9971 -1.44727 25.4248 -5.88086 37.2832 -13.2998c11.8594 -7.41895 22.7441 -16.7373 32.6543 -27.9561c9.90918 -11.2188 18.6006 -24.1562 26.0732 -38.8135c7.47363 -14.6572 13.7285 -29.8574 18.7646 -45.6006
s8.36621 -31.5762 9.99023 -47.499c1.94922 -16.6475 2.11133 -32.209 0.487305 -46.6846c-0.325195 0 -1.2998 0.0908203 -2.92383 0.271484s-3.41113 0.361328 -5.36133 0.541992c-1.94922 0.180664 -3.57422 0.452148 -4.87402 0.814453l-2.43652 0.542969
c-6.82324 17.0088 -14.459 30.7607 -22.9072 41.2559c-8.44727 10.4951 -16.8135 18.7285 -25.0986 24.7002c-8.28613 5.97168 -16.0029 10.1338 -23.1504 12.4863s-12.9961 4.07129 -17.5449 5.15723c-4.87402 0 -10.6416 -0.362305 -17.3027 -1.08594
s-13.5654 -1.99023 -20.7129 -3.7998s-14.377 -4.25195 -21.6875 -7.32812s-13.8086 -6.78613 -19.4951 -11.1289c-5.68555 -4.34277 -10.2344 -9.5 -13.6465 -15.4717c-3.41113 -5.97168 -5.11719 -12.9385 -5.11719 -20.9004
c0 -8.68555 3.08691 -16.0137 9.25977 -21.9854c6.17383 -5.97168 13.6465 -10.8574 22.4189 -14.6572s17.708 -6.42383 26.8057 -7.87109s16.4082 -2.1709 21.9316 -2.1709c9.09668 0 18.0312 0.542969 26.8037 1.62793c8.77246 1.08594 17.4639 2.35254 26.0742 3.7998
c8.61035 1.44824 17.1396 2.71484 25.5879 3.7998c8.44727 1.08594 16.8945 1.62891 25.3428 1.62891h3.41113c1.625 0 3.33105 -0.0908203 5.11719 -0.271484c1.78711 -0.180664 3.41211 -0.271484 4.87402 -0.271484h3.16797
c2.59863 -1.08496 4.06055 -2.71387 4.38574 -4.88574c0.325195 -2.1709 0.487305 -4.3418 0.487305 -6.5127c0 -2.17188 -2.03125 -4.52441 -6.09277 -7.05762s-9.34082 -5.06641 -15.8389 -7.59961s-13.7275 -5.15723 -21.6875 -7.87109
s-15.5957 -4.97559 -22.9062 -6.78516s-14.1338 -3.34766 -20.4697 -4.61426s-10.8037 -1.90039 -13.4023 -1.90039c-13.6465 0 -28.1055 1.2666 -43.376 3.7998s-29.2412 7.14746 -41.9121 13.8428c-12.6719 6.69531 -23.1504 16.0146 -31.4355 27.957
s-12.4277 27.3232 -12.4277 46.1426z" />
    <glyph glyph-name="guillemotleft" unicode="&#xab;" horiz-adv-x="774" 
d="M77 183c1.33301 0.666992 6.66895 4.50488 16.002 11.5049s21.666 15.667 36.999 26l51 35.5l56.5 40l54.5 38c17.333 12 32.333 22 45 30c6.66699 5.33301 14.5 10.666 23.5 15.999l27.5 16c9.33301 5.33301 18.666 10.166 27.999 14.499s18 8.16602 26 11.499
c1.33301 -1.33301 3.5 -3.16602 6.5 -5.49902s6 -5 9 -8l8.5 -8.5c2.66699 -2.66699 4.33398 -4.66699 5.00098 -6c0 -0.666992 -4 -4 -12 -10s-18.333 -13.167 -31 -21.5l-41.5 -28l-43 -29l-36 -23.5c-10.333 -6.66699 -16.5 -11.334 -18.5 -14.001
c-14.667 -10 -30.167 -19.833 -46.5 -29.5s-32.5 -20 -48.5 -31s-31.667 -22.5 -47 -34.5s-29 -25 -41 -39c1.33301 -2.66699 6.33301 -5.5 15 -8.5s19 -5.83301 31 -8.5s24.833 -5.16699 38.5 -7.5l39 -6.5c12.333 -2 23 -3.66699 32 -5s14.833 -2 17.5 -2l39 -6
c17.333 -2.66699 34.666 -6.66699 51.999 -12s32.5 -12.333 45.5 -21s19.5 -19.667 19.5 -33c0 -16 -8.66699 -24 -26 -24c-6.66699 0 -13.5 1.33301 -20.5 4s-14 5.5 -21 8.5s-13.833 6.16699 -20.5 9.5s-13.334 5.66602 -20.001 6.99902
c-5.33301 1.33301 -14.666 2.66602 -27.999 3.99902l-47 5c-18 2 -37.5 4.33301 -58.5 7s-41.833 5.5 -62.5 8.5s-40 6.66699 -58 11s-32.833 9 -44.5 14s-19.667 10.5 -24 16.5s-2.5 13 5.5 21zM322.003 248.005c0.666992 0.666992 5.83398 4.50195 15.501 11.502l37 26.5
l50.5 35.5l56.5 39.5l54.5 38l44 31c14.667 10 32 20.333 52 31c20 11.333 38 20.333 54 27c1.33301 -1.33301 3.5 -3.33301 6.5 -6l9 -8c3 -2.66699 5.66699 -5.5 8 -8.5s4.16602 -5.16699 5.49902 -6.5c0 -0.666992 -4 -4 -12 -10s-18.5 -13.167 -31.5 -21.5l-41.5 -28
l-42.5 -29l-35.5 -23.5c-10 -6.66699 -16.333 -11 -19 -13c-14.667 -10 -30 -19.833 -46 -29.5s-32.167 -20.167 -48.5 -31.5s-32.166 -23 -47.499 -35s-29 -24.667 -41 -38c1.33301 -2.66699 6.16602 -5.5 14.499 -8.5s18.5 -6 30.5 -9s25 -5.66699 39 -8l39.5 -6.5
c12.333 -2 23 -3.66699 32 -5s14.833 -2 17.5 -2c8.66699 -1.33301 21.5 -3.16602 38.5 -5.49902s34.333 -6.33301 52 -12s33 -12.667 46 -21s19.5 -19.5 19.5 -33.5c-0.666992 -16 -9.66699 -24 -27 -24c-6.66699 0 -13.334 1.33301 -20.001 4l-21 8l-20 10
c-6 3.33301 -12.333 5.66602 -19 6.99902c-5.33301 1.33301 -14.666 2.66602 -27.999 3.99902l-48 6l-58.5 6.5c-21 2.33301 -41.667 5.16602 -62 8.49902s-39.5 7 -57.5 11s-32.833 8.66699 -44.5 14s-19.667 11 -24 17s-2.83301 12.667 4.5 20z" />
    <glyph glyph-name="logicalnot" unicode="&#xac;" horiz-adv-x="378" 
d="M304 350c-3.33301 3.33301 -12.167 5.83203 -26.5 7.49902s-31.5 2.33398 -51.5 2.00098s-41.167 -1 -63.5 -2s-43 -2 -62 -3s-34.833 -1.66699 -47.5 -2s-19 -0.166016 -19 0.500977c0 1.33301 0.333008 5.16602 1 11.499s1.66699 12.833 3 19.5s3 12.667 5 18
s4.66699 8 8 8l301 1v-69c0 -6 -0.333008 -13 -1 -21s-1.5 -15.833 -2.5 -23.5s-2 -14.834 -3 -21.501s-1.5 -11.667 -1.5 -15c-13.333 -4 -23.666 -5.5 -30.999 -4.5s-12.333 3.83301 -15 8.5s-3.66699 10.334 -3 17.001s1.66699 14 3 22l5 24
c1.33301 8 1.66602 15.333 0.999023 22z" />
    <glyph glyph-name="hyphen_" unicode="&#xad;" horiz-adv-x="384" 
d="M254 327c9.33301 0 19.3311 -0.167969 29.998 -0.500977s20.667 -2.16602 30 -5.49902s17 -8.16602 23 -14.499s9 -15.5 9 -27.5c0 -14 -6.33301 -21 -19 -21c-14.667 0 -28.167 1.83301 -40.5 5.5s-26.166 5.5 -41.499 5.5c-19.333 0 -38.5 -1.16699 -57.5 -3.5
s-38.167 -4.83301 -57.5 -7.5s-38.5 -5.16699 -57.5 -7.5s-38.167 -3.5 -57.5 -3.5c0 16 3.66699 28.667 11 38s17 16.833 29 22.5s25.5 9.5 40.5 11.5s30.5 3.16699 46.5 3.5l47 1c15.333 0.333008 29 1.16602 41 2.49902h3c2 0 4.33301 0.166992 7 0.5
s5.33398 0.5 8.00098 0.5h6z" />
    <glyph glyph-name="registered" unicode="&#xae;" horiz-adv-x="725" 
d="M37 294c-1.33301 19.333 0.835938 39.835 6.50293 61.502s13.5 43.167 23.5 64.5s22 41.833 36 61.5s29.5 37 46.5 52s34.667 27.167 53 36.5s37.166 14.666 56.499 15.999c37.333 4.66699 73.666 4 108.999 -2s68.5 -16.5 99.5 -31.5s59.5 -34.5 85.5 -58.5
s48 -51.333 66 -82s31.667 -64.5 41 -101.5s12.666 -76.5 9.99902 -118.5c-4.66699 -22.667 -13.834 -42.667 -27.501 -60s-30.5 -32 -50.5 -44s-41.833 -22.167 -65.5 -30.5s-47.667 -15.333 -72 -21s-47.833 -10.167 -70.5 -13.5l-62 -9
c-41.333 0 -79.333 6.83301 -114 20.5s-64.667 32.667 -90 57s-45.166 53.666 -59.499 87.999s-21.5 72.5 -21.5 114.5zM85.002 298.002c-0.666992 -30.667 5.66406 -59.0049 18.9971 -85.0049s31 -49.167 53 -69.5s47 -36.833 75 -49.5c28 -13.333 55.333 -22 82 -26
c6 0 14.333 0.5 25 1.5s22.834 2.66699 36.501 5s28.167 5.16602 43.5 8.49902s31 7.33301 47 12c-14.667 8 -30.167 17.667 -46.5 29s-32.5 23.166 -48.5 35.499l-45.5 36.5c-14.333 12 -26.166 22.333 -35.499 31c6 -19.333 10.833 -36.666 14.5 -51.999s5.5 -28 5.5 -38
s-2.83301 -17 -8.5 -21s-14.834 -4.66699 -27.501 -2c-1.33301 -2.66699 -3.5 0.333008 -6.5 9s-6 21.167 -9 37.5s-6.16699 35 -9.5 56s-6 41.833 -8 62.5s-3 40.334 -3 59.001c0 18 2 32.333 6 43c5.33301 2.66699 11.166 4.16699 17.499 4.5s11.833 -0.5 16.5 -2.5
s8.33398 -5 11.001 -9s3.66699 -8 3 -12c0 -1.33301 0.333008 -4.66602 1 -9.99902s1.5 -11 2.5 -17l3 -17.5c1 -5.66699 2.16699 -9.16699 3.5 -10.5c10 0.666992 22.167 0.833984 36.5 0.500977s28.666 0.166992 42.999 1.5s27 4.33301 38 9s17.833 12.334 20.5 23.001
l8 40c-6 12 -13.5 20.833 -22.5 26.5s-19.5 9.16699 -31.5 10.5s-26 1.66602 -42 0.999023c-14.667 -0.666992 -31.334 -1 -50.001 -1c-13.333 0 -27.333 -0.5 -42 -1.5s-28 -3.66699 -40 -8s-22 -10.833 -30 -19.5s-12 -20.667 -12 -36c-4 0 -7.66699 2.33301 -11 7
s-6.33301 9.83398 -9 15.501s-4.83398 11.334 -6.50098 17.001s-2.5 10.167 -2.5 13.5c0 10.667 5 20 15 28s20.333 14 31 18c14.667 2 27.5 3.66699 38.5 5s21.5 2.5 31.5 3.5s20 1.66699 30 2s21 0.5 33 0.5c18.667 0 39 -1.83301 61 -5.5s42.667 -9.5 62 -17.5
s35.333 -18.667 48 -32s19 -29.333 19 -48c0 -16.667 -5.16699 -30.834 -15.5 -42.501s-23.333 -21.167 -39 -28.5s-33 -13 -52 -17s-36.667 -6.83301 -53 -8.5s-30.166 -2.16699 -41.499 -1.5c-6.66699 0.666992 -11.667 1.33398 -15 2.00098l79 -59l58.5 -44.5l40.5 -30.5
c10.667 -8 20.334 -14.667 29.001 -20c14.667 6 28.834 12.5 42.501 19.5s25.5 14.5 35.5 22.5s17.833 16.833 23.5 26.5s8.5 19.834 8.5 30.501c3.33301 41.333 -1.66699 79.166 -15 113.499s-31.666 64.333 -54.999 90s-50.333 47.334 -81 65.001
s-61.334 31.167 -92.001 40.5s-60 14.666 -88 15.999s-51.333 -2 -70 -10c-20.667 -7.33301 -39.167 -20.833 -55.5 -40.5s-30.166 -41 -41.499 -64s-20.166 -45.667 -26.499 -68s-9.5 -40.166 -9.5 -53.499z" />
    <glyph glyph-name="macron" unicode="&#xaf;" horiz-adv-x="294" 
d="M206 553c9.33301 0 19.501 -0.330078 30.501 -0.99707s21 -2.5 30 -5.5s16.5 -7.66699 22.5 -14s9 -15.5 9 -27.5c0 -14 -6 -21 -18 -21c-14.667 0 -28.334 1.83301 -41.001 5.5s-26.667 5.5 -42 5.5c-19.333 0 -35 -1.16699 -47 -3.5l-34.5 -7l-34.5 -7
c-12 -2.33301 -27.667 -3.5 -47 -3.5c0 23.333 4.33301 40.166 13 50.499s20 17.166 34 20.499s30 4.66602 48 3.99902s36 0.333008 54 3c0.666992 0 4 0.166992 10 0.5s10.333 0.5 13 0.5z" />
    <glyph glyph-name="degree" unicode="&#xb0;" horiz-adv-x="261" 
d="M7.99121 419.88c0 24.4229 3.78516 45.7383 11.3564 63.9443s17.5088 33.5254 29.8125 45.959s26.1055 21.6475 41.4053 27.6426c15.2998 5.99414 30.6787 8.99121 46.1367 8.99121c8.20215 0 15.8525 -2.10938 22.9512 -6.32715
c7.09863 -4.21875 13.8809 -9.99121 20.3477 -17.3184c6.46777 -7.32715 12.2256 -15.7637 17.2734 -25.3105s9.38574 -19.4268 13.0137 -29.6406c3.62793 -10.2129 6.38867 -20.5371 8.28125 -30.9727c1.89258 -10.4346 2.83887 -20.5371 2.83887 -30.3066
c0 -22.6465 -3.1543 -42.8506 -9.46387 -60.6123c-6.30957 -17.7627 -14.8271 -32.75 -25.5527 -44.9619c-10.7256 -12.2109 -22.8711 -21.5361 -36.4365 -27.9746s-27.4463 -9.6582 -41.6426 -9.6582c-14.5117 0 -27.8408 3.21973 -39.9863 9.6582
s-22.7139 15.4307 -31.7051 26.9756c-8.99121 11.5459 -16.0107 25.8662 -21.0586 42.9619c-5.04785 17.0967 -7.57129 36.0801 -7.57129 56.9502zM31.1777 425.209c0 -13.7656 1.81348 -26.9766 5.44141 -39.6318s8.67578 -23.6455 15.1436 -32.9707
c6.4668 -9.3252 14.1172 -16.7627 22.9502 -22.3135c8.83301 -5.5498 18.2969 -8.3252 28.3916 -8.3252c5.3623 -0.888672 11.9082 0.332031 19.6377 3.66309c7.72949 3.33008 15.459 8.21484 23.1885 14.6533c7.72852 6.43848 15.1416 14.209 22.2402 23.3115
c7.09863 9.10352 13.0137 19.0947 17.7451 29.9736c4.73242 10.8799 7.65039 22.2031 8.75488 33.9697c1.10449 11.7676 -0.31543 23.5352 -4.25879 35.3027c-3.94434 11.7666 -11.1211 23.0898 -21.5312 33.9697c-10.4111 10.8799 -24.7646 20.9824 -43.0615 30.3076
c-10.4111 0 -21.2158 -2.10938 -32.415 -6.32812c-11.1992 -4.21777 -21.373 -10.5459 -30.5215 -18.9834c-9.14844 -8.43652 -16.7197 -19.0938 -22.7139 -31.9717c-5.99414 -12.877 -8.99121 -27.7529 -8.99121 -44.627z" />
    <glyph glyph-name="plusminus" unicode="&#xb1;" horiz-adv-x="471" 
d="M296 111c9.33301 0 22.5059 0.162109 39.5059 0.495117s33.667 -0.5 50 -2.5s30.666 -5.83301 42.999 -11.5s18.5 -14.5 18.5 -26.5c0.666992 -13.333 -5.66602 -20 -18.999 -20c-6.66699 0 -16.334 0.166992 -29.001 0.5s-26 0.666016 -40 0.999023l-40.5 1
c-13 0.333008 -23.167 0.5 -30.5 0.5c-19.333 0 -38.5 -1.33301 -57.5 -4l-57 -8c-19 -2.66699 -38 -5.16699 -57 -7.5s-38.5 -3.5 -58.5 -3.5c-6.66699 12.667 -6.33398 23 0.999023 31s19 14.667 35 20s35.167 9.66602 57.5 12.999s45.166 6.33301 68.499 9
c-0.666992 6.66699 -0.833984 12.834 -0.500977 18.501s0.5 10.167 0.5 13.5l-3.5 23.5c-1.66699 11 -3.5 22.5 -5.5 34.5s-4 23.333 -6 34s-3.66699 18.334 -5 23.001h-10c-13.333 0 -26.333 -1 -39 -3s-25.334 -4.16699 -38.001 -6.5s-25.334 -4.5 -38.001 -6.5
s-25.334 -3 -38.001 -3c-10 0 -16.167 2.33301 -18.5 7s-3.5 10.334 -3.5 17.001c0 8.66699 1 14.334 3 17.001c2.66699 2 9 4.33301 19 7c5.33301 1.33301 14.833 3.33301 28.5 6l43.5 8.5c15.333 3 29.666 6.16699 42.999 9.5c14.667 2.66699 24.667 4.33398 30 5.00098
c3.33301 0.666992 5.5 2.5 6.5 5.5s1.83301 6.16699 2.5 9.5s0.833984 6.83301 0.500977 10.5s-0.5 6.16699 -0.5 7.5c0 10.667 -1 21.167 -3 31.5s-4.33301 20.833 -7 31.5s-5 21.167 -7 31.5s-3 21.166 -3 32.499v3c1.33301 2 4.5 5.5 9.5 10.5s8.16699 7.83301 9.5 8.5h3
l2 1l1 -1h2h2c2.66699 -2 6.33398 -5.33301 11.001 -10l9 -9l38 -134l9 -10l17 -3c11.333 -1.33301 24.666 -3.16602 39.999 -5.49902s31.166 -4.5 47.499 -6.5s29.833 -3.33301 40.5 -4c2 0 5.5 -0.166992 10.5 -0.5s10.333 -1.16602 16 -2.49902s10.5 -3.33301 14.5 -6
s6 -6 6 -10c0 -2 -1.16699 -5.16699 -3.5 -9.5s-5.16602 -8.66602 -8.49902 -12.999l-9 -11.5c-4 -3.33301 -6.66699 -5 -8 -5h-152v-141c2.66699 0 5.83398 0.166992 9.50098 0.5s6.5 0.5 8.5 0.5z" />
    <glyph glyph-name="twosuperior" unicode="&#xb2;" horiz-adv-x="304" 
d="M152.801 239.084c-12.9258 0 -25.4023 -1.10059 -37.4307 -3.31055s-24.6846 -3.31543 -37.9697 -3.31543c-7.18066 0 -14.6309 0.904297 -22.3506 2.71191c-7.71973 1.80859 -14.9004 4.82227 -21.543 9.04199s-12.3877 9.64453 -17.2344 16.2754
c-4.84668 6.62988 -7.80859 14.7676 -8.88574 24.4121c-0.717773 6.02832 0.0898438 10.9512 2.42383 14.7686s5.38574 6.83105 9.15527 9.04102c3.77051 2.20996 7.98926 3.61621 12.6562 4.21875c4.66797 0.602539 8.61816 0.90332 11.8496 0.90332
c8.25781 0 16.4258 -1.40625 24.5049 -4.21875c8.0791 -2.81348 15.9785 -6.12891 23.6982 -9.94629s15.5293 -7.2334 23.4287 -10.2471c7.89941 -3.01465 16.1572 -4.52148 24.7744 -4.52148c7.54004 0 14.541 2.81348 21.0029 8.43945
c6.46387 5.62598 12.2988 12.96 17.5049 22.002s9.78418 19.2891 13.7344 30.7412c3.94922 11.4531 7.18066 22.6045 9.69336 33.4551c2.51367 10.8496 4.48828 20.9961 5.9248 30.4404c1.43652 9.44336 2.1543 16.7773 2.1543 22.002
c0 5.62598 -0.717773 13.8643 -2.1543 24.7148c-1.43652 10.8496 -3.77051 21.499 -7.00195 31.9473s-7.4502 19.5908 -12.6562 27.4268s-11.9385 11.7539 -20.1963 11.7539c-7.54004 0 -13.1953 -3.01367 -16.9648 -9.04102
c-3.77051 -6.02832 -6.73242 -12.7598 -8.88672 -20.1943l-6.19336 -21.3994c-1.97559 -6.83105 -5.11719 -11.0508 -9.42578 -12.6582c-5.38574 4.01855 -8.52734 9.24316 -9.4248 15.6729s-1.34668 12.457 -1.34668 18.083c0 8.03711 1.34668 15.5723 4.04004 22.6045
c2.69238 7.03223 6.55176 13.2607 11.5781 18.6855s10.9512 9.54395 17.7734 12.3564c6.82129 2.81348 14.002 4.21973 21.542 4.21973c12.5664 0 23.3379 -4.21973 32.3145 -12.6582c8.97559 -8.43945 16.2461 -18.8877 21.8115 -31.3447
c5.56543 -12.458 9.69434 -25.7197 12.3867 -39.7852c2.69238 -14.0645 4.03906 -26.3213 4.03906 -36.7695s-0.269531 -19.6904 -0.807617 -27.7266c-0.538086 -8.03809 -1.61523 -15.874 -3.23145 -23.5088c-1.61621 -7.63574 -3.86035 -15.5723 -6.73242 -23.8105
c-2.87207 -8.2373 -6.46289 -17.9824 -10.7715 -29.2344c-2.5127 -2.00977 -5.56445 -5.3252 -9.15527 -9.94629c-3.58984 -4.62109 -7.00098 -9.54395 -10.2324 -14.7676c-3.23145 -5.22461 -6.01367 -10.3486 -8.34668 -15.3711
c-2.33398 -5.02344 -3.50098 -9.14258 -3.50098 -12.3574c0 -4.01855 1.88477 -7.13281 5.65527 -9.34277c3.76953 -2.20996 8.34766 -3.91797 13.7334 -5.12402s11.1309 -2.21094 17.2344 -3.01465s11.8486 -1.90918 17.2344 -3.31543
c5.38574 -1.40723 9.96387 -3.61719 13.7334 -6.63086c3.77051 -3.01367 5.65527 -7.33398 5.65527 -12.96c0 -4.01855 -1.79492 -7.83594 -5.38574 -11.4531c-2.87207 -4.01855 -6.46289 -6.02734 -10.7715 -6.02734c-7.89941 0 -15.709 0.904297 -23.4287 2.71289
c-7.71973 1.80762 -15.4395 3.81641 -23.1592 6.02637l-22.8896 6.3291c-7.54004 2.00977 -15.2598 3.01465 -23.1592 3.01465z" />
    <glyph glyph-name="threesuperior" unicode="&#xb3;" horiz-adv-x="209" 
d="M-4.4375 348.034c-0.352539 0.821289 -0.52832 1.43652 -0.52832 1.84766v3.69727c0 6.98438 1.67285 12.7363 5.01758 17.2559s8.00977 6.7793 13.9951 6.7793c2.46387 0 6.24902 -3.69727 11.3545 -11.0928s11.9717 -15.6123 20.5977 -24.6514
c8.62598 -9.03809 19.0127 -17.2549 31.1602 -24.6504s26.4951 -11.0928 43.043 -11.0928c6.33789 0 12.6758 0.513672 19.0127 1.54004c6.33789 1.02734 11.9717 2.97852 16.9004 5.85449c4.92969 2.87598 8.97852 6.7793 12.1475 11.71
c3.16895 4.92969 4.75293 11.2979 4.75293 19.1035c0 17.2559 -3.69727 31.4307 -11.0908 42.5234s-16.8115 20.2344 -28.2539 27.4248c-11.4434 7.19043 -23.8545 12.6338 -37.2344 16.3311l-36.9688 10.4766c-11.2666 3.28711 -20.6855 6.36816 -28.2559 9.24414
c-7.56934 2.87598 -11.3545 7.19043 -11.3545 12.9424c0 0.821289 0.175781 1.4375 0.527344 1.84863c0.352539 0.411133 0.52832 0.822266 0.52832 1.2334c0.704102 1.23242 2.28906 3.28613 4.75391 6.16211l5.28125 6.16309
c3.52051 0.821289 8.80176 1.95117 15.8438 3.38965s14.7002 3.28711 22.9746 5.5459c8.27441 2.25977 16.6367 5.0332 25.0869 8.32031c8.4502 3.28613 16.1963 7.08594 23.2383 11.3994c7.04199 4.31445 12.8516 9.4502 17.4287 15.4072s6.86523 12.8389 6.86523 20.6455
c0 6.16309 -2.1123 11.1963 -6.33789 15.0996c-4.22461 3.90332 -9.06543 6.98438 -14.5234 9.24414c-5.45801 2.25879 -11.0918 3.69629 -16.9014 4.3125s-10.4746 0.924805 -13.9961 0.924805c-3.52051 0 -8.62598 -0.102539 -15.3154 -0.308594
c-6.68945 -0.205078 -13.291 -0.821289 -19.8057 -1.84863c-6.51367 -1.02734 -12.2354 -2.25977 -17.1641 -3.69727c-4.92871 -1.43848 -7.39355 -3.39062 -7.39355 -5.85645v-13.5576c-8.09863 0 -14.4365 2.25977 -19.0137 6.7793
c-4.57715 4.51855 -6.86523 11.5029 -6.86523 20.9531c0 4.1084 0.967773 7.80566 2.9043 11.0918s4.48926 6.16211 7.6582 8.62793c3.16895 2.46484 6.51367 4.31348 10.0352 5.5459c3.52051 1.2334 6.86523 1.84961 10.0342 1.84961h76.5801
c8.09766 0 15.5791 -2.15723 22.4453 -6.4707c6.86621 -4.31445 12.7637 -9.86133 17.6934 -16.6396c4.92871 -6.7793 8.71387 -14.4824 11.3545 -23.1104s3.96094 -17.2559 3.96094 -25.8838s-2.37695 -15.8174 -7.12988 -21.5693s-10.0342 -10.8877 -15.8438 -15.4062
c-5.80957 -4.51953 -11.1787 -9.03906 -16.1074 -13.5586s-7.39355 -10.0654 -7.39355 -16.6387c0 -0.411133 0.175781 -0.822266 0.527344 -1.2334l0.52832 -1.23242c10.915 -4.51855 21.2139 -10.6816 30.8965 -18.4883
c9.68262 -7.80566 18.3086 -16.8438 25.8789 -27.1143c7.56934 -10.2715 13.6426 -21.5703 18.2197 -33.8955c4.22461 -11.915 6.33691 -24.8564 6.33691 -38.8252c0 -12.7363 -2.37695 -23.7266 -7.12988 -32.9707s-10.9141 -16.6396 -18.4834 -22.1855
s-16.0195 -9.75684 -25.3506 -12.6328s-18.5732 -4.31348 -27.7275 -4.31348c-8.80176 0.821289 -17.1641 1.74609 -25.0859 2.77344c-7.92285 1.02637 -16.6377 3.90234 -26.1445 8.62793c-9.50586 4.72461 -20.4209 12.2227 -32.7441 22.4932
c-12.3232 10.2715 -27.4629 24.8564 -45.4199 43.7559z" />
    <glyph glyph-name="acute" unicode="&#xb4;" horiz-adv-x="185" 
d="M9 427c0 14 5.33203 27.335 15.999 40.002s23.5 24.667 38.5 36s30.5 22 46.5 32c14.667 10 27.334 19 38.001 27c14 -6.66699 20.167 -14.667 18.5 -24s-8.66699 -20.333 -21 -33s-28.5 -27.334 -48.5 -44.001s-41 -36 -63 -58c-10 0 -16.667 1.66699 -20 5
s-5 9.66602 -5 18.999z" />
    <glyph glyph-name="mu" unicode="&#xb5;" horiz-adv-x="514" 
d="M384 145c-6.66699 -7.33301 -13.665 -16.998 -20.998 -28.998s-16.833 -23.667 -28.5 -35s-26 -21.833 -43 -31.5s-38.5 -15.834 -64.5 -18.501c-28.667 6 -52.334 13 -71.001 21s-34 17 -46 27s-21.333 21 -28 33c-6.66699 10.667 -10.667 22 -12 34l-2 -204l-53 -6
l2 421c-5.33301 36 -4.33301 64.167 3 84.5s16.166 33.333 26.499 39s19.166 4.33398 26.499 -3.99902s8.33301 -22.833 3 -43.5c-1.33301 -2.66699 -2.33301 -6.83398 -3 -12.501l-2 -17.5c-0.666992 -6 -1.33398 -11.667 -2.00098 -17s-1 -9 -1 -11
c0 -14 1.33301 -30.5 4 -49.5s6.83398 -38.833 12.501 -59.5s12.834 -41.167 21.501 -61.5s19 -38.5 31 -54.5s25.833 -29 41.5 -39s32.834 -15 51.501 -15c12 0 25.667 5.83301 41 17.5s29.833 25.667 43.5 42s25.334 33.166 35.001 50.499s14.5 32 14.5 44
c0 6.66699 0.166992 17.667 0.5 33s0.5 31.666 0.5 48.999s-0.166992 33.666 -0.5 48.999s-0.5 26 -0.5 32c4 6.66699 8.33301 11.834 13 15.501s10.334 5.5 17.001 5.5c8 0 14.667 -5.33301 20 -16s9.66602 -24.334 12.999 -41.001s5.66602 -34.667 6.99902 -54
s2.33301 -38 3 -56s1.33398 -33.833 2.00098 -47.5s1.66699 -22.834 3 -27.501c3.33301 -13.333 8.16602 -28.333 14.499 -45l18.5 -48.5l16 -43c4.66699 -13 7 -22.833 7 -29.5c0 -10 -2.83301 -16 -8.5 -18s-12.834 -3 -21.501 -3c-12 -1.33301 -21 1.83398 -27 9.50098
s-11.333 17.834 -16 30.501l-16 45.5c-6 17.667 -14.333 35.834 -25 54.501z" />
    <glyph glyph-name="paragraph" unicode="&#xb6;" horiz-adv-x="423" 
d="M330 -15c-3.33301 18 -5.49707 40.667 -6.49707 68s-1.33301 56.166 -1 86.499s1 61 2 92s1.5 59.5 1.5 85.5s-1.33301 48.333 -4 67c-2.66699 18 -6.66699 29.333 -12 34c-2.66699 1.33301 -6.33398 0.666016 -11.001 -2.00098s-8 -3 -10 -1
c-3.33301 -30.667 -6 -61.5 -8 -92.5s-3.5 -61.167 -4.5 -90.5s-1.5 -57 -1.5 -83s0.5 -49.333 1.5 -70s2 -37.667 3 -51s2.16699 -21.666 3.5 -24.999c0 -7.33301 -3.83301 -12.166 -11.5 -14.499s-16.834 -3.5 -27.501 -3.5c-7.33301 0 -12.5 6.83301 -15.5 20.5
s-4.83301 31 -5.5 52s-0.666992 43.667 0 68s1.16699 47.166 1.5 68.499s-0.333984 39 -2.00098 53s-5.16699 21.667 -10.5 23c-16 2.66699 -31.833 3.66699 -47.5 3s-30.667 -1.66699 -45 -3s-27.5 -1.5 -39.5 -0.5s-22.667 4.16699 -32 9.5s-16.333 14 -21 26s-7 29 -7 51
s3.33301 42.833 10 62.5s16.334 37.167 29.001 52.5s27.834 27.333 45.501 36s37.834 13 60.501 13c24 0 46.5 0.666992 67.5 2s40 1.5 57 0.5s31.5 -3.66699 43.5 -8s20.667 -12.166 26 -23.499c5.33301 -18 10 -40.333 14 -67s7.16699 -55.5 9.5 -86.5
s3.83301 -63 4.5 -96s0.666992 -64.667 0 -95s-2.33398 -58 -5.00098 -83s-6.33398 -45.5 -11.001 -61.5s-10.334 -26 -17.001 -30s-14.667 0.333008 -24 13z" />
    <glyph glyph-name="periodcentered" unicode="&#xb7;" horiz-adv-x="218" 
d="M50 238c0 3.33301 2 8.33203 6 14.999s8.66699 13.5 14 20.5s10.833 12.833 16.5 17.5s10.5 7 14.5 7c12.667 0 23.667 -2.16699 33 -6.5s17 -9.66602 23 -15.999s10.5 -13.5 13.5 -21.5s4.5 -15.333 4.5 -22c0 -4.66699 -2 -10 -6 -16s-9.33301 -11.667 -16 -17
s-14.167 -9.83301 -22.5 -13.5s-16.5 -5.5 -24.5 -5.5c-9.33301 0 -17.333 2.33301 -24 7s-12.5 10 -17.5 16s-8.66699 12.167 -11 18.5s-3.5 11.833 -3.5 16.5z" />
    <glyph glyph-name="cedilla" unicode="&#xb8;" horiz-adv-x="456" 
d="M154 -216c4 3.33301 7.6748 5.50195 11.0078 6.50195s7.66602 1.5 12.999 1.5c10.667 0 21 -3.16699 31 -9.5s19.667 -13.166 29 -20.499s18.5 -14.166 27.5 -20.499s18.5 -9.5 28.5 -9.5h30c9.33301 0 17.166 1.16699 23.499 3.5s11.333 7.33301 15 15
s5.5 19.5 5.5 35.5c0.666992 15.333 -1.83301 27.333 -7.5 36s-13.167 15.334 -22.5 20.001s-19.833 8 -31.5 10s-23.834 4.33301 -36.501 7s-25 6.16699 -37 10.5s-22.667 10.666 -32 18.999s-16.833 19.666 -22.5 33.999s-8.83398 33.166 -9.50098 56.499
c1.33301 17.333 3.5 29.666 6.5 36.999s6.83301 10.833 11.5 10.5s9.33398 -3.16602 14.001 -8.49902s8.5 -11.333 11.5 -18s4.83301 -13.334 5.5 -20.001c0 -6.66699 -1.33301 -11.334 -4 -14.001c0 -21.333 5.16699 -36.5 15.5 -45.5s23.166 -15.5 38.499 -19.5
s32 -7 50 -9s34.667 -6.5 50 -13.5s28.166 -17.833 38.499 -32.5s15.5 -36.334 15.5 -65.001c0 -16 -4.33301 -30 -13 -42s-19.334 -21.833 -32.001 -29.5s-26.834 -13.5 -42.501 -17.5s-30.167 -6 -43.5 -6c-19.333 0 -35.333 2.83301 -48 8.5s-23.834 13 -33.501 22
s-18.667 19.333 -27 31s-17.833 23.834 -28.5 36.501z" />
    <glyph glyph-name="onesuperior" unicode="&#xb9;" horiz-adv-x="202" 
d="M100.087 235.273l0.00292969 4.3125c0 1.99121 -0.114258 4.20312 -0.341797 6.63672s-0.341797 4.75684 -0.341797 6.96875v3.98242c0 4.4248 0.227539 10.8408 0.683594 19.248c0.455078 8.40723 1.13867 17.8096 2.0498 28.207s1.82227 21.3486 2.7334 32.8535
c0.911133 11.5039 1.82227 22.4551 2.7334 32.8525s1.59473 19.6895 2.05078 27.875c0.456055 8.18652 0.683594 14.7129 0.683594 19.5791v7.96484c0 2.65527 -0.341797 5.08887 -1.02539 7.30078s-1.93652 4.42383 -3.75977 6.63574
c-2.27832 1.77051 -5.24023 3.09766 -8.88574 3.98242c-1.82324 -1.77051 -5.0127 -5.19922 -9.56934 -10.2871l-15.0381 -17.5889c-5.46777 -6.63672 -11.6191 -13.6055 -18.4541 -20.9062s-13.3281 -13.9375 -19.4795 -19.9102
c-6.15234 -5.97363 -12.1904 -10.9512 -18.1143 -14.9336s-10.9365 -5.97363 -15.0371 -5.97363c-10.9365 0 -16.4053 5.53125 -16.4053 16.5928v3.98242c0.911133 0.884766 1.93652 2.21191 3.07617 3.98242l3.75879 5.64062l3.75977 5.30957
c1.13965 1.54883 2.16504 2.76562 3.07617 3.65039l125.086 127.43c3.64551 3.54004 6.60742 8.62891 8.88574 15.2666c2.27832 6.63672 4.21484 13.8262 5.80957 21.5693s3.07617 15.4863 4.44336 23.2295c1.36621 7.74316 3.0752 14.7119 5.12598 20.9062
s4.78516 11.2822 8.20215 15.2646c3.41797 3.98242 7.63281 5.97363 12.6455 5.97363c2.73438 0 5.24121 -0.22168 7.51953 -0.664062s4.10059 -2.21191 5.46777 -5.30859v-4.64551c0 -2.21289 0.114258 -4.53613 0.341797 -6.96973
c0.227539 -2.43262 0.341797 -4.75586 0.341797 -6.96875v-3.98145c0 -1.77051 -0.569336 -8.51855 -1.70898 -20.2441s-2.73438 -26.4375 -4.78418 -44.1357l-7.17773 -60.0645c-2.7334 -22.3447 -5.80957 -44.9102 -9.22754 -67.6973l-9.91113 -66.7012
c-3.19043 -21.6807 -6.6084 -40.9277 -10.2539 -57.7412s-7.06348 -30.4189 -10.2539 -40.8164c-3.19043 -10.3984 -6.15234 -15.5977 -8.88574 -15.5977c-4.55762 0 -8.31738 0.996094 -11.2793 2.9873s-5.80957 5.6416 -8.54297 10.9512z" />
    <glyph glyph-name="ordmasculine" unicode="&#xba;" horiz-adv-x="261" 
d="M7.99121 419.88c0 24.4229 3.78516 45.7383 11.3564 63.9443s17.5088 33.5254 29.8125 45.959s26.1055 21.6475 41.4053 27.6426c15.2998 5.99414 30.6787 8.99121 46.1367 8.99121c8.20215 0 15.8525 -2.10938 22.9512 -6.32715
c7.09863 -4.21875 13.8809 -9.99121 20.3477 -17.3184c6.46777 -7.32715 12.2256 -15.7637 17.2734 -25.3105s9.38574 -19.4268 13.0137 -29.6406c3.62793 -10.2129 6.38867 -20.5371 8.28125 -30.9727c1.89258 -10.4346 2.83887 -20.5371 2.83887 -30.3066
c0 -22.6465 -3.1543 -42.8506 -9.46387 -60.6123c-6.30957 -17.7627 -14.8271 -32.75 -25.5527 -44.9619c-10.7256 -12.2109 -22.8711 -21.5361 -36.4365 -27.9746s-27.4463 -9.6582 -41.6426 -9.6582c-14.5117 0 -27.8408 3.21973 -39.9863 9.6582
s-22.7139 15.4307 -31.7051 26.9756c-8.99121 11.5459 -16.0107 25.8662 -21.0586 42.9619c-5.04785 17.0967 -7.57129 36.0801 -7.57129 56.9502zM31.1777 425.209c0 -13.7656 1.81348 -26.9766 5.44141 -39.6318s8.67578 -23.6455 15.1436 -32.9707
c6.4668 -9.3252 14.1172 -16.7627 22.9502 -22.3135c8.83301 -5.5498 18.2969 -8.3252 28.3916 -8.3252c5.3623 -0.888672 11.9082 0.332031 19.6377 3.66309c7.72949 3.33008 15.459 8.21484 23.1885 14.6533c7.72852 6.43848 15.1416 14.209 22.2402 23.3115
c7.09863 9.10352 13.0137 19.0947 17.7451 29.9736c4.73242 10.8799 7.65039 22.2031 8.75488 33.9697c1.10449 11.7676 -0.31543 23.5352 -4.25879 35.3027c-3.94434 11.7666 -11.1211 23.0898 -21.5312 33.9697c-10.4111 10.8799 -24.7646 20.9824 -43.0615 30.3076
c-10.4111 0 -21.2158 -2.10938 -32.415 -6.32812c-11.1992 -4.21777 -21.373 -10.5459 -30.5215 -18.9834c-9.14844 -8.43652 -16.7197 -19.0938 -22.7139 -31.9717c-5.99414 -12.877 -8.99121 -27.7529 -8.99121 -44.627z" />
    <glyph glyph-name="guillemotright" unicode="&#xbb;" horiz-adv-x="675" 
d="M28 34c1.33301 6 7.83008 14.167 19.4971 24.5s26 21.666 43 33.999l57 40l61.5 42.5c20 14 38.833 28 56.5 42s31.5 27 41.5 39s15.667 22.667 17 32s-4 16 -16 20c-12 0.666992 -26.833 2.83398 -44.5 6.50098s-36.334 9 -56.001 16s-39.5 15 -59.5 24
s-38.333 18.5 -55 28.5s-30.667 20 -42 30s-18.666 19.667 -21.999 29c0 0.666992 -0.166992 2.16699 -0.5 4.5s-0.5 4.16602 -0.5 5.49902c0 8.66699 3.33301 14 10 16c5.33301 2.66699 12 4 20 4c10.667 0 19.834 -2.33301 27.501 -7s14.834 -10.167 21.501 -16.5
l21.5 -20c7.66699 -7 16.167 -12.167 25.5 -15.5c34.667 -13.333 72.167 -26.5 112.5 -39.5s79.833 -22.167 118.5 -27.5c10.667 -3.33301 16.667 -8.16602 18 -14.499s2 -13.5 2 -21.5c2.66699 -12 2 -23 -2 -33s-9.66699 -19.167 -17 -27.5s-15.5 -16.333 -24.5 -24
s-17.167 -15.5 -24.5 -23.5c-3.33301 -2.66699 -12.666 -9.66699 -27.999 -21l-53.5 -40l-65 -47.5l-64 -45.5l-50 -35c-13.667 -9.33301 -21.834 -14 -24.501 -14c-11.333 0 -18.166 3.5 -20.499 10.5s-3.5 15.167 -3.5 24.5zM255.997 59
c2 8 12.498 19.4951 31.498 34.4951s41.667 31.5 68 49.5l81.5 56.5c28 19.667 52.167 38.334 72.5 56.001s33.833 33.167 40.5 46.5s2 23.333 -14 30c-12 0.666992 -26.833 3 -44.5 7s-36.334 9.33301 -56.001 16s-39.5 14.5 -59.5 23.5s-38.167 18.5 -54.5 28.5
s-30.333 20 -42 30s-19.167 19.667 -22.5 29c0 0.666992 -0.166992 2.33398 -0.5 5.00098s-0.5 4.33398 -0.5 5.00098c0 8 3.33301 13.333 10 16c5.33301 2.66699 12 4 20 4c10.667 0 19.834 -2.33301 27.501 -7s14.834 -10 21.501 -16l21.5 -19.5
c7.66699 -7 16.167 -12.167 25.5 -15.5c34.667 -13.333 72 -26.666 112 -39.999c40.667 -13.333 80.334 -22.666 119.001 -27.999c10.667 -4 16.667 -9 18 -15s2 -13 2 -21c2.66699 -12 2 -22.833 -2 -32.5s-9.66699 -18.667 -17 -27s-15.5 -16.5 -24.5 -24.5
s-17.167 -16 -24.5 -24c-4 -2.66699 -13.5 -9.66699 -28.5 -21l-53 -39.5l-65 -47l-64 -45.5l-50 -35c-13.667 -9.33301 -21.834 -14 -24.501 -14c-11.333 0 -18.166 3.5 -20.499 10.5s-3.5 15.167 -3.5 24.5z" />
    <glyph glyph-name="onequarter" unicode="&#xbc;" horiz-adv-x="642" 
d="M129.217 311.02v4.23438c0 1.95215 -0.109375 4.12207 -0.329102 6.50977c-0.21875 2.38672 -0.328125 4.66504 -0.328125 6.83496v3.90625c0 4.33984 0.21875 10.6328 0.657227 18.8789c0.4375 8.24609 1.09473 17.4688 1.9707 27.668
c0.875977 10.1982 1.75195 20.9395 2.62793 32.2236s1.75195 22.0254 2.62793 32.2246c0.875977 10.1982 1.5332 19.3125 1.9707 27.3418c0.438477 8.0293 0.657227 14.4307 0.657227 19.2041v7.8125c0 2.60449 -0.328125 4.99121 -0.985352 7.16113
s-1.86133 4.33984 -3.61328 6.50977c-2.18945 1.73633 -5.03613 3.03809 -8.54004 3.90625c-1.75098 -1.73633 -4.81641 -5.09961 -9.19629 -10.0908l-14.4521 -17.252c-5.25586 -6.50977 -11.168 -13.3447 -17.7373 -20.5059s-12.8105 -13.6709 -18.7236 -19.5293
c-5.91211 -5.8584 -11.7148 -10.7412 -17.4082 -14.6475s-10.5107 -5.85938 -14.4521 -5.85938c-10.5107 0 -15.7656 5.4248 -15.7656 16.2754v3.90625c0.875977 0.868164 1.86133 2.16992 2.95605 3.90625l3.6123 5.5332l3.61328 5.20801
c1.09473 1.51855 2.08008 2.71191 2.95605 3.58008l120.217 124.992c3.50391 3.47168 6.35059 8.46289 8.54004 14.9736c2.19043 6.50977 4.05176 13.5625 5.58398 21.1572s2.95508 15.1895 4.26855 22.7842s2.95605 14.4307 4.92773 20.5068
c1.9707 6.0752 4.59863 11.0664 7.88281 14.9727s7.33496 5.85938 12.1523 5.85938c2.62793 0 5.03613 -0.216797 7.22559 -0.651367c2.19043 -0.43457 3.94238 -2.1709 5.25586 -5.20898v-4.55664c0 -2.1709 0.109375 -4.44922 0.328125 -6.83594
s0.328125 -4.66504 0.328125 -6.83594v-3.90527c0 -1.73633 -0.546875 -8.35449 -1.6416 -19.8555s-2.62793 -25.9316 -4.59863 -43.292l-6.89746 -58.916c-2.62793 -21.917 -5.58398 -44.0508 -8.86816 -66.4014l-9.52539 -65.4258
c-3.06543 -21.2666 -6.34961 -40.1455 -9.85254 -56.6377c-3.50293 -16.4912 -6.78711 -29.8369 -9.85254 -40.0361s-5.91211 -15.2988 -8.54004 -15.2988c-4.37988 0 -7.99316 0.976562 -10.8398 2.92969s-5.58398 5.5332 -8.21191 10.7412zM137.323 11.6826
c0 9.52051 1.59082 21.2471 4.76367 35.1875s7.07812 28.3906 11.7158 43.3516c4.6377 14.96 9.39746 29.0703 14.2793 42.3311l11.7168 31.1113l119.364 460.028c1.46484 9.52051 2.92969 21.4209 4.39355 35.7012c1.46484 14.2803 3.41797 28.2207 5.8584 41.8213
c2.44141 13.6006 5.61523 26.1807 9.52051 37.7412c3.90527 11.5596 9.03125 18.6992 15.3779 21.4189c4.39355 -1.36035 7.56738 -3.74023 9.52051 -7.14062c1.95215 -3.39941 3.29492 -7.47949 4.02734 -12.2402c0.732422 -4.75977 0.976562 -9.51953 0.732422 -14.2793
c-0.244141 -4.76074 -0.366211 -9.18066 -0.366211 -13.2607c0 -10.2002 -2.19727 -28.7305 -6.59082 -55.5908s-10.374 -58.4814 -17.9414 -94.8623s-16.3555 -76.1611 -26.3643 -119.342l-31.1221 -130.053c-10.7402 -43.5205 -21.7246 -85.5117 -32.9541 -125.973
c-11.2285 -40.46 -21.6025 -76.1602 -31.1221 -107.101c-9.52051 -30.9404 -18.1865 -55.9307 -25.998 -74.9707s-13.6699 -28.5605 -17.5752 -28.5605c-6.34668 0 -11.4727 4.08008 -15.3779 12.2402s-5.8584 15.6406 -5.8584 22.4404zM516.376 127.916
c-6.75781 -3.26465 -14.3672 -7.24805 -22.8135 -11.9424s-17.2549 -9.08203 -26.4258 -13.1631c-9.1709 -4.08203 -18.4619 -7.24512 -27.874 -9.49023s-18.7031 -2.55078 -27.874 -0.917969c-18.8232 0 -34.6309 4.3877 -47.4219 13.1631
c-12.79 8.77539 -23.167 19.7959 -31.1309 33.0615c-7.96387 13.2646 -13.6348 27.2441 -17.0127 41.9385c-3.37891 14.6934 -5.06836 28.1631 -5.06836 40.4082c0 13.4697 0.723633 25.5107 2.17188 36.123s3.74121 21.0205 6.87891 31.2246
s6.87891 20.7139 11.2236 31.5303l15.2041 37.041c0.964844 4.08105 3.61914 7.14258 7.96387 9.18359c4.34375 2.04102 9.16992 3.16309 14.4795 3.36719s10.1367 -0.509766 14.4814 -2.1416c4.34375 -1.63281 6.0332 -4.28613 5.06738 -7.95996
c0 -10.6123 -2.29297 -21.4287 -6.87793 -32.4492s-9.53223 -22.1426 -14.8418 -33.3672s-10.2568 -22.6533 -14.8418 -34.2861s-6.87793 -23.3672 -6.87793 -35.2041c0 -8.57129 1.32715 -17.959 3.98145 -28.1631c2.65527 -10.2041 6.75781 -19.5918 12.3086 -28.1631
s12.6699 -15.7139 21.3574 -21.4277c8.68848 -5.71387 19.0654 -8.57129 31.1318 -8.57129c16.4111 0 31.2529 3.36719 44.5264 10.1025c13.2734 6.73438 25.3398 15.1016 36.2002 25.1016s20.2725 20.918 28.2363 32.7549s14.7217 22.8574 20.2725 33.0615
s9.77441 18.5713 12.6699 25.1016c2.41309 6.53027 4.10254 9.7959 5.06738 9.7959c11.585 0 19.3076 -1.63281 23.168 -4.89746c3.37891 -3.26562 5.06836 -7.75586 5.06836 -13.4697c0 -8.16309 -1.08594 -17.3467 -3.25781 -27.5508s-4.70605 -20.6123 -7.60156 -31.2246
c-2.89648 -10.6123 -5.30957 -21.1221 -7.24023 -31.5303s-2.89648 -19.8984 -2.89648 -28.4697c0 -9.7959 0.723633 -19.5918 2.17188 -29.3877s3.1377 -19.5918 5.06836 -29.3877s3.62012 -19.4893 5.06836 -29.0811s2.17188 -19.082 2.17188 -28.4697
c0 -8.16309 -2.89648 -15.1016 -8.68848 -20.8154s-13.5146 -8.57129 -23.168 -8.57129c-6.27441 0 -10.7393 3.36719 -13.3936 10.1025c-2.65527 6.73438 -4.58594 15.2031 -5.79199 25.4072c-1.20703 10.2041 -1.81055 21.2246 -1.81055 33.0615
s-0.120117 22.8574 -0.361328 33.0615s-1.32715 18.6738 -3.25781 25.4092c-1.93066 6.73438 -5.06738 10.1016 -9.41113 10.1016z" />
    <glyph glyph-name="onehalf" unicode="&#xbd;" horiz-adv-x="580" 
d="M130.815 232.016l-0.00390625 5.20898c0 2.40234 -0.123047 5.07129 -0.369141 8.00781c-0.245117 2.93652 -0.368164 5.73926 -0.368164 8.4082v4.80469c0 5.33887 0.246094 13.0801 0.737305 23.2236s1.22754 21.4883 2.20996 34.0342
c0.981445 12.5459 1.96387 25.7588 2.94629 39.6387s1.96484 27.0928 2.94727 39.6387s1.71875 23.7568 2.20996 33.6328s0.736328 17.75 0.736328 23.6221v9.60938c0 3.20312 -0.368164 6.13965 -1.10449 8.80859c-0.737305 2.66895 -2.08789 5.33789 -4.05176 8.00684
c-2.45605 2.13574 -5.64844 3.7373 -9.57715 4.80469c-1.96484 -2.13574 -5.40234 -6.27344 -10.3135 -12.4131l-16.208 -21.2207c-5.89355 -8.00781 -12.5234 -16.416 -19.8906 -25.2246c-7.36621 -8.80859 -14.3652 -16.8164 -20.9961 -24.0234
c-6.62988 -7.20703 -13.1377 -13.2129 -19.5225 -18.0176c-6.38379 -4.80469 -11.7861 -7.20703 -16.207 -7.20703c-11.7871 0 -17.6807 6.67285 -17.6807 20.0195v4.80469c0.982422 1.06738 2.08789 2.66895 3.31543 4.80469l4.05176 6.80664l4.05176 6.40625
c1.22754 1.86816 2.33301 3.33594 3.31543 4.40332l134.814 153.75c3.92871 4.27051 7.12109 10.4102 9.57715 18.418s4.54297 16.6826 6.26172 26.0254c1.71973 9.34277 3.31641 18.6855 4.79004 28.0283s3.31543 17.751 5.52539 25.2246s5.15625 13.6133 8.83984 18.418
s8.22656 7.20703 13.6289 7.20703c2.94629 0 5.64746 -0.266602 8.10352 -0.800781s4.4209 -2.66992 5.89453 -6.40723v-5.60547c0 -2.66895 0.123047 -5.47168 0.368164 -8.4082c0.246094 -2.93652 0.369141 -5.73926 0.369141 -8.4082v-4.80469
c0 -2.13574 -0.614258 -10.2773 -1.8418 -24.4248s-2.94629 -31.8984 -5.15625 -53.2529l-7.73535 -72.4707c-2.94629 -26.96 -6.26172 -54.1865 -9.94531 -81.6797l-10.6816 -80.4785c-3.43848 -26.1592 -7.12207 -49.3818 -11.0508 -69.668
s-7.6123 -36.7021 -11.0508 -49.248c-3.4375 -12.5459 -6.62988 -18.8184 -9.57617 -18.8184c-4.91113 0 -8.96289 1.20117 -12.1553 3.60352s-6.26172 6.80664 -9.20801 13.2129zM135.739 -13.4521c0 9.48242 1.67578 21.1631 5.03027 35.0488
c3.35547 13.8848 7.48535 28.2783 12.3887 43.1797c4.9043 14.9014 9.9375 28.9561 15.0996 42.1641l12.3887 30.9883l126.209 458.212c1.54883 9.48242 3.09766 21.3359 4.64551 35.5596c1.54883 14.2236 3.61328 28.1084 6.19434 41.6543
c2.58105 13.5469 5.93652 26.0771 10.0664 37.5918s9.5498 18.627 16.2598 21.3369c4.64551 -1.35449 8.00098 -3.72559 10.0664 -7.1123c2.06445 -3.38574 3.4834 -7.44922 4.25781 -12.1904s1.03223 -9.48242 0.773438 -14.2236
c-0.257812 -4.74121 -0.386719 -9.14355 -0.386719 -13.207c0 -10.1602 -2.32324 -28.6172 -6.96875 -55.3721c-4.64551 -26.7539 -10.9688 -58.25 -18.9697 -94.4873s-17.292 -75.8604 -27.874 -118.87l-32.9072 -129.539
c-11.3564 -43.3486 -22.9707 -85.1738 -34.8438 -125.476c-11.8721 -40.3008 -22.8408 -75.8604 -32.9062 -106.679s-19.2275 -55.71 -27.4863 -74.6758c-8.25879 -18.9648 -14.4531 -28.4473 -18.583 -28.4473c-6.70996 0 -12.1299 4.06348 -16.2598 12.1914
s-6.19434 15.5791 -6.19434 22.3525zM417.908 25.1807c-15.1641 0 -29.8018 -1.35254 -43.9121 -4.06348c-14.1113 -2.71094 -28.96 -4.06641 -44.5449 -4.06641c-8.4248 0 -17.165 1.10938 -26.2207 3.32715c-9.05664 2.21777 -17.4814 5.91406 -25.2734 11.0889
c-7.79297 5.1748 -14.5322 11.8291 -20.2188 19.9619c-5.68652 8.13184 -9.16211 18.1123 -10.4258 29.9414c-0.842773 7.39355 0.105469 13.4316 2.84375 18.1143c2.7373 4.68262 6.31738 8.37891 10.7402 11.0898c4.42285 2.70996 9.37207 4.43457 14.8477 5.17383
s10.1094 1.10938 13.9004 1.10938c9.68848 0 19.2715 -1.72559 28.749 -5.17578s18.7441 -7.5166 27.8008 -12.1992c9.05566 -4.68262 18.2168 -8.87207 27.4834 -12.5684s18.9551 -5.54492 29.0645 -5.54492c8.8457 0 17.0596 3.4502 24.6416 10.3506
c7.58203 6.89941 14.4268 15.8945 20.5342 26.9844c6.1084 11.0898 11.4795 23.6582 16.1133 37.7051c4.63379 14.0479 8.4248 27.7256 11.373 41.0332s5.26465 25.7529 6.94922 37.3359s2.52734 20.5781 2.52734 26.9854c0 6.90039 -0.842773 17.0039 -2.52734 30.3115
s-4.42285 26.3691 -8.21387 39.1846c-3.79102 12.8145 -8.74023 24.0273 -14.8486 33.6387c-6.10742 9.61133 -14.0049 14.417 -23.6934 14.417c-8.8457 0 -15.4795 -3.69629 -19.9023 -11.0898s-7.89844 -15.6494 -10.4258 -24.7676l-7.26562 -26.2451
c-2.31738 -8.37891 -6.00293 -13.5547 -11.0576 -15.5264c-6.31836 4.92871 -10.0039 11.3359 -11.0576 19.2217c-1.05273 7.88574 -1.5791 15.2793 -1.5791 22.1797c0 9.85742 1.58008 19.0986 4.73926 27.7246c3.15918 8.625 7.6875 16.2646 13.585 22.9189
c5.89746 6.65332 12.8477 11.7051 20.8506 15.1553s16.4277 5.17578 25.2734 5.17578c14.7432 0 27.3799 -5.17578 37.9102 -15.5264s19.0596 -23.165 25.5879 -38.4443c6.5293 -15.2793 11.374 -31.5439 14.5332 -48.7949s4.73828 -32.2842 4.73828 -45.0996
c0 -12.8145 -0.31543 -24.1504 -0.947266 -34.0088c-0.631836 -9.85742 -1.89551 -19.4688 -3.79102 -28.833s-4.52832 -19.0986 -7.89844 -29.2031s-7.58203 -22.0566 -12.6367 -35.8574c-2.94824 -2.46387 -6.52832 -6.53027 -10.7402 -12.1982
s-8.21387 -11.7061 -12.0049 -18.1133s-7.05566 -12.6914 -9.79297 -18.8525c-2.73828 -6.16113 -4.10742 -11.2129 -4.10742 -15.1553c0 -4.92871 2.21191 -8.74805 6.63477 -11.458c4.42285 -2.71094 9.79297 -4.80566 16.1113 -6.28516
c6.31836 -1.47852 13.0576 -2.71094 20.2188 -3.69629s13.9004 -2.34082 20.2188 -4.06641c6.31836 -1.72461 11.6885 -4.43555 16.1113 -8.13184s6.63477 -8.99512 6.63477 -15.8955c0 -4.92871 -2.10645 -9.61133 -6.31836 -14.0469
c-3.37012 -4.92871 -7.58203 -7.39355 -12.6367 -7.39355c-9.2666 0 -18.4277 1.10938 -27.4834 3.32715c-9.05664 2.21777 -18.1133 4.68164 -27.1699 7.3916l-26.8525 7.76367c-8.8457 2.46387 -17.9023 3.69629 -27.1689 3.69629z" />
    <glyph glyph-name="threequarters" unicode="&#xbe;" horiz-adv-x="580" 
d="M12.5625 348.597c-0.352539 0.860352 -0.52832 1.50195 -0.52832 1.93164v3.86914c0 7.30762 1.67285 13.3252 5.01758 18.0527c3.34473 4.72852 8.00977 7.09277 13.9951 7.09277c2.46387 0 6.24902 -3.86816 11.3545 -11.6055s11.9717 -16.334 20.5977 -25.79
c8.62598 -9.45703 19.0127 -18.0537 31.1602 -25.791s26.4951 -11.6064 43.043 -11.6064c6.33789 0 12.6758 0.537109 19.0127 1.6123c6.33789 1.0752 11.9717 3.11719 16.9004 6.12598c4.92969 3.00879 8.97852 7.09277 12.1475 12.251s4.75293 11.8213 4.75293 19.9883
c0 18.0537 -3.69727 32.8838 -11.0908 44.4902s-16.8115 21.1709 -28.2539 28.6934c-11.4434 7.52246 -23.8545 13.2178 -37.2344 17.0869l-36.9688 10.9609c-11.2666 3.43848 -20.6855 6.66211 -28.2559 9.6709c-7.56934 3.00879 -11.3545 7.52246 -11.3545 13.541
c0 0.859375 0.175781 1.50391 0.527344 1.93457c0.352539 0.429688 0.52832 0.859375 0.52832 1.28906c0.704102 1.29004 2.28906 3.43945 4.75391 6.44824l5.28125 6.44727c3.52051 0.860352 8.80176 2.04297 15.8438 3.54785
c7.04199 1.50391 14.7002 3.43848 22.9746 5.80273s16.6367 5.26562 25.0869 8.7041s16.1963 7.41504 23.2383 11.9287c7.04199 4.5127 12.8516 9.88574 17.4287 16.1191s6.86523 13.4336 6.86523 21.6006c0 6.44824 -2.1123 11.7139 -6.33789 15.7979
c-4.22461 4.08301 -9.06543 7.30664 -14.5234 9.6709s-11.0918 3.86914 -16.9014 4.51367s-10.4746 0.966797 -13.9961 0.966797c-3.52051 0 -8.62598 -0.107422 -15.3154 -0.322266s-13.291 -0.859375 -19.8057 -1.93359
c-6.51367 -1.0752 -12.2354 -2.36523 -17.1641 -3.87012s-7.39355 -3.54688 -7.39355 -6.12598v-14.1855c-8.09863 0 -14.4365 2.36426 -19.0137 7.09277s-6.86523 12.0361 -6.86523 21.9229c0 4.29785 0.967773 8.16602 2.9043 11.6045s4.48926 6.44727 7.6582 9.02637
s6.51367 4.51367 10.0352 5.80371c3.52051 1.28906 6.86523 1.93359 10.0342 1.93359h76.5801c8.09766 0 15.5791 -2.25684 22.4453 -6.76953c6.86621 -4.51367 12.7637 -10.3164 17.6934 -17.4092c4.92871 -7.09277 8.71387 -15.1523 11.3545 -24.1787
c2.64062 -9.02734 3.96094 -18.0547 3.96094 -27.0811s-2.37695 -16.5488 -7.12988 -22.5674c-4.75293 -6.01758 -10.0342 -11.3906 -15.8438 -16.1191c-5.80957 -4.72754 -11.1787 -9.45605 -16.1074 -14.1846s-7.39355 -10.5312 -7.39355 -17.4092
c0 -0.429688 0.175781 -0.859375 0.527344 -1.28906l0.52832 -1.29004c10.915 -4.72852 21.2139 -11.1758 30.8965 -19.3428s18.3086 -17.624 25.8789 -28.3711c7.56934 -10.7461 13.6426 -22.5664 18.2197 -35.4619c4.22461 -12.4658 6.33691 -26.0059 6.33691 -40.6211
c0 -13.3252 -2.37695 -24.8232 -7.12988 -34.4941c-4.75293 -9.67188 -10.9141 -17.4092 -18.4834 -23.2119c-7.56934 -5.80371 -16.0195 -10.21 -25.3506 -13.2188s-18.5732 -4.51367 -27.7275 -4.51367c-8.80176 0.859375 -17.1641 1.82617 -25.0859 2.90137
c-7.92285 1.0752 -16.6377 4.08398 -26.1445 9.02637c-9.50586 4.94336 -20.4209 12.7881 -32.7441 23.5352c-12.3232 10.7461 -27.4629 26.0059 -45.4199 45.7783zM150.271 -43.0508c0 9.59473 1.5752 21.4229 4.72559 35.4727
c3.15137 14.0498 7.0293 28.6133 11.6338 43.6904s9.33008 29.2979 14.1768 42.6621l11.6328 31.3545l118.51 463.635c1.4541 9.59473 2.9082 21.5879 4.3623 35.9795s3.39258 28.4414 5.81543 42.1484c2.42383 13.707 5.57422 26.3857 9.45215 38.0371
c3.87793 11.6504 8.96777 18.8467 15.2695 21.5879c4.3623 -1.37012 7.5127 -3.76855 9.45117 -7.19531s3.27148 -7.53906 3.99902 -12.3369s0.969727 -9.5957 0.726562 -14.3936c-0.242188 -4.79785 -0.363281 -9.25293 -0.363281 -13.3652
c0 -10.2803 -2.18164 -28.9561 -6.54395 -56.0273s-10.2998 -58.9395 -17.8125 -95.6055s-16.2373 -76.7588 -26.1738 -120.277l-30.8994 -131.072c-10.6631 -43.8623 -21.5693 -86.1826 -32.7178 -126.961c-11.1475 -40.7783 -21.4473 -76.7588 -30.8994 -107.941
c-9.45117 -31.1836 -18.0547 -56.3701 -25.8096 -75.5596s-13.5713 -28.7842 -17.4492 -28.7842c-6.30176 0 -11.3916 4.1123 -15.2695 12.3359s-5.81641 15.7627 -5.81641 22.6162zM493.793 164.829c-5.60059 -3.52734 -11.9033 -7.82324 -18.9023 -12.8945
c-7 -5.07031 -14.2998 -9.81055 -21.8994 -14.2197s-15.2988 -7.82617 -23.0986 -10.251s-15.5 -2.75586 -23.0996 -0.992188c-15.5986 0 -28.6982 4.74023 -39.2979 14.2197s-19.1992 21.3838 -25.7988 35.7129c-6.60059 14.3301 -11.3008 29.4316 -14.1006 45.3047
s-4.2002 30.4238 -4.2002 43.6514c0 14.5498 0.599609 27.5566 1.7998 39.0205s3.10059 22.707 5.70117 33.7295c2.59961 11.0225 5.69922 22.376 9.2998 34.0605l12.5996 40.0137c0.799805 4.40918 3 7.71582 6.60059 9.91992
c3.59961 2.2041 7.59961 3.41699 11.999 3.6377c4.39941 0.219727 8.39941 -0.551758 12 -2.31543c3.59961 -1.76367 4.99902 -4.62988 4.19922 -8.59766c0 -11.4639 -1.89941 -23.1484 -5.69922 -35.0537s-7.89941 -23.9199 -12.2988 -36.0449
c-4.39941 -12.126 -8.49902 -24.4717 -12.2988 -37.0371c-3.7998 -12.5664 -5.69922 -25.2432 -5.69922 -38.0293c0 -9.25879 1.09961 -19.4004 3.2998 -30.4238c2.2002 -11.0225 5.59961 -21.1631 10.1992 -30.4219c4.60059 -9.25977 10.5 -16.9756 17.6992 -23.1484
c7.2002 -6.17285 15.7998 -9.25879 25.7988 -9.25879c13.5996 0 25.8994 3.6377 36.8984 10.9121c11 7.27539 21 16.3145 29.999 27.1162c9 10.8027 16.7998 22.5977 23.3994 35.3838s12.1992 24.6914 16.7988 35.7148c4.60059 11.0225 8.10059 20.0615 10.5 27.1162
c2 7.05469 3.39941 10.582 4.19922 10.582c9.60059 0 16 -1.76367 19.1992 -5.29102c2.7998 -3.52734 4.2002 -8.37695 4.2002 -14.5498c0 -8.81934 -0.900391 -18.7402 -2.7002 -29.7627s-3.89941 -22.2656 -6.29883 -33.7295
c-2.40039 -11.4639 -4.40039 -22.8174 -6 -34.0605c-1.60059 -11.2432 -2.40039 -21.4941 -2.40039 -30.7529c0 -10.582 0.599609 -21.1641 1.7998 -31.7461s2.60059 -21.1641 4.20117 -31.7461s3.00098 -21.0537 4.20117 -31.415
c1.2002 -10.3623 1.7998 -20.6133 1.7998 -30.7539c0 -8.81934 -2.40039 -16.3154 -7.2002 -22.4883s-11.1992 -9.25879 -19.1992 -9.25879c-5.2002 0 -8.90039 3.6377 -11.1006 10.9121c-2.2002 7.27539 -3.7998 16.4248 -4.7998 27.4473s-1.5 22.9277 -1.5 35.7148
c0 12.7861 -0.0996094 24.6904 -0.299805 35.7129s-1.10059 20.1719 -2.70117 27.4473c-1.59961 7.27539 -4.19922 10.9131 -7.79883 10.9131z" />
    <glyph glyph-name="questiondown" unicode="&#xbf;" horiz-adv-x="279" 
d="M108.036 732.226c0 -10.3496 -3.90625 -18.543 -11.7217 -24.5811c-7.81543 -6.03711 -17.7627 -9.05566 -29.8408 -9.05566c-11.3682 0 -19.5391 4.16895 -24.5127 12.5059s-7.45996 16.5303 -7.45996 24.5801c0 6.3252 2.66406 12.7939 7.99219 19.4062
c5.3291 6.6123 13.3223 9.91895 23.9795 9.91895c14.21 0 24.6895 -3.01855 31.4395 -9.05664c6.74902 -6.03711 10.124 -13.9434 10.124 -23.7178zM219.939 433.805c0 -17.25 -3.37598 -33.9277 -10.126 -50.0273c-6.74902 -16.0996 -15.0967 -31.9121 -25.043 -47.4365
c-9.94727 -15.5244 -20.6045 -31.0488 -31.9727 -46.5732s-22.0254 -31.1934 -31.9717 -47.0059c-9.94727 -15.8125 -18.1182 -32.0557 -24.5117 -48.7305c-6.39453 -16.6748 -9.5918 -34.2119 -9.5918 -52.6113c0 -29.8994 9.94727 -52.1807 29.8408 -66.8438
c19.8936 -14.6621 47.958 -21.9932 84.1934 -21.9932c14.21 0 29.1299 2.875 44.7598 8.625c15.6309 5.75 27.3545 13.7998 35.1699 24.1494c4.2627 -0.575195 7.28223 -2.2998 9.05859 -5.1748s2.8418 -6.03711 3.19727 -9.4873s0.355469 -6.6123 0 -9.4873
s-0.533203 -4.8877 -0.533203 -6.03711c0 -9.2002 -3.55273 -17.1064 -10.6572 -23.7188s-15.9854 -11.9307 -26.6426 -15.9551s-21.8477 -7.18652 -33.5713 -9.48633s-22.5586 -3.4502 -32.5049 -3.4502c-26.999 0 -50.623 4.45605 -70.8721 13.3691
c-20.249 8.91211 -37.3008 20.6992 -51.1553 35.3613c-13.8545 14.6631 -24.334 31.0508 -31.4385 49.1631s-10.6572 36.6562 -10.6572 55.6318c0 21.8496 4.44043 44.5615 13.3213 68.1357c8.88184 23.5752 20.25 46.7188 34.1045 69.4307s28.4199 44.5615 43.6953 65.5488
l42.0967 57.3555c-1.4209 2.2998 -3.19727 4.8877 -5.3291 7.7627s-6.75 5.46289 -13.8545 7.7627s-17.2285 4.59961 -30.3721 6.89941s-30.7285 4.59961 -52.7539 6.89941c-3.55273 0 -6.75 1.14941 -9.5918 3.44922s-5.15137 5.03125 -6.92773 8.19434
c-1.77637 3.16211 -3.01953 6.46777 -3.72949 9.91797c-0.709961 4.02539 -1.06543 7.1875 -1.06543 9.4873c0 5.1748 2.30859 8.76855 6.92676 10.7812s10.4795 3.4502 17.584 4.3125s14.0312 1.14941 20.7803 0.861328
c6.75 -0.287109 12.2568 -0.430664 16.5195 -0.430664c10.6572 0 23.0908 -0.71875 37.3008 -2.15625s27.709 -4.3125 40.4971 -8.625c12.7891 -4.3125 23.624 -10.2061 32.5059 -17.6807c8.88086 -7.47559 13.3213 -17.5381 13.3213 -30.1875z" />
    <glyph glyph-name="Agrave" unicode="&#xc0;" horiz-adv-x="576" 
d="M470 23c0 11.333 1.00195 22.833 3.00195 34.5s4.33301 23.334 7 35.001s5 23.5 7 35.5s3 24 3 36c0 18.667 -0.666992 38.667 -2 60s-4.66602 41.666 -9.99902 60.999c-18.667 -4 -37.834 -5.5 -57.501 -4.5s-39.334 2.83301 -59.001 5.5l-59.5 8
c-20 2.66699 -40 4 -60 4h-28.5c-13 0 -26.333 -0.333008 -40 -1s-26.167 -1.66699 -37.5 -3c-10.667 -1.33301 -17.334 -3.33301 -20.001 -6l-10 -9c0 -0.666992 -0.166992 -2.16699 -0.5 -4.5s-0.5 -5.16602 -0.5 -8.49902s-0.166992 -6.66602 -0.5 -9.99902
s-0.5 -6 -0.5 -8c0 -19.333 1.5 -38.833 4.5 -58.5s6.33301 -38.834 10 -57.501l10.5 -56c3.33301 -18.667 5 -37.334 5 -56.001v-10c-10 -9.33301 -19 -12.5 -27 -9.5s-15.167 10.333 -21.5 22s-11.666 26.667 -15.999 45s-7.66602 38.333 -9.99902 60
s-3.66602 43.834 -3.99902 66.501s0.5 44.667 2.5 66c-1.33301 1.33301 -4 4.16602 -8 8.49902s-8 9 -12 14l-12 14.5c-2.66699 4.66699 -4.66699 8.33398 -6 11.001l-1 2v2c0 4.66699 1.16699 8 3.5 10s5.16602 3.5 8.49902 4.5s6.66602 2.16699 9.99902 3.5
s6 3.66602 8 6.99902v5v8.5v8.5v5c2.66699 28 4.83398 57.833 6.50098 89.5s4.66699 62.667 9 93s11 59.5 20 87.5s21.5 52.667 37.5 74s36.333 38.333 61 51s55.667 19 93 19c29.333 0 55.833 -7 79.5 -21s44.667 -32.833 63 -56.5s34.333 -51 48 -82
s25.167 -63.833 34.5 -98.5s17.166 -69.667 23.499 -105s11.166 -69 14.499 -101s5.66602 -61.333 6.99902 -88s2 -48.667 2 -66v-34c0 -10 -0.5 -19.833 -1.5 -29.5l-3 -30.5c-1 -10.667 -2.83301 -23 -5.5 -37c-5.33301 -7.33301 -12.166 -14.166 -20.499 -20.499
s-17.5 -9.5 -27.5 -9.5c-8.66699 0 -14.167 2.16699 -16.5 6.5s-3.5 10.166 -3.5 17.499zM446.002 326c2 0 4.50098 0.167969 7.50098 0.500977s5.5 2 7.5 5s4 7.83301 6 14.5s3.66699 16 5 28c0 19.333 -1.83301 41.5 -5.5 66.5s-9.16699 50.833 -16.5 77.5
s-16.833 52.667 -28.5 78s-25.5 48 -41.5 68s-34.5 36 -55.5 48s-44.5 18 -70.5 18c-27.333 0 -50.333 -7.16699 -69 -21.5s-33.834 -33 -45.501 -56s-20.667 -48.833 -27 -77.5s-10.833 -57.334 -13.5 -86.001s-4.16699 -55.667 -4.5 -81s-0.5 -46 -0.5 -62z
M282.003 928.001c8 -6.66699 14.165 -12.0029 18.498 -16.0029l12 -11l12 -11c4.33301 -4 10.5 -9.33301 18.5 -16c1.33301 -1.33301 3.33301 -4.33301 6 -9s4 -7.66699 4 -9c0 -13.333 -2.33301 -21.666 -7 -24.999c-5.33301 -3.33301 -12.666 -5 -21.999 -5
c-1.33301 0 -3 0.333008 -5 1s-6.33301 3.5 -13 8.5s-15.667 12.333 -27 22s-26.333 23.5 -45 41.5c-5.33301 7.33301 -10.166 15.333 -14.499 24s-6 15.334 -5 20.001s6.5 6.33398 16.5 5.00098s27 -8 51 -20z" />
    <glyph glyph-name="Aacute" unicode="&#xc1;" horiz-adv-x="576" 
d="M470 23c0 11.333 1.00195 22.833 3.00195 34.5s4.33301 23.334 7 35.001s5 23.5 7 35.5s3 24 3 36c0 18.667 -0.666992 38.667 -2 60s-4.66602 41.666 -9.99902 60.999c-18.667 -4 -37.834 -5.5 -57.501 -4.5s-39.334 2.83301 -59.001 5.5l-59.5 8
c-20 2.66699 -40 4 -60 4h-28.5c-13 0 -26.333 -0.333008 -40 -1s-26.167 -1.66699 -37.5 -3c-10.667 -1.33301 -17.334 -3.33301 -20.001 -6l-10 -9c0 -0.666992 -0.166992 -2.16699 -0.5 -4.5s-0.5 -5.16602 -0.5 -8.49902s-0.166992 -6.66602 -0.5 -9.99902
s-0.5 -6 -0.5 -8c0 -19.333 1.5 -38.833 4.5 -58.5s6.33301 -38.834 10 -57.501l10.5 -56c3.33301 -18.667 5 -37.334 5 -56.001v-10c-10 -9.33301 -19 -12.5 -27 -9.5s-15.167 10.333 -21.5 22s-11.666 26.667 -15.999 45s-7.66602 38.333 -9.99902 60
s-3.66602 43.834 -3.99902 66.501s0.5 44.667 2.5 66c-1.33301 1.33301 -4 4.16602 -8 8.49902s-8 9 -12 14l-12 14.5c-2.66699 4.66699 -4.66699 8.33398 -6 11.001l-1 2v2c0 4.66699 1.16699 8 3.5 10s5.16602 3.5 8.49902 4.5s6.66602 2.16699 9.99902 3.5
s6 3.66602 8 6.99902v5v8.5v8.5v5c2.66699 28 4.83398 57.833 6.50098 89.5s4.66699 62.667 9 93s11 59.5 20 87.5s21.5 52.667 37.5 74s36.333 38.333 61 51s55.667 19 93 19c29.333 0 55.833 -7 79.5 -21s44.667 -32.833 63 -56.5s34.333 -51 48 -82
s25.167 -63.833 34.5 -98.5s17.166 -69.667 23.499 -105s11.166 -69 14.499 -101s5.66602 -61.333 6.99902 -88s2 -48.667 2 -66v-34c0 -10 -0.5 -19.833 -1.5 -29.5l-3 -30.5c-1 -10.667 -2.83301 -23 -5.5 -37c-5.33301 -7.33301 -12.166 -14.166 -20.499 -20.499
s-17.5 -9.5 -27.5 -9.5c-8.66699 0 -14.167 2.16699 -16.5 6.5s-3.5 10.166 -3.5 17.499zM446.002 326c2 0 4.50098 0.167969 7.50098 0.500977s5.5 2 7.5 5s4 7.83301 6 14.5s3.66699 16 5 28c0 19.333 -1.83301 41.5 -5.5 66.5s-9.16699 50.833 -16.5 77.5
s-16.833 52.667 -28.5 78s-25.5 48 -41.5 68s-34.5 36 -55.5 48s-44.5 18 -70.5 18c-27.333 0 -50.333 -7.16699 -69 -21.5s-33.834 -33 -45.501 -56s-20.667 -48.833 -27 -77.5s-10.833 -57.334 -13.5 -86.001s-4.16699 -55.667 -4.5 -81s-0.5 -46 -0.5 -62z
M143.003 821.001c0 14 5.33203 27.335 15.999 40.002s23.5 24.667 38.5 36s30.5 22 46.5 32c14.667 10 27.334 19 38.001 27c14 -6.66699 20.167 -14.667 18.5 -24s-8.66699 -20.333 -21 -33s-28.5 -27.334 -48.5 -44.001s-41 -36 -63 -58c-10 0 -16.667 1.66699 -20 5
s-5 9.66602 -5 18.999z" />
    </font>
</defs>
</svg>
